<?xml version="1.0" encoding="UTF-8"?>
<svg xmlns="http://www.w3.org/2000/svg" viewBox="0 0 400 400" width="400" height="400">
<rect width="400" height="400" fill="#FAFAF5"/>
<polygon points="200.00,15.00 234.44,116.85 330.81,69.19 283.15,165.56 385.00,200.00 283.15,234.44 330.81,330.81 234.44,283.15 200.00,385.00 165.56,283.15 69.19,330.81 116.85,234.44 15.00,200.00 116.85,165.56 69.19,69.19 165.56,116.85" fill="#FAFAF5" stroke="#2a2a3a" stroke-width="1.5" stroke-linejoin="round"/>
<polygon points="200.00,45.00 247.84,84.52 309.60,90.40 315.48,152.16 355.00,200.00 315.48,247.84 309.60,309.60 247.84,315.48 200.00,355.00 152.16,315.48 90.40,309.60 84.52,247.84 45.00,200.00 84.52,152.16 90.40,90.40 152.16,84.52" fill="#FAFAF5" stroke="#2a2a3a" stroke-width="1.5" stroke-linejoin="round"/>
<polygon points="200.00,75.00 236.35,112.23 288.39,111.61 287.77,163.65 325.00,200.00 287.77,236.35 288.39,288.39 236.35,287.77 200.00,325.00 163.65,287.77 111.61,288.39 112.23,236.35 75.00,200.00 112.23,163.65 111.61,111.61 163.65,112.23" fill="#FAFAF5" stroke="#2a2a3a" stroke-width="1.5" stroke-linejoin="round"/>
<polygon points="200.00,105.00 224.87,139.95 267.18,132.82 260.05,175.13 295.00,200.00 260.05,224.87 267.18,267.18 224.87,260.05 200.00,295.00 175.13,260.05 132.82,267.18 139.95,224.87 105.00,200.00 139.95,175.13 132.82,132.82 175.13,139.95" fill="#FAFAF5" stroke="#2a2a3a" stroke-width="1.5" stroke-linejoin="round"/>
<polygon points="200.00,135.00 213.39,167.66 245.96,154.04 232.34,186.61 265.00,200.00 232.34,213.39 245.96,245.96 213.39,232.34 200.00,265.00 186.61,232.34 154.04,245.96 167.66,213.39 135.00,200.00 167.66,186.61 154.04,154.04 186.61,167.66" fill="#FAFAF5" stroke="#2a2a3a" stroke-width="1.5" stroke-linejoin="round"/>
</svg>