<?xml version="1.0" encoding="UTF-8"?>
<svg xmlns="http://www.w3.org/2000/svg" viewBox="0 0 400 400" width="400" height="400">
<rect width="400" height="400" fill="#FAFAF5"/>
<polygon points="200.00,180.00 217.32,210.00 182.68,210.00" fill="#FAFAF5" stroke="#2a2a3a" stroke-width="0.8" stroke-linejoin="round"/>
<polygon points="200.00,152.00 248.00,200.00 200.00,248.00 152.00,200.00" fill="#FAFAF5" stroke="#2a2a3a" stroke-width="0.8" stroke-linejoin="round"/>
<polygon points="200.00,124.00 272.28,176.51 244.67,261.49 155.33,261.49 127.72,176.51" fill="#FAFAF5" stroke="#2a2a3a" stroke-width="0.8" stroke-linejoin="round"/>
<polygon points="200.00,96.00 290.07,148.00 290.07,252.00 200.00,304.00 109.93,252.00 109.93,148.00" fill="#FAFAF5" stroke="#2a2a3a" stroke-width="0.8" stroke-linejoin="round"/>
<polygon points="200.00,40.00 313.14,86.86 360.00,200.00 313.14,313.14 200.00,360.00 86.86,313.14 40.00,200.00 86.86,86.86" fill="#FAFAF5" stroke="#2a2a3a" stroke-width="0.8" stroke-linejoin="round"/>
<polygon points="200.00,-72.00 336.00,-35.56 435.56,64.00 472.00,200.00 435.56,336.00 336.00,435.56 200.00,472.00 64.00,435.56 -35.56,336.00 -72.00,200.00 -35.56,64.00 64.00,-35.56" fill="#FAFAF5" stroke="#2a2a3a" stroke-width="0.8" stroke-linejoin="round"/>
<line x1="200.0" y1="180.0" x2="200.0" y2="10.0" stroke="#2a2a3a" stroke-width="0.8"/>
<line x1="203.5" y1="180.3" x2="233.0" y2="12.9" stroke="#2a2a3a" stroke-width="0.8"/>
<line x1="206.8" y1="181.2" x2="265.0" y2="21.5" stroke="#2a2a3a" stroke-width="0.8"/>
<line x1="210.0" y1="182.7" x2="295.0" y2="35.5" stroke="#2a2a3a" stroke-width="0.8"/>
<line x1="212.9" y1="184.7" x2="322.1" y2="54.5" stroke="#2a2a3a" stroke-width="0.8"/>
<line x1="215.3" y1="187.1" x2="345.5" y2="77.9" stroke="#2a2a3a" stroke-width="0.8"/>
<line x1="217.3" y1="190.0" x2="364.5" y2="105.0" stroke="#2a2a3a" stroke-width="0.8"/>
<line x1="218.8" y1="193.2" x2="378.5" y2="135.0" stroke="#2a2a3a" stroke-width="0.8"/>
<line x1="219.7" y1="196.5" x2="387.1" y2="167.0" stroke="#2a2a3a" stroke-width="0.8"/>
<line x1="220.0" y1="200.0" x2="390.0" y2="200.0" stroke="#2a2a3a" stroke-width="0.8"/>
<line x1="219.7" y1="203.5" x2="387.1" y2="233.0" stroke="#2a2a3a" stroke-width="0.8"/>
<line x1="218.8" y1="206.8" x2="378.5" y2="265.0" stroke="#2a2a3a" stroke-width="0.8"/>
<line x1="217.3" y1="210.0" x2="364.5" y2="295.0" stroke="#2a2a3a" stroke-width="0.8"/>
<line x1="215.3" y1="212.9" x2="345.5" y2="322.1" stroke="#2a2a3a" stroke-width="0.8"/>
<line x1="212.9" y1="215.3" x2="322.1" y2="345.5" stroke="#2a2a3a" stroke-width="0.8"/>
<line x1="210.0" y1="217.3" x2="295.0" y2="364.5" stroke="#2a2a3a" stroke-width="0.8"/>
<line x1="206.8" y1="218.8" x2="265.0" y2="378.5" stroke="#2a2a3a" stroke-width="0.8"/>
<line x1="203.5" y1="219.7" x2="233.0" y2="387.1" stroke="#2a2a3a" stroke-width="0.8"/>
<line x1="200.0" y1="220.0" x2="200.0" y2="390.0" stroke="#2a2a3a" stroke-width="0.8"/>
<line x1="196.5" y1="219.7" x2="167.0" y2="387.1" stroke="#2a2a3a" stroke-width="0.8"/>
<line x1="193.2" y1="218.8" x2="135.0" y2="378.5" stroke="#2a2a3a" stroke-width="0.8"/>
<line x1="190.0" y1="217.3" x2="105.0" y2="364.5" stroke="#2a2a3a" stroke-width="0.8"/>
<line x1="187.1" y1="215.3" x2="77.9" y2="345.5" stroke="#2a2a3a" stroke-width="0.8"/>
<line x1="184.7" y1="212.9" x2="54.5" y2="322.1" stroke="#2a2a3a" stroke-width="0.8"/>
<line x1="182.7" y1="210.0" x2="35.5" y2="295.0" stroke="#2a2a3a" stroke-width="0.8"/>
<line x1="181.2" y1="206.8" x2="21.5" y2="265.0" stroke="#2a2a3a" stroke-width="0.8"/>
<line x1="180.3" y1="203.5" x2="12.9" y2="233.0" stroke="#2a2a3a" stroke-width="0.8"/>
<line x1="180.0" y1="200.0" x2="10.0" y2="200.0" stroke="#2a2a3a" stroke-width="0.8"/>
<line x1="180.3" y1="196.5" x2="12.9" y2="167.0" stroke="#2a2a3a" stroke-width="0.8"/>
<line x1="181.2" y1="193.2" x2="21.5" y2="135.0" stroke="#2a2a3a" stroke-width="0.8"/>
<line x1="182.7" y1="190.0" x2="35.5" y2="105.0" stroke="#2a2a3a" stroke-width="0.8"/>
<line x1="184.7" y1="187.1" x2="54.5" y2="77.9" stroke="#2a2a3a" stroke-width="0.8"/>
<line x1="187.1" y1="184.7" x2="77.9" y2="54.5" stroke="#2a2a3a" stroke-width="0.8"/>
<line x1="190.0" y1="182.7" x2="105.0" y2="35.5" stroke="#2a2a3a" stroke-width="0.8"/>
<line x1="193.2" y1="181.2" x2="135.0" y2="21.5" stroke="#2a2a3a" stroke-width="0.8"/>
<line x1="196.5" y1="180.3" x2="167.0" y2="12.9" stroke="#2a2a3a" stroke-width="0.8"/>
</svg>