<?xml version="1.0" encoding="UTF-8"?>
<svg xmlns="http://www.w3.org/2000/svg" viewBox="0 0 400 400" width="400" height="400">
<rect width="400" height="400" fill="#FAFAF5"/>
<polygon points="38.0,21.0 55.0,38.0 38.0,55.0 21.0,38.0" fill="#FAFAF5" stroke="#2a2a3a" stroke-width="0.8" stroke-linejoin="round"/>
<polygon points="74.0,21.0 91.0,38.0 74.0,55.0 57.0,38.0" fill="#FAFAF5" stroke="#2a2a3a" stroke-width="0.8" stroke-linejoin="round"/>
<polygon points="110.0,21.0 127.0,38.0 110.0,55.0 93.0,38.0" fill="#FAFAF5" stroke="#2a2a3a" stroke-width="0.8" stroke-linejoin="round"/>
<polygon points="146.0,21.0 163.0,38.0 146.0,55.0 129.0,38.0" fill="#FAFAF5" stroke="#2a2a3a" stroke-width="0.8" stroke-linejoin="round"/>
<polygon points="182.0,21.0 199.0,38.0 182.0,55.0 165.0,38.0" fill="#FAFAF5" stroke="#2a2a3a" stroke-width="0.8" stroke-linejoin="round"/>
<polygon points="218.0,21.0 235.0,38.0 218.0,55.0 201.0,38.0" fill="#FAFAF5" stroke="#2a2a3a" stroke-width="0.8" stroke-linejoin="round"/>
<polygon points="254.0,21.0 271.0,38.0 254.0,55.0 237.0,38.0" fill="#FAFAF5" stroke="#2a2a3a" stroke-width="0.8" stroke-linejoin="round"/>
<polygon points="290.0,21.0 307.0,38.0 290.0,55.0 273.0,38.0" fill="#FAFAF5" stroke="#2a2a3a" stroke-width="0.8" stroke-linejoin="round"/>
<polygon points="326.0,21.0 343.0,38.0 326.0,55.0 309.0,38.0" fill="#FAFAF5" stroke="#2a2a3a" stroke-width="0.8" stroke-linejoin="round"/>
<polygon points="362.0,21.0 379.0,38.0 362.0,55.0 345.0,38.0" fill="#FAFAF5" stroke="#2a2a3a" stroke-width="0.8" stroke-linejoin="round"/>
<polygon points="38.0,57.0 55.0,74.0 38.0,91.0 21.0,74.0" fill="#FAFAF5" stroke="#2a2a3a" stroke-width="0.8" stroke-linejoin="round"/>
<polygon points="74.0,57.0 91.0,74.0 74.0,91.0 57.0,74.0" fill="#FAFAF5" stroke="#2a2a3a" stroke-width="0.8" stroke-linejoin="round"/>
<polygon points="110.0,57.0 127.0,74.0 110.0,91.0 93.0,74.0" fill="#FAFAF5" stroke="#2a2a3a" stroke-width="0.8" stroke-linejoin="round"/>
<polygon points="146.0,57.0 163.0,74.0 146.0,91.0 129.0,74.0" fill="#FAFAF5" stroke="#2a2a3a" stroke-width="0.8" stroke-linejoin="round"/>
<polygon points="182.0,57.0 199.0,74.0 182.0,91.0 165.0,74.0" fill="#FAFAF5" stroke="#2a2a3a" stroke-width="0.8" stroke-linejoin="round"/>
<polygon points="218.0,57.0 235.0,74.0 218.0,91.0 201.0,74.0" fill="#FAFAF5" stroke="#2a2a3a" stroke-width="0.8" stroke-linejoin="round"/>
<polygon points="254.0,57.0 271.0,74.0 254.0,91.0 237.0,74.0" fill="#FAFAF5" stroke="#2a2a3a" stroke-width="0.8" stroke-linejoin="round"/>
<polygon points="290.0,57.0 307.0,74.0 290.0,91.0 273.0,74.0" fill="#FAFAF5" stroke="#2a2a3a" stroke-width="0.8" stroke-linejoin="round"/>
<polygon points="326.0,57.0 343.0,74.0 326.0,91.0 309.0,74.0" fill="#FAFAF5" stroke="#2a2a3a" stroke-width="0.8" stroke-linejoin="round"/>
<polygon points="362.0,57.0 379.0,74.0 362.0,91.0 345.0,74.0" fill="#FAFAF5" stroke="#2a2a3a" stroke-width="0.8" stroke-linejoin="round"/>
<polygon points="38.0,93.0 55.0,110.0 38.0,127.0 21.0,110.0" fill="#FAFAF5" stroke="#2a2a3a" stroke-width="0.8" stroke-linejoin="round"/>
<polygon points="74.0,93.0 91.0,110.0 74.0,127.0 57.0,110.0" fill="#FAFAF5" stroke="#2a2a3a" stroke-width="0.8" stroke-linejoin="round"/>
<polygon points="110.0,93.0 127.0,110.0 110.0,127.0 93.0,110.0" fill="#FAFAF5" stroke="#2a2a3a" stroke-width="0.8" stroke-linejoin="round"/>
<polygon points="146.0,93.0 163.0,110.0 146.0,127.0 129.0,110.0" fill="#FAFAF5" stroke="#2a2a3a" stroke-width="0.8" stroke-linejoin="round"/>
<polygon points="182.0,93.0 199.0,110.0 182.0,127.0 165.0,110.0" fill="#FAFAF5" stroke="#2a2a3a" stroke-width="0.8" stroke-linejoin="round"/>
<polygon points="218.0,93.0 235.0,110.0 218.0,127.0 201.0,110.0" fill="#FAFAF5" stroke="#2a2a3a" stroke-width="0.8" stroke-linejoin="round"/>
<polygon points="254.0,93.0 271.0,110.0 254.0,127.0 237.0,110.0" fill="#FAFAF5" stroke="#2a2a3a" stroke-width="0.8" stroke-linejoin="round"/>
<polygon points="290.0,93.0 307.0,110.0 290.0,127.0 273.0,110.0" fill="#FAFAF5" stroke="#2a2a3a" stroke-width="0.8" stroke-linejoin="round"/>
<polygon points="326.0,93.0 343.0,110.0 326.0,127.0 309.0,110.0" fill="#FAFAF5" stroke="#2a2a3a" stroke-width="0.8" stroke-linejoin="round"/>
<polygon points="362.0,93.0 379.0,110.0 362.0,127.0 345.0,110.0" fill="#FAFAF5" stroke="#2a2a3a" stroke-width="0.8" stroke-linejoin="round"/>
<polygon points="38.0,129.0 55.0,146.0 38.0,163.0 21.0,146.0" fill="#FAFAF5" stroke="#2a2a3a" stroke-width="0.8" stroke-linejoin="round"/>
<polygon points="74.0,129.0 91.0,146.0 74.0,163.0 57.0,146.0" fill="#FAFAF5" stroke="#2a2a3a" stroke-width="0.8" stroke-linejoin="round"/>
<polygon points="110.0,129.0 127.0,146.0 110.0,163.0 93.0,146.0" fill="#FAFAF5" stroke="#2a2a3a" stroke-width="0.8" stroke-linejoin="round"/>
<polygon points="146.0,129.0 163.0,146.0 146.0,163.0 129.0,146.0" fill="#FAFAF5" stroke="#2a2a3a" stroke-width="0.8" stroke-linejoin="round"/>
<polygon points="182.0,129.0 199.0,146.0 182.0,163.0 165.0,146.0" fill="#FAFAF5" stroke="#2a2a3a" stroke-width="0.8" stroke-linejoin="round"/>
<polygon points="218.0,129.0 235.0,146.0 218.0,163.0 201.0,146.0" fill="#FAFAF5" stroke="#2a2a3a" stroke-width="0.8" stroke-linejoin="round"/>
<polygon points="254.0,129.0 271.0,146.0 254.0,163.0 237.0,146.0" fill="#FAFAF5" stroke="#2a2a3a" stroke-width="0.8" stroke-linejoin="round"/>
<polygon points="290.0,129.0 307.0,146.0 290.0,163.0 273.0,146.0" fill="#FAFAF5" stroke="#2a2a3a" stroke-width="0.8" stroke-linejoin="round"/>
<polygon points="326.0,129.0 343.0,146.0 326.0,163.0 309.0,146.0" fill="#FAFAF5" stroke="#2a2a3a" stroke-width="0.8" stroke-linejoin="round"/>
<polygon points="362.0,129.0 379.0,146.0 362.0,163.0 345.0,146.0" fill="#FAFAF5" stroke="#2a2a3a" stroke-width="0.8" stroke-linejoin="round"/>
<polygon points="38.0,165.0 55.0,182.0 38.0,199.0 21.0,182.0" fill="#FAFAF5" stroke="#2a2a3a" stroke-width="0.8" stroke-linejoin="round"/>
<polygon points="74.0,165.0 91.0,182.0 74.0,199.0 57.0,182.0" fill="#FAFAF5" stroke="#2a2a3a" stroke-width="0.8" stroke-linejoin="round"/>
<polygon points="110.0,165.0 127.0,182.0 110.0,199.0 93.0,182.0" fill="#FAFAF5" stroke="#2a2a3a" stroke-width="0.8" stroke-linejoin="round"/>
<polygon points="146.0,165.0 163.0,182.0 146.0,199.0 129.0,182.0" fill="#FAFAF5" stroke="#2a2a3a" stroke-width="0.8" stroke-linejoin="round"/>
<polygon points="182.0,165.0 199.0,182.0 182.0,199.0 165.0,182.0" fill="#FAFAF5" stroke="#2a2a3a" stroke-width="0.8" stroke-linejoin="round"/>
<polygon points="218.0,165.0 235.0,182.0 218.0,199.0 201.0,182.0" fill="#FAFAF5" stroke="#2a2a3a" stroke-width="0.8" stroke-linejoin="round"/>
<polygon points="254.0,165.0 271.0,182.0 254.0,199.0 237.0,182.0" fill="#FAFAF5" stroke="#2a2a3a" stroke-width="0.8" stroke-linejoin="round"/>
<polygon points="290.0,165.0 307.0,182.0 290.0,199.0 273.0,182.0" fill="#FAFAF5" stroke="#2a2a3a" stroke-width="0.8" stroke-linejoin="round"/>
<polygon points="326.0,165.0 343.0,182.0 326.0,199.0 309.0,182.0" fill="#FAFAF5" stroke="#2a2a3a" stroke-width="0.8" stroke-linejoin="round"/>
<polygon points="362.0,165.0 379.0,182.0 362.0,199.0 345.0,182.0" fill="#FAFAF5" stroke="#2a2a3a" stroke-width="0.8" stroke-linejoin="round"/>
<polygon points="38.0,201.0 55.0,218.0 38.0,235.0 21.0,218.0" fill="#FAFAF5" stroke="#2a2a3a" stroke-width="0.8" stroke-linejoin="round"/>
<polygon points="74.0,201.0 91.0,218.0 74.0,235.0 57.0,218.0" fill="#FAFAF5" stroke="#2a2a3a" stroke-width="0.8" stroke-linejoin="round"/>
<polygon points="110.0,201.0 127.0,218.0 110.0,235.0 93.0,218.0" fill="#FAFAF5" stroke="#2a2a3a" stroke-width="0.8" stroke-linejoin="round"/>
<polygon points="146.0,201.0 163.0,218.0 146.0,235.0 129.0,218.0" fill="#FAFAF5" stroke="#2a2a3a" stroke-width="0.8" stroke-linejoin="round"/>
<polygon points="182.0,201.0 199.0,218.0 182.0,235.0 165.0,218.0" fill="#FAFAF5" stroke="#2a2a3a" stroke-width="0.8" stroke-linejoin="round"/>
<polygon points="218.0,201.0 235.0,218.0 218.0,235.0 201.0,218.0" fill="#FAFAF5" stroke="#2a2a3a" stroke-width="0.8" stroke-linejoin="round"/>
<polygon points="254.0,201.0 271.0,218.0 254.0,235.0 237.0,218.0" fill="#FAFAF5" stroke="#2a2a3a" stroke-width="0.8" stroke-linejoin="round"/>
<polygon points="290.0,201.0 307.0,218.0 290.0,235.0 273.0,218.0" fill="#FAFAF5" stroke="#2a2a3a" stroke-width="0.8" stroke-linejoin="round"/>
<polygon points="326.0,201.0 343.0,218.0 326.0,235.0 309.0,218.0" fill="#FAFAF5" stroke="#2a2a3a" stroke-width="0.8" stroke-linejoin="round"/>
<polygon points="362.0,201.0 379.0,218.0 362.0,235.0 345.0,218.0" fill="#FAFAF5" stroke="#2a2a3a" stroke-width="0.8" stroke-linejoin="round"/>
<polygon points="38.0,237.0 55.0,254.0 38.0,271.0 21.0,254.0" fill="#FAFAF5" stroke="#2a2a3a" stroke-width="0.8" stroke-linejoin="round"/>
<polygon points="74.0,237.0 91.0,254.0 74.0,271.0 57.0,254.0" fill="#FAFAF5" stroke="#2a2a3a" stroke-width="0.8" stroke-linejoin="round"/>
<polygon points="110.0,237.0 127.0,254.0 110.0,271.0 93.0,254.0" fill="#FAFAF5" stroke="#2a2a3a" stroke-width="0.8" stroke-linejoin="round"/>
<polygon points="146.0,237.0 163.0,254.0 146.0,271.0 129.0,254.0" fill="#FAFAF5" stroke="#2a2a3a" stroke-width="0.8" stroke-linejoin="round"/>
<polygon points="182.0,237.0 199.0,254.0 182.0,271.0 165.0,254.0" fill="#FAFAF5" stroke="#2a2a3a" stroke-width="0.8" stroke-linejoin="round"/>
<polygon points="218.0,237.0 235.0,254.0 218.0,271.0 201.0,254.0" fill="#FAFAF5" stroke="#2a2a3a" stroke-width="0.8" stroke-linejoin="round"/>
<polygon points="254.0,237.0 271.0,254.0 254.0,271.0 237.0,254.0" fill="#FAFAF5" stroke="#2a2a3a" stroke-width="0.8" stroke-linejoin="round"/>
<polygon points="290.0,237.0 307.0,254.0 290.0,271.0 273.0,254.0" fill="#FAFAF5" stroke="#2a2a3a" stroke-width="0.8" stroke-linejoin="round"/>
<polygon points="326.0,237.0 343.0,254.0 326.0,271.0 309.0,254.0" fill="#FAFAF5" stroke="#2a2a3a" stroke-width="0.8" stroke-linejoin="round"/>
<polygon points="362.0,237.0 379.0,254.0 362.0,271.0 345.0,254.0" fill="#FAFAF5" stroke="#2a2a3a" stroke-width="0.8" stroke-linejoin="round"/>
<polygon points="38.0,273.0 55.0,290.0 38.0,307.0 21.0,290.0" fill="#FAFAF5" stroke="#2a2a3a" stroke-width="0.8" stroke-linejoin="round"/>
<polygon points="74.0,273.0 91.0,290.0 74.0,307.0 57.0,290.0" fill="#FAFAF5" stroke="#2a2a3a" stroke-width="0.8" stroke-linejoin="round"/>
<polygon points="110.0,273.0 127.0,290.0 110.0,307.0 93.0,290.0" fill="#FAFAF5" stroke="#2a2a3a" stroke-width="0.8" stroke-linejoin="round"/>
<polygon points="146.0,273.0 163.0,290.0 146.0,307.0 129.0,290.0" fill="#FAFAF5" stroke="#2a2a3a" stroke-width="0.8" stroke-linejoin="round"/>
<polygon points="182.0,273.0 199.0,290.0 182.0,307.0 165.0,290.0" fill="#FAFAF5" stroke="#2a2a3a" stroke-width="0.8" stroke-linejoin="round"/>
<polygon points="218.0,273.0 235.0,290.0 218.0,307.0 201.0,290.0" fill="#FAFAF5" stroke="#2a2a3a" stroke-width="0.8" stroke-linejoin="round"/>
<polygon points="254.0,273.0 271.0,290.0 254.0,307.0 237.0,290.0" fill="#FAFAF5" stroke="#2a2a3a" stroke-width="0.8" stroke-linejoin="round"/>
<polygon points="290.0,273.0 307.0,290.0 290.0,307.0 273.0,290.0" fill="#FAFAF5" stroke="#2a2a3a" stroke-width="0.8" stroke-linejoin="round"/>
<polygon points="326.0,273.0 343.0,290.0 326.0,307.0 309.0,290.0" fill="#FAFAF5" stroke="#2a2a3a" stroke-width="0.8" stroke-linejoin="round"/>
<polygon points="362.0,273.0 379.0,290.0 362.0,307.0 345.0,290.0" fill="#FAFAF5" stroke="#2a2a3a" stroke-width="0.8" stroke-linejoin="round"/>
<polygon points="38.0,309.0 55.0,326.0 38.0,343.0 21.0,326.0" fill="#FAFAF5" stroke="#2a2a3a" stroke-width="0.8" stroke-linejoin="round"/>
<polygon points="74.0,309.0 91.0,326.0 74.0,343.0 57.0,326.0" fill="#FAFAF5" stroke="#2a2a3a" stroke-width="0.8" stroke-linejoin="round"/>
<polygon points="110.0,309.0 127.0,326.0 110.0,343.0 93.0,326.0" fill="#FAFAF5" stroke="#2a2a3a" stroke-width="0.8" stroke-linejoin="round"/>
<polygon points="146.0,309.0 163.0,326.0 146.0,343.0 129.0,326.0" fill="#FAFAF5" stroke="#2a2a3a" stroke-width="0.8" stroke-linejoin="round"/>
<polygon points="182.0,309.0 199.0,326.0 182.0,343.0 165.0,326.0" fill="#FAFAF5" stroke="#2a2a3a" stroke-width="0.8" stroke-linejoin="round"/>
<polygon points="218.0,309.0 235.0,326.0 218.0,343.0 201.0,326.0" fill="#FAFAF5" stroke="#2a2a3a" stroke-width="0.8" stroke-linejoin="round"/>
<polygon points="254.0,309.0 271.0,326.0 254.0,343.0 237.0,326.0" fill="#FAFAF5" stroke="#2a2a3a" stroke-width="0.8" stroke-linejoin="round"/>
<polygon points="290.0,309.0 307.0,326.0 290.0,343.0 273.0,326.0" fill="#FAFAF5" stroke="#2a2a3a" stroke-width="0.8" stroke-linejoin="round"/>
<polygon points="326.0,309.0 343.0,326.0 326.0,343.0 309.0,326.0" fill="#FAFAF5" stroke="#2a2a3a" stroke-width="0.8" stroke-linejoin="round"/>
<polygon points="362.0,309.0 379.0,326.0 362.0,343.0 345.0,326.0" fill="#FAFAF5" stroke="#2a2a3a" stroke-width="0.8" stroke-linejoin="round"/>
<polygon points="38.0,345.0 55.0,362.0 38.0,379.0 21.0,362.0" fill="#FAFAF5" stroke="#2a2a3a" stroke-width="0.8" stroke-linejoin="round"/>
<polygon points="74.0,345.0 91.0,362.0 74.0,379.0 57.0,362.0" fill="#FAFAF5" stroke="#2a2a3a" stroke-width="0.8" stroke-linejoin="round"/>
<polygon points="110.0,345.0 127.0,362.0 110.0,379.0 93.0,362.0" fill="#FAFAF5" stroke="#2a2a3a" stroke-width="0.8" stroke-linejoin="round"/>
<polygon points="146.0,345.0 163.0,362.0 146.0,379.0 129.0,362.0" fill="#FAFAF5" stroke="#2a2a3a" stroke-width="0.8" stroke-linejoin="round"/>
<polygon points="182.0,345.0 199.0,362.0 182.0,379.0 165.0,362.0" fill="#FAFAF5" stroke="#2a2a3a" stroke-width="0.8" stroke-linejoin="round"/>
<polygon points="218.0,345.0 235.0,362.0 218.0,379.0 201.0,362.0" fill="#FAFAF5" stroke="#2a2a3a" stroke-width="0.8" stroke-linejoin="round"/>
<polygon points="254.0,345.0 271.0,362.0 254.0,379.0 237.0,362.0" fill="#FAFAF5" stroke="#2a2a3a" stroke-width="0.8" stroke-linejoin="round"/>
<polygon points="290.0,345.0 307.0,362.0 290.0,379.0 273.0,362.0" fill="#FAFAF5" stroke="#2a2a3a" stroke-width="0.8" stroke-linejoin="round"/>
<polygon points="326.0,345.0 343.0,362.0 326.0,379.0 309.0,362.0" fill="#FAFAF5" stroke="#2a2a3a" stroke-width="0.8" stroke-linejoin="round"/>
<polygon points="362.0,345.0 379.0,362.0 362.0,379.0 345.0,362.0" fill="#FAFAF5" stroke="#2a2a3a" stroke-width="0.8" stroke-linejoin="round"/>
</svg>