<?xml version="1.0" encoding="UTF-8"?>
<svg xmlns="http://www.w3.org/2000/svg" viewBox="0 0 400 400" width="400" height="400">
<rect width="400" height="400" fill="#FAFAF5"/>
<polygon points="39.0,17.0 61.0,39.0 39.0,61.0 17.0,39.0" fill="#FAFAF5" stroke="#2a2a3a" stroke-width="0.8" stroke-linejoin="round"/>
<polygon points="85.0,17.0 107.0,39.0 85.0,61.0 63.0,39.0" fill="#FAFAF5" stroke="#2a2a3a" stroke-width="0.8" stroke-linejoin="round"/>
<polygon points="131.0,17.0 153.0,39.0 131.0,61.0 109.0,39.0" fill="#FAFAF5" stroke="#2a2a3a" stroke-width="0.8" stroke-linejoin="round"/>
<polygon points="177.0,17.0 199.0,39.0 177.0,61.0 155.0,39.0" fill="#FAFAF5" stroke="#2a2a3a" stroke-width="0.8" stroke-linejoin="round"/>
<polygon points="223.0,17.0 245.0,39.0 223.0,61.0 201.0,39.0" fill="#FAFAF5" stroke="#2a2a3a" stroke-width="0.8" stroke-linejoin="round"/>
<polygon points="269.0,17.0 291.0,39.0 269.0,61.0 247.0,39.0" fill="#FAFAF5" stroke="#2a2a3a" stroke-width="0.8" stroke-linejoin="round"/>
<polygon points="315.0,17.0 337.0,39.0 315.0,61.0 293.0,39.0" fill="#FAFAF5" stroke="#2a2a3a" stroke-width="0.8" stroke-linejoin="round"/>
<polygon points="361.0,17.0 383.0,39.0 361.0,61.0 339.0,39.0" fill="#FAFAF5" stroke="#2a2a3a" stroke-width="0.8" stroke-linejoin="round"/>
<polygon points="39.0,63.0 61.0,85.0 39.0,107.0 17.0,85.0" fill="#FAFAF5" stroke="#2a2a3a" stroke-width="0.8" stroke-linejoin="round"/>
<polygon points="85.0,63.0 107.0,85.0 85.0,107.0 63.0,85.0" fill="#FAFAF5" stroke="#2a2a3a" stroke-width="0.8" stroke-linejoin="round"/>
<polygon points="131.0,63.0 153.0,85.0 131.0,107.0 109.0,85.0" fill="#FAFAF5" stroke="#2a2a3a" stroke-width="0.8" stroke-linejoin="round"/>
<polygon points="177.0,63.0 199.0,85.0 177.0,107.0 155.0,85.0" fill="#FAFAF5" stroke="#2a2a3a" stroke-width="0.8" stroke-linejoin="round"/>
<polygon points="223.0,63.0 245.0,85.0 223.0,107.0 201.0,85.0" fill="#FAFAF5" stroke="#2a2a3a" stroke-width="0.8" stroke-linejoin="round"/>
<polygon points="269.0,63.0 291.0,85.0 269.0,107.0 247.0,85.0" fill="#FAFAF5" stroke="#2a2a3a" stroke-width="0.8" stroke-linejoin="round"/>
<polygon points="315.0,63.0 337.0,85.0 315.0,107.0 293.0,85.0" fill="#FAFAF5" stroke="#2a2a3a" stroke-width="0.8" stroke-linejoin="round"/>
<polygon points="361.0,63.0 383.0,85.0 361.0,107.0 339.0,85.0" fill="#FAFAF5" stroke="#2a2a3a" stroke-width="0.8" stroke-linejoin="round"/>
<polygon points="39.0,109.0 61.0,131.0 39.0,153.0 17.0,131.0" fill="#FAFAF5" stroke="#2a2a3a" stroke-width="0.8" stroke-linejoin="round"/>
<polygon points="85.0,109.0 107.0,131.0 85.0,153.0 63.0,131.0" fill="#FAFAF5" stroke="#2a2a3a" stroke-width="0.8" stroke-linejoin="round"/>
<polygon points="131.0,109.0 153.0,131.0 131.0,153.0 109.0,131.0" fill="#FAFAF5" stroke="#2a2a3a" stroke-width="0.8" stroke-linejoin="round"/>
<polygon points="177.0,109.0 199.0,131.0 177.0,153.0 155.0,131.0" fill="#FAFAF5" stroke="#2a2a3a" stroke-width="0.8" stroke-linejoin="round"/>
<polygon points="223.0,109.0 245.0,131.0 223.0,153.0 201.0,131.0" fill="#FAFAF5" stroke="#2a2a3a" stroke-width="0.8" stroke-linejoin="round"/>
<polygon points="269.0,109.0 291.0,131.0 269.0,153.0 247.0,131.0" fill="#FAFAF5" stroke="#2a2a3a" stroke-width="0.8" stroke-linejoin="round"/>
<polygon points="315.0,109.0 337.0,131.0 315.0,153.0 293.0,131.0" fill="#FAFAF5" stroke="#2a2a3a" stroke-width="0.8" stroke-linejoin="round"/>
<polygon points="361.0,109.0 383.0,131.0 361.0,153.0 339.0,131.0" fill="#FAFAF5" stroke="#2a2a3a" stroke-width="0.8" stroke-linejoin="round"/>
<polygon points="39.0,155.0 61.0,177.0 39.0,199.0 17.0,177.0" fill="#FAFAF5" stroke="#2a2a3a" stroke-width="0.8" stroke-linejoin="round"/>
<polygon points="85.0,155.0 107.0,177.0 85.0,199.0 63.0,177.0" fill="#FAFAF5" stroke="#2a2a3a" stroke-width="0.8" stroke-linejoin="round"/>
<polygon points="131.0,155.0 153.0,177.0 131.0,199.0 109.0,177.0" fill="#FAFAF5" stroke="#2a2a3a" stroke-width="0.8" stroke-linejoin="round"/>
<polygon points="177.0,155.0 199.0,177.0 177.0,199.0 155.0,177.0" fill="#FAFAF5" stroke="#2a2a3a" stroke-width="0.8" stroke-linejoin="round"/>
<polygon points="223.0,155.0 245.0,177.0 223.0,199.0 201.0,177.0" fill="#FAFAF5" stroke="#2a2a3a" stroke-width="0.8" stroke-linejoin="round"/>
<polygon points="269.0,155.0 291.0,177.0 269.0,199.0 247.0,177.0" fill="#FAFAF5" stroke="#2a2a3a" stroke-width="0.8" stroke-linejoin="round"/>
<polygon points="315.0,155.0 337.0,177.0 315.0,199.0 293.0,177.0" fill="#FAFAF5" stroke="#2a2a3a" stroke-width="0.8" stroke-linejoin="round"/>
<polygon points="361.0,155.0 383.0,177.0 361.0,199.0 339.0,177.0" fill="#FAFAF5" stroke="#2a2a3a" stroke-width="0.8" stroke-linejoin="round"/>
<polygon points="39.0,201.0 61.0,223.0 39.0,245.0 17.0,223.0" fill="#FAFAF5" stroke="#2a2a3a" stroke-width="0.8" stroke-linejoin="round"/>
<polygon points="85.0,201.0 107.0,223.0 85.0,245.0 63.0,223.0" fill="#FAFAF5" stroke="#2a2a3a" stroke-width="0.8" stroke-linejoin="round"/>
<polygon points="131.0,201.0 153.0,223.0 131.0,245.0 109.0,223.0" fill="#FAFAF5" stroke="#2a2a3a" stroke-width="0.8" stroke-linejoin="round"/>
<polygon points="177.0,201.0 199.0,223.0 177.0,245.0 155.0,223.0" fill="#FAFAF5" stroke="#2a2a3a" stroke-width="0.8" stroke-linejoin="round"/>
<polygon points="223.0,201.0 245.0,223.0 223.0,245.0 201.0,223.0" fill="#FAFAF5" stroke="#2a2a3a" stroke-width="0.8" stroke-linejoin="round"/>
<polygon points="269.0,201.0 291.0,223.0 269.0,245.0 247.0,223.0" fill="#FAFAF5" stroke="#2a2a3a" stroke-width="0.8" stroke-linejoin="round"/>
<polygon points="315.0,201.0 337.0,223.0 315.0,245.0 293.0,223.0" fill="#FAFAF5" stroke="#2a2a3a" stroke-width="0.8" stroke-linejoin="round"/>
<polygon points="361.0,201.0 383.0,223.0 361.0,245.0 339.0,223.0" fill="#FAFAF5" stroke="#2a2a3a" stroke-width="0.8" stroke-linejoin="round"/>
<polygon points="39.0,247.0 61.0,269.0 39.0,291.0 17.0,269.0" fill="#FAFAF5" stroke="#2a2a3a" stroke-width="0.8" stroke-linejoin="round"/>
<polygon points="85.0,247.0 107.0,269.0 85.0,291.0 63.0,269.0" fill="#FAFAF5" stroke="#2a2a3a" stroke-width="0.8" stroke-linejoin="round"/>
<polygon points="131.0,247.0 153.0,269.0 131.0,291.0 109.0,269.0" fill="#FAFAF5" stroke="#2a2a3a" stroke-width="0.8" stroke-linejoin="round"/>
<polygon points="177.0,247.0 199.0,269.0 177.0,291.0 155.0,269.0" fill="#FAFAF5" stroke="#2a2a3a" stroke-width="0.8" stroke-linejoin="round"/>
<polygon points="223.0,247.0 245.0,269.0 223.0,291.0 201.0,269.0" fill="#FAFAF5" stroke="#2a2a3a" stroke-width="0.8" stroke-linejoin="round"/>
<polygon points="269.0,247.0 291.0,269.0 269.0,291.0 247.0,269.0" fill="#FAFAF5" stroke="#2a2a3a" stroke-width="0.8" stroke-linejoin="round"/>
<polygon points="315.0,247.0 337.0,269.0 315.0,291.0 293.0,269.0" fill="#FAFAF5" stroke="#2a2a3a" stroke-width="0.8" stroke-linejoin="round"/>
<polygon points="361.0,247.0 383.0,269.0 361.0,291.0 339.0,269.0" fill="#FAFAF5" stroke="#2a2a3a" stroke-width="0.8" stroke-linejoin="round"/>
<polygon points="39.0,293.0 61.0,315.0 39.0,337.0 17.0,315.0" fill="#FAFAF5" stroke="#2a2a3a" stroke-width="0.8" stroke-linejoin="round"/>
<polygon points="85.0,293.0 107.0,315.0 85.0,337.0 63.0,315.0" fill="#FAFAF5" stroke="#2a2a3a" stroke-width="0.8" stroke-linejoin="round"/>
<polygon points="131.0,293.0 153.0,315.0 131.0,337.0 109.0,315.0" fill="#FAFAF5" stroke="#2a2a3a" stroke-width="0.8" stroke-linejoin="round"/>
<polygon points="177.0,293.0 199.0,315.0 177.0,337.0 155.0,315.0" fill="#FAFAF5" stroke="#2a2a3a" stroke-width="0.8" stroke-linejoin="round"/>
<polygon points="223.0,293.0 245.0,315.0 223.0,337.0 201.0,315.0" fill="#FAFAF5" stroke="#2a2a3a" stroke-width="0.8" stroke-linejoin="round"/>
<polygon points="269.0,293.0 291.0,315.0 269.0,337.0 247.0,315.0" fill="#FAFAF5" stroke="#2a2a3a" stroke-width="0.8" stroke-linejoin="round"/>
<polygon points="315.0,293.0 337.0,315.0 315.0,337.0 293.0,315.0" fill="#FAFAF5" stroke="#2a2a3a" stroke-width="0.8" stroke-linejoin="round"/>
<polygon points="361.0,293.0 383.0,315.0 361.0,337.0 339.0,315.0" fill="#FAFAF5" stroke="#2a2a3a" stroke-width="0.8" stroke-linejoin="round"/>
<polygon points="39.0,339.0 61.0,361.0 39.0,383.0 17.0,361.0" fill="#FAFAF5" stroke="#2a2a3a" stroke-width="0.8" stroke-linejoin="round"/>
<polygon points="85.0,339.0 107.0,361.0 85.0,383.0 63.0,361.0" fill="#FAFAF5" stroke="#2a2a3a" stroke-width="0.8" stroke-linejoin="round"/>
<polygon points="131.0,339.0 153.0,361.0 131.0,383.0 109.0,361.0" fill="#FAFAF5" stroke="#2a2a3a" stroke-width="0.8" stroke-linejoin="round"/>
<polygon points="177.0,339.0 199.0,361.0 177.0,383.0 155.0,361.0" fill="#FAFAF5" stroke="#2a2a3a" stroke-width="0.8" stroke-linejoin="round"/>
<polygon points="223.0,339.0 245.0,361.0 223.0,383.0 201.0,361.0" fill="#FAFAF5" stroke="#2a2a3a" stroke-width="0.8" stroke-linejoin="round"/>
<polygon points="269.0,339.0 291.0,361.0 269.0,383.0 247.0,361.0" fill="#FAFAF5" stroke="#2a2a3a" stroke-width="0.8" stroke-linejoin="round"/>
<polygon points="315.0,339.0 337.0,361.0 315.0,383.0 293.0,361.0" fill="#FAFAF5" stroke="#2a2a3a" stroke-width="0.8" stroke-linejoin="round"/>
<polygon points="361.0,339.0 383.0,361.0 361.0,383.0 339.0,361.0" fill="#FAFAF5" stroke="#2a2a3a" stroke-width="0.8" stroke-linejoin="round"/>
</svg>