<?xml version="1.0" encoding="UTF-8"?>
<svg xmlns="http://www.w3.org/2000/svg" viewBox="0 0 400 400" width="400" height="400">
<rect width="400" height="400" fill="#FAFAF5"/>
<polygon points="200.00,15.00 360.21,107.50 360.21,292.50 200.00,385.00 39.79,292.50 39.79,107.50" fill="#FAFAF5" stroke="#2a2a3a" stroke-width="0.8" stroke-linejoin="round"/>
<polygon points="277.08,66.49 354.17,200.00 277.08,333.51 122.92,333.51 45.83,200.00 122.92,66.49" fill="#FAFAF5" stroke="#2a2a3a" stroke-width="0.8" stroke-linejoin="round"/>
<polygon points="306.81,138.33 306.81,261.67 200.00,323.33 93.19,261.67 93.19,138.33 200.00,76.67" fill="#FAFAF5" stroke="#2a2a3a" stroke-width="0.8" stroke-linejoin="round"/>
<polygon points="292.50,200.00 246.25,280.11 153.75,280.11 107.50,200.00 153.75,119.89 246.25,119.89" fill="#FAFAF5" stroke="#2a2a3a" stroke-width="0.8" stroke-linejoin="round"/>
<polygon points="253.40,230.83 200.00,261.67 146.60,230.83 146.60,169.17 200.00,138.33 253.40,169.17" fill="#FAFAF5" stroke="#2a2a3a" stroke-width="0.8" stroke-linejoin="round"/>
<polygon points="200.00,15.00 360.21,107.50 360.21,292.50 200.00,385.00 39.79,292.50 39.79,107.50" fill="#FAFAF5" stroke="#2a2a3a" stroke-width="0.8" stroke-linejoin="round"/>
<polygon points="277.08,66.49 354.17,200.00 277.08,333.51 122.92,333.51 45.83,200.00 122.92,66.49" fill="#FAFAF5" stroke="#2a2a3a" stroke-width="0.8" stroke-linejoin="round"/>
<polygon points="306.81,138.33 306.81,261.67 200.00,323.33 93.19,261.67 93.19,138.33 200.00,76.67" fill="#FAFAF5" stroke="#2a2a3a" stroke-width="0.8" stroke-linejoin="round"/>
<polygon points="292.50,200.00 246.25,280.11 153.75,280.11 107.50,200.00 153.75,119.89 246.25,119.89" fill="#FAFAF5" stroke="#2a2a3a" stroke-width="0.8" stroke-linejoin="round"/>
<polygon points="253.40,230.83 200.00,261.67 146.60,230.83 146.60,169.17 200.00,138.33 253.40,169.17" fill="#FAFAF5" stroke="#2a2a3a" stroke-width="0.8" stroke-linejoin="round"/>
</svg>