<?xml version="1.0" encoding="UTF-8"?>
<svg xmlns="http://www.w3.org/2000/svg" viewBox="0 0 400 400" width="400" height="400">
<rect width="400" height="400" fill="#FAFAF5"/>
<polygon points="200.00,15.00 250.00,113.40 360.21,107.50 300.00,200.00 360.21,292.50 250.00,286.60 200.00,385.00 150.00,286.60 39.79,292.50 100.00,200.00 39.79,107.50 150.00,113.40" fill="#FAFAF5" stroke="#2a2a3a" stroke-width="1.5" stroke-linejoin="round"/>
<polygon points="200.00,40.00 266.00,85.68 338.56,120.00 332.00,200.00 338.56,280.00 266.00,314.32 200.00,360.00 134.00,314.32 61.44,280.00 68.00,200.00 61.44,120.00 134.00,85.68" fill="#FAFAF5" stroke="#2a2a3a" stroke-width="1.5" stroke-linejoin="round"/>
<polygon points="200.00,70.00 251.00,111.67 312.58,135.00 302.00,200.00 312.58,265.00 251.00,288.33 200.00,330.00 149.00,288.33 87.42,265.00 98.00,200.00 87.42,135.00 149.00,111.67" fill="#FAFAF5" stroke="#2a2a3a" stroke-width="1.5" stroke-linejoin="round"/>
<polygon points="200.00,100.00 236.00,137.65 286.60,150.00 272.00,200.00 286.60,250.00 236.00,262.35 200.00,300.00 164.00,262.35 113.40,250.00 128.00,200.00 113.40,150.00 164.00,137.65" fill="#FAFAF5" stroke="#2a2a3a" stroke-width="1.5" stroke-linejoin="round"/>
<polygon points="200.00,130.00 221.00,163.63 260.62,165.00 242.00,200.00 260.62,235.00 221.00,236.37 200.00,270.00 179.00,236.37 139.38,235.00 158.00,200.00 139.38,165.00 179.00,163.63" fill="#FAFAF5" stroke="#2a2a3a" stroke-width="1.5" stroke-linejoin="round"/>
</svg>