<?xml version="1.0" encoding="UTF-8"?>
<svg xmlns="http://www.w3.org/2000/svg" viewBox="0 0 400 400" width="400" height="400">
<rect width="400" height="400" fill="#FAFAF5"/>
<polygon points="200.00,15.00 385.00,200.00 200.00,385.00 15.00,200.00" fill="#FAFAF5" stroke="#2a2a3a" stroke-width="0.8" stroke-linejoin="round"/>
<polygon points="312.13,87.87 312.13,312.13 87.87,312.13 87.87,87.87" fill="#FAFAF5" stroke="#2a2a3a" stroke-width="0.8" stroke-linejoin="round"/>
<polygon points="332.14,200.00 200.00,332.14 67.86,200.00 200.00,67.86" fill="#FAFAF5" stroke="#2a2a3a" stroke-width="0.8" stroke-linejoin="round"/>
<polygon points="274.75,274.75 125.25,274.75 125.25,125.25 274.75,125.25" fill="#FAFAF5" stroke="#2a2a3a" stroke-width="0.8" stroke-linejoin="round"/>
<polygon points="200.00,279.29 120.71,200.00 200.00,120.71 279.29,200.00" fill="#FAFAF5" stroke="#2a2a3a" stroke-width="0.8" stroke-linejoin="round"/>
<polygon points="162.62,237.38 162.62,162.62 237.38,162.62 237.38,237.38" fill="#FAFAF5" stroke="#2a2a3a" stroke-width="0.8" stroke-linejoin="round"/>
<polygon points="200.00,15.00 385.00,200.00 200.00,385.00 15.00,200.00" fill="#FAFAF5" stroke="#2a2a3a" stroke-width="0.8" stroke-linejoin="round"/>
<polygon points="312.13,87.87 312.13,312.13 87.87,312.13 87.87,87.87" fill="#FAFAF5" stroke="#2a2a3a" stroke-width="0.8" stroke-linejoin="round"/>
<polygon points="332.14,200.00 200.00,332.14 67.86,200.00 200.00,67.86" fill="#FAFAF5" stroke="#2a2a3a" stroke-width="0.8" stroke-linejoin="round"/>
<polygon points="274.75,274.75 125.25,274.75 125.25,125.25 274.75,125.25" fill="#FAFAF5" stroke="#2a2a3a" stroke-width="0.8" stroke-linejoin="round"/>
<polygon points="200.00,279.29 120.71,200.00 200.00,120.71 279.29,200.00" fill="#FAFAF5" stroke="#2a2a3a" stroke-width="0.8" stroke-linejoin="round"/>
<polygon points="162.62,237.38 162.62,162.62 237.38,162.62 237.38,237.38" fill="#FAFAF5" stroke="#2a2a3a" stroke-width="0.8" stroke-linejoin="round"/>
<line x1="200.0" y1="180.0" x2="200.0" y2="10.0" stroke="#2a2a3a" stroke-width="0.8"/>
<line x1="207.7" y1="181.5" x2="272.7" y2="24.5" stroke="#2a2a3a" stroke-width="0.8"/>
<line x1="214.1" y1="185.9" x2="334.4" y2="65.6" stroke="#2a2a3a" stroke-width="0.8"/>
<line x1="218.5" y1="192.3" x2="375.5" y2="127.3" stroke="#2a2a3a" stroke-width="0.8"/>
<line x1="220.0" y1="200.0" x2="390.0" y2="200.0" stroke="#2a2a3a" stroke-width="0.8"/>
<line x1="218.5" y1="207.7" x2="375.5" y2="272.7" stroke="#2a2a3a" stroke-width="0.8"/>
<line x1="214.1" y1="214.1" x2="334.4" y2="334.4" stroke="#2a2a3a" stroke-width="0.8"/>
<line x1="207.7" y1="218.5" x2="272.7" y2="375.5" stroke="#2a2a3a" stroke-width="0.8"/>
<line x1="200.0" y1="220.0" x2="200.0" y2="390.0" stroke="#2a2a3a" stroke-width="0.8"/>
<line x1="192.3" y1="218.5" x2="127.3" y2="375.5" stroke="#2a2a3a" stroke-width="0.8"/>
<line x1="185.9" y1="214.1" x2="65.6" y2="334.4" stroke="#2a2a3a" stroke-width="0.8"/>
<line x1="181.5" y1="207.7" x2="24.5" y2="272.7" stroke="#2a2a3a" stroke-width="0.8"/>
<line x1="180.0" y1="200.0" x2="10.0" y2="200.0" stroke="#2a2a3a" stroke-width="0.8"/>
<line x1="181.5" y1="192.3" x2="24.5" y2="127.3" stroke="#2a2a3a" stroke-width="0.8"/>
<line x1="185.9" y1="185.9" x2="65.6" y2="65.6" stroke="#2a2a3a" stroke-width="0.8"/>
<line x1="192.3" y1="181.5" x2="127.3" y2="24.5" stroke="#2a2a3a" stroke-width="0.8"/>
</svg>