<?xml version="1.0" encoding="UTF-8"?>
<svg xmlns="http://www.w3.org/2000/svg" viewBox="0 0 400 400" width="400" height="400">
<rect width="400" height="400" fill="#FAFAF5"/>
<circle cx="200" cy="200" r="20" fill="#FAFAF5" stroke="#2a2a3a" stroke-width="1.5" stroke-linejoin="round"/>
<path d="M 200.00 150.00 A 50 50 0 0 1 243.30 175.00 L 217.32 190.00 A 20 20 0 0 0 200.00 180.00 Z" fill="#FAFAF5" stroke="#2a2a3a" stroke-width="1.5" stroke-linejoin="round"/>
<path d="M 243.30 175.00 A 50 50 0 0 1 243.30 225.00 L 217.32 210.00 A 20 20 0 0 0 217.32 190.00 Z" fill="#FAFAF5" stroke="#2a2a3a" stroke-width="1.5" stroke-linejoin="round"/>
<path d="M 243.30 225.00 A 50 50 0 0 1 200.00 250.00 L 200.00 220.00 A 20 20 0 0 0 217.32 210.00 Z" fill="#FAFAF5" stroke="#2a2a3a" stroke-width="1.5" stroke-linejoin="round"/>
<path d="M 200.00 250.00 A 50 50 0 0 1 156.70 225.00 L 182.68 210.00 A 20 20 0 0 0 200.00 220.00 Z" fill="#FAFAF5" stroke="#2a2a3a" stroke-width="1.5" stroke-linejoin="round"/>
<path d="M 156.70 225.00 A 50 50 0 0 1 156.70 175.00 L 182.68 190.00 A 20 20 0 0 0 182.68 210.00 Z" fill="#FAFAF5" stroke="#2a2a3a" stroke-width="1.5" stroke-linejoin="round"/>
<path d="M 156.70 175.00 A 50 50 0 0 1 200.00 150.00 L 200.00 180.00 A 20 20 0 0 0 182.68 190.00 Z" fill="#FAFAF5" stroke="#2a2a3a" stroke-width="1.5" stroke-linejoin="round"/>
<path d="M 200.00 112.00 A 88 88 0 0 1 244.00 123.79 L 225.00 156.70 A 50 50 0 0 0 200.00 150.00 Z" fill="#FAFAF5" stroke="#2a2a3a" stroke-width="1.5" stroke-linejoin="round"/>
<path d="M 244.00 123.79 A 88 88 0 0 1 276.21 156.00 L 243.30 175.00 A 50 50 0 0 0 225.00 156.70 Z" fill="#FAFAF5" stroke="#2a2a3a" stroke-width="1.5" stroke-linejoin="round"/>
<path d="M 276.21 156.00 A 88 88 0 0 1 288.00 200.00 L 250.00 200.00 A 50 50 0 0 0 243.30 175.00 Z" fill="#FAFAF5" stroke="#2a2a3a" stroke-width="1.5" stroke-linejoin="round"/>
<path d="M 288.00 200.00 A 88 88 0 0 1 276.21 244.00 L 243.30 225.00 A 50 50 0 0 0 250.00 200.00 Z" fill="#FAFAF5" stroke="#2a2a3a" stroke-width="1.5" stroke-linejoin="round"/>
<path d="M 276.21 244.00 A 88 88 0 0 1 244.00 276.21 L 225.00 243.30 A 50 50 0 0 0 243.30 225.00 Z" fill="#FAFAF5" stroke="#2a2a3a" stroke-width="1.5" stroke-linejoin="round"/>
<path d="M 244.00 276.21 A 88 88 0 0 1 200.00 288.00 L 200.00 250.00 A 50 50 0 0 0 225.00 243.30 Z" fill="#FAFAF5" stroke="#2a2a3a" stroke-width="1.5" stroke-linejoin="round"/>
<path d="M 200.00 288.00 A 88 88 0 0 1 156.00 276.21 L 175.00 243.30 A 50 50 0 0 0 200.00 250.00 Z" fill="#FAFAF5" stroke="#2a2a3a" stroke-width="1.5" stroke-linejoin="round"/>
<path d="M 156.00 276.21 A 88 88 0 0 1 123.79 244.00 L 156.70 225.00 A 50 50 0 0 0 175.00 243.30 Z" fill="#FAFAF5" stroke="#2a2a3a" stroke-width="1.5" stroke-linejoin="round"/>
<path d="M 123.79 244.00 A 88 88 0 0 1 112.00 200.00 L 150.00 200.00 A 50 50 0 0 0 156.70 225.00 Z" fill="#FAFAF5" stroke="#2a2a3a" stroke-width="1.5" stroke-linejoin="round"/>
<path d="M 112.00 200.00 A 88 88 0 0 1 123.79 156.00 L 156.70 175.00 A 50 50 0 0 0 150.00 200.00 Z" fill="#FAFAF5" stroke="#2a2a3a" stroke-width="1.5" stroke-linejoin="round"/>
<path d="M 123.79 156.00 A 88 88 0 0 1 156.00 123.79 L 175.00 156.70 A 50 50 0 0 0 156.70 175.00 Z" fill="#FAFAF5" stroke="#2a2a3a" stroke-width="1.5" stroke-linejoin="round"/>
<path d="M 156.00 123.79 A 88 88 0 0 1 200.00 112.00 L 200.00 150.00 A 50 50 0 0 0 175.00 156.70 Z" fill="#FAFAF5" stroke="#2a2a3a" stroke-width="1.5" stroke-linejoin="round"/>
<path d="M 200.00 76.00 A 124 124 0 0 1 232.09 80.23 L 222.78 115.00 A 88 88 0 0 0 200.00 112.00 Z" fill="#FAFAF5" stroke="#2a2a3a" stroke-width="1.5" stroke-linejoin="round"/>
<path d="M 232.09 80.23 A 124 124 0 0 1 262.00 92.61 L 244.00 123.79 A 88 88 0 0 0 222.78 115.00 Z" fill="#FAFAF5" stroke="#2a2a3a" stroke-width="1.5" stroke-linejoin="round"/>
<path d="M 262.00 92.61 A 124 124 0 0 1 287.68 112.32 L 262.23 137.77 A 88 88 0 0 0 244.00 123.79 Z" fill="#FAFAF5" stroke="#2a2a3a" stroke-width="1.5" stroke-linejoin="round"/>
<path d="M 287.68 112.32 A 124 124 0 0 1 307.39 138.00 L 276.21 156.00 A 88 88 0 0 0 262.23 137.77 Z" fill="#FAFAF5" stroke="#2a2a3a" stroke-width="1.5" stroke-linejoin="round"/>
<path d="M 307.39 138.00 A 124 124 0 0 1 319.77 167.91 L 285.00 177.22 A 88 88 0 0 0 276.21 156.00 Z" fill="#FAFAF5" stroke="#2a2a3a" stroke-width="1.5" stroke-linejoin="round"/>
<path d="M 319.77 167.91 A 124 124 0 0 1 324.00 200.00 L 288.00 200.00 A 88 88 0 0 0 285.00 177.22 Z" fill="#FAFAF5" stroke="#2a2a3a" stroke-width="1.5" stroke-linejoin="round"/>
<path d="M 324.00 200.00 A 124 124 0 0 1 319.77 232.09 L 285.00 222.78 A 88 88 0 0 0 288.00 200.00 Z" fill="#FAFAF5" stroke="#2a2a3a" stroke-width="1.5" stroke-linejoin="round"/>
<path d="M 319.77 232.09 A 124 124 0 0 1 307.39 262.00 L 276.21 244.00 A 88 88 0 0 0 285.00 222.78 Z" fill="#FAFAF5" stroke="#2a2a3a" stroke-width="1.5" stroke-linejoin="round"/>
<path d="M 307.39 262.00 A 124 124 0 0 1 287.68 287.68 L 262.23 262.23 A 88 88 0 0 0 276.21 244.00 Z" fill="#FAFAF5" stroke="#2a2a3a" stroke-width="1.5" stroke-linejoin="round"/>
<path d="M 287.68 287.68 A 124 124 0 0 1 262.00 307.39 L 244.00 276.21 A 88 88 0 0 0 262.23 262.23 Z" fill="#FAFAF5" stroke="#2a2a3a" stroke-width="1.5" stroke-linejoin="round"/>
<path d="M 262.00 307.39 A 124 124 0 0 1 232.09 319.77 L 222.78 285.00 A 88 88 0 0 0 244.00 276.21 Z" fill="#FAFAF5" stroke="#2a2a3a" stroke-width="1.5" stroke-linejoin="round"/>
<path d="M 232.09 319.77 A 124 124 0 0 1 200.00 324.00 L 200.00 288.00 A 88 88 0 0 0 222.78 285.00 Z" fill="#FAFAF5" stroke="#2a2a3a" stroke-width="1.5" stroke-linejoin="round"/>
<path d="M 200.00 324.00 A 124 124 0 0 1 167.91 319.77 L 177.22 285.00 A 88 88 0 0 0 200.00 288.00 Z" fill="#FAFAF5" stroke="#2a2a3a" stroke-width="1.5" stroke-linejoin="round"/>
<path d="M 167.91 319.77 A 124 124 0 0 1 138.00 307.39 L 156.00 276.21 A 88 88 0 0 0 177.22 285.00 Z" fill="#FAFAF5" stroke="#2a2a3a" stroke-width="1.5" stroke-linejoin="round"/>
<path d="M 138.00 307.39 A 124 124 0 0 1 112.32 287.68 L 137.77 262.23 A 88 88 0 0 0 156.00 276.21 Z" fill="#FAFAF5" stroke="#2a2a3a" stroke-width="1.5" stroke-linejoin="round"/>
<path d="M 112.32 287.68 A 124 124 0 0 1 92.61 262.00 L 123.79 244.00 A 88 88 0 0 0 137.77 262.23 Z" fill="#FAFAF5" stroke="#2a2a3a" stroke-width="1.5" stroke-linejoin="round"/>
<path d="M 92.61 262.00 A 124 124 0 0 1 80.23 232.09 L 115.00 222.78 A 88 88 0 0 0 123.79 244.00 Z" fill="#FAFAF5" stroke="#2a2a3a" stroke-width="1.5" stroke-linejoin="round"/>
<path d="M 80.23 232.09 A 124 124 0 0 1 76.00 200.00 L 112.00 200.00 A 88 88 0 0 0 115.00 222.78 Z" fill="#FAFAF5" stroke="#2a2a3a" stroke-width="1.5" stroke-linejoin="round"/>
<path d="M 76.00 200.00 A 124 124 0 0 1 80.23 167.91 L 115.00 177.22 A 88 88 0 0 0 112.00 200.00 Z" fill="#FAFAF5" stroke="#2a2a3a" stroke-width="1.5" stroke-linejoin="round"/>
<path d="M 80.23 167.91 A 124 124 0 0 1 92.61 138.00 L 123.79 156.00 A 88 88 0 0 0 115.00 177.22 Z" fill="#FAFAF5" stroke="#2a2a3a" stroke-width="1.5" stroke-linejoin="round"/>
<path d="M 92.61 138.00 A 124 124 0 0 1 112.32 112.32 L 137.77 137.77 A 88 88 0 0 0 123.79 156.00 Z" fill="#FAFAF5" stroke="#2a2a3a" stroke-width="1.5" stroke-linejoin="round"/>
<path d="M 112.32 112.32 A 124 124 0 0 1 138.00 92.61 L 156.00 123.79 A 88 88 0 0 0 137.77 137.77 Z" fill="#FAFAF5" stroke="#2a2a3a" stroke-width="1.5" stroke-linejoin="round"/>
<path d="M 138.00 92.61 A 124 124 0 0 1 167.91 80.23 L 177.22 115.00 A 88 88 0 0 0 156.00 123.79 Z" fill="#FAFAF5" stroke="#2a2a3a" stroke-width="1.5" stroke-linejoin="round"/>
<path d="M 167.91 80.23 A 124 124 0 0 1 200.00 76.00 L 200.00 112.00 A 88 88 0 0 0 177.22 115.00 Z" fill="#FAFAF5" stroke="#2a2a3a" stroke-width="1.5" stroke-linejoin="round"/>
<path d="M 200.00 42.00 A 158 158 0 0 1 279.00 63.17 L 262.00 92.61 A 124 124 0 0 0 200.00 76.00 Z" fill="#FAFAF5" stroke="#2a2a3a" stroke-width="1.5" stroke-linejoin="round"/>
<path d="M 279.00 63.17 A 158 158 0 0 1 336.83 121.00 L 307.39 138.00 A 124 124 0 0 0 262.00 92.61 Z" fill="#FAFAF5" stroke="#2a2a3a" stroke-width="1.5" stroke-linejoin="round"/>
<path d="M 336.83 121.00 A 158 158 0 0 1 358.00 200.00 L 324.00 200.00 A 124 124 0 0 0 307.39 138.00 Z" fill="#FAFAF5" stroke="#2a2a3a" stroke-width="1.5" stroke-linejoin="round"/>
<path d="M 358.00 200.00 A 158 158 0 0 1 336.83 279.00 L 307.39 262.00 A 124 124 0 0 0 324.00 200.00 Z" fill="#FAFAF5" stroke="#2a2a3a" stroke-width="1.5" stroke-linejoin="round"/>
<path d="M 336.83 279.00 A 158 158 0 0 1 279.00 336.83 L 262.00 307.39 A 124 124 0 0 0 307.39 262.00 Z" fill="#FAFAF5" stroke="#2a2a3a" stroke-width="1.5" stroke-linejoin="round"/>
<path d="M 279.00 336.83 A 158 158 0 0 1 200.00 358.00 L 200.00 324.00 A 124 124 0 0 0 262.00 307.39 Z" fill="#FAFAF5" stroke="#2a2a3a" stroke-width="1.5" stroke-linejoin="round"/>
<path d="M 200.00 358.00 A 158 158 0 0 1 121.00 336.83 L 138.00 307.39 A 124 124 0 0 0 200.00 324.00 Z" fill="#FAFAF5" stroke="#2a2a3a" stroke-width="1.5" stroke-linejoin="round"/>
<path d="M 121.00 336.83 A 158 158 0 0 1 63.17 279.00 L 92.61 262.00 A 124 124 0 0 0 138.00 307.39 Z" fill="#FAFAF5" stroke="#2a2a3a" stroke-width="1.5" stroke-linejoin="round"/>
<path d="M 63.17 279.00 A 158 158 0 0 1 42.00 200.00 L 76.00 200.00 A 124 124 0 0 0 92.61 262.00 Z" fill="#FAFAF5" stroke="#2a2a3a" stroke-width="1.5" stroke-linejoin="round"/>
<path d="M 42.00 200.00 A 158 158 0 0 1 63.17 121.00 L 92.61 138.00 A 124 124 0 0 0 76.00 200.00 Z" fill="#FAFAF5" stroke="#2a2a3a" stroke-width="1.5" stroke-linejoin="round"/>
<path d="M 63.17 121.00 A 158 158 0 0 1 121.00 63.17 L 138.00 92.61 A 124 124 0 0 0 92.61 138.00 Z" fill="#FAFAF5" stroke="#2a2a3a" stroke-width="1.5" stroke-linejoin="round"/>
<path d="M 121.00 63.17 A 158 158 0 0 1 200.00 42.00 L 200.00 76.00 A 124 124 0 0 0 138.00 92.61 Z" fill="#FAFAF5" stroke="#2a2a3a" stroke-width="1.5" stroke-linejoin="round"/>
<path d="M 200.00 14.00 A 186 186 0 0 1 224.28 15.59 L 220.62 43.35 A 158 158 0 0 0 200.00 42.00 Z" fill="#FAFAF5" stroke="#2a2a3a" stroke-width="1.5" stroke-linejoin="round"/>
<path d="M 224.28 15.59 A 186 186 0 0 1 248.14 20.34 L 240.89 47.38 A 158 158 0 0 0 220.62 43.35 Z" fill="#FAFAF5" stroke="#2a2a3a" stroke-width="1.5" stroke-linejoin="round"/>
<path d="M 248.14 20.34 A 186 186 0 0 1 271.18 28.16 L 260.46 54.03 A 158 158 0 0 0 240.89 47.38 Z" fill="#FAFAF5" stroke="#2a2a3a" stroke-width="1.5" stroke-linejoin="round"/>
<path d="M 271.18 28.16 A 186 186 0 0 1 293.00 38.92 L 279.00 63.17 A 158 158 0 0 0 260.46 54.03 Z" fill="#FAFAF5" stroke="#2a2a3a" stroke-width="1.5" stroke-linejoin="round"/>
<path d="M 293.00 38.92 A 186 186 0 0 1 313.23 52.44 L 296.18 74.65 A 158 158 0 0 0 279.00 63.17 Z" fill="#FAFAF5" stroke="#2a2a3a" stroke-width="1.5" stroke-linejoin="round"/>
<path d="M 313.23 52.44 A 186 186 0 0 1 331.52 68.48 L 311.72 88.28 A 158 158 0 0 0 296.18 74.65 Z" fill="#FAFAF5" stroke="#2a2a3a" stroke-width="1.5" stroke-linejoin="round"/>
<path d="M 331.52 68.48 A 186 186 0 0 1 347.56 86.77 L 325.35 103.82 A 158 158 0 0 0 311.72 88.28 Z" fill="#FAFAF5" stroke="#2a2a3a" stroke-width="1.5" stroke-linejoin="round"/>
<path d="M 347.56 86.77 A 186 186 0 0 1 361.08 107.00 L 336.83 121.00 A 158 158 0 0 0 325.35 103.82 Z" fill="#FAFAF5" stroke="#2a2a3a" stroke-width="1.5" stroke-linejoin="round"/>
<path d="M 361.08 107.00 A 186 186 0 0 1 371.84 128.82 L 345.97 139.54 A 158 158 0 0 0 336.83 121.00 Z" fill="#FAFAF5" stroke="#2a2a3a" stroke-width="1.5" stroke-linejoin="round"/>
<path d="M 371.84 128.82 A 186 186 0 0 1 379.66 151.86 L 352.62 159.11 A 158 158 0 0 0 345.97 139.54 Z" fill="#FAFAF5" stroke="#2a2a3a" stroke-width="1.5" stroke-linejoin="round"/>
<path d="M 379.66 151.86 A 186 186 0 0 1 384.41 175.72 L 356.65 179.38 A 158 158 0 0 0 352.62 159.11 Z" fill="#FAFAF5" stroke="#2a2a3a" stroke-width="1.5" stroke-linejoin="round"/>
<path d="M 384.41 175.72 A 186 186 0 0 1 386.00 200.00 L 358.00 200.00 A 158 158 0 0 0 356.65 179.38 Z" fill="#FAFAF5" stroke="#2a2a3a" stroke-width="1.5" stroke-linejoin="round"/>
<path d="M 386.00 200.00 A 186 186 0 0 1 384.41 224.28 L 356.65 220.62 A 158 158 0 0 0 358.00 200.00 Z" fill="#FAFAF5" stroke="#2a2a3a" stroke-width="1.5" stroke-linejoin="round"/>
<path d="M 384.41 224.28 A 186 186 0 0 1 379.66 248.14 L 352.62 240.89 A 158 158 0 0 0 356.65 220.62 Z" fill="#FAFAF5" stroke="#2a2a3a" stroke-width="1.5" stroke-linejoin="round"/>
<path d="M 379.66 248.14 A 186 186 0 0 1 371.84 271.18 L 345.97 260.46 A 158 158 0 0 0 352.62 240.89 Z" fill="#FAFAF5" stroke="#2a2a3a" stroke-width="1.5" stroke-linejoin="round"/>
<path d="M 371.84 271.18 A 186 186 0 0 1 361.08 293.00 L 336.83 279.00 A 158 158 0 0 0 345.97 260.46 Z" fill="#FAFAF5" stroke="#2a2a3a" stroke-width="1.5" stroke-linejoin="round"/>
<path d="M 361.08 293.00 A 186 186 0 0 1 347.56 313.23 L 325.35 296.18 A 158 158 0 0 0 336.83 279.00 Z" fill="#FAFAF5" stroke="#2a2a3a" stroke-width="1.5" stroke-linejoin="round"/>
<path d="M 347.56 313.23 A 186 186 0 0 1 331.52 331.52 L 311.72 311.72 A 158 158 0 0 0 325.35 296.18 Z" fill="#FAFAF5" stroke="#2a2a3a" stroke-width="1.5" stroke-linejoin="round"/>
<path d="M 331.52 331.52 A 186 186 0 0 1 313.23 347.56 L 296.18 325.35 A 158 158 0 0 0 311.72 311.72 Z" fill="#FAFAF5" stroke="#2a2a3a" stroke-width="1.5" stroke-linejoin="round"/>
<path d="M 313.23 347.56 A 186 186 0 0 1 293.00 361.08 L 279.00 336.83 A 158 158 0 0 0 296.18 325.35 Z" fill="#FAFAF5" stroke="#2a2a3a" stroke-width="1.5" stroke-linejoin="round"/>
<path d="M 293.00 361.08 A 186 186 0 0 1 271.18 371.84 L 260.46 345.97 A 158 158 0 0 0 279.00 336.83 Z" fill="#FAFAF5" stroke="#2a2a3a" stroke-width="1.5" stroke-linejoin="round"/>
<path d="M 271.18 371.84 A 186 186 0 0 1 248.14 379.66 L 240.89 352.62 A 158 158 0 0 0 260.46 345.97 Z" fill="#FAFAF5" stroke="#2a2a3a" stroke-width="1.5" stroke-linejoin="round"/>
<path d="M 248.14 379.66 A 186 186 0 0 1 224.28 384.41 L 220.62 356.65 A 158 158 0 0 0 240.89 352.62 Z" fill="#FAFAF5" stroke="#2a2a3a" stroke-width="1.5" stroke-linejoin="round"/>
<path d="M 224.28 384.41 A 186 186 0 0 1 200.00 386.00 L 200.00 358.00 A 158 158 0 0 0 220.62 356.65 Z" fill="#FAFAF5" stroke="#2a2a3a" stroke-width="1.5" stroke-linejoin="round"/>
<path d="M 200.00 386.00 A 186 186 0 0 1 175.72 384.41 L 179.38 356.65 A 158 158 0 0 0 200.00 358.00 Z" fill="#FAFAF5" stroke="#2a2a3a" stroke-width="1.5" stroke-linejoin="round"/>
<path d="M 175.72 384.41 A 186 186 0 0 1 151.86 379.66 L 159.11 352.62 A 158 158 0 0 0 179.38 356.65 Z" fill="#FAFAF5" stroke="#2a2a3a" stroke-width="1.5" stroke-linejoin="round"/>
<path d="M 151.86 379.66 A 186 186 0 0 1 128.82 371.84 L 139.54 345.97 A 158 158 0 0 0 159.11 352.62 Z" fill="#FAFAF5" stroke="#2a2a3a" stroke-width="1.5" stroke-linejoin="round"/>
<path d="M 128.82 371.84 A 186 186 0 0 1 107.00 361.08 L 121.00 336.83 A 158 158 0 0 0 139.54 345.97 Z" fill="#FAFAF5" stroke="#2a2a3a" stroke-width="1.5" stroke-linejoin="round"/>
<path d="M 107.00 361.08 A 186 186 0 0 1 86.77 347.56 L 103.82 325.35 A 158 158 0 0 0 121.00 336.83 Z" fill="#FAFAF5" stroke="#2a2a3a" stroke-width="1.5" stroke-linejoin="round"/>
<path d="M 86.77 347.56 A 186 186 0 0 1 68.48 331.52 L 88.28 311.72 A 158 158 0 0 0 103.82 325.35 Z" fill="#FAFAF5" stroke="#2a2a3a" stroke-width="1.5" stroke-linejoin="round"/>
<path d="M 68.48 331.52 A 186 186 0 0 1 52.44 313.23 L 74.65 296.18 A 158 158 0 0 0 88.28 311.72 Z" fill="#FAFAF5" stroke="#2a2a3a" stroke-width="1.5" stroke-linejoin="round"/>
<path d="M 52.44 313.23 A 186 186 0 0 1 38.92 293.00 L 63.17 279.00 A 158 158 0 0 0 74.65 296.18 Z" fill="#FAFAF5" stroke="#2a2a3a" stroke-width="1.5" stroke-linejoin="round"/>
<path d="M 38.92 293.00 A 186 186 0 0 1 28.16 271.18 L 54.03 260.46 A 158 158 0 0 0 63.17 279.00 Z" fill="#FAFAF5" stroke="#2a2a3a" stroke-width="1.5" stroke-linejoin="round"/>
<path d="M 28.16 271.18 A 186 186 0 0 1 20.34 248.14 L 47.38 240.89 A 158 158 0 0 0 54.03 260.46 Z" fill="#FAFAF5" stroke="#2a2a3a" stroke-width="1.5" stroke-linejoin="round"/>
<path d="M 20.34 248.14 A 186 186 0 0 1 15.59 224.28 L 43.35 220.62 A 158 158 0 0 0 47.38 240.89 Z" fill="#FAFAF5" stroke="#2a2a3a" stroke-width="1.5" stroke-linejoin="round"/>
<path d="M 15.59 224.28 A 186 186 0 0 1 14.00 200.00 L 42.00 200.00 A 158 158 0 0 0 43.35 220.62 Z" fill="#FAFAF5" stroke="#2a2a3a" stroke-width="1.5" stroke-linejoin="round"/>
<path d="M 14.00 200.00 A 186 186 0 0 1 15.59 175.72 L 43.35 179.38 A 158 158 0 0 0 42.00 200.00 Z" fill="#FAFAF5" stroke="#2a2a3a" stroke-width="1.5" stroke-linejoin="round"/>
<path d="M 15.59 175.72 A 186 186 0 0 1 20.34 151.86 L 47.38 159.11 A 158 158 0 0 0 43.35 179.38 Z" fill="#FAFAF5" stroke="#2a2a3a" stroke-width="1.5" stroke-linejoin="round"/>
<path d="M 20.34 151.86 A 186 186 0 0 1 28.16 128.82 L 54.03 139.54 A 158 158 0 0 0 47.38 159.11 Z" fill="#FAFAF5" stroke="#2a2a3a" stroke-width="1.5" stroke-linejoin="round"/>
<path d="M 28.16 128.82 A 186 186 0 0 1 38.92 107.00 L 63.17 121.00 A 158 158 0 0 0 54.03 139.54 Z" fill="#FAFAF5" stroke="#2a2a3a" stroke-width="1.5" stroke-linejoin="round"/>
<path d="M 38.92 107.00 A 186 186 0 0 1 52.44 86.77 L 74.65 103.82 A 158 158 0 0 0 63.17 121.00 Z" fill="#FAFAF5" stroke="#2a2a3a" stroke-width="1.5" stroke-linejoin="round"/>
<path d="M 52.44 86.77 A 186 186 0 0 1 68.48 68.48 L 88.28 88.28 A 158 158 0 0 0 74.65 103.82 Z" fill="#FAFAF5" stroke="#2a2a3a" stroke-width="1.5" stroke-linejoin="round"/>
<path d="M 68.48 68.48 A 186 186 0 0 1 86.77 52.44 L 103.82 74.65 A 158 158 0 0 0 88.28 88.28 Z" fill="#FAFAF5" stroke="#2a2a3a" stroke-width="1.5" stroke-linejoin="round"/>
<path d="M 86.77 52.44 A 186 186 0 0 1 107.00 38.92 L 121.00 63.17 A 158 158 0 0 0 103.82 74.65 Z" fill="#FAFAF5" stroke="#2a2a3a" stroke-width="1.5" stroke-linejoin="round"/>
<path d="M 107.00 38.92 A 186 186 0 0 1 128.82 28.16 L 139.54 54.03 A 158 158 0 0 0 121.00 63.17 Z" fill="#FAFAF5" stroke="#2a2a3a" stroke-width="1.5" stroke-linejoin="round"/>
<path d="M 128.82 28.16 A 186 186 0 0 1 151.86 20.34 L 159.11 47.38 A 158 158 0 0 0 139.54 54.03 Z" fill="#FAFAF5" stroke="#2a2a3a" stroke-width="1.5" stroke-linejoin="round"/>
<path d="M 151.86 20.34 A 186 186 0 0 1 175.72 15.59 L 179.38 43.35 A 158 158 0 0 0 159.11 47.38 Z" fill="#FAFAF5" stroke="#2a2a3a" stroke-width="1.5" stroke-linejoin="round"/>
<path d="M 175.72 15.59 A 186 186 0 0 1 200.00 14.00 L 200.00 42.00 A 158 158 0 0 0 179.38 43.35 Z" fill="#FAFAF5" stroke="#2a2a3a" stroke-width="1.5" stroke-linejoin="round"/>
<path d="M 200.00 4.00 A 196 196 0 0 1 298.00 30.26 L 293.00 38.92 A 186 186 0 0 0 200.00 14.00 Z" fill="#FAFAF5" stroke="#2a2a3a" stroke-width="1.5" stroke-linejoin="round"/>
<path d="M 298.00 30.26 A 196 196 0 0 1 369.74 102.00 L 361.08 107.00 A 186 186 0 0 0 293.00 38.92 Z" fill="#FAFAF5" stroke="#2a2a3a" stroke-width="1.5" stroke-linejoin="round"/>
<path d="M 369.74 102.00 A 196 196 0 0 1 396.00 200.00 L 386.00 200.00 A 186 186 0 0 0 361.08 107.00 Z" fill="#FAFAF5" stroke="#2a2a3a" stroke-width="1.5" stroke-linejoin="round"/>
<path d="M 396.00 200.00 A 196 196 0 0 1 369.74 298.00 L 361.08 293.00 A 186 186 0 0 0 386.00 200.00 Z" fill="#FAFAF5" stroke="#2a2a3a" stroke-width="1.5" stroke-linejoin="round"/>
<path d="M 369.74 298.00 A 196 196 0 0 1 298.00 369.74 L 293.00 361.08 A 186 186 0 0 0 361.08 293.00 Z" fill="#FAFAF5" stroke="#2a2a3a" stroke-width="1.5" stroke-linejoin="round"/>
<path d="M 298.00 369.74 A 196 196 0 0 1 200.00 396.00 L 200.00 386.00 A 186 186 0 0 0 293.00 361.08 Z" fill="#FAFAF5" stroke="#2a2a3a" stroke-width="1.5" stroke-linejoin="round"/>
<path d="M 200.00 396.00 A 196 196 0 0 1 102.00 369.74 L 107.00 361.08 A 186 186 0 0 0 200.00 386.00 Z" fill="#FAFAF5" stroke="#2a2a3a" stroke-width="1.5" stroke-linejoin="round"/>
<path d="M 102.00 369.74 A 196 196 0 0 1 30.26 298.00 L 38.92 293.00 A 186 186 0 0 0 107.00 361.08 Z" fill="#FAFAF5" stroke="#2a2a3a" stroke-width="1.5" stroke-linejoin="round"/>
<path d="M 30.26 298.00 A 196 196 0 0 1 4.00 200.00 L 14.00 200.00 A 186 186 0 0 0 38.92 293.00 Z" fill="#FAFAF5" stroke="#2a2a3a" stroke-width="1.5" stroke-linejoin="round"/>
<path d="M 4.00 200.00 A 196 196 0 0 1 30.26 102.00 L 38.92 107.00 A 186 186 0 0 0 14.00 200.00 Z" fill="#FAFAF5" stroke="#2a2a3a" stroke-width="1.5" stroke-linejoin="round"/>
<path d="M 30.26 102.00 A 196 196 0 0 1 102.00 30.26 L 107.00 38.92 A 186 186 0 0 0 38.92 107.00 Z" fill="#FAFAF5" stroke="#2a2a3a" stroke-width="1.5" stroke-linejoin="round"/>
<path d="M 102.00 30.26 A 196 196 0 0 1 200.00 4.00 L 200.00 14.00 A 186 186 0 0 0 107.00 38.92 Z" fill="#FAFAF5" stroke="#2a2a3a" stroke-width="1.5" stroke-linejoin="round"/>
</svg>