<?xml version="1.0" encoding="UTF-8"?>
<svg xmlns="http://www.w3.org/2000/svg" viewBox="0 0 400 400" width="400" height="400">
<rect width="400" height="400" fill="#FAFAF5"/>
<circle cx="200" cy="200" r="20" fill="#FAFAF5" stroke="#2a2a3a" stroke-width="1.5" stroke-linejoin="round"/>
<path d="M 200.00 150.00 A 50 50 0 0 1 243.30 175.00 L 217.32 190.00 A 20 20 0 0 0 200.00 180.00 Z" fill="#FAFAF5" stroke="#2a2a3a" stroke-width="1.5" stroke-linejoin="round"/>
<path d="M 243.30 175.00 A 50 50 0 0 1 243.30 225.00 L 217.32 210.00 A 20 20 0 0 0 217.32 190.00 Z" fill="#FAFAF5" stroke="#2a2a3a" stroke-width="1.5" stroke-linejoin="round"/>
<path d="M 243.30 225.00 A 50 50 0 0 1 200.00 250.00 L 200.00 220.00 A 20 20 0 0 0 217.32 210.00 Z" fill="#FAFAF5" stroke="#2a2a3a" stroke-width="1.5" stroke-linejoin="round"/>
<path d="M 200.00 250.00 A 50 50 0 0 1 156.70 225.00 L 182.68 210.00 A 20 20 0 0 0 200.00 220.00 Z" fill="#FAFAF5" stroke="#2a2a3a" stroke-width="1.5" stroke-linejoin="round"/>
<path d="M 156.70 225.00 A 50 50 0 0 1 156.70 175.00 L 182.68 190.00 A 20 20 0 0 0 182.68 210.00 Z" fill="#FAFAF5" stroke="#2a2a3a" stroke-width="1.5" stroke-linejoin="round"/>
<path d="M 156.70 175.00 A 50 50 0 0 1 200.00 150.00 L 200.00 180.00 A 20 20 0 0 0 182.68 190.00 Z" fill="#FAFAF5" stroke="#2a2a3a" stroke-width="1.5" stroke-linejoin="round"/>
<path d="M 200.00 115.00 A 85 85 0 0 1 242.50 126.39 L 225.00 156.70 A 50 50 0 0 0 200.00 150.00 Z" fill="#FAFAF5" stroke="#2a2a3a" stroke-width="1.5" stroke-linejoin="round"/>
<path d="M 242.50 126.39 A 85 85 0 0 1 273.61 157.50 L 243.30 175.00 A 50 50 0 0 0 225.00 156.70 Z" fill="#FAFAF5" stroke="#2a2a3a" stroke-width="1.5" stroke-linejoin="round"/>
<path d="M 273.61 157.50 A 85 85 0 0 1 285.00 200.00 L 250.00 200.00 A 50 50 0 0 0 243.30 175.00 Z" fill="#FAFAF5" stroke="#2a2a3a" stroke-width="1.5" stroke-linejoin="round"/>
<path d="M 285.00 200.00 A 85 85 0 0 1 273.61 242.50 L 243.30 225.00 A 50 50 0 0 0 250.00 200.00 Z" fill="#FAFAF5" stroke="#2a2a3a" stroke-width="1.5" stroke-linejoin="round"/>
<path d="M 273.61 242.50 A 85 85 0 0 1 242.50 273.61 L 225.00 243.30 A 50 50 0 0 0 243.30 225.00 Z" fill="#FAFAF5" stroke="#2a2a3a" stroke-width="1.5" stroke-linejoin="round"/>
<path d="M 242.50 273.61 A 85 85 0 0 1 200.00 285.00 L 200.00 250.00 A 50 50 0 0 0 225.00 243.30 Z" fill="#FAFAF5" stroke="#2a2a3a" stroke-width="1.5" stroke-linejoin="round"/>
<path d="M 200.00 285.00 A 85 85 0 0 1 157.50 273.61 L 175.00 243.30 A 50 50 0 0 0 200.00 250.00 Z" fill="#FAFAF5" stroke="#2a2a3a" stroke-width="1.5" stroke-linejoin="round"/>
<path d="M 157.50 273.61 A 85 85 0 0 1 126.39 242.50 L 156.70 225.00 A 50 50 0 0 0 175.00 243.30 Z" fill="#FAFAF5" stroke="#2a2a3a" stroke-width="1.5" stroke-linejoin="round"/>
<path d="M 126.39 242.50 A 85 85 0 0 1 115.00 200.00 L 150.00 200.00 A 50 50 0 0 0 156.70 225.00 Z" fill="#FAFAF5" stroke="#2a2a3a" stroke-width="1.5" stroke-linejoin="round"/>
<path d="M 115.00 200.00 A 85 85 0 0 1 126.39 157.50 L 156.70 175.00 A 50 50 0 0 0 150.00 200.00 Z" fill="#FAFAF5" stroke="#2a2a3a" stroke-width="1.5" stroke-linejoin="round"/>
<path d="M 126.39 157.50 A 85 85 0 0 1 157.50 126.39 L 175.00 156.70 A 50 50 0 0 0 156.70 175.00 Z" fill="#FAFAF5" stroke="#2a2a3a" stroke-width="1.5" stroke-linejoin="round"/>
<path d="M 157.50 126.39 A 85 85 0 0 1 200.00 115.00 L 200.00 150.00 A 50 50 0 0 0 175.00 156.70 Z" fill="#FAFAF5" stroke="#2a2a3a" stroke-width="1.5" stroke-linejoin="round"/>
<path d="M 200.00 82.00 A 118 118 0 0 1 230.54 86.02 L 222.00 117.90 A 85 85 0 0 0 200.00 115.00 Z" fill="#FAFAF5" stroke="#2a2a3a" stroke-width="1.5" stroke-linejoin="round"/>
<path d="M 230.54 86.02 A 118 118 0 0 1 259.00 97.81 L 242.50 126.39 A 85 85 0 0 0 222.00 117.90 Z" fill="#FAFAF5" stroke="#2a2a3a" stroke-width="1.5" stroke-linejoin="round"/>
<path d="M 259.00 97.81 A 118 118 0 0 1 283.44 116.56 L 260.10 139.90 A 85 85 0 0 0 242.50 126.39 Z" fill="#FAFAF5" stroke="#2a2a3a" stroke-width="1.5" stroke-linejoin="round"/>
<path d="M 283.44 116.56 A 118 118 0 0 1 302.19 141.00 L 273.61 157.50 A 85 85 0 0 0 260.10 139.90 Z" fill="#FAFAF5" stroke="#2a2a3a" stroke-width="1.5" stroke-linejoin="round"/>
<path d="M 302.19 141.00 A 118 118 0 0 1 313.98 169.46 L 282.10 178.00 A 85 85 0 0 0 273.61 157.50 Z" fill="#FAFAF5" stroke="#2a2a3a" stroke-width="1.5" stroke-linejoin="round"/>
<path d="M 313.98 169.46 A 118 118 0 0 1 318.00 200.00 L 285.00 200.00 A 85 85 0 0 0 282.10 178.00 Z" fill="#FAFAF5" stroke="#2a2a3a" stroke-width="1.5" stroke-linejoin="round"/>
<path d="M 318.00 200.00 A 118 118 0 0 1 313.98 230.54 L 282.10 222.00 A 85 85 0 0 0 285.00 200.00 Z" fill="#FAFAF5" stroke="#2a2a3a" stroke-width="1.5" stroke-linejoin="round"/>
<path d="M 313.98 230.54 A 118 118 0 0 1 302.19 259.00 L 273.61 242.50 A 85 85 0 0 0 282.10 222.00 Z" fill="#FAFAF5" stroke="#2a2a3a" stroke-width="1.5" stroke-linejoin="round"/>
<path d="M 302.19 259.00 A 118 118 0 0 1 283.44 283.44 L 260.10 260.10 A 85 85 0 0 0 273.61 242.50 Z" fill="#FAFAF5" stroke="#2a2a3a" stroke-width="1.5" stroke-linejoin="round"/>
<path d="M 283.44 283.44 A 118 118 0 0 1 259.00 302.19 L 242.50 273.61 A 85 85 0 0 0 260.10 260.10 Z" fill="#FAFAF5" stroke="#2a2a3a" stroke-width="1.5" stroke-linejoin="round"/>
<path d="M 259.00 302.19 A 118 118 0 0 1 230.54 313.98 L 222.00 282.10 A 85 85 0 0 0 242.50 273.61 Z" fill="#FAFAF5" stroke="#2a2a3a" stroke-width="1.5" stroke-linejoin="round"/>
<path d="M 230.54 313.98 A 118 118 0 0 1 200.00 318.00 L 200.00 285.00 A 85 85 0 0 0 222.00 282.10 Z" fill="#FAFAF5" stroke="#2a2a3a" stroke-width="1.5" stroke-linejoin="round"/>
<path d="M 200.00 318.00 A 118 118 0 0 1 169.46 313.98 L 178.00 282.10 A 85 85 0 0 0 200.00 285.00 Z" fill="#FAFAF5" stroke="#2a2a3a" stroke-width="1.5" stroke-linejoin="round"/>
<path d="M 169.46 313.98 A 118 118 0 0 1 141.00 302.19 L 157.50 273.61 A 85 85 0 0 0 178.00 282.10 Z" fill="#FAFAF5" stroke="#2a2a3a" stroke-width="1.5" stroke-linejoin="round"/>
<path d="M 141.00 302.19 A 118 118 0 0 1 116.56 283.44 L 139.90 260.10 A 85 85 0 0 0 157.50 273.61 Z" fill="#FAFAF5" stroke="#2a2a3a" stroke-width="1.5" stroke-linejoin="round"/>
<path d="M 116.56 283.44 A 118 118 0 0 1 97.81 259.00 L 126.39 242.50 A 85 85 0 0 0 139.90 260.10 Z" fill="#FAFAF5" stroke="#2a2a3a" stroke-width="1.5" stroke-linejoin="round"/>
<path d="M 97.81 259.00 A 118 118 0 0 1 86.02 230.54 L 117.90 222.00 A 85 85 0 0 0 126.39 242.50 Z" fill="#FAFAF5" stroke="#2a2a3a" stroke-width="1.5" stroke-linejoin="round"/>
<path d="M 86.02 230.54 A 118 118 0 0 1 82.00 200.00 L 115.00 200.00 A 85 85 0 0 0 117.90 222.00 Z" fill="#FAFAF5" stroke="#2a2a3a" stroke-width="1.5" stroke-linejoin="round"/>
<path d="M 82.00 200.00 A 118 118 0 0 1 86.02 169.46 L 117.90 178.00 A 85 85 0 0 0 115.00 200.00 Z" fill="#FAFAF5" stroke="#2a2a3a" stroke-width="1.5" stroke-linejoin="round"/>
<path d="M 86.02 169.46 A 118 118 0 0 1 97.81 141.00 L 126.39 157.50 A 85 85 0 0 0 117.90 178.00 Z" fill="#FAFAF5" stroke="#2a2a3a" stroke-width="1.5" stroke-linejoin="round"/>
<path d="M 97.81 141.00 A 118 118 0 0 1 116.56 116.56 L 139.90 139.90 A 85 85 0 0 0 126.39 157.50 Z" fill="#FAFAF5" stroke="#2a2a3a" stroke-width="1.5" stroke-linejoin="round"/>
<path d="M 116.56 116.56 A 118 118 0 0 1 141.00 97.81 L 157.50 126.39 A 85 85 0 0 0 139.90 139.90 Z" fill="#FAFAF5" stroke="#2a2a3a" stroke-width="1.5" stroke-linejoin="round"/>
<path d="M 141.00 97.81 A 118 118 0 0 1 169.46 86.02 L 178.00 117.90 A 85 85 0 0 0 157.50 126.39 Z" fill="#FAFAF5" stroke="#2a2a3a" stroke-width="1.5" stroke-linejoin="round"/>
<path d="M 169.46 86.02 A 118 118 0 0 1 200.00 82.00 L 200.00 115.00 A 85 85 0 0 0 178.00 117.90 Z" fill="#FAFAF5" stroke="#2a2a3a" stroke-width="1.5" stroke-linejoin="round"/>
<path d="M 200.00 50.00 A 150 150 0 0 1 219.58 51.28 L 215.40 83.01 A 118 118 0 0 0 200.00 82.00 Z" fill="#FAFAF5" stroke="#2a2a3a" stroke-width="1.5" stroke-linejoin="round"/>
<path d="M 219.58 51.28 A 150 150 0 0 1 238.82 55.11 L 230.54 86.02 A 118 118 0 0 0 215.40 83.01 Z" fill="#FAFAF5" stroke="#2a2a3a" stroke-width="1.5" stroke-linejoin="round"/>
<path d="M 238.82 55.11 A 150 150 0 0 1 257.40 61.42 L 245.16 90.98 A 118 118 0 0 0 230.54 86.02 Z" fill="#FAFAF5" stroke="#2a2a3a" stroke-width="1.5" stroke-linejoin="round"/>
<path d="M 257.40 61.42 A 150 150 0 0 1 275.00 70.10 L 259.00 97.81 A 118 118 0 0 0 245.16 90.98 Z" fill="#FAFAF5" stroke="#2a2a3a" stroke-width="1.5" stroke-linejoin="round"/>
<path d="M 275.00 70.10 A 150 150 0 0 1 291.31 81.00 L 271.83 106.38 A 118 118 0 0 0 259.00 97.81 Z" fill="#FAFAF5" stroke="#2a2a3a" stroke-width="1.5" stroke-linejoin="round"/>
<path d="M 291.31 81.00 A 150 150 0 0 1 306.07 93.93 L 283.44 116.56 A 118 118 0 0 0 271.83 106.38 Z" fill="#FAFAF5" stroke="#2a2a3a" stroke-width="1.5" stroke-linejoin="round"/>
<path d="M 306.07 93.93 A 150 150 0 0 1 319.00 108.69 L 293.62 128.17 A 118 118 0 0 0 283.44 116.56 Z" fill="#FAFAF5" stroke="#2a2a3a" stroke-width="1.5" stroke-linejoin="round"/>
<path d="M 319.00 108.69 A 150 150 0 0 1 329.90 125.00 L 302.19 141.00 A 118 118 0 0 0 293.62 128.17 Z" fill="#FAFAF5" stroke="#2a2a3a" stroke-width="1.5" stroke-linejoin="round"/>
<path d="M 329.90 125.00 A 150 150 0 0 1 338.58 142.60 L 309.02 154.84 A 118 118 0 0 0 302.19 141.00 Z" fill="#FAFAF5" stroke="#2a2a3a" stroke-width="1.5" stroke-linejoin="round"/>
<path d="M 338.58 142.60 A 150 150 0 0 1 344.89 161.18 L 313.98 169.46 A 118 118 0 0 0 309.02 154.84 Z" fill="#FAFAF5" stroke="#2a2a3a" stroke-width="1.5" stroke-linejoin="round"/>
<path d="M 344.89 161.18 A 150 150 0 0 1 348.72 180.42 L 316.99 184.60 A 118 118 0 0 0 313.98 169.46 Z" fill="#FAFAF5" stroke="#2a2a3a" stroke-width="1.5" stroke-linejoin="round"/>
<path d="M 348.72 180.42 A 150 150 0 0 1 350.00 200.00 L 318.00 200.00 A 118 118 0 0 0 316.99 184.60 Z" fill="#FAFAF5" stroke="#2a2a3a" stroke-width="1.5" stroke-linejoin="round"/>
<path d="M 350.00 200.00 A 150 150 0 0 1 348.72 219.58 L 316.99 215.40 A 118 118 0 0 0 318.00 200.00 Z" fill="#FAFAF5" stroke="#2a2a3a" stroke-width="1.5" stroke-linejoin="round"/>
<path d="M 348.72 219.58 A 150 150 0 0 1 344.89 238.82 L 313.98 230.54 A 118 118 0 0 0 316.99 215.40 Z" fill="#FAFAF5" stroke="#2a2a3a" stroke-width="1.5" stroke-linejoin="round"/>
<path d="M 344.89 238.82 A 150 150 0 0 1 338.58 257.40 L 309.02 245.16 A 118 118 0 0 0 313.98 230.54 Z" fill="#FAFAF5" stroke="#2a2a3a" stroke-width="1.5" stroke-linejoin="round"/>
<path d="M 338.58 257.40 A 150 150 0 0 1 329.90 275.00 L 302.19 259.00 A 118 118 0 0 0 309.02 245.16 Z" fill="#FAFAF5" stroke="#2a2a3a" stroke-width="1.5" stroke-linejoin="round"/>
<path d="M 329.90 275.00 A 150 150 0 0 1 319.00 291.31 L 293.62 271.83 A 118 118 0 0 0 302.19 259.00 Z" fill="#FAFAF5" stroke="#2a2a3a" stroke-width="1.5" stroke-linejoin="round"/>
<path d="M 319.00 291.31 A 150 150 0 0 1 306.07 306.07 L 283.44 283.44 A 118 118 0 0 0 293.62 271.83 Z" fill="#FAFAF5" stroke="#2a2a3a" stroke-width="1.5" stroke-linejoin="round"/>
<path d="M 306.07 306.07 A 150 150 0 0 1 291.31 319.00 L 271.83 293.62 A 118 118 0 0 0 283.44 283.44 Z" fill="#FAFAF5" stroke="#2a2a3a" stroke-width="1.5" stroke-linejoin="round"/>
<path d="M 291.31 319.00 A 150 150 0 0 1 275.00 329.90 L 259.00 302.19 A 118 118 0 0 0 271.83 293.62 Z" fill="#FAFAF5" stroke="#2a2a3a" stroke-width="1.5" stroke-linejoin="round"/>
<path d="M 275.00 329.90 A 150 150 0 0 1 257.40 338.58 L 245.16 309.02 A 118 118 0 0 0 259.00 302.19 Z" fill="#FAFAF5" stroke="#2a2a3a" stroke-width="1.5" stroke-linejoin="round"/>
<path d="M 257.40 338.58 A 150 150 0 0 1 238.82 344.89 L 230.54 313.98 A 118 118 0 0 0 245.16 309.02 Z" fill="#FAFAF5" stroke="#2a2a3a" stroke-width="1.5" stroke-linejoin="round"/>
<path d="M 238.82 344.89 A 150 150 0 0 1 219.58 348.72 L 215.40 316.99 A 118 118 0 0 0 230.54 313.98 Z" fill="#FAFAF5" stroke="#2a2a3a" stroke-width="1.5" stroke-linejoin="round"/>
<path d="M 219.58 348.72 A 150 150 0 0 1 200.00 350.00 L 200.00 318.00 A 118 118 0 0 0 215.40 316.99 Z" fill="#FAFAF5" stroke="#2a2a3a" stroke-width="1.5" stroke-linejoin="round"/>
<path d="M 200.00 350.00 A 150 150 0 0 1 180.42 348.72 L 184.60 316.99 A 118 118 0 0 0 200.00 318.00 Z" fill="#FAFAF5" stroke="#2a2a3a" stroke-width="1.5" stroke-linejoin="round"/>
<path d="M 180.42 348.72 A 150 150 0 0 1 161.18 344.89 L 169.46 313.98 A 118 118 0 0 0 184.60 316.99 Z" fill="#FAFAF5" stroke="#2a2a3a" stroke-width="1.5" stroke-linejoin="round"/>
<path d="M 161.18 344.89 A 150 150 0 0 1 142.60 338.58 L 154.84 309.02 A 118 118 0 0 0 169.46 313.98 Z" fill="#FAFAF5" stroke="#2a2a3a" stroke-width="1.5" stroke-linejoin="round"/>
<path d="M 142.60 338.58 A 150 150 0 0 1 125.00 329.90 L 141.00 302.19 A 118 118 0 0 0 154.84 309.02 Z" fill="#FAFAF5" stroke="#2a2a3a" stroke-width="1.5" stroke-linejoin="round"/>
<path d="M 125.00 329.90 A 150 150 0 0 1 108.69 319.00 L 128.17 293.62 A 118 118 0 0 0 141.00 302.19 Z" fill="#FAFAF5" stroke="#2a2a3a" stroke-width="1.5" stroke-linejoin="round"/>
<path d="M 108.69 319.00 A 150 150 0 0 1 93.93 306.07 L 116.56 283.44 A 118 118 0 0 0 128.17 293.62 Z" fill="#FAFAF5" stroke="#2a2a3a" stroke-width="1.5" stroke-linejoin="round"/>
<path d="M 93.93 306.07 A 150 150 0 0 1 81.00 291.31 L 106.38 271.83 A 118 118 0 0 0 116.56 283.44 Z" fill="#FAFAF5" stroke="#2a2a3a" stroke-width="1.5" stroke-linejoin="round"/>
<path d="M 81.00 291.31 A 150 150 0 0 1 70.10 275.00 L 97.81 259.00 A 118 118 0 0 0 106.38 271.83 Z" fill="#FAFAF5" stroke="#2a2a3a" stroke-width="1.5" stroke-linejoin="round"/>
<path d="M 70.10 275.00 A 150 150 0 0 1 61.42 257.40 L 90.98 245.16 A 118 118 0 0 0 97.81 259.00 Z" fill="#FAFAF5" stroke="#2a2a3a" stroke-width="1.5" stroke-linejoin="round"/>
<path d="M 61.42 257.40 A 150 150 0 0 1 55.11 238.82 L 86.02 230.54 A 118 118 0 0 0 90.98 245.16 Z" fill="#FAFAF5" stroke="#2a2a3a" stroke-width="1.5" stroke-linejoin="round"/>
<path d="M 55.11 238.82 A 150 150 0 0 1 51.28 219.58 L 83.01 215.40 A 118 118 0 0 0 86.02 230.54 Z" fill="#FAFAF5" stroke="#2a2a3a" stroke-width="1.5" stroke-linejoin="round"/>
<path d="M 51.28 219.58 A 150 150 0 0 1 50.00 200.00 L 82.00 200.00 A 118 118 0 0 0 83.01 215.40 Z" fill="#FAFAF5" stroke="#2a2a3a" stroke-width="1.5" stroke-linejoin="round"/>
<path d="M 50.00 200.00 A 150 150 0 0 1 51.28 180.42 L 83.01 184.60 A 118 118 0 0 0 82.00 200.00 Z" fill="#FAFAF5" stroke="#2a2a3a" stroke-width="1.5" stroke-linejoin="round"/>
<path d="M 51.28 180.42 A 150 150 0 0 1 55.11 161.18 L 86.02 169.46 A 118 118 0 0 0 83.01 184.60 Z" fill="#FAFAF5" stroke="#2a2a3a" stroke-width="1.5" stroke-linejoin="round"/>
<path d="M 55.11 161.18 A 150 150 0 0 1 61.42 142.60 L 90.98 154.84 A 118 118 0 0 0 86.02 169.46 Z" fill="#FAFAF5" stroke="#2a2a3a" stroke-width="1.5" stroke-linejoin="round"/>
<path d="M 61.42 142.60 A 150 150 0 0 1 70.10 125.00 L 97.81 141.00 A 118 118 0 0 0 90.98 154.84 Z" fill="#FAFAF5" stroke="#2a2a3a" stroke-width="1.5" stroke-linejoin="round"/>
<path d="M 70.10 125.00 A 150 150 0 0 1 81.00 108.69 L 106.38 128.17 A 118 118 0 0 0 97.81 141.00 Z" fill="#FAFAF5" stroke="#2a2a3a" stroke-width="1.5" stroke-linejoin="round"/>
<path d="M 81.00 108.69 A 150 150 0 0 1 93.93 93.93 L 116.56 116.56 A 118 118 0 0 0 106.38 128.17 Z" fill="#FAFAF5" stroke="#2a2a3a" stroke-width="1.5" stroke-linejoin="round"/>
<path d="M 93.93 93.93 A 150 150 0 0 1 108.69 81.00 L 128.17 106.38 A 118 118 0 0 0 116.56 116.56 Z" fill="#FAFAF5" stroke="#2a2a3a" stroke-width="1.5" stroke-linejoin="round"/>
<path d="M 108.69 81.00 A 150 150 0 0 1 125.00 70.10 L 141.00 97.81 A 118 118 0 0 0 128.17 106.38 Z" fill="#FAFAF5" stroke="#2a2a3a" stroke-width="1.5" stroke-linejoin="round"/>
<path d="M 125.00 70.10 A 150 150 0 0 1 142.60 61.42 L 154.84 90.98 A 118 118 0 0 0 141.00 97.81 Z" fill="#FAFAF5" stroke="#2a2a3a" stroke-width="1.5" stroke-linejoin="round"/>
<path d="M 142.60 61.42 A 150 150 0 0 1 161.18 55.11 L 169.46 86.02 A 118 118 0 0 0 154.84 90.98 Z" fill="#FAFAF5" stroke="#2a2a3a" stroke-width="1.5" stroke-linejoin="round"/>
<path d="M 161.18 55.11 A 150 150 0 0 1 180.42 51.28 L 184.60 83.01 A 118 118 0 0 0 169.46 86.02 Z" fill="#FAFAF5" stroke="#2a2a3a" stroke-width="1.5" stroke-linejoin="round"/>
<path d="M 180.42 51.28 A 150 150 0 0 1 200.00 50.00 L 200.00 82.00 A 118 118 0 0 0 184.60 83.01 Z" fill="#FAFAF5" stroke="#2a2a3a" stroke-width="1.5" stroke-linejoin="round"/>
<path d="M 200.00 22.00 A 178 178 0 0 1 246.07 28.07 L 238.82 55.11 A 150 150 0 0 0 200.00 50.00 Z" fill="#FAFAF5" stroke="#2a2a3a" stroke-width="1.5" stroke-linejoin="round"/>
<path d="M 246.07 28.07 A 178 178 0 0 1 289.00 45.85 L 275.00 70.10 A 150 150 0 0 0 238.82 55.11 Z" fill="#FAFAF5" stroke="#2a2a3a" stroke-width="1.5" stroke-linejoin="round"/>
<path d="M 289.00 45.85 A 178 178 0 0 1 325.87 74.13 L 306.07 93.93 A 150 150 0 0 0 275.00 70.10 Z" fill="#FAFAF5" stroke="#2a2a3a" stroke-width="1.5" stroke-linejoin="round"/>
<path d="M 325.87 74.13 A 178 178 0 0 1 354.15 111.00 L 329.90 125.00 A 150 150 0 0 0 306.07 93.93 Z" fill="#FAFAF5" stroke="#2a2a3a" stroke-width="1.5" stroke-linejoin="round"/>
<path d="M 354.15 111.00 A 178 178 0 0 1 371.93 153.93 L 344.89 161.18 A 150 150 0 0 0 329.90 125.00 Z" fill="#FAFAF5" stroke="#2a2a3a" stroke-width="1.5" stroke-linejoin="round"/>
<path d="M 371.93 153.93 A 178 178 0 0 1 378.00 200.00 L 350.00 200.00 A 150 150 0 0 0 344.89 161.18 Z" fill="#FAFAF5" stroke="#2a2a3a" stroke-width="1.5" stroke-linejoin="round"/>
<path d="M 378.00 200.00 A 178 178 0 0 1 371.93 246.07 L 344.89 238.82 A 150 150 0 0 0 350.00 200.00 Z" fill="#FAFAF5" stroke="#2a2a3a" stroke-width="1.5" stroke-linejoin="round"/>
<path d="M 371.93 246.07 A 178 178 0 0 1 354.15 289.00 L 329.90 275.00 A 150 150 0 0 0 344.89 238.82 Z" fill="#FAFAF5" stroke="#2a2a3a" stroke-width="1.5" stroke-linejoin="round"/>
<path d="M 354.15 289.00 A 178 178 0 0 1 325.87 325.87 L 306.07 306.07 A 150 150 0 0 0 329.90 275.00 Z" fill="#FAFAF5" stroke="#2a2a3a" stroke-width="1.5" stroke-linejoin="round"/>
<path d="M 325.87 325.87 A 178 178 0 0 1 289.00 354.15 L 275.00 329.90 A 150 150 0 0 0 306.07 306.07 Z" fill="#FAFAF5" stroke="#2a2a3a" stroke-width="1.5" stroke-linejoin="round"/>
<path d="M 289.00 354.15 A 178 178 0 0 1 246.07 371.93 L 238.82 344.89 A 150 150 0 0 0 275.00 329.90 Z" fill="#FAFAF5" stroke="#2a2a3a" stroke-width="1.5" stroke-linejoin="round"/>
<path d="M 246.07 371.93 A 178 178 0 0 1 200.00 378.00 L 200.00 350.00 A 150 150 0 0 0 238.82 344.89 Z" fill="#FAFAF5" stroke="#2a2a3a" stroke-width="1.5" stroke-linejoin="round"/>
<path d="M 200.00 378.00 A 178 178 0 0 1 153.93 371.93 L 161.18 344.89 A 150 150 0 0 0 200.00 350.00 Z" fill="#FAFAF5" stroke="#2a2a3a" stroke-width="1.5" stroke-linejoin="round"/>
<path d="M 153.93 371.93 A 178 178 0 0 1 111.00 354.15 L 125.00 329.90 A 150 150 0 0 0 161.18 344.89 Z" fill="#FAFAF5" stroke="#2a2a3a" stroke-width="1.5" stroke-linejoin="round"/>
<path d="M 111.00 354.15 A 178 178 0 0 1 74.13 325.87 L 93.93 306.07 A 150 150 0 0 0 125.00 329.90 Z" fill="#FAFAF5" stroke="#2a2a3a" stroke-width="1.5" stroke-linejoin="round"/>
<path d="M 74.13 325.87 A 178 178 0 0 1 45.85 289.00 L 70.10 275.00 A 150 150 0 0 0 93.93 306.07 Z" fill="#FAFAF5" stroke="#2a2a3a" stroke-width="1.5" stroke-linejoin="round"/>
<path d="M 45.85 289.00 A 178 178 0 0 1 28.07 246.07 L 55.11 238.82 A 150 150 0 0 0 70.10 275.00 Z" fill="#FAFAF5" stroke="#2a2a3a" stroke-width="1.5" stroke-linejoin="round"/>
<path d="M 28.07 246.07 A 178 178 0 0 1 22.00 200.00 L 50.00 200.00 A 150 150 0 0 0 55.11 238.82 Z" fill="#FAFAF5" stroke="#2a2a3a" stroke-width="1.5" stroke-linejoin="round"/>
<path d="M 22.00 200.00 A 178 178 0 0 1 28.07 153.93 L 55.11 161.18 A 150 150 0 0 0 50.00 200.00 Z" fill="#FAFAF5" stroke="#2a2a3a" stroke-width="1.5" stroke-linejoin="round"/>
<path d="M 28.07 153.93 A 178 178 0 0 1 45.85 111.00 L 70.10 125.00 A 150 150 0 0 0 55.11 161.18 Z" fill="#FAFAF5" stroke="#2a2a3a" stroke-width="1.5" stroke-linejoin="round"/>
<path d="M 45.85 111.00 A 178 178 0 0 1 74.13 74.13 L 93.93 93.93 A 150 150 0 0 0 70.10 125.00 Z" fill="#FAFAF5" stroke="#2a2a3a" stroke-width="1.5" stroke-linejoin="round"/>
<path d="M 74.13 74.13 A 178 178 0 0 1 111.00 45.85 L 125.00 70.10 A 150 150 0 0 0 93.93 93.93 Z" fill="#FAFAF5" stroke="#2a2a3a" stroke-width="1.5" stroke-linejoin="round"/>
<path d="M 111.00 45.85 A 178 178 0 0 1 153.93 28.07 L 161.18 55.11 A 150 150 0 0 0 125.00 70.10 Z" fill="#FAFAF5" stroke="#2a2a3a" stroke-width="1.5" stroke-linejoin="round"/>
<path d="M 153.93 28.07 A 178 178 0 0 1 200.00 22.00 L 200.00 50.00 A 150 150 0 0 0 161.18 55.11 Z" fill="#FAFAF5" stroke="#2a2a3a" stroke-width="1.5" stroke-linejoin="round"/>
<path d="M 200.00 6.00 A 194 194 0 0 1 225.32 7.66 L 223.23 23.52 A 178 178 0 0 0 200.00 22.00 Z" fill="#FAFAF5" stroke="#2a2a3a" stroke-width="1.5" stroke-linejoin="round"/>
<path d="M 225.32 7.66 A 194 194 0 0 1 250.21 12.61 L 246.07 28.07 A 178 178 0 0 0 223.23 23.52 Z" fill="#FAFAF5" stroke="#2a2a3a" stroke-width="1.5" stroke-linejoin="round"/>
<path d="M 250.21 12.61 A 194 194 0 0 1 274.24 20.77 L 268.12 35.55 A 178 178 0 0 0 246.07 28.07 Z" fill="#FAFAF5" stroke="#2a2a3a" stroke-width="1.5" stroke-linejoin="round"/>
<path d="M 274.24 20.77 A 194 194 0 0 1 297.00 31.99 L 289.00 45.85 A 178 178 0 0 0 268.12 35.55 Z" fill="#FAFAF5" stroke="#2a2a3a" stroke-width="1.5" stroke-linejoin="round"/>
<path d="M 297.00 31.99 A 194 194 0 0 1 318.10 46.09 L 308.36 58.78 A 178 178 0 0 0 289.00 45.85 Z" fill="#FAFAF5" stroke="#2a2a3a" stroke-width="1.5" stroke-linejoin="round"/>
<path d="M 318.10 46.09 A 194 194 0 0 1 337.18 62.82 L 325.87 74.13 A 178 178 0 0 0 308.36 58.78 Z" fill="#FAFAF5" stroke="#2a2a3a" stroke-width="1.5" stroke-linejoin="round"/>
<path d="M 337.18 62.82 A 194 194 0 0 1 353.91 81.90 L 341.22 91.64 A 178 178 0 0 0 325.87 74.13 Z" fill="#FAFAF5" stroke="#2a2a3a" stroke-width="1.5" stroke-linejoin="round"/>
<path d="M 353.91 81.90 A 194 194 0 0 1 368.01 103.00 L 354.15 111.00 A 178 178 0 0 0 341.22 91.64 Z" fill="#FAFAF5" stroke="#2a2a3a" stroke-width="1.5" stroke-linejoin="round"/>
<path d="M 368.01 103.00 A 194 194 0 0 1 379.23 125.76 L 364.45 131.88 A 178 178 0 0 0 354.15 111.00 Z" fill="#FAFAF5" stroke="#2a2a3a" stroke-width="1.5" stroke-linejoin="round"/>
<path d="M 379.23 125.76 A 194 194 0 0 1 387.39 149.79 L 371.93 153.93 A 178 178 0 0 0 364.45 131.88 Z" fill="#FAFAF5" stroke="#2a2a3a" stroke-width="1.5" stroke-linejoin="round"/>
<path d="M 387.39 149.79 A 194 194 0 0 1 392.34 174.68 L 376.48 176.77 A 178 178 0 0 0 371.93 153.93 Z" fill="#FAFAF5" stroke="#2a2a3a" stroke-width="1.5" stroke-linejoin="round"/>
<path d="M 392.34 174.68 A 194 194 0 0 1 394.00 200.00 L 378.00 200.00 A 178 178 0 0 0 376.48 176.77 Z" fill="#FAFAF5" stroke="#2a2a3a" stroke-width="1.5" stroke-linejoin="round"/>
<path d="M 394.00 200.00 A 194 194 0 0 1 392.34 225.32 L 376.48 223.23 A 178 178 0 0 0 378.00 200.00 Z" fill="#FAFAF5" stroke="#2a2a3a" stroke-width="1.5" stroke-linejoin="round"/>
<path d="M 392.34 225.32 A 194 194 0 0 1 387.39 250.21 L 371.93 246.07 A 178 178 0 0 0 376.48 223.23 Z" fill="#FAFAF5" stroke="#2a2a3a" stroke-width="1.5" stroke-linejoin="round"/>
<path d="M 387.39 250.21 A 194 194 0 0 1 379.23 274.24 L 364.45 268.12 A 178 178 0 0 0 371.93 246.07 Z" fill="#FAFAF5" stroke="#2a2a3a" stroke-width="1.5" stroke-linejoin="round"/>
<path d="M 379.23 274.24 A 194 194 0 0 1 368.01 297.00 L 354.15 289.00 A 178 178 0 0 0 364.45 268.12 Z" fill="#FAFAF5" stroke="#2a2a3a" stroke-width="1.5" stroke-linejoin="round"/>
<path d="M 368.01 297.00 A 194 194 0 0 1 353.91 318.10 L 341.22 308.36 A 178 178 0 0 0 354.15 289.00 Z" fill="#FAFAF5" stroke="#2a2a3a" stroke-width="1.5" stroke-linejoin="round"/>
<path d="M 353.91 318.10 A 194 194 0 0 1 337.18 337.18 L 325.87 325.87 A 178 178 0 0 0 341.22 308.36 Z" fill="#FAFAF5" stroke="#2a2a3a" stroke-width="1.5" stroke-linejoin="round"/>
<path d="M 337.18 337.18 A 194 194 0 0 1 318.10 353.91 L 308.36 341.22 A 178 178 0 0 0 325.87 325.87 Z" fill="#FAFAF5" stroke="#2a2a3a" stroke-width="1.5" stroke-linejoin="round"/>
<path d="M 318.10 353.91 A 194 194 0 0 1 297.00 368.01 L 289.00 354.15 A 178 178 0 0 0 308.36 341.22 Z" fill="#FAFAF5" stroke="#2a2a3a" stroke-width="1.5" stroke-linejoin="round"/>
<path d="M 297.00 368.01 A 194 194 0 0 1 274.24 379.23 L 268.12 364.45 A 178 178 0 0 0 289.00 354.15 Z" fill="#FAFAF5" stroke="#2a2a3a" stroke-width="1.5" stroke-linejoin="round"/>
<path d="M 274.24 379.23 A 194 194 0 0 1 250.21 387.39 L 246.07 371.93 A 178 178 0 0 0 268.12 364.45 Z" fill="#FAFAF5" stroke="#2a2a3a" stroke-width="1.5" stroke-linejoin="round"/>
<path d="M 250.21 387.39 A 194 194 0 0 1 225.32 392.34 L 223.23 376.48 A 178 178 0 0 0 246.07 371.93 Z" fill="#FAFAF5" stroke="#2a2a3a" stroke-width="1.5" stroke-linejoin="round"/>
<path d="M 225.32 392.34 A 194 194 0 0 1 200.00 394.00 L 200.00 378.00 A 178 178 0 0 0 223.23 376.48 Z" fill="#FAFAF5" stroke="#2a2a3a" stroke-width="1.5" stroke-linejoin="round"/>
<path d="M 200.00 394.00 A 194 194 0 0 1 174.68 392.34 L 176.77 376.48 A 178 178 0 0 0 200.00 378.00 Z" fill="#FAFAF5" stroke="#2a2a3a" stroke-width="1.5" stroke-linejoin="round"/>
<path d="M 174.68 392.34 A 194 194 0 0 1 149.79 387.39 L 153.93 371.93 A 178 178 0 0 0 176.77 376.48 Z" fill="#FAFAF5" stroke="#2a2a3a" stroke-width="1.5" stroke-linejoin="round"/>
<path d="M 149.79 387.39 A 194 194 0 0 1 125.76 379.23 L 131.88 364.45 A 178 178 0 0 0 153.93 371.93 Z" fill="#FAFAF5" stroke="#2a2a3a" stroke-width="1.5" stroke-linejoin="round"/>
<path d="M 125.76 379.23 A 194 194 0 0 1 103.00 368.01 L 111.00 354.15 A 178 178 0 0 0 131.88 364.45 Z" fill="#FAFAF5" stroke="#2a2a3a" stroke-width="1.5" stroke-linejoin="round"/>
<path d="M 103.00 368.01 A 194 194 0 0 1 81.90 353.91 L 91.64 341.22 A 178 178 0 0 0 111.00 354.15 Z" fill="#FAFAF5" stroke="#2a2a3a" stroke-width="1.5" stroke-linejoin="round"/>
<path d="M 81.90 353.91 A 194 194 0 0 1 62.82 337.18 L 74.13 325.87 A 178 178 0 0 0 91.64 341.22 Z" fill="#FAFAF5" stroke="#2a2a3a" stroke-width="1.5" stroke-linejoin="round"/>
<path d="M 62.82 337.18 A 194 194 0 0 1 46.09 318.10 L 58.78 308.36 A 178 178 0 0 0 74.13 325.87 Z" fill="#FAFAF5" stroke="#2a2a3a" stroke-width="1.5" stroke-linejoin="round"/>
<path d="M 46.09 318.10 A 194 194 0 0 1 31.99 297.00 L 45.85 289.00 A 178 178 0 0 0 58.78 308.36 Z" fill="#FAFAF5" stroke="#2a2a3a" stroke-width="1.5" stroke-linejoin="round"/>
<path d="M 31.99 297.00 A 194 194 0 0 1 20.77 274.24 L 35.55 268.12 A 178 178 0 0 0 45.85 289.00 Z" fill="#FAFAF5" stroke="#2a2a3a" stroke-width="1.5" stroke-linejoin="round"/>
<path d="M 20.77 274.24 A 194 194 0 0 1 12.61 250.21 L 28.07 246.07 A 178 178 0 0 0 35.55 268.12 Z" fill="#FAFAF5" stroke="#2a2a3a" stroke-width="1.5" stroke-linejoin="round"/>
<path d="M 12.61 250.21 A 194 194 0 0 1 7.66 225.32 L 23.52 223.23 A 178 178 0 0 0 28.07 246.07 Z" fill="#FAFAF5" stroke="#2a2a3a" stroke-width="1.5" stroke-linejoin="round"/>
<path d="M 7.66 225.32 A 194 194 0 0 1 6.00 200.00 L 22.00 200.00 A 178 178 0 0 0 23.52 223.23 Z" fill="#FAFAF5" stroke="#2a2a3a" stroke-width="1.5" stroke-linejoin="round"/>
<path d="M 6.00 200.00 A 194 194 0 0 1 7.66 174.68 L 23.52 176.77 A 178 178 0 0 0 22.00 200.00 Z" fill="#FAFAF5" stroke="#2a2a3a" stroke-width="1.5" stroke-linejoin="round"/>
<path d="M 7.66 174.68 A 194 194 0 0 1 12.61 149.79 L 28.07 153.93 A 178 178 0 0 0 23.52 176.77 Z" fill="#FAFAF5" stroke="#2a2a3a" stroke-width="1.5" stroke-linejoin="round"/>
<path d="M 12.61 149.79 A 194 194 0 0 1 20.77 125.76 L 35.55 131.88 A 178 178 0 0 0 28.07 153.93 Z" fill="#FAFAF5" stroke="#2a2a3a" stroke-width="1.5" stroke-linejoin="round"/>
<path d="M 20.77 125.76 A 194 194 0 0 1 31.99 103.00 L 45.85 111.00 A 178 178 0 0 0 35.55 131.88 Z" fill="#FAFAF5" stroke="#2a2a3a" stroke-width="1.5" stroke-linejoin="round"/>
<path d="M 31.99 103.00 A 194 194 0 0 1 46.09 81.90 L 58.78 91.64 A 178 178 0 0 0 45.85 111.00 Z" fill="#FAFAF5" stroke="#2a2a3a" stroke-width="1.5" stroke-linejoin="round"/>
<path d="M 46.09 81.90 A 194 194 0 0 1 62.82 62.82 L 74.13 74.13 A 178 178 0 0 0 58.78 91.64 Z" fill="#FAFAF5" stroke="#2a2a3a" stroke-width="1.5" stroke-linejoin="round"/>
<path d="M 62.82 62.82 A 194 194 0 0 1 81.90 46.09 L 91.64 58.78 A 178 178 0 0 0 74.13 74.13 Z" fill="#FAFAF5" stroke="#2a2a3a" stroke-width="1.5" stroke-linejoin="round"/>
<path d="M 81.90 46.09 A 194 194 0 0 1 103.00 31.99 L 111.00 45.85 A 178 178 0 0 0 91.64 58.78 Z" fill="#FAFAF5" stroke="#2a2a3a" stroke-width="1.5" stroke-linejoin="round"/>
<path d="M 103.00 31.99 A 194 194 0 0 1 125.76 20.77 L 131.88 35.55 A 178 178 0 0 0 111.00 45.85 Z" fill="#FAFAF5" stroke="#2a2a3a" stroke-width="1.5" stroke-linejoin="round"/>
<path d="M 125.76 20.77 A 194 194 0 0 1 149.79 12.61 L 153.93 28.07 A 178 178 0 0 0 131.88 35.55 Z" fill="#FAFAF5" stroke="#2a2a3a" stroke-width="1.5" stroke-linejoin="round"/>
<path d="M 149.79 12.61 A 194 194 0 0 1 174.68 7.66 L 176.77 23.52 A 178 178 0 0 0 153.93 28.07 Z" fill="#FAFAF5" stroke="#2a2a3a" stroke-width="1.5" stroke-linejoin="round"/>
<path d="M 174.68 7.66 A 194 194 0 0 1 200.00 6.00 L 200.00 22.00 A 178 178 0 0 0 176.77 23.52 Z" fill="#FAFAF5" stroke="#2a2a3a" stroke-width="1.5" stroke-linejoin="round"/>
</svg>