<?xml version="1.0" encoding="UTF-8"?>
<svg xmlns="http://www.w3.org/2000/svg" viewBox="0 0 400 400" width="400" height="400">
<rect width="400" height="400" fill="#FAFAF5"/>
<circle cx="200" cy="200" r="18" fill="#FAFAF5" stroke="#2a2a3a" stroke-width="1.5" stroke-linejoin="round"/>
<path d="M 200.00 155.00 A 45 45 0 0 1 238.97 177.50 L 215.59 191.00 A 18 18 0 0 0 200.00 182.00 Z" fill="#FAFAF5" stroke="#2a2a3a" stroke-width="1.5" stroke-linejoin="round"/>
<path d="M 238.97 177.50 A 45 45 0 0 1 238.97 222.50 L 215.59 209.00 A 18 18 0 0 0 215.59 191.00 Z" fill="#FAFAF5" stroke="#2a2a3a" stroke-width="1.5" stroke-linejoin="round"/>
<path d="M 238.97 222.50 A 45 45 0 0 1 200.00 245.00 L 200.00 218.00 A 18 18 0 0 0 215.59 209.00 Z" fill="#FAFAF5" stroke="#2a2a3a" stroke-width="1.5" stroke-linejoin="round"/>
<path d="M 200.00 245.00 A 45 45 0 0 1 161.03 222.50 L 184.41 209.00 A 18 18 0 0 0 200.00 218.00 Z" fill="#FAFAF5" stroke="#2a2a3a" stroke-width="1.5" stroke-linejoin="round"/>
<path d="M 161.03 222.50 A 45 45 0 0 1 161.03 177.50 L 184.41 191.00 A 18 18 0 0 0 184.41 209.00 Z" fill="#FAFAF5" stroke="#2a2a3a" stroke-width="1.5" stroke-linejoin="round"/>
<path d="M 161.03 177.50 A 45 45 0 0 1 200.00 155.00 L 200.00 182.00 A 18 18 0 0 0 184.41 191.00 Z" fill="#FAFAF5" stroke="#2a2a3a" stroke-width="1.5" stroke-linejoin="round"/>
<path d="M 200.00 120.00 A 80 80 0 0 1 227.36 124.82 L 215.39 157.71 A 45 45 0 0 0 200.00 155.00 Z" fill="#FAFAF5" stroke="#2a2a3a" stroke-width="1.5" stroke-linejoin="round"/>
<path d="M 227.36 124.82 A 80 80 0 0 1 251.42 138.72 L 228.93 165.53 A 45 45 0 0 0 215.39 157.71 Z" fill="#FAFAF5" stroke="#2a2a3a" stroke-width="1.5" stroke-linejoin="round"/>
<path d="M 251.42 138.72 A 80 80 0 0 1 269.28 160.00 L 238.97 177.50 A 45 45 0 0 0 228.93 165.53 Z" fill="#FAFAF5" stroke="#2a2a3a" stroke-width="1.5" stroke-linejoin="round"/>
<path d="M 269.28 160.00 A 80 80 0 0 1 278.78 186.11 L 244.32 192.19 A 45 45 0 0 0 238.97 177.50 Z" fill="#FAFAF5" stroke="#2a2a3a" stroke-width="1.5" stroke-linejoin="round"/>
<path d="M 278.78 186.11 A 80 80 0 0 1 278.78 213.89 L 244.32 207.81 A 45 45 0 0 0 244.32 192.19 Z" fill="#FAFAF5" stroke="#2a2a3a" stroke-width="1.5" stroke-linejoin="round"/>
<path d="M 278.78 213.89 A 80 80 0 0 1 269.28 240.00 L 238.97 222.50 A 45 45 0 0 0 244.32 207.81 Z" fill="#FAFAF5" stroke="#2a2a3a" stroke-width="1.5" stroke-linejoin="round"/>
<path d="M 269.28 240.00 A 80 80 0 0 1 251.42 261.28 L 228.93 234.47 A 45 45 0 0 0 238.97 222.50 Z" fill="#FAFAF5" stroke="#2a2a3a" stroke-width="1.5" stroke-linejoin="round"/>
<path d="M 251.42 261.28 A 80 80 0 0 1 227.36 275.18 L 215.39 242.29 A 45 45 0 0 0 228.93 234.47 Z" fill="#FAFAF5" stroke="#2a2a3a" stroke-width="1.5" stroke-linejoin="round"/>
<path d="M 227.36 275.18 A 80 80 0 0 1 200.00 280.00 L 200.00 245.00 A 45 45 0 0 0 215.39 242.29 Z" fill="#FAFAF5" stroke="#2a2a3a" stroke-width="1.5" stroke-linejoin="round"/>
<path d="M 200.00 280.00 A 80 80 0 0 1 172.64 275.18 L 184.61 242.29 A 45 45 0 0 0 200.00 245.00 Z" fill="#FAFAF5" stroke="#2a2a3a" stroke-width="1.5" stroke-linejoin="round"/>
<path d="M 172.64 275.18 A 80 80 0 0 1 148.58 261.28 L 171.07 234.47 A 45 45 0 0 0 184.61 242.29 Z" fill="#FAFAF5" stroke="#2a2a3a" stroke-width="1.5" stroke-linejoin="round"/>
<path d="M 148.58 261.28 A 80 80 0 0 1 130.72 240.00 L 161.03 222.50 A 45 45 0 0 0 171.07 234.47 Z" fill="#FAFAF5" stroke="#2a2a3a" stroke-width="1.5" stroke-linejoin="round"/>
<path d="M 130.72 240.00 A 80 80 0 0 1 121.22 213.89 L 155.68 207.81 A 45 45 0 0 0 161.03 222.50 Z" fill="#FAFAF5" stroke="#2a2a3a" stroke-width="1.5" stroke-linejoin="round"/>
<path d="M 121.22 213.89 A 80 80 0 0 1 121.22 186.11 L 155.68 192.19 A 45 45 0 0 0 155.68 207.81 Z" fill="#FAFAF5" stroke="#2a2a3a" stroke-width="1.5" stroke-linejoin="round"/>
<path d="M 121.22 186.11 A 80 80 0 0 1 130.72 160.00 L 161.03 177.50 A 45 45 0 0 0 155.68 192.19 Z" fill="#FAFAF5" stroke="#2a2a3a" stroke-width="1.5" stroke-linejoin="round"/>
<path d="M 130.72 160.00 A 80 80 0 0 1 148.58 138.72 L 171.07 165.53 A 45 45 0 0 0 161.03 177.50 Z" fill="#FAFAF5" stroke="#2a2a3a" stroke-width="1.5" stroke-linejoin="round"/>
<path d="M 148.58 138.72 A 80 80 0 0 1 172.64 124.82 L 184.61 157.71 A 45 45 0 0 0 171.07 165.53 Z" fill="#FAFAF5" stroke="#2a2a3a" stroke-width="1.5" stroke-linejoin="round"/>
<path d="M 172.64 124.82 A 80 80 0 0 1 200.00 120.00 L 200.00 155.00 A 45 45 0 0 0 184.61 157.71 Z" fill="#FAFAF5" stroke="#2a2a3a" stroke-width="1.5" stroke-linejoin="round"/>
<path d="M 200.00 85.00 A 115 115 0 0 1 299.59 142.50 L 269.28 160.00 A 80 80 0 0 0 200.00 120.00 Z" fill="#FAFAF5" stroke="#2a2a3a" stroke-width="1.5" stroke-linejoin="round"/>
<path d="M 299.59 142.50 A 115 115 0 0 1 299.59 257.50 L 269.28 240.00 A 80 80 0 0 0 269.28 160.00 Z" fill="#FAFAF5" stroke="#2a2a3a" stroke-width="1.5" stroke-linejoin="round"/>
<path d="M 299.59 257.50 A 115 115 0 0 1 200.00 315.00 L 200.00 280.00 A 80 80 0 0 0 269.28 240.00 Z" fill="#FAFAF5" stroke="#2a2a3a" stroke-width="1.5" stroke-linejoin="round"/>
<path d="M 200.00 315.00 A 115 115 0 0 1 100.41 257.50 L 130.72 240.00 A 80 80 0 0 0 200.00 280.00 Z" fill="#FAFAF5" stroke="#2a2a3a" stroke-width="1.5" stroke-linejoin="round"/>
<path d="M 100.41 257.50 A 115 115 0 0 1 100.41 142.50 L 130.72 160.00 A 80 80 0 0 0 130.72 240.00 Z" fill="#FAFAF5" stroke="#2a2a3a" stroke-width="1.5" stroke-linejoin="round"/>
<path d="M 100.41 142.50 A 115 115 0 0 1 200.00 85.00 L 200.00 120.00 A 80 80 0 0 0 130.72 160.00 Z" fill="#FAFAF5" stroke="#2a2a3a" stroke-width="1.5" stroke-linejoin="round"/>
<path d="M 200.00 50.00 A 150 150 0 0 1 251.30 59.05 L 239.33 91.94 A 115 115 0 0 0 200.00 85.00 Z" fill="#FAFAF5" stroke="#2a2a3a" stroke-width="1.5" stroke-linejoin="round"/>
<path d="M 251.30 59.05 A 150 150 0 0 1 296.42 85.09 L 273.92 111.90 A 115 115 0 0 0 239.33 91.94 Z" fill="#FAFAF5" stroke="#2a2a3a" stroke-width="1.5" stroke-linejoin="round"/>
<path d="M 296.42 85.09 A 150 150 0 0 1 329.90 125.00 L 299.59 142.50 A 115 115 0 0 0 273.92 111.90 Z" fill="#FAFAF5" stroke="#2a2a3a" stroke-width="1.5" stroke-linejoin="round"/>
<path d="M 329.90 125.00 A 150 150 0 0 1 347.72 173.95 L 313.25 180.03 A 115 115 0 0 0 299.59 142.50 Z" fill="#FAFAF5" stroke="#2a2a3a" stroke-width="1.5" stroke-linejoin="round"/>
<path d="M 347.72 173.95 A 150 150 0 0 1 347.72 226.05 L 313.25 219.97 A 115 115 0 0 0 313.25 180.03 Z" fill="#FAFAF5" stroke="#2a2a3a" stroke-width="1.5" stroke-linejoin="round"/>
<path d="M 347.72 226.05 A 150 150 0 0 1 329.90 275.00 L 299.59 257.50 A 115 115 0 0 0 313.25 219.97 Z" fill="#FAFAF5" stroke="#2a2a3a" stroke-width="1.5" stroke-linejoin="round"/>
<path d="M 329.90 275.00 A 150 150 0 0 1 296.42 314.91 L 273.92 288.10 A 115 115 0 0 0 299.59 257.50 Z" fill="#FAFAF5" stroke="#2a2a3a" stroke-width="1.5" stroke-linejoin="round"/>
<path d="M 296.42 314.91 A 150 150 0 0 1 251.30 340.95 L 239.33 308.06 A 115 115 0 0 0 273.92 288.10 Z" fill="#FAFAF5" stroke="#2a2a3a" stroke-width="1.5" stroke-linejoin="round"/>
<path d="M 251.30 340.95 A 150 150 0 0 1 200.00 350.00 L 200.00 315.00 A 115 115 0 0 0 239.33 308.06 Z" fill="#FAFAF5" stroke="#2a2a3a" stroke-width="1.5" stroke-linejoin="round"/>
<path d="M 200.00 350.00 A 150 150 0 0 1 148.70 340.95 L 160.67 308.06 A 115 115 0 0 0 200.00 315.00 Z" fill="#FAFAF5" stroke="#2a2a3a" stroke-width="1.5" stroke-linejoin="round"/>
<path d="M 148.70 340.95 A 150 150 0 0 1 103.58 314.91 L 126.08 288.10 A 115 115 0 0 0 160.67 308.06 Z" fill="#FAFAF5" stroke="#2a2a3a" stroke-width="1.5" stroke-linejoin="round"/>
<path d="M 103.58 314.91 A 150 150 0 0 1 70.10 275.00 L 100.41 257.50 A 115 115 0 0 0 126.08 288.10 Z" fill="#FAFAF5" stroke="#2a2a3a" stroke-width="1.5" stroke-linejoin="round"/>
<path d="M 70.10 275.00 A 150 150 0 0 1 52.28 226.05 L 86.75 219.97 A 115 115 0 0 0 100.41 257.50 Z" fill="#FAFAF5" stroke="#2a2a3a" stroke-width="1.5" stroke-linejoin="round"/>
<path d="M 52.28 226.05 A 150 150 0 0 1 52.28 173.95 L 86.75 180.03 A 115 115 0 0 0 86.75 219.97 Z" fill="#FAFAF5" stroke="#2a2a3a" stroke-width="1.5" stroke-linejoin="round"/>
<path d="M 52.28 173.95 A 150 150 0 0 1 70.10 125.00 L 100.41 142.50 A 115 115 0 0 0 86.75 180.03 Z" fill="#FAFAF5" stroke="#2a2a3a" stroke-width="1.5" stroke-linejoin="round"/>
<path d="M 70.10 125.00 A 150 150 0 0 1 103.58 85.09 L 126.08 111.90 A 115 115 0 0 0 100.41 142.50 Z" fill="#FAFAF5" stroke="#2a2a3a" stroke-width="1.5" stroke-linejoin="round"/>
<path d="M 103.58 85.09 A 150 150 0 0 1 148.70 59.05 L 160.67 91.94 A 115 115 0 0 0 126.08 111.90 Z" fill="#FAFAF5" stroke="#2a2a3a" stroke-width="1.5" stroke-linejoin="round"/>
<path d="M 148.70 59.05 A 150 150 0 0 1 200.00 50.00 L 200.00 85.00 A 115 115 0 0 0 160.67 91.94 Z" fill="#FAFAF5" stroke="#2a2a3a" stroke-width="1.5" stroke-linejoin="round"/>
<path d="M 200.00 18.00 A 182 182 0 0 1 231.60 20.76 L 226.05 52.28 A 150 150 0 0 0 200.00 50.00 Z" fill="#FAFAF5" stroke="#2a2a3a" stroke-width="1.5" stroke-linejoin="round"/>
<path d="M 231.60 20.76 A 182 182 0 0 1 262.25 28.98 L 251.30 59.05 A 150 150 0 0 0 226.05 52.28 Z" fill="#FAFAF5" stroke="#2a2a3a" stroke-width="1.5" stroke-linejoin="round"/>
<path d="M 262.25 28.98 A 182 182 0 0 1 291.00 42.38 L 275.00 70.10 A 150 150 0 0 0 251.30 59.05 Z" fill="#FAFAF5" stroke="#2a2a3a" stroke-width="1.5" stroke-linejoin="round"/>
<path d="M 291.00 42.38 A 182 182 0 0 1 316.99 60.58 L 296.42 85.09 A 150 150 0 0 0 275.00 70.10 Z" fill="#FAFAF5" stroke="#2a2a3a" stroke-width="1.5" stroke-linejoin="round"/>
<path d="M 316.99 60.58 A 182 182 0 0 1 339.42 83.01 L 314.91 103.58 A 150 150 0 0 0 296.42 85.09 Z" fill="#FAFAF5" stroke="#2a2a3a" stroke-width="1.5" stroke-linejoin="round"/>
<path d="M 339.42 83.01 A 182 182 0 0 1 357.62 109.00 L 329.90 125.00 A 150 150 0 0 0 314.91 103.58 Z" fill="#FAFAF5" stroke="#2a2a3a" stroke-width="1.5" stroke-linejoin="round"/>
<path d="M 357.62 109.00 A 182 182 0 0 1 371.02 137.75 L 340.95 148.70 A 150 150 0 0 0 329.90 125.00 Z" fill="#FAFAF5" stroke="#2a2a3a" stroke-width="1.5" stroke-linejoin="round"/>
<path d="M 371.02 137.75 A 182 182 0 0 1 379.24 168.40 L 347.72 173.95 A 150 150 0 0 0 340.95 148.70 Z" fill="#FAFAF5" stroke="#2a2a3a" stroke-width="1.5" stroke-linejoin="round"/>
<path d="M 379.24 168.40 A 182 182 0 0 1 382.00 200.00 L 350.00 200.00 A 150 150 0 0 0 347.72 173.95 Z" fill="#FAFAF5" stroke="#2a2a3a" stroke-width="1.5" stroke-linejoin="round"/>
<path d="M 382.00 200.00 A 182 182 0 0 1 379.24 231.60 L 347.72 226.05 A 150 150 0 0 0 350.00 200.00 Z" fill="#FAFAF5" stroke="#2a2a3a" stroke-width="1.5" stroke-linejoin="round"/>
<path d="M 379.24 231.60 A 182 182 0 0 1 371.02 262.25 L 340.95 251.30 A 150 150 0 0 0 347.72 226.05 Z" fill="#FAFAF5" stroke="#2a2a3a" stroke-width="1.5" stroke-linejoin="round"/>
<path d="M 371.02 262.25 A 182 182 0 0 1 357.62 291.00 L 329.90 275.00 A 150 150 0 0 0 340.95 251.30 Z" fill="#FAFAF5" stroke="#2a2a3a" stroke-width="1.5" stroke-linejoin="round"/>
<path d="M 357.62 291.00 A 182 182 0 0 1 339.42 316.99 L 314.91 296.42 A 150 150 0 0 0 329.90 275.00 Z" fill="#FAFAF5" stroke="#2a2a3a" stroke-width="1.5" stroke-linejoin="round"/>
<path d="M 339.42 316.99 A 182 182 0 0 1 316.99 339.42 L 296.42 314.91 A 150 150 0 0 0 314.91 296.42 Z" fill="#FAFAF5" stroke="#2a2a3a" stroke-width="1.5" stroke-linejoin="round"/>
<path d="M 316.99 339.42 A 182 182 0 0 1 291.00 357.62 L 275.00 329.90 A 150 150 0 0 0 296.42 314.91 Z" fill="#FAFAF5" stroke="#2a2a3a" stroke-width="1.5" stroke-linejoin="round"/>
<path d="M 291.00 357.62 A 182 182 0 0 1 262.25 371.02 L 251.30 340.95 A 150 150 0 0 0 275.00 329.90 Z" fill="#FAFAF5" stroke="#2a2a3a" stroke-width="1.5" stroke-linejoin="round"/>
<path d="M 262.25 371.02 A 182 182 0 0 1 231.60 379.24 L 226.05 347.72 A 150 150 0 0 0 251.30 340.95 Z" fill="#FAFAF5" stroke="#2a2a3a" stroke-width="1.5" stroke-linejoin="round"/>
<path d="M 231.60 379.24 A 182 182 0 0 1 200.00 382.00 L 200.00 350.00 A 150 150 0 0 0 226.05 347.72 Z" fill="#FAFAF5" stroke="#2a2a3a" stroke-width="1.5" stroke-linejoin="round"/>
<path d="M 200.00 382.00 A 182 182 0 0 1 168.40 379.24 L 173.95 347.72 A 150 150 0 0 0 200.00 350.00 Z" fill="#FAFAF5" stroke="#2a2a3a" stroke-width="1.5" stroke-linejoin="round"/>
<path d="M 168.40 379.24 A 182 182 0 0 1 137.75 371.02 L 148.70 340.95 A 150 150 0 0 0 173.95 347.72 Z" fill="#FAFAF5" stroke="#2a2a3a" stroke-width="1.5" stroke-linejoin="round"/>
<path d="M 137.75 371.02 A 182 182 0 0 1 109.00 357.62 L 125.00 329.90 A 150 150 0 0 0 148.70 340.95 Z" fill="#FAFAF5" stroke="#2a2a3a" stroke-width="1.5" stroke-linejoin="round"/>
<path d="M 109.00 357.62 A 182 182 0 0 1 83.01 339.42 L 103.58 314.91 A 150 150 0 0 0 125.00 329.90 Z" fill="#FAFAF5" stroke="#2a2a3a" stroke-width="1.5" stroke-linejoin="round"/>
<path d="M 83.01 339.42 A 182 182 0 0 1 60.58 316.99 L 85.09 296.42 A 150 150 0 0 0 103.58 314.91 Z" fill="#FAFAF5" stroke="#2a2a3a" stroke-width="1.5" stroke-linejoin="round"/>
<path d="M 60.58 316.99 A 182 182 0 0 1 42.38 291.00 L 70.10 275.00 A 150 150 0 0 0 85.09 296.42 Z" fill="#FAFAF5" stroke="#2a2a3a" stroke-width="1.5" stroke-linejoin="round"/>
<path d="M 42.38 291.00 A 182 182 0 0 1 28.98 262.25 L 59.05 251.30 A 150 150 0 0 0 70.10 275.00 Z" fill="#FAFAF5" stroke="#2a2a3a" stroke-width="1.5" stroke-linejoin="round"/>
<path d="M 28.98 262.25 A 182 182 0 0 1 20.76 231.60 L 52.28 226.05 A 150 150 0 0 0 59.05 251.30 Z" fill="#FAFAF5" stroke="#2a2a3a" stroke-width="1.5" stroke-linejoin="round"/>
<path d="M 20.76 231.60 A 182 182 0 0 1 18.00 200.00 L 50.00 200.00 A 150 150 0 0 0 52.28 226.05 Z" fill="#FAFAF5" stroke="#2a2a3a" stroke-width="1.5" stroke-linejoin="round"/>
<path d="M 18.00 200.00 A 182 182 0 0 1 20.76 168.40 L 52.28 173.95 A 150 150 0 0 0 50.00 200.00 Z" fill="#FAFAF5" stroke="#2a2a3a" stroke-width="1.5" stroke-linejoin="round"/>
<path d="M 20.76 168.40 A 182 182 0 0 1 28.98 137.75 L 59.05 148.70 A 150 150 0 0 0 52.28 173.95 Z" fill="#FAFAF5" stroke="#2a2a3a" stroke-width="1.5" stroke-linejoin="round"/>
<path d="M 28.98 137.75 A 182 182 0 0 1 42.38 109.00 L 70.10 125.00 A 150 150 0 0 0 59.05 148.70 Z" fill="#FAFAF5" stroke="#2a2a3a" stroke-width="1.5" stroke-linejoin="round"/>
<path d="M 42.38 109.00 A 182 182 0 0 1 60.58 83.01 L 85.09 103.58 A 150 150 0 0 0 70.10 125.00 Z" fill="#FAFAF5" stroke="#2a2a3a" stroke-width="1.5" stroke-linejoin="round"/>
<path d="M 60.58 83.01 A 182 182 0 0 1 83.01 60.58 L 103.58 85.09 A 150 150 0 0 0 85.09 103.58 Z" fill="#FAFAF5" stroke="#2a2a3a" stroke-width="1.5" stroke-linejoin="round"/>
<path d="M 83.01 60.58 A 182 182 0 0 1 109.00 42.38 L 125.00 70.10 A 150 150 0 0 0 103.58 85.09 Z" fill="#FAFAF5" stroke="#2a2a3a" stroke-width="1.5" stroke-linejoin="round"/>
<path d="M 109.00 42.38 A 182 182 0 0 1 137.75 28.98 L 148.70 59.05 A 150 150 0 0 0 125.00 70.10 Z" fill="#FAFAF5" stroke="#2a2a3a" stroke-width="1.5" stroke-linejoin="round"/>
<path d="M 137.75 28.98 A 182 182 0 0 1 168.40 20.76 L 173.95 52.28 A 150 150 0 0 0 148.70 59.05 Z" fill="#FAFAF5" stroke="#2a2a3a" stroke-width="1.5" stroke-linejoin="round"/>
<path d="M 168.40 20.76 A 182 182 0 0 1 200.00 18.00 L 200.00 50.00 A 150 150 0 0 0 173.95 52.28 Z" fill="#FAFAF5" stroke="#2a2a3a" stroke-width="1.5" stroke-linejoin="round"/>
<path d="M 200.00 5.00 A 195 195 0 0 1 368.87 102.50 L 357.62 109.00 A 182 182 0 0 0 200.00 18.00 Z" fill="#FAFAF5" stroke="#2a2a3a" stroke-width="1.5" stroke-linejoin="round"/>
<path d="M 368.87 102.50 A 195 195 0 0 1 368.87 297.50 L 357.62 291.00 A 182 182 0 0 0 357.62 109.00 Z" fill="#FAFAF5" stroke="#2a2a3a" stroke-width="1.5" stroke-linejoin="round"/>
<path d="M 368.87 297.50 A 195 195 0 0 1 200.00 395.00 L 200.00 382.00 A 182 182 0 0 0 357.62 291.00 Z" fill="#FAFAF5" stroke="#2a2a3a" stroke-width="1.5" stroke-linejoin="round"/>
<path d="M 200.00 395.00 A 195 195 0 0 1 31.13 297.50 L 42.38 291.00 A 182 182 0 0 0 200.00 382.00 Z" fill="#FAFAF5" stroke="#2a2a3a" stroke-width="1.5" stroke-linejoin="round"/>
<path d="M 31.13 297.50 A 195 195 0 0 1 31.13 102.50 L 42.38 109.00 A 182 182 0 0 0 42.38 291.00 Z" fill="#FAFAF5" stroke="#2a2a3a" stroke-width="1.5" stroke-linejoin="round"/>
<path d="M 31.13 102.50 A 195 195 0 0 1 200.00 5.00 L 200.00 18.00 A 182 182 0 0 0 42.38 109.00 Z" fill="#FAFAF5" stroke="#2a2a3a" stroke-width="1.5" stroke-linejoin="round"/>
</svg>