<?xml version="1.0" encoding="UTF-8"?>
<svg xmlns="http://www.w3.org/2000/svg" viewBox="0 0 400 400" width="400" height="400">
<rect width="400" height="400" fill="#FAFAF5"/>
<circle cx="200" cy="200" r="20" fill="#FAFAF5" stroke="#2a2a3a" stroke-width="1.5" stroke-linejoin="round"/>
<path d="M 200.00 150.00 A 50 50 0 0 1 235.36 164.64 L 214.14 185.86 A 20 20 0 0 0 200.00 180.00 Z" fill="#FAFAF5" stroke="#2a2a3a" stroke-width="1.5" stroke-linejoin="round"/>
<path d="M 235.36 164.64 A 50 50 0 0 1 250.00 200.00 L 220.00 200.00 A 20 20 0 0 0 214.14 185.86 Z" fill="#FAFAF5" stroke="#2a2a3a" stroke-width="1.5" stroke-linejoin="round"/>
<path d="M 250.00 200.00 A 50 50 0 0 1 235.36 235.36 L 214.14 214.14 A 20 20 0 0 0 220.00 200.00 Z" fill="#FAFAF5" stroke="#2a2a3a" stroke-width="1.5" stroke-linejoin="round"/>
<path d="M 235.36 235.36 A 50 50 0 0 1 200.00 250.00 L 200.00 220.00 A 20 20 0 0 0 214.14 214.14 Z" fill="#FAFAF5" stroke="#2a2a3a" stroke-width="1.5" stroke-linejoin="round"/>
<path d="M 200.00 250.00 A 50 50 0 0 1 164.64 235.36 L 185.86 214.14 A 20 20 0 0 0 200.00 220.00 Z" fill="#FAFAF5" stroke="#2a2a3a" stroke-width="1.5" stroke-linejoin="round"/>
<path d="M 164.64 235.36 A 50 50 0 0 1 150.00 200.00 L 180.00 200.00 A 20 20 0 0 0 185.86 214.14 Z" fill="#FAFAF5" stroke="#2a2a3a" stroke-width="1.5" stroke-linejoin="round"/>
<path d="M 150.00 200.00 A 50 50 0 0 1 164.64 164.64 L 185.86 185.86 A 20 20 0 0 0 180.00 200.00 Z" fill="#FAFAF5" stroke="#2a2a3a" stroke-width="1.5" stroke-linejoin="round"/>
<path d="M 164.64 164.64 A 50 50 0 0 1 200.00 150.00 L 200.00 180.00 A 20 20 0 0 0 185.86 185.86 Z" fill="#FAFAF5" stroke="#2a2a3a" stroke-width="1.5" stroke-linejoin="round"/>
<path d="M 200.00 115.00 A 85 85 0 0 1 232.53 121.47 L 219.13 153.81 A 50 50 0 0 0 200.00 150.00 Z" fill="#FAFAF5" stroke="#2a2a3a" stroke-width="1.5" stroke-linejoin="round"/>
<path d="M 232.53 121.47 A 85 85 0 0 1 260.10 139.90 L 235.36 164.64 A 50 50 0 0 0 219.13 153.81 Z" fill="#FAFAF5" stroke="#2a2a3a" stroke-width="1.5" stroke-linejoin="round"/>
<path d="M 260.10 139.90 A 85 85 0 0 1 278.53 167.47 L 246.19 180.87 A 50 50 0 0 0 235.36 164.64 Z" fill="#FAFAF5" stroke="#2a2a3a" stroke-width="1.5" stroke-linejoin="round"/>
<path d="M 278.53 167.47 A 85 85 0 0 1 285.00 200.00 L 250.00 200.00 A 50 50 0 0 0 246.19 180.87 Z" fill="#FAFAF5" stroke="#2a2a3a" stroke-width="1.5" stroke-linejoin="round"/>
<path d="M 285.00 200.00 A 85 85 0 0 1 278.53 232.53 L 246.19 219.13 A 50 50 0 0 0 250.00 200.00 Z" fill="#FAFAF5" stroke="#2a2a3a" stroke-width="1.5" stroke-linejoin="round"/>
<path d="M 278.53 232.53 A 85 85 0 0 1 260.10 260.10 L 235.36 235.36 A 50 50 0 0 0 246.19 219.13 Z" fill="#FAFAF5" stroke="#2a2a3a" stroke-width="1.5" stroke-linejoin="round"/>
<path d="M 260.10 260.10 A 85 85 0 0 1 232.53 278.53 L 219.13 246.19 A 50 50 0 0 0 235.36 235.36 Z" fill="#FAFAF5" stroke="#2a2a3a" stroke-width="1.5" stroke-linejoin="round"/>
<path d="M 232.53 278.53 A 85 85 0 0 1 200.00 285.00 L 200.00 250.00 A 50 50 0 0 0 219.13 246.19 Z" fill="#FAFAF5" stroke="#2a2a3a" stroke-width="1.5" stroke-linejoin="round"/>
<path d="M 200.00 285.00 A 85 85 0 0 1 167.47 278.53 L 180.87 246.19 A 50 50 0 0 0 200.00 250.00 Z" fill="#FAFAF5" stroke="#2a2a3a" stroke-width="1.5" stroke-linejoin="round"/>
<path d="M 167.47 278.53 A 85 85 0 0 1 139.90 260.10 L 164.64 235.36 A 50 50 0 0 0 180.87 246.19 Z" fill="#FAFAF5" stroke="#2a2a3a" stroke-width="1.5" stroke-linejoin="round"/>
<path d="M 139.90 260.10 A 85 85 0 0 1 121.47 232.53 L 153.81 219.13 A 50 50 0 0 0 164.64 235.36 Z" fill="#FAFAF5" stroke="#2a2a3a" stroke-width="1.5" stroke-linejoin="round"/>
<path d="M 121.47 232.53 A 85 85 0 0 1 115.00 200.00 L 150.00 200.00 A 50 50 0 0 0 153.81 219.13 Z" fill="#FAFAF5" stroke="#2a2a3a" stroke-width="1.5" stroke-linejoin="round"/>
<path d="M 115.00 200.00 A 85 85 0 0 1 121.47 167.47 L 153.81 180.87 A 50 50 0 0 0 150.00 200.00 Z" fill="#FAFAF5" stroke="#2a2a3a" stroke-width="1.5" stroke-linejoin="round"/>
<path d="M 121.47 167.47 A 85 85 0 0 1 139.90 139.90 L 164.64 164.64 A 50 50 0 0 0 153.81 180.87 Z" fill="#FAFAF5" stroke="#2a2a3a" stroke-width="1.5" stroke-linejoin="round"/>
<path d="M 139.90 139.90 A 85 85 0 0 1 167.47 121.47 L 180.87 153.81 A 50 50 0 0 0 164.64 164.64 Z" fill="#FAFAF5" stroke="#2a2a3a" stroke-width="1.5" stroke-linejoin="round"/>
<path d="M 167.47 121.47 A 85 85 0 0 1 200.00 115.00 L 200.00 150.00 A 50 50 0 0 0 180.87 153.81 Z" fill="#FAFAF5" stroke="#2a2a3a" stroke-width="1.5" stroke-linejoin="round"/>
<path d="M 200.00 80.00 A 120 120 0 0 1 284.85 115.15 L 260.10 139.90 A 85 85 0 0 0 200.00 115.00 Z" fill="#FAFAF5" stroke="#2a2a3a" stroke-width="1.5" stroke-linejoin="round"/>
<path d="M 284.85 115.15 A 120 120 0 0 1 320.00 200.00 L 285.00 200.00 A 85 85 0 0 0 260.10 139.90 Z" fill="#FAFAF5" stroke="#2a2a3a" stroke-width="1.5" stroke-linejoin="round"/>
<path d="M 320.00 200.00 A 120 120 0 0 1 284.85 284.85 L 260.10 260.10 A 85 85 0 0 0 285.00 200.00 Z" fill="#FAFAF5" stroke="#2a2a3a" stroke-width="1.5" stroke-linejoin="round"/>
<path d="M 284.85 284.85 A 120 120 0 0 1 200.00 320.00 L 200.00 285.00 A 85 85 0 0 0 260.10 260.10 Z" fill="#FAFAF5" stroke="#2a2a3a" stroke-width="1.5" stroke-linejoin="round"/>
<path d="M 200.00 320.00 A 120 120 0 0 1 115.15 284.85 L 139.90 260.10 A 85 85 0 0 0 200.00 285.00 Z" fill="#FAFAF5" stroke="#2a2a3a" stroke-width="1.5" stroke-linejoin="round"/>
<path d="M 115.15 284.85 A 120 120 0 0 1 80.00 200.00 L 115.00 200.00 A 85 85 0 0 0 139.90 260.10 Z" fill="#FAFAF5" stroke="#2a2a3a" stroke-width="1.5" stroke-linejoin="round"/>
<path d="M 80.00 200.00 A 120 120 0 0 1 115.15 115.15 L 139.90 139.90 A 85 85 0 0 0 115.00 200.00 Z" fill="#FAFAF5" stroke="#2a2a3a" stroke-width="1.5" stroke-linejoin="round"/>
<path d="M 115.15 115.15 A 120 120 0 0 1 200.00 80.00 L 200.00 115.00 A 85 85 0 0 0 139.90 139.90 Z" fill="#FAFAF5" stroke="#2a2a3a" stroke-width="1.5" stroke-linejoin="round"/>
<path d="M 200.00 45.00 A 155 155 0 0 1 230.24 47.98 L 223.41 82.31 A 120 120 0 0 0 200.00 80.00 Z" fill="#FAFAF5" stroke="#2a2a3a" stroke-width="1.5" stroke-linejoin="round"/>
<path d="M 230.24 47.98 A 155 155 0 0 1 259.32 56.80 L 245.92 89.13 A 120 120 0 0 0 223.41 82.31 Z" fill="#FAFAF5" stroke="#2a2a3a" stroke-width="1.5" stroke-linejoin="round"/>
<path d="M 259.32 56.80 A 155 155 0 0 1 286.11 71.12 L 266.67 100.22 A 120 120 0 0 0 245.92 89.13 Z" fill="#FAFAF5" stroke="#2a2a3a" stroke-width="1.5" stroke-linejoin="round"/>
<path d="M 286.11 71.12 A 155 155 0 0 1 309.60 90.40 L 284.85 115.15 A 120 120 0 0 0 266.67 100.22 Z" fill="#FAFAF5" stroke="#2a2a3a" stroke-width="1.5" stroke-linejoin="round"/>
<path d="M 309.60 90.40 A 155 155 0 0 1 328.88 113.89 L 299.78 133.33 A 120 120 0 0 0 284.85 115.15 Z" fill="#FAFAF5" stroke="#2a2a3a" stroke-width="1.5" stroke-linejoin="round"/>
<path d="M 328.88 113.89 A 155 155 0 0 1 343.20 140.68 L 310.87 154.08 A 120 120 0 0 0 299.78 133.33 Z" fill="#FAFAF5" stroke="#2a2a3a" stroke-width="1.5" stroke-linejoin="round"/>
<path d="M 343.20 140.68 A 155 155 0 0 1 352.02 169.76 L 317.69 176.59 A 120 120 0 0 0 310.87 154.08 Z" fill="#FAFAF5" stroke="#2a2a3a" stroke-width="1.5" stroke-linejoin="round"/>
<path d="M 352.02 169.76 A 155 155 0 0 1 355.00 200.00 L 320.00 200.00 A 120 120 0 0 0 317.69 176.59 Z" fill="#FAFAF5" stroke="#2a2a3a" stroke-width="1.5" stroke-linejoin="round"/>
<path d="M 355.00 200.00 A 155 155 0 0 1 352.02 230.24 L 317.69 223.41 A 120 120 0 0 0 320.00 200.00 Z" fill="#FAFAF5" stroke="#2a2a3a" stroke-width="1.5" stroke-linejoin="round"/>
<path d="M 352.02 230.24 A 155 155 0 0 1 343.20 259.32 L 310.87 245.92 A 120 120 0 0 0 317.69 223.41 Z" fill="#FAFAF5" stroke="#2a2a3a" stroke-width="1.5" stroke-linejoin="round"/>
<path d="M 343.20 259.32 A 155 155 0 0 1 328.88 286.11 L 299.78 266.67 A 120 120 0 0 0 310.87 245.92 Z" fill="#FAFAF5" stroke="#2a2a3a" stroke-width="1.5" stroke-linejoin="round"/>
<path d="M 328.88 286.11 A 155 155 0 0 1 309.60 309.60 L 284.85 284.85 A 120 120 0 0 0 299.78 266.67 Z" fill="#FAFAF5" stroke="#2a2a3a" stroke-width="1.5" stroke-linejoin="round"/>
<path d="M 309.60 309.60 A 155 155 0 0 1 286.11 328.88 L 266.67 299.78 A 120 120 0 0 0 284.85 284.85 Z" fill="#FAFAF5" stroke="#2a2a3a" stroke-width="1.5" stroke-linejoin="round"/>
<path d="M 286.11 328.88 A 155 155 0 0 1 259.32 343.20 L 245.92 310.87 A 120 120 0 0 0 266.67 299.78 Z" fill="#FAFAF5" stroke="#2a2a3a" stroke-width="1.5" stroke-linejoin="round"/>
<path d="M 259.32 343.20 A 155 155 0 0 1 230.24 352.02 L 223.41 317.69 A 120 120 0 0 0 245.92 310.87 Z" fill="#FAFAF5" stroke="#2a2a3a" stroke-width="1.5" stroke-linejoin="round"/>
<path d="M 230.24 352.02 A 155 155 0 0 1 200.00 355.00 L 200.00 320.00 A 120 120 0 0 0 223.41 317.69 Z" fill="#FAFAF5" stroke="#2a2a3a" stroke-width="1.5" stroke-linejoin="round"/>
<path d="M 200.00 355.00 A 155 155 0 0 1 169.76 352.02 L 176.59 317.69 A 120 120 0 0 0 200.00 320.00 Z" fill="#FAFAF5" stroke="#2a2a3a" stroke-width="1.5" stroke-linejoin="round"/>
<path d="M 169.76 352.02 A 155 155 0 0 1 140.68 343.20 L 154.08 310.87 A 120 120 0 0 0 176.59 317.69 Z" fill="#FAFAF5" stroke="#2a2a3a" stroke-width="1.5" stroke-linejoin="round"/>
<path d="M 140.68 343.20 A 155 155 0 0 1 113.89 328.88 L 133.33 299.78 A 120 120 0 0 0 154.08 310.87 Z" fill="#FAFAF5" stroke="#2a2a3a" stroke-width="1.5" stroke-linejoin="round"/>
<path d="M 113.89 328.88 A 155 155 0 0 1 90.40 309.60 L 115.15 284.85 A 120 120 0 0 0 133.33 299.78 Z" fill="#FAFAF5" stroke="#2a2a3a" stroke-width="1.5" stroke-linejoin="round"/>
<path d="M 90.40 309.60 A 155 155 0 0 1 71.12 286.11 L 100.22 266.67 A 120 120 0 0 0 115.15 284.85 Z" fill="#FAFAF5" stroke="#2a2a3a" stroke-width="1.5" stroke-linejoin="round"/>
<path d="M 71.12 286.11 A 155 155 0 0 1 56.80 259.32 L 89.13 245.92 A 120 120 0 0 0 100.22 266.67 Z" fill="#FAFAF5" stroke="#2a2a3a" stroke-width="1.5" stroke-linejoin="round"/>
<path d="M 56.80 259.32 A 155 155 0 0 1 47.98 230.24 L 82.31 223.41 A 120 120 0 0 0 89.13 245.92 Z" fill="#FAFAF5" stroke="#2a2a3a" stroke-width="1.5" stroke-linejoin="round"/>
<path d="M 47.98 230.24 A 155 155 0 0 1 45.00 200.00 L 80.00 200.00 A 120 120 0 0 0 82.31 223.41 Z" fill="#FAFAF5" stroke="#2a2a3a" stroke-width="1.5" stroke-linejoin="round"/>
<path d="M 45.00 200.00 A 155 155 0 0 1 47.98 169.76 L 82.31 176.59 A 120 120 0 0 0 80.00 200.00 Z" fill="#FAFAF5" stroke="#2a2a3a" stroke-width="1.5" stroke-linejoin="round"/>
<path d="M 47.98 169.76 A 155 155 0 0 1 56.80 140.68 L 89.13 154.08 A 120 120 0 0 0 82.31 176.59 Z" fill="#FAFAF5" stroke="#2a2a3a" stroke-width="1.5" stroke-linejoin="round"/>
<path d="M 56.80 140.68 A 155 155 0 0 1 71.12 113.89 L 100.22 133.33 A 120 120 0 0 0 89.13 154.08 Z" fill="#FAFAF5" stroke="#2a2a3a" stroke-width="1.5" stroke-linejoin="round"/>
<path d="M 71.12 113.89 A 155 155 0 0 1 90.40 90.40 L 115.15 115.15 A 120 120 0 0 0 100.22 133.33 Z" fill="#FAFAF5" stroke="#2a2a3a" stroke-width="1.5" stroke-linejoin="round"/>
<path d="M 90.40 90.40 A 155 155 0 0 1 113.89 71.12 L 133.33 100.22 A 120 120 0 0 0 115.15 115.15 Z" fill="#FAFAF5" stroke="#2a2a3a" stroke-width="1.5" stroke-linejoin="round"/>
<path d="M 113.89 71.12 A 155 155 0 0 1 140.68 56.80 L 154.08 89.13 A 120 120 0 0 0 133.33 100.22 Z" fill="#FAFAF5" stroke="#2a2a3a" stroke-width="1.5" stroke-linejoin="round"/>
<path d="M 140.68 56.80 A 155 155 0 0 1 169.76 47.98 L 176.59 82.31 A 120 120 0 0 0 154.08 89.13 Z" fill="#FAFAF5" stroke="#2a2a3a" stroke-width="1.5" stroke-linejoin="round"/>
<path d="M 169.76 47.98 A 155 155 0 0 1 200.00 45.00 L 200.00 80.00 A 120 120 0 0 0 176.59 82.31 Z" fill="#FAFAF5" stroke="#2a2a3a" stroke-width="1.5" stroke-linejoin="round"/>
<path d="M 200.00 20.00 A 180 180 0 0 1 268.88 33.70 L 259.32 56.80 A 155 155 0 0 0 200.00 45.00 Z" fill="#FAFAF5" stroke="#2a2a3a" stroke-width="1.5" stroke-linejoin="round"/>
<path d="M 268.88 33.70 A 180 180 0 0 1 327.28 72.72 L 309.60 90.40 A 155 155 0 0 0 259.32 56.80 Z" fill="#FAFAF5" stroke="#2a2a3a" stroke-width="1.5" stroke-linejoin="round"/>
<path d="M 327.28 72.72 A 180 180 0 0 1 366.30 131.12 L 343.20 140.68 A 155 155 0 0 0 309.60 90.40 Z" fill="#FAFAF5" stroke="#2a2a3a" stroke-width="1.5" stroke-linejoin="round"/>
<path d="M 366.30 131.12 A 180 180 0 0 1 380.00 200.00 L 355.00 200.00 A 155 155 0 0 0 343.20 140.68 Z" fill="#FAFAF5" stroke="#2a2a3a" stroke-width="1.5" stroke-linejoin="round"/>
<path d="M 380.00 200.00 A 180 180 0 0 1 366.30 268.88 L 343.20 259.32 A 155 155 0 0 0 355.00 200.00 Z" fill="#FAFAF5" stroke="#2a2a3a" stroke-width="1.5" stroke-linejoin="round"/>
<path d="M 366.30 268.88 A 180 180 0 0 1 327.28 327.28 L 309.60 309.60 A 155 155 0 0 0 343.20 259.32 Z" fill="#FAFAF5" stroke="#2a2a3a" stroke-width="1.5" stroke-linejoin="round"/>
<path d="M 327.28 327.28 A 180 180 0 0 1 268.88 366.30 L 259.32 343.20 A 155 155 0 0 0 309.60 309.60 Z" fill="#FAFAF5" stroke="#2a2a3a" stroke-width="1.5" stroke-linejoin="round"/>
<path d="M 268.88 366.30 A 180 180 0 0 1 200.00 380.00 L 200.00 355.00 A 155 155 0 0 0 259.32 343.20 Z" fill="#FAFAF5" stroke="#2a2a3a" stroke-width="1.5" stroke-linejoin="round"/>
<path d="M 200.00 380.00 A 180 180 0 0 1 131.12 366.30 L 140.68 343.20 A 155 155 0 0 0 200.00 355.00 Z" fill="#FAFAF5" stroke="#2a2a3a" stroke-width="1.5" stroke-linejoin="round"/>
<path d="M 131.12 366.30 A 180 180 0 0 1 72.72 327.28 L 90.40 309.60 A 155 155 0 0 0 140.68 343.20 Z" fill="#FAFAF5" stroke="#2a2a3a" stroke-width="1.5" stroke-linejoin="round"/>
<path d="M 72.72 327.28 A 180 180 0 0 1 33.70 268.88 L 56.80 259.32 A 155 155 0 0 0 90.40 309.60 Z" fill="#FAFAF5" stroke="#2a2a3a" stroke-width="1.5" stroke-linejoin="round"/>
<path d="M 33.70 268.88 A 180 180 0 0 1 20.00 200.00 L 45.00 200.00 A 155 155 0 0 0 56.80 259.32 Z" fill="#FAFAF5" stroke="#2a2a3a" stroke-width="1.5" stroke-linejoin="round"/>
<path d="M 20.00 200.00 A 180 180 0 0 1 33.70 131.12 L 56.80 140.68 A 155 155 0 0 0 45.00 200.00 Z" fill="#FAFAF5" stroke="#2a2a3a" stroke-width="1.5" stroke-linejoin="round"/>
<path d="M 33.70 131.12 A 180 180 0 0 1 72.72 72.72 L 90.40 90.40 A 155 155 0 0 0 56.80 140.68 Z" fill="#FAFAF5" stroke="#2a2a3a" stroke-width="1.5" stroke-linejoin="round"/>
<path d="M 72.72 72.72 A 180 180 0 0 1 131.12 33.70 L 140.68 56.80 A 155 155 0 0 0 90.40 90.40 Z" fill="#FAFAF5" stroke="#2a2a3a" stroke-width="1.5" stroke-linejoin="round"/>
<path d="M 131.12 33.70 A 180 180 0 0 1 200.00 20.00 L 200.00 45.00 A 155 155 0 0 0 140.68 56.80 Z" fill="#FAFAF5" stroke="#2a2a3a" stroke-width="1.5" stroke-linejoin="round"/>
<path d="M 200.00 5.00 A 195 195 0 0 1 238.04 8.75 L 235.12 23.46 A 180 180 0 0 0 200.00 20.00 Z" fill="#FAFAF5" stroke="#2a2a3a" stroke-width="1.5" stroke-linejoin="round"/>
<path d="M 238.04 8.75 A 195 195 0 0 1 274.62 19.84 L 268.88 33.70 A 180 180 0 0 0 235.12 23.46 Z" fill="#FAFAF5" stroke="#2a2a3a" stroke-width="1.5" stroke-linejoin="round"/>
<path d="M 274.62 19.84 A 195 195 0 0 1 308.34 37.86 L 300.00 50.34 A 180 180 0 0 0 268.88 33.70 Z" fill="#FAFAF5" stroke="#2a2a3a" stroke-width="1.5" stroke-linejoin="round"/>
<path d="M 308.34 37.86 A 195 195 0 0 1 337.89 62.11 L 327.28 72.72 A 180 180 0 0 0 300.00 50.34 Z" fill="#FAFAF5" stroke="#2a2a3a" stroke-width="1.5" stroke-linejoin="round"/>
<path d="M 337.89 62.11 A 195 195 0 0 1 362.14 91.66 L 349.66 100.00 A 180 180 0 0 0 327.28 72.72 Z" fill="#FAFAF5" stroke="#2a2a3a" stroke-width="1.5" stroke-linejoin="round"/>
<path d="M 362.14 91.66 A 195 195 0 0 1 380.16 125.38 L 366.30 131.12 A 180 180 0 0 0 349.66 100.00 Z" fill="#FAFAF5" stroke="#2a2a3a" stroke-width="1.5" stroke-linejoin="round"/>
<path d="M 380.16 125.38 A 195 195 0 0 1 391.25 161.96 L 376.54 164.88 A 180 180 0 0 0 366.30 131.12 Z" fill="#FAFAF5" stroke="#2a2a3a" stroke-width="1.5" stroke-linejoin="round"/>
<path d="M 391.25 161.96 A 195 195 0 0 1 395.00 200.00 L 380.00 200.00 A 180 180 0 0 0 376.54 164.88 Z" fill="#FAFAF5" stroke="#2a2a3a" stroke-width="1.5" stroke-linejoin="round"/>
<path d="M 395.00 200.00 A 195 195 0 0 1 391.25 238.04 L 376.54 235.12 A 180 180 0 0 0 380.00 200.00 Z" fill="#FAFAF5" stroke="#2a2a3a" stroke-width="1.5" stroke-linejoin="round"/>
<path d="M 391.25 238.04 A 195 195 0 0 1 380.16 274.62 L 366.30 268.88 A 180 180 0 0 0 376.54 235.12 Z" fill="#FAFAF5" stroke="#2a2a3a" stroke-width="1.5" stroke-linejoin="round"/>
<path d="M 380.16 274.62 A 195 195 0 0 1 362.14 308.34 L 349.66 300.00 A 180 180 0 0 0 366.30 268.88 Z" fill="#FAFAF5" stroke="#2a2a3a" stroke-width="1.5" stroke-linejoin="round"/>
<path d="M 362.14 308.34 A 195 195 0 0 1 337.89 337.89 L 327.28 327.28 A 180 180 0 0 0 349.66 300.00 Z" fill="#FAFAF5" stroke="#2a2a3a" stroke-width="1.5" stroke-linejoin="round"/>
<path d="M 337.89 337.89 A 195 195 0 0 1 308.34 362.14 L 300.00 349.66 A 180 180 0 0 0 327.28 327.28 Z" fill="#FAFAF5" stroke="#2a2a3a" stroke-width="1.5" stroke-linejoin="round"/>
<path d="M 308.34 362.14 A 195 195 0 0 1 274.62 380.16 L 268.88 366.30 A 180 180 0 0 0 300.00 349.66 Z" fill="#FAFAF5" stroke="#2a2a3a" stroke-width="1.5" stroke-linejoin="round"/>
<path d="M 274.62 380.16 A 195 195 0 0 1 238.04 391.25 L 235.12 376.54 A 180 180 0 0 0 268.88 366.30 Z" fill="#FAFAF5" stroke="#2a2a3a" stroke-width="1.5" stroke-linejoin="round"/>
<path d="M 238.04 391.25 A 195 195 0 0 1 200.00 395.00 L 200.00 380.00 A 180 180 0 0 0 235.12 376.54 Z" fill="#FAFAF5" stroke="#2a2a3a" stroke-width="1.5" stroke-linejoin="round"/>
<path d="M 200.00 395.00 A 195 195 0 0 1 161.96 391.25 L 164.88 376.54 A 180 180 0 0 0 200.00 380.00 Z" fill="#FAFAF5" stroke="#2a2a3a" stroke-width="1.5" stroke-linejoin="round"/>
<path d="M 161.96 391.25 A 195 195 0 0 1 125.38 380.16 L 131.12 366.30 A 180 180 0 0 0 164.88 376.54 Z" fill="#FAFAF5" stroke="#2a2a3a" stroke-width="1.5" stroke-linejoin="round"/>
<path d="M 125.38 380.16 A 195 195 0 0 1 91.66 362.14 L 100.00 349.66 A 180 180 0 0 0 131.12 366.30 Z" fill="#FAFAF5" stroke="#2a2a3a" stroke-width="1.5" stroke-linejoin="round"/>
<path d="M 91.66 362.14 A 195 195 0 0 1 62.11 337.89 L 72.72 327.28 A 180 180 0 0 0 100.00 349.66 Z" fill="#FAFAF5" stroke="#2a2a3a" stroke-width="1.5" stroke-linejoin="round"/>
<path d="M 62.11 337.89 A 195 195 0 0 1 37.86 308.34 L 50.34 300.00 A 180 180 0 0 0 72.72 327.28 Z" fill="#FAFAF5" stroke="#2a2a3a" stroke-width="1.5" stroke-linejoin="round"/>
<path d="M 37.86 308.34 A 195 195 0 0 1 19.84 274.62 L 33.70 268.88 A 180 180 0 0 0 50.34 300.00 Z" fill="#FAFAF5" stroke="#2a2a3a" stroke-width="1.5" stroke-linejoin="round"/>
<path d="M 19.84 274.62 A 195 195 0 0 1 8.75 238.04 L 23.46 235.12 A 180 180 0 0 0 33.70 268.88 Z" fill="#FAFAF5" stroke="#2a2a3a" stroke-width="1.5" stroke-linejoin="round"/>
<path d="M 8.75 238.04 A 195 195 0 0 1 5.00 200.00 L 20.00 200.00 A 180 180 0 0 0 23.46 235.12 Z" fill="#FAFAF5" stroke="#2a2a3a" stroke-width="1.5" stroke-linejoin="round"/>
<path d="M 5.00 200.00 A 195 195 0 0 1 8.75 161.96 L 23.46 164.88 A 180 180 0 0 0 20.00 200.00 Z" fill="#FAFAF5" stroke="#2a2a3a" stroke-width="1.5" stroke-linejoin="round"/>
<path d="M 8.75 161.96 A 195 195 0 0 1 19.84 125.38 L 33.70 131.12 A 180 180 0 0 0 23.46 164.88 Z" fill="#FAFAF5" stroke="#2a2a3a" stroke-width="1.5" stroke-linejoin="round"/>
<path d="M 19.84 125.38 A 195 195 0 0 1 37.86 91.66 L 50.34 100.00 A 180 180 0 0 0 33.70 131.12 Z" fill="#FAFAF5" stroke="#2a2a3a" stroke-width="1.5" stroke-linejoin="round"/>
<path d="M 37.86 91.66 A 195 195 0 0 1 62.11 62.11 L 72.72 72.72 A 180 180 0 0 0 50.34 100.00 Z" fill="#FAFAF5" stroke="#2a2a3a" stroke-width="1.5" stroke-linejoin="round"/>
<path d="M 62.11 62.11 A 195 195 0 0 1 91.66 37.86 L 100.00 50.34 A 180 180 0 0 0 72.72 72.72 Z" fill="#FAFAF5" stroke="#2a2a3a" stroke-width="1.5" stroke-linejoin="round"/>
<path d="M 91.66 37.86 A 195 195 0 0 1 125.38 19.84 L 131.12 33.70 A 180 180 0 0 0 100.00 50.34 Z" fill="#FAFAF5" stroke="#2a2a3a" stroke-width="1.5" stroke-linejoin="round"/>
<path d="M 125.38 19.84 A 195 195 0 0 1 161.96 8.75 L 164.88 23.46 A 180 180 0 0 0 131.12 33.70 Z" fill="#FAFAF5" stroke="#2a2a3a" stroke-width="1.5" stroke-linejoin="round"/>
<path d="M 161.96 8.75 A 195 195 0 0 1 200.00 5.00 L 200.00 20.00 A 180 180 0 0 0 164.88 23.46 Z" fill="#FAFAF5" stroke="#2a2a3a" stroke-width="1.5" stroke-linejoin="round"/>
</svg>