<?xml version="1.0" encoding="UTF-8"?>
<svg xmlns="http://www.w3.org/2000/svg" viewBox="0 0 400 400" width="400" height="400">
<rect width="400" height="400" fill="#FAFAF5"/>
<circle cx="200" cy="200" r="18" fill="#FAFAF5" stroke="#2a2a3a" stroke-width="1.5" stroke-linejoin="round"/>
<path d="M 200.00 152.00 A 48 48 0 0 1 233.94 166.06 L 212.73 187.27 A 18 18 0 0 0 200.00 182.00 Z" fill="#FAFAF5" stroke="#2a2a3a" stroke-width="1.5" stroke-linejoin="round"/>
<path d="M 233.94 166.06 A 48 48 0 0 1 248.00 200.00 L 218.00 200.00 A 18 18 0 0 0 212.73 187.27 Z" fill="#FAFAF5" stroke="#2a2a3a" stroke-width="1.5" stroke-linejoin="round"/>
<path d="M 248.00 200.00 A 48 48 0 0 1 233.94 233.94 L 212.73 212.73 A 18 18 0 0 0 218.00 200.00 Z" fill="#FAFAF5" stroke="#2a2a3a" stroke-width="1.5" stroke-linejoin="round"/>
<path d="M 233.94 233.94 A 48 48 0 0 1 200.00 248.00 L 200.00 218.00 A 18 18 0 0 0 212.73 212.73 Z" fill="#FAFAF5" stroke="#2a2a3a" stroke-width="1.5" stroke-linejoin="round"/>
<path d="M 200.00 248.00 A 48 48 0 0 1 166.06 233.94 L 187.27 212.73 A 18 18 0 0 0 200.00 218.00 Z" fill="#FAFAF5" stroke="#2a2a3a" stroke-width="1.5" stroke-linejoin="round"/>
<path d="M 166.06 233.94 A 48 48 0 0 1 152.00 200.00 L 182.00 200.00 A 18 18 0 0 0 187.27 212.73 Z" fill="#FAFAF5" stroke="#2a2a3a" stroke-width="1.5" stroke-linejoin="round"/>
<path d="M 152.00 200.00 A 48 48 0 0 1 166.06 166.06 L 187.27 187.27 A 18 18 0 0 0 182.00 200.00 Z" fill="#FAFAF5" stroke="#2a2a3a" stroke-width="1.5" stroke-linejoin="round"/>
<path d="M 166.06 166.06 A 48 48 0 0 1 200.00 152.00 L 200.00 182.00 A 18 18 0 0 0 187.27 187.27 Z" fill="#FAFAF5" stroke="#2a2a3a" stroke-width="1.5" stroke-linejoin="round"/>
<path d="M 200.00 118.00 A 82 82 0 0 1 231.38 124.24 L 218.37 155.65 A 48 48 0 0 0 200.00 152.00 Z" fill="#FAFAF5" stroke="#2a2a3a" stroke-width="1.5" stroke-linejoin="round"/>
<path d="M 231.38 124.24 A 82 82 0 0 1 257.98 142.02 L 233.94 166.06 A 48 48 0 0 0 218.37 155.65 Z" fill="#FAFAF5" stroke="#2a2a3a" stroke-width="1.5" stroke-linejoin="round"/>
<path d="M 257.98 142.02 A 82 82 0 0 1 275.76 168.62 L 244.35 181.63 A 48 48 0 0 0 233.94 166.06 Z" fill="#FAFAF5" stroke="#2a2a3a" stroke-width="1.5" stroke-linejoin="round"/>
<path d="M 275.76 168.62 A 82 82 0 0 1 282.00 200.00 L 248.00 200.00 A 48 48 0 0 0 244.35 181.63 Z" fill="#FAFAF5" stroke="#2a2a3a" stroke-width="1.5" stroke-linejoin="round"/>
<path d="M 282.00 200.00 A 82 82 0 0 1 275.76 231.38 L 244.35 218.37 A 48 48 0 0 0 248.00 200.00 Z" fill="#FAFAF5" stroke="#2a2a3a" stroke-width="1.5" stroke-linejoin="round"/>
<path d="M 275.76 231.38 A 82 82 0 0 1 257.98 257.98 L 233.94 233.94 A 48 48 0 0 0 244.35 218.37 Z" fill="#FAFAF5" stroke="#2a2a3a" stroke-width="1.5" stroke-linejoin="round"/>
<path d="M 257.98 257.98 A 82 82 0 0 1 231.38 275.76 L 218.37 244.35 A 48 48 0 0 0 233.94 233.94 Z" fill="#FAFAF5" stroke="#2a2a3a" stroke-width="1.5" stroke-linejoin="round"/>
<path d="M 231.38 275.76 A 82 82 0 0 1 200.00 282.00 L 200.00 248.00 A 48 48 0 0 0 218.37 244.35 Z" fill="#FAFAF5" stroke="#2a2a3a" stroke-width="1.5" stroke-linejoin="round"/>
<path d="M 200.00 282.00 A 82 82 0 0 1 168.62 275.76 L 181.63 244.35 A 48 48 0 0 0 200.00 248.00 Z" fill="#FAFAF5" stroke="#2a2a3a" stroke-width="1.5" stroke-linejoin="round"/>
<path d="M 168.62 275.76 A 82 82 0 0 1 142.02 257.98 L 166.06 233.94 A 48 48 0 0 0 181.63 244.35 Z" fill="#FAFAF5" stroke="#2a2a3a" stroke-width="1.5" stroke-linejoin="round"/>
<path d="M 142.02 257.98 A 82 82 0 0 1 124.24 231.38 L 155.65 218.37 A 48 48 0 0 0 166.06 233.94 Z" fill="#FAFAF5" stroke="#2a2a3a" stroke-width="1.5" stroke-linejoin="round"/>
<path d="M 124.24 231.38 A 82 82 0 0 1 118.00 200.00 L 152.00 200.00 A 48 48 0 0 0 155.65 218.37 Z" fill="#FAFAF5" stroke="#2a2a3a" stroke-width="1.5" stroke-linejoin="round"/>
<path d="M 118.00 200.00 A 82 82 0 0 1 124.24 168.62 L 155.65 181.63 A 48 48 0 0 0 152.00 200.00 Z" fill="#FAFAF5" stroke="#2a2a3a" stroke-width="1.5" stroke-linejoin="round"/>
<path d="M 124.24 168.62 A 82 82 0 0 1 142.02 142.02 L 166.06 166.06 A 48 48 0 0 0 155.65 181.63 Z" fill="#FAFAF5" stroke="#2a2a3a" stroke-width="1.5" stroke-linejoin="round"/>
<path d="M 142.02 142.02 A 82 82 0 0 1 168.62 124.24 L 181.63 155.65 A 48 48 0 0 0 166.06 166.06 Z" fill="#FAFAF5" stroke="#2a2a3a" stroke-width="1.5" stroke-linejoin="round"/>
<path d="M 168.62 124.24 A 82 82 0 0 1 200.00 118.00 L 200.00 152.00 A 48 48 0 0 0 181.63 155.65 Z" fill="#FAFAF5" stroke="#2a2a3a" stroke-width="1.5" stroke-linejoin="round"/>
<path d="M 200.00 84.00 A 116 116 0 0 1 222.63 86.23 L 216.00 119.58 A 82 82 0 0 0 200.00 118.00 Z" fill="#FAFAF5" stroke="#2a2a3a" stroke-width="1.5" stroke-linejoin="round"/>
<path d="M 222.63 86.23 A 116 116 0 0 1 244.39 92.83 L 231.38 124.24 A 82 82 0 0 0 216.00 119.58 Z" fill="#FAFAF5" stroke="#2a2a3a" stroke-width="1.5" stroke-linejoin="round"/>
<path d="M 244.39 92.83 A 116 116 0 0 1 264.45 103.55 L 245.56 131.82 A 82 82 0 0 0 231.38 124.24 Z" fill="#FAFAF5" stroke="#2a2a3a" stroke-width="1.5" stroke-linejoin="round"/>
<path d="M 264.45 103.55 A 116 116 0 0 1 282.02 117.98 L 257.98 142.02 A 82 82 0 0 0 245.56 131.82 Z" fill="#FAFAF5" stroke="#2a2a3a" stroke-width="1.5" stroke-linejoin="round"/>
<path d="M 282.02 117.98 A 116 116 0 0 1 296.45 135.55 L 268.18 154.44 A 82 82 0 0 0 257.98 142.02 Z" fill="#FAFAF5" stroke="#2a2a3a" stroke-width="1.5" stroke-linejoin="round"/>
<path d="M 296.45 135.55 A 116 116 0 0 1 307.17 155.61 L 275.76 168.62 A 82 82 0 0 0 268.18 154.44 Z" fill="#FAFAF5" stroke="#2a2a3a" stroke-width="1.5" stroke-linejoin="round"/>
<path d="M 307.17 155.61 A 116 116 0 0 1 313.77 177.37 L 280.42 184.00 A 82 82 0 0 0 275.76 168.62 Z" fill="#FAFAF5" stroke="#2a2a3a" stroke-width="1.5" stroke-linejoin="round"/>
<path d="M 313.77 177.37 A 116 116 0 0 1 316.00 200.00 L 282.00 200.00 A 82 82 0 0 0 280.42 184.00 Z" fill="#FAFAF5" stroke="#2a2a3a" stroke-width="1.5" stroke-linejoin="round"/>
<path d="M 316.00 200.00 A 116 116 0 0 1 313.77 222.63 L 280.42 216.00 A 82 82 0 0 0 282.00 200.00 Z" fill="#FAFAF5" stroke="#2a2a3a" stroke-width="1.5" stroke-linejoin="round"/>
<path d="M 313.77 222.63 A 116 116 0 0 1 307.17 244.39 L 275.76 231.38 A 82 82 0 0 0 280.42 216.00 Z" fill="#FAFAF5" stroke="#2a2a3a" stroke-width="1.5" stroke-linejoin="round"/>
<path d="M 307.17 244.39 A 116 116 0 0 1 296.45 264.45 L 268.18 245.56 A 82 82 0 0 0 275.76 231.38 Z" fill="#FAFAF5" stroke="#2a2a3a" stroke-width="1.5" stroke-linejoin="round"/>
<path d="M 296.45 264.45 A 116 116 0 0 1 282.02 282.02 L 257.98 257.98 A 82 82 0 0 0 268.18 245.56 Z" fill="#FAFAF5" stroke="#2a2a3a" stroke-width="1.5" stroke-linejoin="round"/>
<path d="M 282.02 282.02 A 116 116 0 0 1 264.45 296.45 L 245.56 268.18 A 82 82 0 0 0 257.98 257.98 Z" fill="#FAFAF5" stroke="#2a2a3a" stroke-width="1.5" stroke-linejoin="round"/>
<path d="M 264.45 296.45 A 116 116 0 0 1 244.39 307.17 L 231.38 275.76 A 82 82 0 0 0 245.56 268.18 Z" fill="#FAFAF5" stroke="#2a2a3a" stroke-width="1.5" stroke-linejoin="round"/>
<path d="M 244.39 307.17 A 116 116 0 0 1 222.63 313.77 L 216.00 280.42 A 82 82 0 0 0 231.38 275.76 Z" fill="#FAFAF5" stroke="#2a2a3a" stroke-width="1.5" stroke-linejoin="round"/>
<path d="M 222.63 313.77 A 116 116 0 0 1 200.00 316.00 L 200.00 282.00 A 82 82 0 0 0 216.00 280.42 Z" fill="#FAFAF5" stroke="#2a2a3a" stroke-width="1.5" stroke-linejoin="round"/>
<path d="M 200.00 316.00 A 116 116 0 0 1 177.37 313.77 L 184.00 280.42 A 82 82 0 0 0 200.00 282.00 Z" fill="#FAFAF5" stroke="#2a2a3a" stroke-width="1.5" stroke-linejoin="round"/>
<path d="M 177.37 313.77 A 116 116 0 0 1 155.61 307.17 L 168.62 275.76 A 82 82 0 0 0 184.00 280.42 Z" fill="#FAFAF5" stroke="#2a2a3a" stroke-width="1.5" stroke-linejoin="round"/>
<path d="M 155.61 307.17 A 116 116 0 0 1 135.55 296.45 L 154.44 268.18 A 82 82 0 0 0 168.62 275.76 Z" fill="#FAFAF5" stroke="#2a2a3a" stroke-width="1.5" stroke-linejoin="round"/>
<path d="M 135.55 296.45 A 116 116 0 0 1 117.98 282.02 L 142.02 257.98 A 82 82 0 0 0 154.44 268.18 Z" fill="#FAFAF5" stroke="#2a2a3a" stroke-width="1.5" stroke-linejoin="round"/>
<path d="M 117.98 282.02 A 116 116 0 0 1 103.55 264.45 L 131.82 245.56 A 82 82 0 0 0 142.02 257.98 Z" fill="#FAFAF5" stroke="#2a2a3a" stroke-width="1.5" stroke-linejoin="round"/>
<path d="M 103.55 264.45 A 116 116 0 0 1 92.83 244.39 L 124.24 231.38 A 82 82 0 0 0 131.82 245.56 Z" fill="#FAFAF5" stroke="#2a2a3a" stroke-width="1.5" stroke-linejoin="round"/>
<path d="M 92.83 244.39 A 116 116 0 0 1 86.23 222.63 L 119.58 216.00 A 82 82 0 0 0 124.24 231.38 Z" fill="#FAFAF5" stroke="#2a2a3a" stroke-width="1.5" stroke-linejoin="round"/>
<path d="M 86.23 222.63 A 116 116 0 0 1 84.00 200.00 L 118.00 200.00 A 82 82 0 0 0 119.58 216.00 Z" fill="#FAFAF5" stroke="#2a2a3a" stroke-width="1.5" stroke-linejoin="round"/>
<path d="M 84.00 200.00 A 116 116 0 0 1 86.23 177.37 L 119.58 184.00 A 82 82 0 0 0 118.00 200.00 Z" fill="#FAFAF5" stroke="#2a2a3a" stroke-width="1.5" stroke-linejoin="round"/>
<path d="M 86.23 177.37 A 116 116 0 0 1 92.83 155.61 L 124.24 168.62 A 82 82 0 0 0 119.58 184.00 Z" fill="#FAFAF5" stroke="#2a2a3a" stroke-width="1.5" stroke-linejoin="round"/>
<path d="M 92.83 155.61 A 116 116 0 0 1 103.55 135.55 L 131.82 154.44 A 82 82 0 0 0 124.24 168.62 Z" fill="#FAFAF5" stroke="#2a2a3a" stroke-width="1.5" stroke-linejoin="round"/>
<path d="M 103.55 135.55 A 116 116 0 0 1 117.98 117.98 L 142.02 142.02 A 82 82 0 0 0 131.82 154.44 Z" fill="#FAFAF5" stroke="#2a2a3a" stroke-width="1.5" stroke-linejoin="round"/>
<path d="M 117.98 117.98 A 116 116 0 0 1 135.55 103.55 L 154.44 131.82 A 82 82 0 0 0 142.02 142.02 Z" fill="#FAFAF5" stroke="#2a2a3a" stroke-width="1.5" stroke-linejoin="round"/>
<path d="M 135.55 103.55 A 116 116 0 0 1 155.61 92.83 L 168.62 124.24 A 82 82 0 0 0 154.44 131.82 Z" fill="#FAFAF5" stroke="#2a2a3a" stroke-width="1.5" stroke-linejoin="round"/>
<path d="M 155.61 92.83 A 116 116 0 0 1 177.37 86.23 L 184.00 119.58 A 82 82 0 0 0 168.62 124.24 Z" fill="#FAFAF5" stroke="#2a2a3a" stroke-width="1.5" stroke-linejoin="round"/>
<path d="M 177.37 86.23 A 116 116 0 0 1 200.00 84.00 L 200.00 118.00 A 82 82 0 0 0 184.00 119.58 Z" fill="#FAFAF5" stroke="#2a2a3a" stroke-width="1.5" stroke-linejoin="round"/>
<path d="M 200.00 50.00 A 150 150 0 0 1 257.40 61.42 L 244.39 92.83 A 116 116 0 0 0 200.00 84.00 Z" fill="#FAFAF5" stroke="#2a2a3a" stroke-width="1.5" stroke-linejoin="round"/>
<path d="M 257.40 61.42 A 150 150 0 0 1 306.07 93.93 L 282.02 117.98 A 116 116 0 0 0 244.39 92.83 Z" fill="#FAFAF5" stroke="#2a2a3a" stroke-width="1.5" stroke-linejoin="round"/>
<path d="M 306.07 93.93 A 150 150 0 0 1 338.58 142.60 L 307.17 155.61 A 116 116 0 0 0 282.02 117.98 Z" fill="#FAFAF5" stroke="#2a2a3a" stroke-width="1.5" stroke-linejoin="round"/>
<path d="M 338.58 142.60 A 150 150 0 0 1 350.00 200.00 L 316.00 200.00 A 116 116 0 0 0 307.17 155.61 Z" fill="#FAFAF5" stroke="#2a2a3a" stroke-width="1.5" stroke-linejoin="round"/>
<path d="M 350.00 200.00 A 150 150 0 0 1 338.58 257.40 L 307.17 244.39 A 116 116 0 0 0 316.00 200.00 Z" fill="#FAFAF5" stroke="#2a2a3a" stroke-width="1.5" stroke-linejoin="round"/>
<path d="M 338.58 257.40 A 150 150 0 0 1 306.07 306.07 L 282.02 282.02 A 116 116 0 0 0 307.17 244.39 Z" fill="#FAFAF5" stroke="#2a2a3a" stroke-width="1.5" stroke-linejoin="round"/>
<path d="M 306.07 306.07 A 150 150 0 0 1 257.40 338.58 L 244.39 307.17 A 116 116 0 0 0 282.02 282.02 Z" fill="#FAFAF5" stroke="#2a2a3a" stroke-width="1.5" stroke-linejoin="round"/>
<path d="M 257.40 338.58 A 150 150 0 0 1 200.00 350.00 L 200.00 316.00 A 116 116 0 0 0 244.39 307.17 Z" fill="#FAFAF5" stroke="#2a2a3a" stroke-width="1.5" stroke-linejoin="round"/>
<path d="M 200.00 350.00 A 150 150 0 0 1 142.60 338.58 L 155.61 307.17 A 116 116 0 0 0 200.00 316.00 Z" fill="#FAFAF5" stroke="#2a2a3a" stroke-width="1.5" stroke-linejoin="round"/>
<path d="M 142.60 338.58 A 150 150 0 0 1 93.93 306.07 L 117.98 282.02 A 116 116 0 0 0 155.61 307.17 Z" fill="#FAFAF5" stroke="#2a2a3a" stroke-width="1.5" stroke-linejoin="round"/>
<path d="M 93.93 306.07 A 150 150 0 0 1 61.42 257.40 L 92.83 244.39 A 116 116 0 0 0 117.98 282.02 Z" fill="#FAFAF5" stroke="#2a2a3a" stroke-width="1.5" stroke-linejoin="round"/>
<path d="M 61.42 257.40 A 150 150 0 0 1 50.00 200.00 L 84.00 200.00 A 116 116 0 0 0 92.83 244.39 Z" fill="#FAFAF5" stroke="#2a2a3a" stroke-width="1.5" stroke-linejoin="round"/>
<path d="M 50.00 200.00 A 150 150 0 0 1 61.42 142.60 L 92.83 155.61 A 116 116 0 0 0 84.00 200.00 Z" fill="#FAFAF5" stroke="#2a2a3a" stroke-width="1.5" stroke-linejoin="round"/>
<path d="M 61.42 142.60 A 150 150 0 0 1 93.93 93.93 L 117.98 117.98 A 116 116 0 0 0 92.83 155.61 Z" fill="#FAFAF5" stroke="#2a2a3a" stroke-width="1.5" stroke-linejoin="round"/>
<path d="M 93.93 93.93 A 150 150 0 0 1 142.60 61.42 L 155.61 92.83 A 116 116 0 0 0 117.98 117.98 Z" fill="#FAFAF5" stroke="#2a2a3a" stroke-width="1.5" stroke-linejoin="round"/>
<path d="M 142.60 61.42 A 150 150 0 0 1 200.00 50.00 L 200.00 84.00 A 116 116 0 0 0 155.61 92.83 Z" fill="#FAFAF5" stroke="#2a2a3a" stroke-width="1.5" stroke-linejoin="round"/>
<path d="M 200.00 22.00 A 178 178 0 0 1 217.45 22.86 L 214.70 50.72 A 150 150 0 0 0 200.00 50.00 Z" fill="#FAFAF5" stroke="#2a2a3a" stroke-width="1.5" stroke-linejoin="round"/>
<path d="M 217.45 22.86 A 178 178 0 0 1 234.73 25.42 L 229.26 52.88 A 150 150 0 0 0 214.70 50.72 Z" fill="#FAFAF5" stroke="#2a2a3a" stroke-width="1.5" stroke-linejoin="round"/>
<path d="M 234.73 25.42 A 178 178 0 0 1 251.67 29.66 L 243.54 56.46 A 150 150 0 0 0 229.26 52.88 Z" fill="#FAFAF5" stroke="#2a2a3a" stroke-width="1.5" stroke-linejoin="round"/>
<path d="M 251.67 29.66 A 178 178 0 0 1 268.12 35.55 L 257.40 61.42 A 150 150 0 0 0 243.54 56.46 Z" fill="#FAFAF5" stroke="#2a2a3a" stroke-width="1.5" stroke-linejoin="round"/>
<path d="M 268.12 35.55 A 178 178 0 0 1 283.91 43.02 L 270.71 67.71 A 150 150 0 0 0 257.40 61.42 Z" fill="#FAFAF5" stroke="#2a2a3a" stroke-width="1.5" stroke-linejoin="round"/>
<path d="M 283.91 43.02 A 178 178 0 0 1 298.89 52.00 L 283.34 75.28 A 150 150 0 0 0 270.71 67.71 Z" fill="#FAFAF5" stroke="#2a2a3a" stroke-width="1.5" stroke-linejoin="round"/>
<path d="M 298.89 52.00 A 178 178 0 0 1 312.92 62.40 L 295.16 84.05 A 150 150 0 0 0 283.34 75.28 Z" fill="#FAFAF5" stroke="#2a2a3a" stroke-width="1.5" stroke-linejoin="round"/>
<path d="M 312.92 62.40 A 178 178 0 0 1 325.87 74.13 L 306.07 93.93 A 150 150 0 0 0 295.16 84.05 Z" fill="#FAFAF5" stroke="#2a2a3a" stroke-width="1.5" stroke-linejoin="round"/>
<path d="M 325.87 74.13 A 178 178 0 0 1 337.60 87.08 L 315.95 104.84 A 150 150 0 0 0 306.07 93.93 Z" fill="#FAFAF5" stroke="#2a2a3a" stroke-width="1.5" stroke-linejoin="round"/>
<path d="M 337.60 87.08 A 178 178 0 0 1 348.00 101.11 L 324.72 116.66 A 150 150 0 0 0 315.95 104.84 Z" fill="#FAFAF5" stroke="#2a2a3a" stroke-width="1.5" stroke-linejoin="round"/>
<path d="M 348.00 101.11 A 178 178 0 0 1 356.98 116.09 L 332.29 129.29 A 150 150 0 0 0 324.72 116.66 Z" fill="#FAFAF5" stroke="#2a2a3a" stroke-width="1.5" stroke-linejoin="round"/>
<path d="M 356.98 116.09 A 178 178 0 0 1 364.45 131.88 L 338.58 142.60 A 150 150 0 0 0 332.29 129.29 Z" fill="#FAFAF5" stroke="#2a2a3a" stroke-width="1.5" stroke-linejoin="round"/>
<path d="M 364.45 131.88 A 178 178 0 0 1 370.34 148.33 L 343.54 156.46 A 150 150 0 0 0 338.58 142.60 Z" fill="#FAFAF5" stroke="#2a2a3a" stroke-width="1.5" stroke-linejoin="round"/>
<path d="M 370.34 148.33 A 178 178 0 0 1 374.58 165.27 L 347.12 170.74 A 150 150 0 0 0 343.54 156.46 Z" fill="#FAFAF5" stroke="#2a2a3a" stroke-width="1.5" stroke-linejoin="round"/>
<path d="M 374.58 165.27 A 178 178 0 0 1 377.14 182.55 L 349.28 185.30 A 150 150 0 0 0 347.12 170.74 Z" fill="#FAFAF5" stroke="#2a2a3a" stroke-width="1.5" stroke-linejoin="round"/>
<path d="M 377.14 182.55 A 178 178 0 0 1 378.00 200.00 L 350.00 200.00 A 150 150 0 0 0 349.28 185.30 Z" fill="#FAFAF5" stroke="#2a2a3a" stroke-width="1.5" stroke-linejoin="round"/>
<path d="M 378.00 200.00 A 178 178 0 0 1 377.14 217.45 L 349.28 214.70 A 150 150 0 0 0 350.00 200.00 Z" fill="#FAFAF5" stroke="#2a2a3a" stroke-width="1.5" stroke-linejoin="round"/>
<path d="M 377.14 217.45 A 178 178 0 0 1 374.58 234.73 L 347.12 229.26 A 150 150 0 0 0 349.28 214.70 Z" fill="#FAFAF5" stroke="#2a2a3a" stroke-width="1.5" stroke-linejoin="round"/>
<path d="M 374.58 234.73 A 178 178 0 0 1 370.34 251.67 L 343.54 243.54 A 150 150 0 0 0 347.12 229.26 Z" fill="#FAFAF5" stroke="#2a2a3a" stroke-width="1.5" stroke-linejoin="round"/>
<path d="M 370.34 251.67 A 178 178 0 0 1 364.45 268.12 L 338.58 257.40 A 150 150 0 0 0 343.54 243.54 Z" fill="#FAFAF5" stroke="#2a2a3a" stroke-width="1.5" stroke-linejoin="round"/>
<path d="M 364.45 268.12 A 178 178 0 0 1 356.98 283.91 L 332.29 270.71 A 150 150 0 0 0 338.58 257.40 Z" fill="#FAFAF5" stroke="#2a2a3a" stroke-width="1.5" stroke-linejoin="round"/>
<path d="M 356.98 283.91 A 178 178 0 0 1 348.00 298.89 L 324.72 283.34 A 150 150 0 0 0 332.29 270.71 Z" fill="#FAFAF5" stroke="#2a2a3a" stroke-width="1.5" stroke-linejoin="round"/>
<path d="M 348.00 298.89 A 178 178 0 0 1 337.60 312.92 L 315.95 295.16 A 150 150 0 0 0 324.72 283.34 Z" fill="#FAFAF5" stroke="#2a2a3a" stroke-width="1.5" stroke-linejoin="round"/>
<path d="M 337.60 312.92 A 178 178 0 0 1 325.87 325.87 L 306.07 306.07 A 150 150 0 0 0 315.95 295.16 Z" fill="#FAFAF5" stroke="#2a2a3a" stroke-width="1.5" stroke-linejoin="round"/>
<path d="M 325.87 325.87 A 178 178 0 0 1 312.92 337.60 L 295.16 315.95 A 150 150 0 0 0 306.07 306.07 Z" fill="#FAFAF5" stroke="#2a2a3a" stroke-width="1.5" stroke-linejoin="round"/>
<path d="M 312.92 337.60 A 178 178 0 0 1 298.89 348.00 L 283.34 324.72 A 150 150 0 0 0 295.16 315.95 Z" fill="#FAFAF5" stroke="#2a2a3a" stroke-width="1.5" stroke-linejoin="round"/>
<path d="M 298.89 348.00 A 178 178 0 0 1 283.91 356.98 L 270.71 332.29 A 150 150 0 0 0 283.34 324.72 Z" fill="#FAFAF5" stroke="#2a2a3a" stroke-width="1.5" stroke-linejoin="round"/>
<path d="M 283.91 356.98 A 178 178 0 0 1 268.12 364.45 L 257.40 338.58 A 150 150 0 0 0 270.71 332.29 Z" fill="#FAFAF5" stroke="#2a2a3a" stroke-width="1.5" stroke-linejoin="round"/>
<path d="M 268.12 364.45 A 178 178 0 0 1 251.67 370.34 L 243.54 343.54 A 150 150 0 0 0 257.40 338.58 Z" fill="#FAFAF5" stroke="#2a2a3a" stroke-width="1.5" stroke-linejoin="round"/>
<path d="M 251.67 370.34 A 178 178 0 0 1 234.73 374.58 L 229.26 347.12 A 150 150 0 0 0 243.54 343.54 Z" fill="#FAFAF5" stroke="#2a2a3a" stroke-width="1.5" stroke-linejoin="round"/>
<path d="M 234.73 374.58 A 178 178 0 0 1 217.45 377.14 L 214.70 349.28 A 150 150 0 0 0 229.26 347.12 Z" fill="#FAFAF5" stroke="#2a2a3a" stroke-width="1.5" stroke-linejoin="round"/>
<path d="M 217.45 377.14 A 178 178 0 0 1 200.00 378.00 L 200.00 350.00 A 150 150 0 0 0 214.70 349.28 Z" fill="#FAFAF5" stroke="#2a2a3a" stroke-width="1.5" stroke-linejoin="round"/>
<path d="M 200.00 378.00 A 178 178 0 0 1 182.55 377.14 L 185.30 349.28 A 150 150 0 0 0 200.00 350.00 Z" fill="#FAFAF5" stroke="#2a2a3a" stroke-width="1.5" stroke-linejoin="round"/>
<path d="M 182.55 377.14 A 178 178 0 0 1 165.27 374.58 L 170.74 347.12 A 150 150 0 0 0 185.30 349.28 Z" fill="#FAFAF5" stroke="#2a2a3a" stroke-width="1.5" stroke-linejoin="round"/>
<path d="M 165.27 374.58 A 178 178 0 0 1 148.33 370.34 L 156.46 343.54 A 150 150 0 0 0 170.74 347.12 Z" fill="#FAFAF5" stroke="#2a2a3a" stroke-width="1.5" stroke-linejoin="round"/>
<path d="M 148.33 370.34 A 178 178 0 0 1 131.88 364.45 L 142.60 338.58 A 150 150 0 0 0 156.46 343.54 Z" fill="#FAFAF5" stroke="#2a2a3a" stroke-width="1.5" stroke-linejoin="round"/>
<path d="M 131.88 364.45 A 178 178 0 0 1 116.09 356.98 L 129.29 332.29 A 150 150 0 0 0 142.60 338.58 Z" fill="#FAFAF5" stroke="#2a2a3a" stroke-width="1.5" stroke-linejoin="round"/>
<path d="M 116.09 356.98 A 178 178 0 0 1 101.11 348.00 L 116.66 324.72 A 150 150 0 0 0 129.29 332.29 Z" fill="#FAFAF5" stroke="#2a2a3a" stroke-width="1.5" stroke-linejoin="round"/>
<path d="M 101.11 348.00 A 178 178 0 0 1 87.08 337.60 L 104.84 315.95 A 150 150 0 0 0 116.66 324.72 Z" fill="#FAFAF5" stroke="#2a2a3a" stroke-width="1.5" stroke-linejoin="round"/>
<path d="M 87.08 337.60 A 178 178 0 0 1 74.13 325.87 L 93.93 306.07 A 150 150 0 0 0 104.84 315.95 Z" fill="#FAFAF5" stroke="#2a2a3a" stroke-width="1.5" stroke-linejoin="round"/>
<path d="M 74.13 325.87 A 178 178 0 0 1 62.40 312.92 L 84.05 295.16 A 150 150 0 0 0 93.93 306.07 Z" fill="#FAFAF5" stroke="#2a2a3a" stroke-width="1.5" stroke-linejoin="round"/>
<path d="M 62.40 312.92 A 178 178 0 0 1 52.00 298.89 L 75.28 283.34 A 150 150 0 0 0 84.05 295.16 Z" fill="#FAFAF5" stroke="#2a2a3a" stroke-width="1.5" stroke-linejoin="round"/>
<path d="M 52.00 298.89 A 178 178 0 0 1 43.02 283.91 L 67.71 270.71 A 150 150 0 0 0 75.28 283.34 Z" fill="#FAFAF5" stroke="#2a2a3a" stroke-width="1.5" stroke-linejoin="round"/>
<path d="M 43.02 283.91 A 178 178 0 0 1 35.55 268.12 L 61.42 257.40 A 150 150 0 0 0 67.71 270.71 Z" fill="#FAFAF5" stroke="#2a2a3a" stroke-width="1.5" stroke-linejoin="round"/>
<path d="M 35.55 268.12 A 178 178 0 0 1 29.66 251.67 L 56.46 243.54 A 150 150 0 0 0 61.42 257.40 Z" fill="#FAFAF5" stroke="#2a2a3a" stroke-width="1.5" stroke-linejoin="round"/>
<path d="M 29.66 251.67 A 178 178 0 0 1 25.42 234.73 L 52.88 229.26 A 150 150 0 0 0 56.46 243.54 Z" fill="#FAFAF5" stroke="#2a2a3a" stroke-width="1.5" stroke-linejoin="round"/>
<path d="M 25.42 234.73 A 178 178 0 0 1 22.86 217.45 L 50.72 214.70 A 150 150 0 0 0 52.88 229.26 Z" fill="#FAFAF5" stroke="#2a2a3a" stroke-width="1.5" stroke-linejoin="round"/>
<path d="M 22.86 217.45 A 178 178 0 0 1 22.00 200.00 L 50.00 200.00 A 150 150 0 0 0 50.72 214.70 Z" fill="#FAFAF5" stroke="#2a2a3a" stroke-width="1.5" stroke-linejoin="round"/>
<path d="M 22.00 200.00 A 178 178 0 0 1 22.86 182.55 L 50.72 185.30 A 150 150 0 0 0 50.00 200.00 Z" fill="#FAFAF5" stroke="#2a2a3a" stroke-width="1.5" stroke-linejoin="round"/>
<path d="M 22.86 182.55 A 178 178 0 0 1 25.42 165.27 L 52.88 170.74 A 150 150 0 0 0 50.72 185.30 Z" fill="#FAFAF5" stroke="#2a2a3a" stroke-width="1.5" stroke-linejoin="round"/>
<path d="M 25.42 165.27 A 178 178 0 0 1 29.66 148.33 L 56.46 156.46 A 150 150 0 0 0 52.88 170.74 Z" fill="#FAFAF5" stroke="#2a2a3a" stroke-width="1.5" stroke-linejoin="round"/>
<path d="M 29.66 148.33 A 178 178 0 0 1 35.55 131.88 L 61.42 142.60 A 150 150 0 0 0 56.46 156.46 Z" fill="#FAFAF5" stroke="#2a2a3a" stroke-width="1.5" stroke-linejoin="round"/>
<path d="M 35.55 131.88 A 178 178 0 0 1 43.02 116.09 L 67.71 129.29 A 150 150 0 0 0 61.42 142.60 Z" fill="#FAFAF5" stroke="#2a2a3a" stroke-width="1.5" stroke-linejoin="round"/>
<path d="M 43.02 116.09 A 178 178 0 0 1 52.00 101.11 L 75.28 116.66 A 150 150 0 0 0 67.71 129.29 Z" fill="#FAFAF5" stroke="#2a2a3a" stroke-width="1.5" stroke-linejoin="round"/>
<path d="M 52.00 101.11 A 178 178 0 0 1 62.40 87.08 L 84.05 104.84 A 150 150 0 0 0 75.28 116.66 Z" fill="#FAFAF5" stroke="#2a2a3a" stroke-width="1.5" stroke-linejoin="round"/>
<path d="M 62.40 87.08 A 178 178 0 0 1 74.13 74.13 L 93.93 93.93 A 150 150 0 0 0 84.05 104.84 Z" fill="#FAFAF5" stroke="#2a2a3a" stroke-width="1.5" stroke-linejoin="round"/>
<path d="M 74.13 74.13 A 178 178 0 0 1 87.08 62.40 L 104.84 84.05 A 150 150 0 0 0 93.93 93.93 Z" fill="#FAFAF5" stroke="#2a2a3a" stroke-width="1.5" stroke-linejoin="round"/>
<path d="M 87.08 62.40 A 178 178 0 0 1 101.11 52.00 L 116.66 75.28 A 150 150 0 0 0 104.84 84.05 Z" fill="#FAFAF5" stroke="#2a2a3a" stroke-width="1.5" stroke-linejoin="round"/>
<path d="M 101.11 52.00 A 178 178 0 0 1 116.09 43.02 L 129.29 67.71 A 150 150 0 0 0 116.66 75.28 Z" fill="#FAFAF5" stroke="#2a2a3a" stroke-width="1.5" stroke-linejoin="round"/>
<path d="M 116.09 43.02 A 178 178 0 0 1 131.88 35.55 L 142.60 61.42 A 150 150 0 0 0 129.29 67.71 Z" fill="#FAFAF5" stroke="#2a2a3a" stroke-width="1.5" stroke-linejoin="round"/>
<path d="M 131.88 35.55 A 178 178 0 0 1 148.33 29.66 L 156.46 56.46 A 150 150 0 0 0 142.60 61.42 Z" fill="#FAFAF5" stroke="#2a2a3a" stroke-width="1.5" stroke-linejoin="round"/>
<path d="M 148.33 29.66 A 178 178 0 0 1 165.27 25.42 L 170.74 52.88 A 150 150 0 0 0 156.46 56.46 Z" fill="#FAFAF5" stroke="#2a2a3a" stroke-width="1.5" stroke-linejoin="round"/>
<path d="M 165.27 25.42 A 178 178 0 0 1 182.55 22.86 L 185.30 50.72 A 150 150 0 0 0 170.74 52.88 Z" fill="#FAFAF5" stroke="#2a2a3a" stroke-width="1.5" stroke-linejoin="round"/>
<path d="M 182.55 22.86 A 178 178 0 0 1 200.00 22.00 L 200.00 50.00 A 150 150 0 0 0 185.30 50.72 Z" fill="#FAFAF5" stroke="#2a2a3a" stroke-width="1.5" stroke-linejoin="round"/>
<path d="M 200.00 6.00 A 194 194 0 0 1 274.24 20.77 L 268.12 35.55 A 178 178 0 0 0 200.00 22.00 Z" fill="#FAFAF5" stroke="#2a2a3a" stroke-width="1.5" stroke-linejoin="round"/>
<path d="M 274.24 20.77 A 194 194 0 0 1 337.18 62.82 L 325.87 74.13 A 178 178 0 0 0 268.12 35.55 Z" fill="#FAFAF5" stroke="#2a2a3a" stroke-width="1.5" stroke-linejoin="round"/>
<path d="M 337.18 62.82 A 194 194 0 0 1 379.23 125.76 L 364.45 131.88 A 178 178 0 0 0 325.87 74.13 Z" fill="#FAFAF5" stroke="#2a2a3a" stroke-width="1.5" stroke-linejoin="round"/>
<path d="M 379.23 125.76 A 194 194 0 0 1 394.00 200.00 L 378.00 200.00 A 178 178 0 0 0 364.45 131.88 Z" fill="#FAFAF5" stroke="#2a2a3a" stroke-width="1.5" stroke-linejoin="round"/>
<path d="M 394.00 200.00 A 194 194 0 0 1 379.23 274.24 L 364.45 268.12 A 178 178 0 0 0 378.00 200.00 Z" fill="#FAFAF5" stroke="#2a2a3a" stroke-width="1.5" stroke-linejoin="round"/>
<path d="M 379.23 274.24 A 194 194 0 0 1 337.18 337.18 L 325.87 325.87 A 178 178 0 0 0 364.45 268.12 Z" fill="#FAFAF5" stroke="#2a2a3a" stroke-width="1.5" stroke-linejoin="round"/>
<path d="M 337.18 337.18 A 194 194 0 0 1 274.24 379.23 L 268.12 364.45 A 178 178 0 0 0 325.87 325.87 Z" fill="#FAFAF5" stroke="#2a2a3a" stroke-width="1.5" stroke-linejoin="round"/>
<path d="M 274.24 379.23 A 194 194 0 0 1 200.00 394.00 L 200.00 378.00 A 178 178 0 0 0 268.12 364.45 Z" fill="#FAFAF5" stroke="#2a2a3a" stroke-width="1.5" stroke-linejoin="round"/>
<path d="M 200.00 394.00 A 194 194 0 0 1 125.76 379.23 L 131.88 364.45 A 178 178 0 0 0 200.00 378.00 Z" fill="#FAFAF5" stroke="#2a2a3a" stroke-width="1.5" stroke-linejoin="round"/>
<path d="M 125.76 379.23 A 194 194 0 0 1 62.82 337.18 L 74.13 325.87 A 178 178 0 0 0 131.88 364.45 Z" fill="#FAFAF5" stroke="#2a2a3a" stroke-width="1.5" stroke-linejoin="round"/>
<path d="M 62.82 337.18 A 194 194 0 0 1 20.77 274.24 L 35.55 268.12 A 178 178 0 0 0 74.13 325.87 Z" fill="#FAFAF5" stroke="#2a2a3a" stroke-width="1.5" stroke-linejoin="round"/>
<path d="M 20.77 274.24 A 194 194 0 0 1 6.00 200.00 L 22.00 200.00 A 178 178 0 0 0 35.55 268.12 Z" fill="#FAFAF5" stroke="#2a2a3a" stroke-width="1.5" stroke-linejoin="round"/>
<path d="M 6.00 200.00 A 194 194 0 0 1 20.77 125.76 L 35.55 131.88 A 178 178 0 0 0 22.00 200.00 Z" fill="#FAFAF5" stroke="#2a2a3a" stroke-width="1.5" stroke-linejoin="round"/>
<path d="M 20.77 125.76 A 194 194 0 0 1 62.82 62.82 L 74.13 74.13 A 178 178 0 0 0 35.55 131.88 Z" fill="#FAFAF5" stroke="#2a2a3a" stroke-width="1.5" stroke-linejoin="round"/>
<path d="M 62.82 62.82 A 194 194 0 0 1 125.76 20.77 L 131.88 35.55 A 178 178 0 0 0 74.13 74.13 Z" fill="#FAFAF5" stroke="#2a2a3a" stroke-width="1.5" stroke-linejoin="round"/>
<path d="M 125.76 20.77 A 194 194 0 0 1 200.00 6.00 L 200.00 22.00 A 178 178 0 0 0 131.88 35.55 Z" fill="#FAFAF5" stroke="#2a2a3a" stroke-width="1.5" stroke-linejoin="round"/>
</svg>