<?xml version="1.0" encoding="UTF-8"?>
<svg xmlns="http://www.w3.org/2000/svg" viewBox="0 0 400 400" width="400" height="400">
<rect width="400" height="400" fill="#FAFAF5"/>
<circle cx="200" cy="200" r="22" fill="#FAFAF5" stroke="#2a2a3a" stroke-width="1.5" stroke-linejoin="round"/>
<path d="M 200.00 144.00 A 56 56 0 0 1 256.00 200.00 L 222.00 200.00 A 22 22 0 0 0 200.00 178.00 Z" fill="#FAFAF5" stroke="#2a2a3a" stroke-width="1.5" stroke-linejoin="round"/>
<path d="M 256.00 200.00 A 56 56 0 0 1 200.00 256.00 L 200.00 222.00 A 22 22 0 0 0 222.00 200.00 Z" fill="#FAFAF5" stroke="#2a2a3a" stroke-width="1.5" stroke-linejoin="round"/>
<path d="M 200.00 256.00 A 56 56 0 0 1 144.00 200.00 L 178.00 200.00 A 22 22 0 0 0 200.00 222.00 Z" fill="#FAFAF5" stroke="#2a2a3a" stroke-width="1.5" stroke-linejoin="round"/>
<path d="M 144.00 200.00 A 56 56 0 0 1 200.00 144.00 L 200.00 178.00 A 22 22 0 0 0 178.00 200.00 Z" fill="#FAFAF5" stroke="#2a2a3a" stroke-width="1.5" stroke-linejoin="round"/>
<path d="M 200.00 104.00 A 96 96 0 0 1 267.88 132.12 L 239.60 160.40 A 56 56 0 0 0 200.00 144.00 Z" fill="#FAFAF5" stroke="#2a2a3a" stroke-width="1.5" stroke-linejoin="round"/>
<path d="M 267.88 132.12 A 96 96 0 0 1 296.00 200.00 L 256.00 200.00 A 56 56 0 0 0 239.60 160.40 Z" fill="#FAFAF5" stroke="#2a2a3a" stroke-width="1.5" stroke-linejoin="round"/>
<path d="M 296.00 200.00 A 96 96 0 0 1 267.88 267.88 L 239.60 239.60 A 56 56 0 0 0 256.00 200.00 Z" fill="#FAFAF5" stroke="#2a2a3a" stroke-width="1.5" stroke-linejoin="round"/>
<path d="M 267.88 267.88 A 96 96 0 0 1 200.00 296.00 L 200.00 256.00 A 56 56 0 0 0 239.60 239.60 Z" fill="#FAFAF5" stroke="#2a2a3a" stroke-width="1.5" stroke-linejoin="round"/>
<path d="M 200.00 296.00 A 96 96 0 0 1 132.12 267.88 L 160.40 239.60 A 56 56 0 0 0 200.00 256.00 Z" fill="#FAFAF5" stroke="#2a2a3a" stroke-width="1.5" stroke-linejoin="round"/>
<path d="M 132.12 267.88 A 96 96 0 0 1 104.00 200.00 L 144.00 200.00 A 56 56 0 0 0 160.40 239.60 Z" fill="#FAFAF5" stroke="#2a2a3a" stroke-width="1.5" stroke-linejoin="round"/>
<path d="M 104.00 200.00 A 96 96 0 0 1 132.12 132.12 L 160.40 160.40 A 56 56 0 0 0 144.00 200.00 Z" fill="#FAFAF5" stroke="#2a2a3a" stroke-width="1.5" stroke-linejoin="round"/>
<path d="M 132.12 132.12 A 96 96 0 0 1 200.00 104.00 L 200.00 144.00 A 56 56 0 0 0 160.40 160.40 Z" fill="#FAFAF5" stroke="#2a2a3a" stroke-width="1.5" stroke-linejoin="round"/>
<path d="M 200.00 64.00 A 136 136 0 0 1 252.04 74.35 L 236.74 111.31 A 96 96 0 0 0 200.00 104.00 Z" fill="#FAFAF5" stroke="#2a2a3a" stroke-width="1.5" stroke-linejoin="round"/>
<path d="M 252.04 74.35 A 136 136 0 0 1 296.17 103.83 L 267.88 132.12 A 96 96 0 0 0 236.74 111.31 Z" fill="#FAFAF5" stroke="#2a2a3a" stroke-width="1.5" stroke-linejoin="round"/>
<path d="M 296.17 103.83 A 136 136 0 0 1 325.65 147.96 L 288.69 163.26 A 96 96 0 0 0 267.88 132.12 Z" fill="#FAFAF5" stroke="#2a2a3a" stroke-width="1.5" stroke-linejoin="round"/>
<path d="M 325.65 147.96 A 136 136 0 0 1 336.00 200.00 L 296.00 200.00 A 96 96 0 0 0 288.69 163.26 Z" fill="#FAFAF5" stroke="#2a2a3a" stroke-width="1.5" stroke-linejoin="round"/>
<path d="M 336.00 200.00 A 136 136 0 0 1 325.65 252.04 L 288.69 236.74 A 96 96 0 0 0 296.00 200.00 Z" fill="#FAFAF5" stroke="#2a2a3a" stroke-width="1.5" stroke-linejoin="round"/>
<path d="M 325.65 252.04 A 136 136 0 0 1 296.17 296.17 L 267.88 267.88 A 96 96 0 0 0 288.69 236.74 Z" fill="#FAFAF5" stroke="#2a2a3a" stroke-width="1.5" stroke-linejoin="round"/>
<path d="M 296.17 296.17 A 136 136 0 0 1 252.04 325.65 L 236.74 288.69 A 96 96 0 0 0 267.88 267.88 Z" fill="#FAFAF5" stroke="#2a2a3a" stroke-width="1.5" stroke-linejoin="round"/>
<path d="M 252.04 325.65 A 136 136 0 0 1 200.00 336.00 L 200.00 296.00 A 96 96 0 0 0 236.74 288.69 Z" fill="#FAFAF5" stroke="#2a2a3a" stroke-width="1.5" stroke-linejoin="round"/>
<path d="M 200.00 336.00 A 136 136 0 0 1 147.96 325.65 L 163.26 288.69 A 96 96 0 0 0 200.00 296.00 Z" fill="#FAFAF5" stroke="#2a2a3a" stroke-width="1.5" stroke-linejoin="round"/>
<path d="M 147.96 325.65 A 136 136 0 0 1 103.83 296.17 L 132.12 267.88 A 96 96 0 0 0 163.26 288.69 Z" fill="#FAFAF5" stroke="#2a2a3a" stroke-width="1.5" stroke-linejoin="round"/>
<path d="M 103.83 296.17 A 136 136 0 0 1 74.35 252.04 L 111.31 236.74 A 96 96 0 0 0 132.12 267.88 Z" fill="#FAFAF5" stroke="#2a2a3a" stroke-width="1.5" stroke-linejoin="round"/>
<path d="M 74.35 252.04 A 136 136 0 0 1 64.00 200.00 L 104.00 200.00 A 96 96 0 0 0 111.31 236.74 Z" fill="#FAFAF5" stroke="#2a2a3a" stroke-width="1.5" stroke-linejoin="round"/>
<path d="M 64.00 200.00 A 136 136 0 0 1 74.35 147.96 L 111.31 163.26 A 96 96 0 0 0 104.00 200.00 Z" fill="#FAFAF5" stroke="#2a2a3a" stroke-width="1.5" stroke-linejoin="round"/>
<path d="M 74.35 147.96 A 136 136 0 0 1 103.83 103.83 L 132.12 132.12 A 96 96 0 0 0 111.31 163.26 Z" fill="#FAFAF5" stroke="#2a2a3a" stroke-width="1.5" stroke-linejoin="round"/>
<path d="M 103.83 103.83 A 136 136 0 0 1 147.96 74.35 L 163.26 111.31 A 96 96 0 0 0 132.12 132.12 Z" fill="#FAFAF5" stroke="#2a2a3a" stroke-width="1.5" stroke-linejoin="round"/>
<path d="M 147.96 74.35 A 136 136 0 0 1 200.00 64.00 L 200.00 104.00 A 96 96 0 0 0 163.26 111.31 Z" fill="#FAFAF5" stroke="#2a2a3a" stroke-width="1.5" stroke-linejoin="round"/>
<path d="M 200.00 30.00 A 170 170 0 0 1 233.17 33.27 L 226.53 66.61 A 136 136 0 0 0 200.00 64.00 Z" fill="#FAFAF5" stroke="#2a2a3a" stroke-width="1.5" stroke-linejoin="round"/>
<path d="M 233.17 33.27 A 170 170 0 0 1 265.06 42.94 L 252.04 74.35 A 136 136 0 0 0 226.53 66.61 Z" fill="#FAFAF5" stroke="#2a2a3a" stroke-width="1.5" stroke-linejoin="round"/>
<path d="M 265.06 42.94 A 170 170 0 0 1 294.45 58.65 L 275.56 86.92 A 136 136 0 0 0 252.04 74.35 Z" fill="#FAFAF5" stroke="#2a2a3a" stroke-width="1.5" stroke-linejoin="round"/>
<path d="M 294.45 58.65 A 170 170 0 0 1 320.21 79.79 L 296.17 103.83 A 136 136 0 0 0 275.56 86.92 Z" fill="#FAFAF5" stroke="#2a2a3a" stroke-width="1.5" stroke-linejoin="round"/>
<path d="M 320.21 79.79 A 170 170 0 0 1 341.35 105.55 L 313.08 124.44 A 136 136 0 0 0 296.17 103.83 Z" fill="#FAFAF5" stroke="#2a2a3a" stroke-width="1.5" stroke-linejoin="round"/>
<path d="M 341.35 105.55 A 170 170 0 0 1 357.06 134.94 L 325.65 147.96 A 136 136 0 0 0 313.08 124.44 Z" fill="#FAFAF5" stroke="#2a2a3a" stroke-width="1.5" stroke-linejoin="round"/>
<path d="M 357.06 134.94 A 170 170 0 0 1 366.73 166.83 L 333.39 173.47 A 136 136 0 0 0 325.65 147.96 Z" fill="#FAFAF5" stroke="#2a2a3a" stroke-width="1.5" stroke-linejoin="round"/>
<path d="M 366.73 166.83 A 170 170 0 0 1 370.00 200.00 L 336.00 200.00 A 136 136 0 0 0 333.39 173.47 Z" fill="#FAFAF5" stroke="#2a2a3a" stroke-width="1.5" stroke-linejoin="round"/>
<path d="M 370.00 200.00 A 170 170 0 0 1 366.73 233.17 L 333.39 226.53 A 136 136 0 0 0 336.00 200.00 Z" fill="#FAFAF5" stroke="#2a2a3a" stroke-width="1.5" stroke-linejoin="round"/>
<path d="M 366.73 233.17 A 170 170 0 0 1 357.06 265.06 L 325.65 252.04 A 136 136 0 0 0 333.39 226.53 Z" fill="#FAFAF5" stroke="#2a2a3a" stroke-width="1.5" stroke-linejoin="round"/>
<path d="M 357.06 265.06 A 170 170 0 0 1 341.35 294.45 L 313.08 275.56 A 136 136 0 0 0 325.65 252.04 Z" fill="#FAFAF5" stroke="#2a2a3a" stroke-width="1.5" stroke-linejoin="round"/>
<path d="M 341.35 294.45 A 170 170 0 0 1 320.21 320.21 L 296.17 296.17 A 136 136 0 0 0 313.08 275.56 Z" fill="#FAFAF5" stroke="#2a2a3a" stroke-width="1.5" stroke-linejoin="round"/>
<path d="M 320.21 320.21 A 170 170 0 0 1 294.45 341.35 L 275.56 313.08 A 136 136 0 0 0 296.17 296.17 Z" fill="#FAFAF5" stroke="#2a2a3a" stroke-width="1.5" stroke-linejoin="round"/>
<path d="M 294.45 341.35 A 170 170 0 0 1 265.06 357.06 L 252.04 325.65 A 136 136 0 0 0 275.56 313.08 Z" fill="#FAFAF5" stroke="#2a2a3a" stroke-width="1.5" stroke-linejoin="round"/>
<path d="M 265.06 357.06 A 170 170 0 0 1 233.17 366.73 L 226.53 333.39 A 136 136 0 0 0 252.04 325.65 Z" fill="#FAFAF5" stroke="#2a2a3a" stroke-width="1.5" stroke-linejoin="round"/>
<path d="M 233.17 366.73 A 170 170 0 0 1 200.00 370.00 L 200.00 336.00 A 136 136 0 0 0 226.53 333.39 Z" fill="#FAFAF5" stroke="#2a2a3a" stroke-width="1.5" stroke-linejoin="round"/>
<path d="M 200.00 370.00 A 170 170 0 0 1 166.83 366.73 L 173.47 333.39 A 136 136 0 0 0 200.00 336.00 Z" fill="#FAFAF5" stroke="#2a2a3a" stroke-width="1.5" stroke-linejoin="round"/>
<path d="M 166.83 366.73 A 170 170 0 0 1 134.94 357.06 L 147.96 325.65 A 136 136 0 0 0 173.47 333.39 Z" fill="#FAFAF5" stroke="#2a2a3a" stroke-width="1.5" stroke-linejoin="round"/>
<path d="M 134.94 357.06 A 170 170 0 0 1 105.55 341.35 L 124.44 313.08 A 136 136 0 0 0 147.96 325.65 Z" fill="#FAFAF5" stroke="#2a2a3a" stroke-width="1.5" stroke-linejoin="round"/>
<path d="M 105.55 341.35 A 170 170 0 0 1 79.79 320.21 L 103.83 296.17 A 136 136 0 0 0 124.44 313.08 Z" fill="#FAFAF5" stroke="#2a2a3a" stroke-width="1.5" stroke-linejoin="round"/>
<path d="M 79.79 320.21 A 170 170 0 0 1 58.65 294.45 L 86.92 275.56 A 136 136 0 0 0 103.83 296.17 Z" fill="#FAFAF5" stroke="#2a2a3a" stroke-width="1.5" stroke-linejoin="round"/>
<path d="M 58.65 294.45 A 170 170 0 0 1 42.94 265.06 L 74.35 252.04 A 136 136 0 0 0 86.92 275.56 Z" fill="#FAFAF5" stroke="#2a2a3a" stroke-width="1.5" stroke-linejoin="round"/>
<path d="M 42.94 265.06 A 170 170 0 0 1 33.27 233.17 L 66.61 226.53 A 136 136 0 0 0 74.35 252.04 Z" fill="#FAFAF5" stroke="#2a2a3a" stroke-width="1.5" stroke-linejoin="round"/>
<path d="M 33.27 233.17 A 170 170 0 0 1 30.00 200.00 L 64.00 200.00 A 136 136 0 0 0 66.61 226.53 Z" fill="#FAFAF5" stroke="#2a2a3a" stroke-width="1.5" stroke-linejoin="round"/>
<path d="M 30.00 200.00 A 170 170 0 0 1 33.27 166.83 L 66.61 173.47 A 136 136 0 0 0 64.00 200.00 Z" fill="#FAFAF5" stroke="#2a2a3a" stroke-width="1.5" stroke-linejoin="round"/>
<path d="M 33.27 166.83 A 170 170 0 0 1 42.94 134.94 L 74.35 147.96 A 136 136 0 0 0 66.61 173.47 Z" fill="#FAFAF5" stroke="#2a2a3a" stroke-width="1.5" stroke-linejoin="round"/>
<path d="M 42.94 134.94 A 170 170 0 0 1 58.65 105.55 L 86.92 124.44 A 136 136 0 0 0 74.35 147.96 Z" fill="#FAFAF5" stroke="#2a2a3a" stroke-width="1.5" stroke-linejoin="round"/>
<path d="M 58.65 105.55 A 170 170 0 0 1 79.79 79.79 L 103.83 103.83 A 136 136 0 0 0 86.92 124.44 Z" fill="#FAFAF5" stroke="#2a2a3a" stroke-width="1.5" stroke-linejoin="round"/>
<path d="M 79.79 79.79 A 170 170 0 0 1 105.55 58.65 L 124.44 86.92 A 136 136 0 0 0 103.83 103.83 Z" fill="#FAFAF5" stroke="#2a2a3a" stroke-width="1.5" stroke-linejoin="round"/>
<path d="M 105.55 58.65 A 170 170 0 0 1 134.94 42.94 L 147.96 74.35 A 136 136 0 0 0 124.44 86.92 Z" fill="#FAFAF5" stroke="#2a2a3a" stroke-width="1.5" stroke-linejoin="round"/>
<path d="M 134.94 42.94 A 170 170 0 0 1 166.83 33.27 L 173.47 66.61 A 136 136 0 0 0 147.96 74.35 Z" fill="#FAFAF5" stroke="#2a2a3a" stroke-width="1.5" stroke-linejoin="round"/>
<path d="M 166.83 33.27 A 170 170 0 0 1 200.00 30.00 L 200.00 64.00 A 136 136 0 0 0 173.47 66.61 Z" fill="#FAFAF5" stroke="#2a2a3a" stroke-width="1.5" stroke-linejoin="round"/>
<path d="M 200.00 10.00 A 190 190 0 0 1 218.62 10.91 L 216.66 30.82 A 170 170 0 0 0 200.00 30.00 Z" fill="#FAFAF5" stroke="#2a2a3a" stroke-width="1.5" stroke-linejoin="round"/>
<path d="M 218.62 10.91 A 190 190 0 0 1 237.07 13.65 L 233.17 33.27 A 170 170 0 0 0 216.66 30.82 Z" fill="#FAFAF5" stroke="#2a2a3a" stroke-width="1.5" stroke-linejoin="round"/>
<path d="M 237.07 13.65 A 190 190 0 0 1 255.15 18.18 L 249.35 37.32 A 170 170 0 0 0 233.17 33.27 Z" fill="#FAFAF5" stroke="#2a2a3a" stroke-width="1.5" stroke-linejoin="round"/>
<path d="M 255.15 18.18 A 190 190 0 0 1 272.71 24.46 L 265.06 42.94 A 170 170 0 0 0 249.35 37.32 Z" fill="#FAFAF5" stroke="#2a2a3a" stroke-width="1.5" stroke-linejoin="round"/>
<path d="M 272.71 24.46 A 190 190 0 0 1 289.57 32.43 L 280.14 50.07 A 170 170 0 0 0 265.06 42.94 Z" fill="#FAFAF5" stroke="#2a2a3a" stroke-width="1.5" stroke-linejoin="round"/>
<path d="M 289.57 32.43 A 190 190 0 0 1 305.56 42.02 L 294.45 58.65 A 170 170 0 0 0 280.14 50.07 Z" fill="#FAFAF5" stroke="#2a2a3a" stroke-width="1.5" stroke-linejoin="round"/>
<path d="M 305.56 42.02 A 190 190 0 0 1 320.53 53.13 L 307.85 68.59 A 170 170 0 0 0 294.45 58.65 Z" fill="#FAFAF5" stroke="#2a2a3a" stroke-width="1.5" stroke-linejoin="round"/>
<path d="M 320.53 53.13 A 190 190 0 0 1 334.35 65.65 L 320.21 79.79 A 170 170 0 0 0 307.85 68.59 Z" fill="#FAFAF5" stroke="#2a2a3a" stroke-width="1.5" stroke-linejoin="round"/>
<path d="M 334.35 65.65 A 190 190 0 0 1 346.87 79.47 L 331.41 92.15 A 170 170 0 0 0 320.21 79.79 Z" fill="#FAFAF5" stroke="#2a2a3a" stroke-width="1.5" stroke-linejoin="round"/>
<path d="M 346.87 79.47 A 190 190 0 0 1 357.98 94.44 L 341.35 105.55 A 170 170 0 0 0 331.41 92.15 Z" fill="#FAFAF5" stroke="#2a2a3a" stroke-width="1.5" stroke-linejoin="round"/>
<path d="M 357.98 94.44 A 190 190 0 0 1 367.57 110.43 L 349.93 119.86 A 170 170 0 0 0 341.35 105.55 Z" fill="#FAFAF5" stroke="#2a2a3a" stroke-width="1.5" stroke-linejoin="round"/>
<path d="M 367.57 110.43 A 190 190 0 0 1 375.54 127.29 L 357.06 134.94 A 170 170 0 0 0 349.93 119.86 Z" fill="#FAFAF5" stroke="#2a2a3a" stroke-width="1.5" stroke-linejoin="round"/>
<path d="M 375.54 127.29 A 190 190 0 0 1 381.82 144.85 L 362.68 150.65 A 170 170 0 0 0 357.06 134.94 Z" fill="#FAFAF5" stroke="#2a2a3a" stroke-width="1.5" stroke-linejoin="round"/>
<path d="M 381.82 144.85 A 190 190 0 0 1 386.35 162.93 L 366.73 166.83 A 170 170 0 0 0 362.68 150.65 Z" fill="#FAFAF5" stroke="#2a2a3a" stroke-width="1.5" stroke-linejoin="round"/>
<path d="M 386.35 162.93 A 190 190 0 0 1 389.09 181.38 L 369.18 183.34 A 170 170 0 0 0 366.73 166.83 Z" fill="#FAFAF5" stroke="#2a2a3a" stroke-width="1.5" stroke-linejoin="round"/>
<path d="M 389.09 181.38 A 190 190 0 0 1 390.00 200.00 L 370.00 200.00 A 170 170 0 0 0 369.18 183.34 Z" fill="#FAFAF5" stroke="#2a2a3a" stroke-width="1.5" stroke-linejoin="round"/>
<path d="M 390.00 200.00 A 190 190 0 0 1 389.09 218.62 L 369.18 216.66 A 170 170 0 0 0 370.00 200.00 Z" fill="#FAFAF5" stroke="#2a2a3a" stroke-width="1.5" stroke-linejoin="round"/>
<path d="M 389.09 218.62 A 190 190 0 0 1 386.35 237.07 L 366.73 233.17 A 170 170 0 0 0 369.18 216.66 Z" fill="#FAFAF5" stroke="#2a2a3a" stroke-width="1.5" stroke-linejoin="round"/>
<path d="M 386.35 237.07 A 190 190 0 0 1 381.82 255.15 L 362.68 249.35 A 170 170 0 0 0 366.73 233.17 Z" fill="#FAFAF5" stroke="#2a2a3a" stroke-width="1.5" stroke-linejoin="round"/>
<path d="M 381.82 255.15 A 190 190 0 0 1 375.54 272.71 L 357.06 265.06 A 170 170 0 0 0 362.68 249.35 Z" fill="#FAFAF5" stroke="#2a2a3a" stroke-width="1.5" stroke-linejoin="round"/>
<path d="M 375.54 272.71 A 190 190 0 0 1 367.57 289.57 L 349.93 280.14 A 170 170 0 0 0 357.06 265.06 Z" fill="#FAFAF5" stroke="#2a2a3a" stroke-width="1.5" stroke-linejoin="round"/>
<path d="M 367.57 289.57 A 190 190 0 0 1 357.98 305.56 L 341.35 294.45 A 170 170 0 0 0 349.93 280.14 Z" fill="#FAFAF5" stroke="#2a2a3a" stroke-width="1.5" stroke-linejoin="round"/>
<path d="M 357.98 305.56 A 190 190 0 0 1 346.87 320.53 L 331.41 307.85 A 170 170 0 0 0 341.35 294.45 Z" fill="#FAFAF5" stroke="#2a2a3a" stroke-width="1.5" stroke-linejoin="round"/>
<path d="M 346.87 320.53 A 190 190 0 0 1 334.35 334.35 L 320.21 320.21 A 170 170 0 0 0 331.41 307.85 Z" fill="#FAFAF5" stroke="#2a2a3a" stroke-width="1.5" stroke-linejoin="round"/>
<path d="M 334.35 334.35 A 190 190 0 0 1 320.53 346.87 L 307.85 331.41 A 170 170 0 0 0 320.21 320.21 Z" fill="#FAFAF5" stroke="#2a2a3a" stroke-width="1.5" stroke-linejoin="round"/>
<path d="M 320.53 346.87 A 190 190 0 0 1 305.56 357.98 L 294.45 341.35 A 170 170 0 0 0 307.85 331.41 Z" fill="#FAFAF5" stroke="#2a2a3a" stroke-width="1.5" stroke-linejoin="round"/>
<path d="M 305.56 357.98 A 190 190 0 0 1 289.57 367.57 L 280.14 349.93 A 170 170 0 0 0 294.45 341.35 Z" fill="#FAFAF5" stroke="#2a2a3a" stroke-width="1.5" stroke-linejoin="round"/>
<path d="M 289.57 367.57 A 190 190 0 0 1 272.71 375.54 L 265.06 357.06 A 170 170 0 0 0 280.14 349.93 Z" fill="#FAFAF5" stroke="#2a2a3a" stroke-width="1.5" stroke-linejoin="round"/>
<path d="M 272.71 375.54 A 190 190 0 0 1 255.15 381.82 L 249.35 362.68 A 170 170 0 0 0 265.06 357.06 Z" fill="#FAFAF5" stroke="#2a2a3a" stroke-width="1.5" stroke-linejoin="round"/>
<path d="M 255.15 381.82 A 190 190 0 0 1 237.07 386.35 L 233.17 366.73 A 170 170 0 0 0 249.35 362.68 Z" fill="#FAFAF5" stroke="#2a2a3a" stroke-width="1.5" stroke-linejoin="round"/>
<path d="M 237.07 386.35 A 190 190 0 0 1 218.62 389.09 L 216.66 369.18 A 170 170 0 0 0 233.17 366.73 Z" fill="#FAFAF5" stroke="#2a2a3a" stroke-width="1.5" stroke-linejoin="round"/>
<path d="M 218.62 389.09 A 190 190 0 0 1 200.00 390.00 L 200.00 370.00 A 170 170 0 0 0 216.66 369.18 Z" fill="#FAFAF5" stroke="#2a2a3a" stroke-width="1.5" stroke-linejoin="round"/>
<path d="M 200.00 390.00 A 190 190 0 0 1 181.38 389.09 L 183.34 369.18 A 170 170 0 0 0 200.00 370.00 Z" fill="#FAFAF5" stroke="#2a2a3a" stroke-width="1.5" stroke-linejoin="round"/>
<path d="M 181.38 389.09 A 190 190 0 0 1 162.93 386.35 L 166.83 366.73 A 170 170 0 0 0 183.34 369.18 Z" fill="#FAFAF5" stroke="#2a2a3a" stroke-width="1.5" stroke-linejoin="round"/>
<path d="M 162.93 386.35 A 190 190 0 0 1 144.85 381.82 L 150.65 362.68 A 170 170 0 0 0 166.83 366.73 Z" fill="#FAFAF5" stroke="#2a2a3a" stroke-width="1.5" stroke-linejoin="round"/>
<path d="M 144.85 381.82 A 190 190 0 0 1 127.29 375.54 L 134.94 357.06 A 170 170 0 0 0 150.65 362.68 Z" fill="#FAFAF5" stroke="#2a2a3a" stroke-width="1.5" stroke-linejoin="round"/>
<path d="M 127.29 375.54 A 190 190 0 0 1 110.43 367.57 L 119.86 349.93 A 170 170 0 0 0 134.94 357.06 Z" fill="#FAFAF5" stroke="#2a2a3a" stroke-width="1.5" stroke-linejoin="round"/>
<path d="M 110.43 367.57 A 190 190 0 0 1 94.44 357.98 L 105.55 341.35 A 170 170 0 0 0 119.86 349.93 Z" fill="#FAFAF5" stroke="#2a2a3a" stroke-width="1.5" stroke-linejoin="round"/>
<path d="M 94.44 357.98 A 190 190 0 0 1 79.47 346.87 L 92.15 331.41 A 170 170 0 0 0 105.55 341.35 Z" fill="#FAFAF5" stroke="#2a2a3a" stroke-width="1.5" stroke-linejoin="round"/>
<path d="M 79.47 346.87 A 190 190 0 0 1 65.65 334.35 L 79.79 320.21 A 170 170 0 0 0 92.15 331.41 Z" fill="#FAFAF5" stroke="#2a2a3a" stroke-width="1.5" stroke-linejoin="round"/>
<path d="M 65.65 334.35 A 190 190 0 0 1 53.13 320.53 L 68.59 307.85 A 170 170 0 0 0 79.79 320.21 Z" fill="#FAFAF5" stroke="#2a2a3a" stroke-width="1.5" stroke-linejoin="round"/>
<path d="M 53.13 320.53 A 190 190 0 0 1 42.02 305.56 L 58.65 294.45 A 170 170 0 0 0 68.59 307.85 Z" fill="#FAFAF5" stroke="#2a2a3a" stroke-width="1.5" stroke-linejoin="round"/>
<path d="M 42.02 305.56 A 190 190 0 0 1 32.43 289.57 L 50.07 280.14 A 170 170 0 0 0 58.65 294.45 Z" fill="#FAFAF5" stroke="#2a2a3a" stroke-width="1.5" stroke-linejoin="round"/>
<path d="M 32.43 289.57 A 190 190 0 0 1 24.46 272.71 L 42.94 265.06 A 170 170 0 0 0 50.07 280.14 Z" fill="#FAFAF5" stroke="#2a2a3a" stroke-width="1.5" stroke-linejoin="round"/>
<path d="M 24.46 272.71 A 190 190 0 0 1 18.18 255.15 L 37.32 249.35 A 170 170 0 0 0 42.94 265.06 Z" fill="#FAFAF5" stroke="#2a2a3a" stroke-width="1.5" stroke-linejoin="round"/>
<path d="M 18.18 255.15 A 190 190 0 0 1 13.65 237.07 L 33.27 233.17 A 170 170 0 0 0 37.32 249.35 Z" fill="#FAFAF5" stroke="#2a2a3a" stroke-width="1.5" stroke-linejoin="round"/>
<path d="M 13.65 237.07 A 190 190 0 0 1 10.91 218.62 L 30.82 216.66 A 170 170 0 0 0 33.27 233.17 Z" fill="#FAFAF5" stroke="#2a2a3a" stroke-width="1.5" stroke-linejoin="round"/>
<path d="M 10.91 218.62 A 190 190 0 0 1 10.00 200.00 L 30.00 200.00 A 170 170 0 0 0 30.82 216.66 Z" fill="#FAFAF5" stroke="#2a2a3a" stroke-width="1.5" stroke-linejoin="round"/>
<path d="M 10.00 200.00 A 190 190 0 0 1 10.91 181.38 L 30.82 183.34 A 170 170 0 0 0 30.00 200.00 Z" fill="#FAFAF5" stroke="#2a2a3a" stroke-width="1.5" stroke-linejoin="round"/>
<path d="M 10.91 181.38 A 190 190 0 0 1 13.65 162.93 L 33.27 166.83 A 170 170 0 0 0 30.82 183.34 Z" fill="#FAFAF5" stroke="#2a2a3a" stroke-width="1.5" stroke-linejoin="round"/>
<path d="M 13.65 162.93 A 190 190 0 0 1 18.18 144.85 L 37.32 150.65 A 170 170 0 0 0 33.27 166.83 Z" fill="#FAFAF5" stroke="#2a2a3a" stroke-width="1.5" stroke-linejoin="round"/>
<path d="M 18.18 144.85 A 190 190 0 0 1 24.46 127.29 L 42.94 134.94 A 170 170 0 0 0 37.32 150.65 Z" fill="#FAFAF5" stroke="#2a2a3a" stroke-width="1.5" stroke-linejoin="round"/>
<path d="M 24.46 127.29 A 190 190 0 0 1 32.43 110.43 L 50.07 119.86 A 170 170 0 0 0 42.94 134.94 Z" fill="#FAFAF5" stroke="#2a2a3a" stroke-width="1.5" stroke-linejoin="round"/>
<path d="M 32.43 110.43 A 190 190 0 0 1 42.02 94.44 L 58.65 105.55 A 170 170 0 0 0 50.07 119.86 Z" fill="#FAFAF5" stroke="#2a2a3a" stroke-width="1.5" stroke-linejoin="round"/>
<path d="M 42.02 94.44 A 190 190 0 0 1 53.13 79.47 L 68.59 92.15 A 170 170 0 0 0 58.65 105.55 Z" fill="#FAFAF5" stroke="#2a2a3a" stroke-width="1.5" stroke-linejoin="round"/>
<path d="M 53.13 79.47 A 190 190 0 0 1 65.65 65.65 L 79.79 79.79 A 170 170 0 0 0 68.59 92.15 Z" fill="#FAFAF5" stroke="#2a2a3a" stroke-width="1.5" stroke-linejoin="round"/>
<path d="M 65.65 65.65 A 190 190 0 0 1 79.47 53.13 L 92.15 68.59 A 170 170 0 0 0 79.79 79.79 Z" fill="#FAFAF5" stroke="#2a2a3a" stroke-width="1.5" stroke-linejoin="round"/>
<path d="M 79.47 53.13 A 190 190 0 0 1 94.44 42.02 L 105.55 58.65 A 170 170 0 0 0 92.15 68.59 Z" fill="#FAFAF5" stroke="#2a2a3a" stroke-width="1.5" stroke-linejoin="round"/>
<path d="M 94.44 42.02 A 190 190 0 0 1 110.43 32.43 L 119.86 50.07 A 170 170 0 0 0 105.55 58.65 Z" fill="#FAFAF5" stroke="#2a2a3a" stroke-width="1.5" stroke-linejoin="round"/>
<path d="M 110.43 32.43 A 190 190 0 0 1 127.29 24.46 L 134.94 42.94 A 170 170 0 0 0 119.86 50.07 Z" fill="#FAFAF5" stroke="#2a2a3a" stroke-width="1.5" stroke-linejoin="round"/>
<path d="M 127.29 24.46 A 190 190 0 0 1 144.85 18.18 L 150.65 37.32 A 170 170 0 0 0 134.94 42.94 Z" fill="#FAFAF5" stroke="#2a2a3a" stroke-width="1.5" stroke-linejoin="round"/>
<path d="M 144.85 18.18 A 190 190 0 0 1 162.93 13.65 L 166.83 33.27 A 170 170 0 0 0 150.65 37.32 Z" fill="#FAFAF5" stroke="#2a2a3a" stroke-width="1.5" stroke-linejoin="round"/>
<path d="M 162.93 13.65 A 190 190 0 0 1 181.38 10.91 L 183.34 30.82 A 170 170 0 0 0 166.83 33.27 Z" fill="#FAFAF5" stroke="#2a2a3a" stroke-width="1.5" stroke-linejoin="round"/>
<path d="M 181.38 10.91 A 190 190 0 0 1 200.00 10.00 L 200.00 30.00 A 170 170 0 0 0 183.34 30.82 Z" fill="#FAFAF5" stroke="#2a2a3a" stroke-width="1.5" stroke-linejoin="round"/>
<path d="M 200.00 4.00 A 196 196 0 0 1 238.24 7.77 L 237.07 13.65 A 190 190 0 0 0 200.00 10.00 Z" fill="#FAFAF5" stroke="#2a2a3a" stroke-width="1.5" stroke-linejoin="round"/>
<path d="M 238.24 7.77 A 196 196 0 0 1 275.01 18.92 L 272.71 24.46 A 190 190 0 0 0 237.07 13.65 Z" fill="#FAFAF5" stroke="#2a2a3a" stroke-width="1.5" stroke-linejoin="round"/>
<path d="M 275.01 18.92 A 196 196 0 0 1 308.89 37.03 L 305.56 42.02 A 190 190 0 0 0 272.71 24.46 Z" fill="#FAFAF5" stroke="#2a2a3a" stroke-width="1.5" stroke-linejoin="round"/>
<path d="M 308.89 37.03 A 196 196 0 0 1 338.59 61.41 L 334.35 65.65 A 190 190 0 0 0 305.56 42.02 Z" fill="#FAFAF5" stroke="#2a2a3a" stroke-width="1.5" stroke-linejoin="round"/>
<path d="M 338.59 61.41 A 196 196 0 0 1 362.97 91.11 L 357.98 94.44 A 190 190 0 0 0 334.35 65.65 Z" fill="#FAFAF5" stroke="#2a2a3a" stroke-width="1.5" stroke-linejoin="round"/>
<path d="M 362.97 91.11 A 196 196 0 0 1 381.08 124.99 L 375.54 127.29 A 190 190 0 0 0 357.98 94.44 Z" fill="#FAFAF5" stroke="#2a2a3a" stroke-width="1.5" stroke-linejoin="round"/>
<path d="M 381.08 124.99 A 196 196 0 0 1 392.23 161.76 L 386.35 162.93 A 190 190 0 0 0 375.54 127.29 Z" fill="#FAFAF5" stroke="#2a2a3a" stroke-width="1.5" stroke-linejoin="round"/>
<path d="M 392.23 161.76 A 196 196 0 0 1 396.00 200.00 L 390.00 200.00 A 190 190 0 0 0 386.35 162.93 Z" fill="#FAFAF5" stroke="#2a2a3a" stroke-width="1.5" stroke-linejoin="round"/>
<path d="M 396.00 200.00 A 196 196 0 0 1 392.23 238.24 L 386.35 237.07 A 190 190 0 0 0 390.00 200.00 Z" fill="#FAFAF5" stroke="#2a2a3a" stroke-width="1.5" stroke-linejoin="round"/>
<path d="M 392.23 238.24 A 196 196 0 0 1 381.08 275.01 L 375.54 272.71 A 190 190 0 0 0 386.35 237.07 Z" fill="#FAFAF5" stroke="#2a2a3a" stroke-width="1.5" stroke-linejoin="round"/>
<path d="M 381.08 275.01 A 196 196 0 0 1 362.97 308.89 L 357.98 305.56 A 190 190 0 0 0 375.54 272.71 Z" fill="#FAFAF5" stroke="#2a2a3a" stroke-width="1.5" stroke-linejoin="round"/>
<path d="M 362.97 308.89 A 196 196 0 0 1 338.59 338.59 L 334.35 334.35 A 190 190 0 0 0 357.98 305.56 Z" fill="#FAFAF5" stroke="#2a2a3a" stroke-width="1.5" stroke-linejoin="round"/>
<path d="M 338.59 338.59 A 196 196 0 0 1 308.89 362.97 L 305.56 357.98 A 190 190 0 0 0 334.35 334.35 Z" fill="#FAFAF5" stroke="#2a2a3a" stroke-width="1.5" stroke-linejoin="round"/>
<path d="M 308.89 362.97 A 196 196 0 0 1 275.01 381.08 L 272.71 375.54 A 190 190 0 0 0 305.56 357.98 Z" fill="#FAFAF5" stroke="#2a2a3a" stroke-width="1.5" stroke-linejoin="round"/>
<path d="M 275.01 381.08 A 196 196 0 0 1 238.24 392.23 L 237.07 386.35 A 190 190 0 0 0 272.71 375.54 Z" fill="#FAFAF5" stroke="#2a2a3a" stroke-width="1.5" stroke-linejoin="round"/>
<path d="M 238.24 392.23 A 196 196 0 0 1 200.00 396.00 L 200.00 390.00 A 190 190 0 0 0 237.07 386.35 Z" fill="#FAFAF5" stroke="#2a2a3a" stroke-width="1.5" stroke-linejoin="round"/>
<path d="M 200.00 396.00 A 196 196 0 0 1 161.76 392.23 L 162.93 386.35 A 190 190 0 0 0 200.00 390.00 Z" fill="#FAFAF5" stroke="#2a2a3a" stroke-width="1.5" stroke-linejoin="round"/>
<path d="M 161.76 392.23 A 196 196 0 0 1 124.99 381.08 L 127.29 375.54 A 190 190 0 0 0 162.93 386.35 Z" fill="#FAFAF5" stroke="#2a2a3a" stroke-width="1.5" stroke-linejoin="round"/>
<path d="M 124.99 381.08 A 196 196 0 0 1 91.11 362.97 L 94.44 357.98 A 190 190 0 0 0 127.29 375.54 Z" fill="#FAFAF5" stroke="#2a2a3a" stroke-width="1.5" stroke-linejoin="round"/>
<path d="M 91.11 362.97 A 196 196 0 0 1 61.41 338.59 L 65.65 334.35 A 190 190 0 0 0 94.44 357.98 Z" fill="#FAFAF5" stroke="#2a2a3a" stroke-width="1.5" stroke-linejoin="round"/>
<path d="M 61.41 338.59 A 196 196 0 0 1 37.03 308.89 L 42.02 305.56 A 190 190 0 0 0 65.65 334.35 Z" fill="#FAFAF5" stroke="#2a2a3a" stroke-width="1.5" stroke-linejoin="round"/>
<path d="M 37.03 308.89 A 196 196 0 0 1 18.92 275.01 L 24.46 272.71 A 190 190 0 0 0 42.02 305.56 Z" fill="#FAFAF5" stroke="#2a2a3a" stroke-width="1.5" stroke-linejoin="round"/>
<path d="M 18.92 275.01 A 196 196 0 0 1 7.77 238.24 L 13.65 237.07 A 190 190 0 0 0 24.46 272.71 Z" fill="#FAFAF5" stroke="#2a2a3a" stroke-width="1.5" stroke-linejoin="round"/>
<path d="M 7.77 238.24 A 196 196 0 0 1 4.00 200.00 L 10.00 200.00 A 190 190 0 0 0 13.65 237.07 Z" fill="#FAFAF5" stroke="#2a2a3a" stroke-width="1.5" stroke-linejoin="round"/>
<path d="M 4.00 200.00 A 196 196 0 0 1 7.77 161.76 L 13.65 162.93 A 190 190 0 0 0 10.00 200.00 Z" fill="#FAFAF5" stroke="#2a2a3a" stroke-width="1.5" stroke-linejoin="round"/>
<path d="M 7.77 161.76 A 196 196 0 0 1 18.92 124.99 L 24.46 127.29 A 190 190 0 0 0 13.65 162.93 Z" fill="#FAFAF5" stroke="#2a2a3a" stroke-width="1.5" stroke-linejoin="round"/>
<path d="M 18.92 124.99 A 196 196 0 0 1 37.03 91.11 L 42.02 94.44 A 190 190 0 0 0 24.46 127.29 Z" fill="#FAFAF5" stroke="#2a2a3a" stroke-width="1.5" stroke-linejoin="round"/>
<path d="M 37.03 91.11 A 196 196 0 0 1 61.41 61.41 L 65.65 65.65 A 190 190 0 0 0 42.02 94.44 Z" fill="#FAFAF5" stroke="#2a2a3a" stroke-width="1.5" stroke-linejoin="round"/>
<path d="M 61.41 61.41 A 196 196 0 0 1 91.11 37.03 L 94.44 42.02 A 190 190 0 0 0 65.65 65.65 Z" fill="#FAFAF5" stroke="#2a2a3a" stroke-width="1.5" stroke-linejoin="round"/>
<path d="M 91.11 37.03 A 196 196 0 0 1 124.99 18.92 L 127.29 24.46 A 190 190 0 0 0 94.44 42.02 Z" fill="#FAFAF5" stroke="#2a2a3a" stroke-width="1.5" stroke-linejoin="round"/>
<path d="M 124.99 18.92 A 196 196 0 0 1 161.76 7.77 L 162.93 13.65 A 190 190 0 0 0 127.29 24.46 Z" fill="#FAFAF5" stroke="#2a2a3a" stroke-width="1.5" stroke-linejoin="round"/>
<path d="M 161.76 7.77 A 196 196 0 0 1 200.00 4.00 L 200.00 10.00 A 190 190 0 0 0 162.93 13.65 Z" fill="#FAFAF5" stroke="#2a2a3a" stroke-width="1.5" stroke-linejoin="round"/>
</svg>