<?xml version="1.0" encoding="UTF-8"?>
<svg xmlns="http://www.w3.org/2000/svg" viewBox="0 0 400 400" width="400" height="400">
<rect width="400" height="400" fill="#FAFAF5"/>
<circle cx="200" cy="200" r="20" fill="#FAFAF5" stroke="#2a2a3a" stroke-width="1.5" stroke-linejoin="round"/>
<path d="M 200.00 148.00 A 52 52 0 0 1 236.77 163.23 L 214.14 185.86 A 20 20 0 0 0 200.00 180.00 Z" fill="#FAFAF5" stroke="#2a2a3a" stroke-width="1.5" stroke-linejoin="round"/>
<path d="M 236.77 163.23 A 52 52 0 0 1 252.00 200.00 L 220.00 200.00 A 20 20 0 0 0 214.14 185.86 Z" fill="#FAFAF5" stroke="#2a2a3a" stroke-width="1.5" stroke-linejoin="round"/>
<path d="M 252.00 200.00 A 52 52 0 0 1 236.77 236.77 L 214.14 214.14 A 20 20 0 0 0 220.00 200.00 Z" fill="#FAFAF5" stroke="#2a2a3a" stroke-width="1.5" stroke-linejoin="round"/>
<path d="M 236.77 236.77 A 52 52 0 0 1 200.00 252.00 L 200.00 220.00 A 20 20 0 0 0 214.14 214.14 Z" fill="#FAFAF5" stroke="#2a2a3a" stroke-width="1.5" stroke-linejoin="round"/>
<path d="M 200.00 252.00 A 52 52 0 0 1 163.23 236.77 L 185.86 214.14 A 20 20 0 0 0 200.00 220.00 Z" fill="#FAFAF5" stroke="#2a2a3a" stroke-width="1.5" stroke-linejoin="round"/>
<path d="M 163.23 236.77 A 52 52 0 0 1 148.00 200.00 L 180.00 200.00 A 20 20 0 0 0 185.86 214.14 Z" fill="#FAFAF5" stroke="#2a2a3a" stroke-width="1.5" stroke-linejoin="round"/>
<path d="M 148.00 200.00 A 52 52 0 0 1 163.23 163.23 L 185.86 185.86 A 20 20 0 0 0 180.00 200.00 Z" fill="#FAFAF5" stroke="#2a2a3a" stroke-width="1.5" stroke-linejoin="round"/>
<path d="M 163.23 163.23 A 52 52 0 0 1 200.00 148.00 L 200.00 180.00 A 20 20 0 0 0 185.86 185.86 Z" fill="#FAFAF5" stroke="#2a2a3a" stroke-width="1.5" stroke-linejoin="round"/>
<path d="M 200.00 112.00 A 88 88 0 0 1 262.23 137.77 L 236.77 163.23 A 52 52 0 0 0 200.00 148.00 Z" fill="#FAFAF5" stroke="#2a2a3a" stroke-width="1.5" stroke-linejoin="round"/>
<path d="M 262.23 137.77 A 88 88 0 0 1 288.00 200.00 L 252.00 200.00 A 52 52 0 0 0 236.77 163.23 Z" fill="#FAFAF5" stroke="#2a2a3a" stroke-width="1.5" stroke-linejoin="round"/>
<path d="M 288.00 200.00 A 88 88 0 0 1 262.23 262.23 L 236.77 236.77 A 52 52 0 0 0 252.00 200.00 Z" fill="#FAFAF5" stroke="#2a2a3a" stroke-width="1.5" stroke-linejoin="round"/>
<path d="M 262.23 262.23 A 88 88 0 0 1 200.00 288.00 L 200.00 252.00 A 52 52 0 0 0 236.77 236.77 Z" fill="#FAFAF5" stroke="#2a2a3a" stroke-width="1.5" stroke-linejoin="round"/>
<path d="M 200.00 288.00 A 88 88 0 0 1 137.77 262.23 L 163.23 236.77 A 52 52 0 0 0 200.00 252.00 Z" fill="#FAFAF5" stroke="#2a2a3a" stroke-width="1.5" stroke-linejoin="round"/>
<path d="M 137.77 262.23 A 88 88 0 0 1 112.00 200.00 L 148.00 200.00 A 52 52 0 0 0 163.23 236.77 Z" fill="#FAFAF5" stroke="#2a2a3a" stroke-width="1.5" stroke-linejoin="round"/>
<path d="M 112.00 200.00 A 88 88 0 0 1 137.77 137.77 L 163.23 163.23 A 52 52 0 0 0 148.00 200.00 Z" fill="#FAFAF5" stroke="#2a2a3a" stroke-width="1.5" stroke-linejoin="round"/>
<path d="M 137.77 137.77 A 88 88 0 0 1 200.00 112.00 L 200.00 148.00 A 52 52 0 0 0 163.23 163.23 Z" fill="#FAFAF5" stroke="#2a2a3a" stroke-width="1.5" stroke-linejoin="round"/>
<path d="M 200.00 76.00 A 124 124 0 0 1 247.45 85.44 L 233.68 118.70 A 88 88 0 0 0 200.00 112.00 Z" fill="#FAFAF5" stroke="#2a2a3a" stroke-width="1.5" stroke-linejoin="round"/>
<path d="M 247.45 85.44 A 124 124 0 0 1 287.68 112.32 L 262.23 137.77 A 88 88 0 0 0 233.68 118.70 Z" fill="#FAFAF5" stroke="#2a2a3a" stroke-width="1.5" stroke-linejoin="round"/>
<path d="M 287.68 112.32 A 124 124 0 0 1 314.56 152.55 L 281.30 166.32 A 88 88 0 0 0 262.23 137.77 Z" fill="#FAFAF5" stroke="#2a2a3a" stroke-width="1.5" stroke-linejoin="round"/>
<path d="M 314.56 152.55 A 124 124 0 0 1 324.00 200.00 L 288.00 200.00 A 88 88 0 0 0 281.30 166.32 Z" fill="#FAFAF5" stroke="#2a2a3a" stroke-width="1.5" stroke-linejoin="round"/>
<path d="M 324.00 200.00 A 124 124 0 0 1 314.56 247.45 L 281.30 233.68 A 88 88 0 0 0 288.00 200.00 Z" fill="#FAFAF5" stroke="#2a2a3a" stroke-width="1.5" stroke-linejoin="round"/>
<path d="M 314.56 247.45 A 124 124 0 0 1 287.68 287.68 L 262.23 262.23 A 88 88 0 0 0 281.30 233.68 Z" fill="#FAFAF5" stroke="#2a2a3a" stroke-width="1.5" stroke-linejoin="round"/>
<path d="M 287.68 287.68 A 124 124 0 0 1 247.45 314.56 L 233.68 281.30 A 88 88 0 0 0 262.23 262.23 Z" fill="#FAFAF5" stroke="#2a2a3a" stroke-width="1.5" stroke-linejoin="round"/>
<path d="M 247.45 314.56 A 124 124 0 0 1 200.00 324.00 L 200.00 288.00 A 88 88 0 0 0 233.68 281.30 Z" fill="#FAFAF5" stroke="#2a2a3a" stroke-width="1.5" stroke-linejoin="round"/>
<path d="M 200.00 324.00 A 124 124 0 0 1 152.55 314.56 L 166.32 281.30 A 88 88 0 0 0 200.00 288.00 Z" fill="#FAFAF5" stroke="#2a2a3a" stroke-width="1.5" stroke-linejoin="round"/>
<path d="M 152.55 314.56 A 124 124 0 0 1 112.32 287.68 L 137.77 262.23 A 88 88 0 0 0 166.32 281.30 Z" fill="#FAFAF5" stroke="#2a2a3a" stroke-width="1.5" stroke-linejoin="round"/>
<path d="M 112.32 287.68 A 124 124 0 0 1 85.44 247.45 L 118.70 233.68 A 88 88 0 0 0 137.77 262.23 Z" fill="#FAFAF5" stroke="#2a2a3a" stroke-width="1.5" stroke-linejoin="round"/>
<path d="M 85.44 247.45 A 124 124 0 0 1 76.00 200.00 L 112.00 200.00 A 88 88 0 0 0 118.70 233.68 Z" fill="#FAFAF5" stroke="#2a2a3a" stroke-width="1.5" stroke-linejoin="round"/>
<path d="M 76.00 200.00 A 124 124 0 0 1 85.44 152.55 L 118.70 166.32 A 88 88 0 0 0 112.00 200.00 Z" fill="#FAFAF5" stroke="#2a2a3a" stroke-width="1.5" stroke-linejoin="round"/>
<path d="M 85.44 152.55 A 124 124 0 0 1 112.32 112.32 L 137.77 137.77 A 88 88 0 0 0 118.70 166.32 Z" fill="#FAFAF5" stroke="#2a2a3a" stroke-width="1.5" stroke-linejoin="round"/>
<path d="M 112.32 112.32 A 124 124 0 0 1 152.55 85.44 L 166.32 118.70 A 88 88 0 0 0 137.77 137.77 Z" fill="#FAFAF5" stroke="#2a2a3a" stroke-width="1.5" stroke-linejoin="round"/>
<path d="M 152.55 85.44 A 124 124 0 0 1 200.00 76.00 L 200.00 112.00 A 88 88 0 0 0 166.32 118.70 Z" fill="#FAFAF5" stroke="#2a2a3a" stroke-width="1.5" stroke-linejoin="round"/>
<path d="M 200.00 42.00 A 158 158 0 0 1 311.72 88.28 L 287.68 112.32 A 124 124 0 0 0 200.00 76.00 Z" fill="#FAFAF5" stroke="#2a2a3a" stroke-width="1.5" stroke-linejoin="round"/>
<path d="M 311.72 88.28 A 158 158 0 0 1 358.00 200.00 L 324.00 200.00 A 124 124 0 0 0 287.68 112.32 Z" fill="#FAFAF5" stroke="#2a2a3a" stroke-width="1.5" stroke-linejoin="round"/>
<path d="M 358.00 200.00 A 158 158 0 0 1 311.72 311.72 L 287.68 287.68 A 124 124 0 0 0 324.00 200.00 Z" fill="#FAFAF5" stroke="#2a2a3a" stroke-width="1.5" stroke-linejoin="round"/>
<path d="M 311.72 311.72 A 158 158 0 0 1 200.00 358.00 L 200.00 324.00 A 124 124 0 0 0 287.68 287.68 Z" fill="#FAFAF5" stroke="#2a2a3a" stroke-width="1.5" stroke-linejoin="round"/>
<path d="M 200.00 358.00 A 158 158 0 0 1 88.28 311.72 L 112.32 287.68 A 124 124 0 0 0 200.00 324.00 Z" fill="#FAFAF5" stroke="#2a2a3a" stroke-width="1.5" stroke-linejoin="round"/>
<path d="M 88.28 311.72 A 158 158 0 0 1 42.00 200.00 L 76.00 200.00 A 124 124 0 0 0 112.32 287.68 Z" fill="#FAFAF5" stroke="#2a2a3a" stroke-width="1.5" stroke-linejoin="round"/>
<path d="M 42.00 200.00 A 158 158 0 0 1 88.28 88.28 L 112.32 112.32 A 124 124 0 0 0 76.00 200.00 Z" fill="#FAFAF5" stroke="#2a2a3a" stroke-width="1.5" stroke-linejoin="round"/>
<path d="M 88.28 88.28 A 158 158 0 0 1 200.00 42.00 L 200.00 76.00 A 124 124 0 0 0 112.32 112.32 Z" fill="#FAFAF5" stroke="#2a2a3a" stroke-width="1.5" stroke-linejoin="round"/>
<path d="M 200.00 14.00 A 186 186 0 0 1 236.29 17.57 L 230.82 45.04 A 158 158 0 0 0 200.00 42.00 Z" fill="#FAFAF5" stroke="#2a2a3a" stroke-width="1.5" stroke-linejoin="round"/>
<path d="M 236.29 17.57 A 186 186 0 0 1 271.18 28.16 L 260.46 54.03 A 158 158 0 0 0 230.82 45.04 Z" fill="#FAFAF5" stroke="#2a2a3a" stroke-width="1.5" stroke-linejoin="round"/>
<path d="M 271.18 28.16 A 186 186 0 0 1 303.34 45.35 L 287.78 68.63 A 158 158 0 0 0 260.46 54.03 Z" fill="#FAFAF5" stroke="#2a2a3a" stroke-width="1.5" stroke-linejoin="round"/>
<path d="M 303.34 45.35 A 186 186 0 0 1 331.52 68.48 L 311.72 88.28 A 158 158 0 0 0 287.78 68.63 Z" fill="#FAFAF5" stroke="#2a2a3a" stroke-width="1.5" stroke-linejoin="round"/>
<path d="M 331.52 68.48 A 186 186 0 0 1 354.65 96.66 L 331.37 112.22 A 158 158 0 0 0 311.72 88.28 Z" fill="#FAFAF5" stroke="#2a2a3a" stroke-width="1.5" stroke-linejoin="round"/>
<path d="M 354.65 96.66 A 186 186 0 0 1 371.84 128.82 L 345.97 139.54 A 158 158 0 0 0 331.37 112.22 Z" fill="#FAFAF5" stroke="#2a2a3a" stroke-width="1.5" stroke-linejoin="round"/>
<path d="M 371.84 128.82 A 186 186 0 0 1 382.43 163.71 L 354.96 169.18 A 158 158 0 0 0 345.97 139.54 Z" fill="#FAFAF5" stroke="#2a2a3a" stroke-width="1.5" stroke-linejoin="round"/>
<path d="M 382.43 163.71 A 186 186 0 0 1 386.00 200.00 L 358.00 200.00 A 158 158 0 0 0 354.96 169.18 Z" fill="#FAFAF5" stroke="#2a2a3a" stroke-width="1.5" stroke-linejoin="round"/>
<path d="M 386.00 200.00 A 186 186 0 0 1 382.43 236.29 L 354.96 230.82 A 158 158 0 0 0 358.00 200.00 Z" fill="#FAFAF5" stroke="#2a2a3a" stroke-width="1.5" stroke-linejoin="round"/>
<path d="M 382.43 236.29 A 186 186 0 0 1 371.84 271.18 L 345.97 260.46 A 158 158 0 0 0 354.96 230.82 Z" fill="#FAFAF5" stroke="#2a2a3a" stroke-width="1.5" stroke-linejoin="round"/>
<path d="M 371.84 271.18 A 186 186 0 0 1 354.65 303.34 L 331.37 287.78 A 158 158 0 0 0 345.97 260.46 Z" fill="#FAFAF5" stroke="#2a2a3a" stroke-width="1.5" stroke-linejoin="round"/>
<path d="M 354.65 303.34 A 186 186 0 0 1 331.52 331.52 L 311.72 311.72 A 158 158 0 0 0 331.37 287.78 Z" fill="#FAFAF5" stroke="#2a2a3a" stroke-width="1.5" stroke-linejoin="round"/>
<path d="M 331.52 331.52 A 186 186 0 0 1 303.34 354.65 L 287.78 331.37 A 158 158 0 0 0 311.72 311.72 Z" fill="#FAFAF5" stroke="#2a2a3a" stroke-width="1.5" stroke-linejoin="round"/>
<path d="M 303.34 354.65 A 186 186 0 0 1 271.18 371.84 L 260.46 345.97 A 158 158 0 0 0 287.78 331.37 Z" fill="#FAFAF5" stroke="#2a2a3a" stroke-width="1.5" stroke-linejoin="round"/>
<path d="M 271.18 371.84 A 186 186 0 0 1 236.29 382.43 L 230.82 354.96 A 158 158 0 0 0 260.46 345.97 Z" fill="#FAFAF5" stroke="#2a2a3a" stroke-width="1.5" stroke-linejoin="round"/>
<path d="M 236.29 382.43 A 186 186 0 0 1 200.00 386.00 L 200.00 358.00 A 158 158 0 0 0 230.82 354.96 Z" fill="#FAFAF5" stroke="#2a2a3a" stroke-width="1.5" stroke-linejoin="round"/>
<path d="M 200.00 386.00 A 186 186 0 0 1 163.71 382.43 L 169.18 354.96 A 158 158 0 0 0 200.00 358.00 Z" fill="#FAFAF5" stroke="#2a2a3a" stroke-width="1.5" stroke-linejoin="round"/>
<path d="M 163.71 382.43 A 186 186 0 0 1 128.82 371.84 L 139.54 345.97 A 158 158 0 0 0 169.18 354.96 Z" fill="#FAFAF5" stroke="#2a2a3a" stroke-width="1.5" stroke-linejoin="round"/>
<path d="M 128.82 371.84 A 186 186 0 0 1 96.66 354.65 L 112.22 331.37 A 158 158 0 0 0 139.54 345.97 Z" fill="#FAFAF5" stroke="#2a2a3a" stroke-width="1.5" stroke-linejoin="round"/>
<path d="M 96.66 354.65 A 186 186 0 0 1 68.48 331.52 L 88.28 311.72 A 158 158 0 0 0 112.22 331.37 Z" fill="#FAFAF5" stroke="#2a2a3a" stroke-width="1.5" stroke-linejoin="round"/>
<path d="M 68.48 331.52 A 186 186 0 0 1 45.35 303.34 L 68.63 287.78 A 158 158 0 0 0 88.28 311.72 Z" fill="#FAFAF5" stroke="#2a2a3a" stroke-width="1.5" stroke-linejoin="round"/>
<path d="M 45.35 303.34 A 186 186 0 0 1 28.16 271.18 L 54.03 260.46 A 158 158 0 0 0 68.63 287.78 Z" fill="#FAFAF5" stroke="#2a2a3a" stroke-width="1.5" stroke-linejoin="round"/>
<path d="M 28.16 271.18 A 186 186 0 0 1 17.57 236.29 L 45.04 230.82 A 158 158 0 0 0 54.03 260.46 Z" fill="#FAFAF5" stroke="#2a2a3a" stroke-width="1.5" stroke-linejoin="round"/>
<path d="M 17.57 236.29 A 186 186 0 0 1 14.00 200.00 L 42.00 200.00 A 158 158 0 0 0 45.04 230.82 Z" fill="#FAFAF5" stroke="#2a2a3a" stroke-width="1.5" stroke-linejoin="round"/>
<path d="M 14.00 200.00 A 186 186 0 0 1 17.57 163.71 L 45.04 169.18 A 158 158 0 0 0 42.00 200.00 Z" fill="#FAFAF5" stroke="#2a2a3a" stroke-width="1.5" stroke-linejoin="round"/>
<path d="M 17.57 163.71 A 186 186 0 0 1 28.16 128.82 L 54.03 139.54 A 158 158 0 0 0 45.04 169.18 Z" fill="#FAFAF5" stroke="#2a2a3a" stroke-width="1.5" stroke-linejoin="round"/>
<path d="M 28.16 128.82 A 186 186 0 0 1 45.35 96.66 L 68.63 112.22 A 158 158 0 0 0 54.03 139.54 Z" fill="#FAFAF5" stroke="#2a2a3a" stroke-width="1.5" stroke-linejoin="round"/>
<path d="M 45.35 96.66 A 186 186 0 0 1 68.48 68.48 L 88.28 88.28 A 158 158 0 0 0 68.63 112.22 Z" fill="#FAFAF5" stroke="#2a2a3a" stroke-width="1.5" stroke-linejoin="round"/>
<path d="M 68.48 68.48 A 186 186 0 0 1 96.66 45.35 L 112.22 68.63 A 158 158 0 0 0 88.28 88.28 Z" fill="#FAFAF5" stroke="#2a2a3a" stroke-width="1.5" stroke-linejoin="round"/>
<path d="M 96.66 45.35 A 186 186 0 0 1 128.82 28.16 L 139.54 54.03 A 158 158 0 0 0 112.22 68.63 Z" fill="#FAFAF5" stroke="#2a2a3a" stroke-width="1.5" stroke-linejoin="round"/>
<path d="M 128.82 28.16 A 186 186 0 0 1 163.71 17.57 L 169.18 45.04 A 158 158 0 0 0 139.54 54.03 Z" fill="#FAFAF5" stroke="#2a2a3a" stroke-width="1.5" stroke-linejoin="round"/>
<path d="M 163.71 17.57 A 186 186 0 0 1 200.00 14.00 L 200.00 42.00 A 158 158 0 0 0 169.18 45.04 Z" fill="#FAFAF5" stroke="#2a2a3a" stroke-width="1.5" stroke-linejoin="round"/>
<path d="M 200.00 4.00 A 196 196 0 0 1 275.01 18.92 L 271.18 28.16 A 186 186 0 0 0 200.00 14.00 Z" fill="#FAFAF5" stroke="#2a2a3a" stroke-width="1.5" stroke-linejoin="round"/>
<path d="M 275.01 18.92 A 196 196 0 0 1 338.59 61.41 L 331.52 68.48 A 186 186 0 0 0 271.18 28.16 Z" fill="#FAFAF5" stroke="#2a2a3a" stroke-width="1.5" stroke-linejoin="round"/>
<path d="M 338.59 61.41 A 196 196 0 0 1 381.08 124.99 L 371.84 128.82 A 186 186 0 0 0 331.52 68.48 Z" fill="#FAFAF5" stroke="#2a2a3a" stroke-width="1.5" stroke-linejoin="round"/>
<path d="M 381.08 124.99 A 196 196 0 0 1 396.00 200.00 L 386.00 200.00 A 186 186 0 0 0 371.84 128.82 Z" fill="#FAFAF5" stroke="#2a2a3a" stroke-width="1.5" stroke-linejoin="round"/>
<path d="M 396.00 200.00 A 196 196 0 0 1 381.08 275.01 L 371.84 271.18 A 186 186 0 0 0 386.00 200.00 Z" fill="#FAFAF5" stroke="#2a2a3a" stroke-width="1.5" stroke-linejoin="round"/>
<path d="M 381.08 275.01 A 196 196 0 0 1 338.59 338.59 L 331.52 331.52 A 186 186 0 0 0 371.84 271.18 Z" fill="#FAFAF5" stroke="#2a2a3a" stroke-width="1.5" stroke-linejoin="round"/>
<path d="M 338.59 338.59 A 196 196 0 0 1 275.01 381.08 L 271.18 371.84 A 186 186 0 0 0 331.52 331.52 Z" fill="#FAFAF5" stroke="#2a2a3a" stroke-width="1.5" stroke-linejoin="round"/>
<path d="M 275.01 381.08 A 196 196 0 0 1 200.00 396.00 L 200.00 386.00 A 186 186 0 0 0 271.18 371.84 Z" fill="#FAFAF5" stroke="#2a2a3a" stroke-width="1.5" stroke-linejoin="round"/>
<path d="M 200.00 396.00 A 196 196 0 0 1 124.99 381.08 L 128.82 371.84 A 186 186 0 0 0 200.00 386.00 Z" fill="#FAFAF5" stroke="#2a2a3a" stroke-width="1.5" stroke-linejoin="round"/>
<path d="M 124.99 381.08 A 196 196 0 0 1 61.41 338.59 L 68.48 331.52 A 186 186 0 0 0 128.82 371.84 Z" fill="#FAFAF5" stroke="#2a2a3a" stroke-width="1.5" stroke-linejoin="round"/>
<path d="M 61.41 338.59 A 196 196 0 0 1 18.92 275.01 L 28.16 271.18 A 186 186 0 0 0 68.48 331.52 Z" fill="#FAFAF5" stroke="#2a2a3a" stroke-width="1.5" stroke-linejoin="round"/>
<path d="M 18.92 275.01 A 196 196 0 0 1 4.00 200.00 L 14.00 200.00 A 186 186 0 0 0 28.16 271.18 Z" fill="#FAFAF5" stroke="#2a2a3a" stroke-width="1.5" stroke-linejoin="round"/>
<path d="M 4.00 200.00 A 196 196 0 0 1 18.92 124.99 L 28.16 128.82 A 186 186 0 0 0 14.00 200.00 Z" fill="#FAFAF5" stroke="#2a2a3a" stroke-width="1.5" stroke-linejoin="round"/>
<path d="M 18.92 124.99 A 196 196 0 0 1 61.41 61.41 L 68.48 68.48 A 186 186 0 0 0 28.16 128.82 Z" fill="#FAFAF5" stroke="#2a2a3a" stroke-width="1.5" stroke-linejoin="round"/>
<path d="M 61.41 61.41 A 196 196 0 0 1 124.99 18.92 L 128.82 28.16 A 186 186 0 0 0 68.48 68.48 Z" fill="#FAFAF5" stroke="#2a2a3a" stroke-width="1.5" stroke-linejoin="round"/>
<path d="M 124.99 18.92 A 196 196 0 0 1 200.00 4.00 L 200.00 14.00 A 186 186 0 0 0 128.82 28.16 Z" fill="#FAFAF5" stroke="#2a2a3a" stroke-width="1.5" stroke-linejoin="round"/>
</svg>