<?xml version="1.0" encoding="UTF-8"?>
<svg xmlns="http://www.w3.org/2000/svg" viewBox="0 0 400 400" width="400" height="400">
<rect width="400" height="400" fill="#FAFAF5"/>
<circle cx="200" cy="200" r="22" fill="#FAFAF5" stroke="#2a2a3a" stroke-width="1.5" stroke-linejoin="round"/>
<path d="M 200.00 145.00 A 55 55 0 0 1 227.50 152.37 L 211.00 180.95 A 22 22 0 0 0 200.00 178.00 Z" fill="#FAFAF5" stroke="#2a2a3a" stroke-width="1.5" stroke-linejoin="round"/>
<path d="M 227.50 152.37 A 55 55 0 0 1 247.63 172.50 L 219.05 189.00 A 22 22 0 0 0 211.00 180.95 Z" fill="#FAFAF5" stroke="#2a2a3a" stroke-width="1.5" stroke-linejoin="round"/>
<path d="M 247.63 172.50 A 55 55 0 0 1 255.00 200.00 L 222.00 200.00 A 22 22 0 0 0 219.05 189.00 Z" fill="#FAFAF5" stroke="#2a2a3a" stroke-width="1.5" stroke-linejoin="round"/>
<path d="M 255.00 200.00 A 55 55 0 0 1 247.63 227.50 L 219.05 211.00 A 22 22 0 0 0 222.00 200.00 Z" fill="#FAFAF5" stroke="#2a2a3a" stroke-width="1.5" stroke-linejoin="round"/>
<path d="M 247.63 227.50 A 55 55 0 0 1 227.50 247.63 L 211.00 219.05 A 22 22 0 0 0 219.05 211.00 Z" fill="#FAFAF5" stroke="#2a2a3a" stroke-width="1.5" stroke-linejoin="round"/>
<path d="M 227.50 247.63 A 55 55 0 0 1 200.00 255.00 L 200.00 222.00 A 22 22 0 0 0 211.00 219.05 Z" fill="#FAFAF5" stroke="#2a2a3a" stroke-width="1.5" stroke-linejoin="round"/>
<path d="M 200.00 255.00 A 55 55 0 0 1 172.50 247.63 L 189.00 219.05 A 22 22 0 0 0 200.00 222.00 Z" fill="#FAFAF5" stroke="#2a2a3a" stroke-width="1.5" stroke-linejoin="round"/>
<path d="M 172.50 247.63 A 55 55 0 0 1 152.37 227.50 L 180.95 211.00 A 22 22 0 0 0 189.00 219.05 Z" fill="#FAFAF5" stroke="#2a2a3a" stroke-width="1.5" stroke-linejoin="round"/>
<path d="M 152.37 227.50 A 55 55 0 0 1 145.00 200.00 L 178.00 200.00 A 22 22 0 0 0 180.95 211.00 Z" fill="#FAFAF5" stroke="#2a2a3a" stroke-width="1.5" stroke-linejoin="round"/>
<path d="M 145.00 200.00 A 55 55 0 0 1 152.37 172.50 L 180.95 189.00 A 22 22 0 0 0 178.00 200.00 Z" fill="#FAFAF5" stroke="#2a2a3a" stroke-width="1.5" stroke-linejoin="round"/>
<path d="M 152.37 172.50 A 55 55 0 0 1 172.50 152.37 L 189.00 180.95 A 22 22 0 0 0 180.95 189.00 Z" fill="#FAFAF5" stroke="#2a2a3a" stroke-width="1.5" stroke-linejoin="round"/>
<path d="M 172.50 152.37 A 55 55 0 0 1 200.00 145.00 L 200.00 178.00 A 22 22 0 0 0 189.00 180.95 Z" fill="#FAFAF5" stroke="#2a2a3a" stroke-width="1.5" stroke-linejoin="round"/>
<path d="M 200.00 105.00 A 95 95 0 0 1 247.50 117.73 L 227.50 152.37 A 55 55 0 0 0 200.00 145.00 Z" fill="#FAFAF5" stroke="#2a2a3a" stroke-width="1.5" stroke-linejoin="round"/>
<path d="M 247.50 117.73 A 95 95 0 0 1 282.27 152.50 L 247.63 172.50 A 55 55 0 0 0 227.50 152.37 Z" fill="#FAFAF5" stroke="#2a2a3a" stroke-width="1.5" stroke-linejoin="round"/>
<path d="M 282.27 152.50 A 95 95 0 0 1 295.00 200.00 L 255.00 200.00 A 55 55 0 0 0 247.63 172.50 Z" fill="#FAFAF5" stroke="#2a2a3a" stroke-width="1.5" stroke-linejoin="round"/>
<path d="M 295.00 200.00 A 95 95 0 0 1 282.27 247.50 L 247.63 227.50 A 55 55 0 0 0 255.00 200.00 Z" fill="#FAFAF5" stroke="#2a2a3a" stroke-width="1.5" stroke-linejoin="round"/>
<path d="M 282.27 247.50 A 95 95 0 0 1 247.50 282.27 L 227.50 247.63 A 55 55 0 0 0 247.63 227.50 Z" fill="#FAFAF5" stroke="#2a2a3a" stroke-width="1.5" stroke-linejoin="round"/>
<path d="M 247.50 282.27 A 95 95 0 0 1 200.00 295.00 L 200.00 255.00 A 55 55 0 0 0 227.50 247.63 Z" fill="#FAFAF5" stroke="#2a2a3a" stroke-width="1.5" stroke-linejoin="round"/>
<path d="M 200.00 295.00 A 95 95 0 0 1 152.50 282.27 L 172.50 247.63 A 55 55 0 0 0 200.00 255.00 Z" fill="#FAFAF5" stroke="#2a2a3a" stroke-width="1.5" stroke-linejoin="round"/>
<path d="M 152.50 282.27 A 95 95 0 0 1 117.73 247.50 L 152.37 227.50 A 55 55 0 0 0 172.50 247.63 Z" fill="#FAFAF5" stroke="#2a2a3a" stroke-width="1.5" stroke-linejoin="round"/>
<path d="M 117.73 247.50 A 95 95 0 0 1 105.00 200.00 L 145.00 200.00 A 55 55 0 0 0 152.37 227.50 Z" fill="#FAFAF5" stroke="#2a2a3a" stroke-width="1.5" stroke-linejoin="round"/>
<path d="M 105.00 200.00 A 95 95 0 0 1 117.73 152.50 L 152.37 172.50 A 55 55 0 0 0 145.00 200.00 Z" fill="#FAFAF5" stroke="#2a2a3a" stroke-width="1.5" stroke-linejoin="round"/>
<path d="M 117.73 152.50 A 95 95 0 0 1 152.50 117.73 L 172.50 152.37 A 55 55 0 0 0 152.37 172.50 Z" fill="#FAFAF5" stroke="#2a2a3a" stroke-width="1.5" stroke-linejoin="round"/>
<path d="M 152.50 117.73 A 95 95 0 0 1 200.00 105.00 L 200.00 145.00 A 55 55 0 0 0 172.50 152.37 Z" fill="#FAFAF5" stroke="#2a2a3a" stroke-width="1.5" stroke-linejoin="round"/>
<path d="M 200.00 65.00 A 135 135 0 0 1 234.94 69.60 L 224.59 108.24 A 95 95 0 0 0 200.00 105.00 Z" fill="#FAFAF5" stroke="#2a2a3a" stroke-width="1.5" stroke-linejoin="round"/>
<path d="M 234.94 69.60 A 135 135 0 0 1 267.50 83.09 L 247.50 117.73 A 95 95 0 0 0 224.59 108.24 Z" fill="#FAFAF5" stroke="#2a2a3a" stroke-width="1.5" stroke-linejoin="round"/>
<path d="M 267.50 83.09 A 135 135 0 0 1 295.46 104.54 L 267.18 132.82 A 95 95 0 0 0 247.50 117.73 Z" fill="#FAFAF5" stroke="#2a2a3a" stroke-width="1.5" stroke-linejoin="round"/>
<path d="M 295.46 104.54 A 135 135 0 0 1 316.91 132.50 L 282.27 152.50 A 95 95 0 0 0 267.18 132.82 Z" fill="#FAFAF5" stroke="#2a2a3a" stroke-width="1.5" stroke-linejoin="round"/>
<path d="M 316.91 132.50 A 135 135 0 0 1 330.40 165.06 L 291.76 175.41 A 95 95 0 0 0 282.27 152.50 Z" fill="#FAFAF5" stroke="#2a2a3a" stroke-width="1.5" stroke-linejoin="round"/>
<path d="M 330.40 165.06 A 135 135 0 0 1 335.00 200.00 L 295.00 200.00 A 95 95 0 0 0 291.76 175.41 Z" fill="#FAFAF5" stroke="#2a2a3a" stroke-width="1.5" stroke-linejoin="round"/>
<path d="M 335.00 200.00 A 135 135 0 0 1 330.40 234.94 L 291.76 224.59 A 95 95 0 0 0 295.00 200.00 Z" fill="#FAFAF5" stroke="#2a2a3a" stroke-width="1.5" stroke-linejoin="round"/>
<path d="M 330.40 234.94 A 135 135 0 0 1 316.91 267.50 L 282.27 247.50 A 95 95 0 0 0 291.76 224.59 Z" fill="#FAFAF5" stroke="#2a2a3a" stroke-width="1.5" stroke-linejoin="round"/>
<path d="M 316.91 267.50 A 135 135 0 0 1 295.46 295.46 L 267.18 267.18 A 95 95 0 0 0 282.27 247.50 Z" fill="#FAFAF5" stroke="#2a2a3a" stroke-width="1.5" stroke-linejoin="round"/>
<path d="M 295.46 295.46 A 135 135 0 0 1 267.50 316.91 L 247.50 282.27 A 95 95 0 0 0 267.18 267.18 Z" fill="#FAFAF5" stroke="#2a2a3a" stroke-width="1.5" stroke-linejoin="round"/>
<path d="M 267.50 316.91 A 135 135 0 0 1 234.94 330.40 L 224.59 291.76 A 95 95 0 0 0 247.50 282.27 Z" fill="#FAFAF5" stroke="#2a2a3a" stroke-width="1.5" stroke-linejoin="round"/>
<path d="M 234.94 330.40 A 135 135 0 0 1 200.00 335.00 L 200.00 295.00 A 95 95 0 0 0 224.59 291.76 Z" fill="#FAFAF5" stroke="#2a2a3a" stroke-width="1.5" stroke-linejoin="round"/>
<path d="M 200.00 335.00 A 135 135 0 0 1 165.06 330.40 L 175.41 291.76 A 95 95 0 0 0 200.00 295.00 Z" fill="#FAFAF5" stroke="#2a2a3a" stroke-width="1.5" stroke-linejoin="round"/>
<path d="M 165.06 330.40 A 135 135 0 0 1 132.50 316.91 L 152.50 282.27 A 95 95 0 0 0 175.41 291.76 Z" fill="#FAFAF5" stroke="#2a2a3a" stroke-width="1.5" stroke-linejoin="round"/>
<path d="M 132.50 316.91 A 135 135 0 0 1 104.54 295.46 L 132.82 267.18 A 95 95 0 0 0 152.50 282.27 Z" fill="#FAFAF5" stroke="#2a2a3a" stroke-width="1.5" stroke-linejoin="round"/>
<path d="M 104.54 295.46 A 135 135 0 0 1 83.09 267.50 L 117.73 247.50 A 95 95 0 0 0 132.82 267.18 Z" fill="#FAFAF5" stroke="#2a2a3a" stroke-width="1.5" stroke-linejoin="round"/>
<path d="M 83.09 267.50 A 135 135 0 0 1 69.60 234.94 L 108.24 224.59 A 95 95 0 0 0 117.73 247.50 Z" fill="#FAFAF5" stroke="#2a2a3a" stroke-width="1.5" stroke-linejoin="round"/>
<path d="M 69.60 234.94 A 135 135 0 0 1 65.00 200.00 L 105.00 200.00 A 95 95 0 0 0 108.24 224.59 Z" fill="#FAFAF5" stroke="#2a2a3a" stroke-width="1.5" stroke-linejoin="round"/>
<path d="M 65.00 200.00 A 135 135 0 0 1 69.60 165.06 L 108.24 175.41 A 95 95 0 0 0 105.00 200.00 Z" fill="#FAFAF5" stroke="#2a2a3a" stroke-width="1.5" stroke-linejoin="round"/>
<path d="M 69.60 165.06 A 135 135 0 0 1 83.09 132.50 L 117.73 152.50 A 95 95 0 0 0 108.24 175.41 Z" fill="#FAFAF5" stroke="#2a2a3a" stroke-width="1.5" stroke-linejoin="round"/>
<path d="M 83.09 132.50 A 135 135 0 0 1 104.54 104.54 L 132.82 132.82 A 95 95 0 0 0 117.73 152.50 Z" fill="#FAFAF5" stroke="#2a2a3a" stroke-width="1.5" stroke-linejoin="round"/>
<path d="M 104.54 104.54 A 135 135 0 0 1 132.50 83.09 L 152.50 117.73 A 95 95 0 0 0 132.82 132.82 Z" fill="#FAFAF5" stroke="#2a2a3a" stroke-width="1.5" stroke-linejoin="round"/>
<path d="M 132.50 83.09 A 135 135 0 0 1 165.06 69.60 L 175.41 108.24 A 95 95 0 0 0 152.50 117.73 Z" fill="#FAFAF5" stroke="#2a2a3a" stroke-width="1.5" stroke-linejoin="round"/>
<path d="M 165.06 69.60 A 135 135 0 0 1 200.00 65.00 L 200.00 105.00 A 95 95 0 0 0 175.41 108.24 Z" fill="#FAFAF5" stroke="#2a2a3a" stroke-width="1.5" stroke-linejoin="round"/>
<path d="M 200.00 32.00 A 168 168 0 0 1 284.00 54.51 L 267.50 83.09 A 135 135 0 0 0 200.00 65.00 Z" fill="#FAFAF5" stroke="#2a2a3a" stroke-width="1.5" stroke-linejoin="round"/>
<path d="M 284.00 54.51 A 168 168 0 0 1 345.49 116.00 L 316.91 132.50 A 135 135 0 0 0 267.50 83.09 Z" fill="#FAFAF5" stroke="#2a2a3a" stroke-width="1.5" stroke-linejoin="round"/>
<path d="M 345.49 116.00 A 168 168 0 0 1 368.00 200.00 L 335.00 200.00 A 135 135 0 0 0 316.91 132.50 Z" fill="#FAFAF5" stroke="#2a2a3a" stroke-width="1.5" stroke-linejoin="round"/>
<path d="M 368.00 200.00 A 168 168 0 0 1 345.49 284.00 L 316.91 267.50 A 135 135 0 0 0 335.00 200.00 Z" fill="#FAFAF5" stroke="#2a2a3a" stroke-width="1.5" stroke-linejoin="round"/>
<path d="M 345.49 284.00 A 168 168 0 0 1 284.00 345.49 L 267.50 316.91 A 135 135 0 0 0 316.91 267.50 Z" fill="#FAFAF5" stroke="#2a2a3a" stroke-width="1.5" stroke-linejoin="round"/>
<path d="M 284.00 345.49 A 168 168 0 0 1 200.00 368.00 L 200.00 335.00 A 135 135 0 0 0 267.50 316.91 Z" fill="#FAFAF5" stroke="#2a2a3a" stroke-width="1.5" stroke-linejoin="round"/>
<path d="M 200.00 368.00 A 168 168 0 0 1 116.00 345.49 L 132.50 316.91 A 135 135 0 0 0 200.00 335.00 Z" fill="#FAFAF5" stroke="#2a2a3a" stroke-width="1.5" stroke-linejoin="round"/>
<path d="M 116.00 345.49 A 168 168 0 0 1 54.51 284.00 L 83.09 267.50 A 135 135 0 0 0 132.50 316.91 Z" fill="#FAFAF5" stroke="#2a2a3a" stroke-width="1.5" stroke-linejoin="round"/>
<path d="M 54.51 284.00 A 168 168 0 0 1 32.00 200.00 L 65.00 200.00 A 135 135 0 0 0 83.09 267.50 Z" fill="#FAFAF5" stroke="#2a2a3a" stroke-width="1.5" stroke-linejoin="round"/>
<path d="M 32.00 200.00 A 168 168 0 0 1 54.51 116.00 L 83.09 132.50 A 135 135 0 0 0 65.00 200.00 Z" fill="#FAFAF5" stroke="#2a2a3a" stroke-width="1.5" stroke-linejoin="round"/>
<path d="M 54.51 116.00 A 168 168 0 0 1 116.00 54.51 L 132.50 83.09 A 135 135 0 0 0 83.09 132.50 Z" fill="#FAFAF5" stroke="#2a2a3a" stroke-width="1.5" stroke-linejoin="round"/>
<path d="M 116.00 54.51 A 168 168 0 0 1 200.00 32.00 L 200.00 65.00 A 135 135 0 0 0 132.50 83.09 Z" fill="#FAFAF5" stroke="#2a2a3a" stroke-width="1.5" stroke-linejoin="round"/>
<path d="M 200.00 8.00 A 192 192 0 0 1 249.69 14.54 L 243.48 37.72 A 168 168 0 0 0 200.00 32.00 Z" fill="#FAFAF5" stroke="#2a2a3a" stroke-width="1.5" stroke-linejoin="round"/>
<path d="M 249.69 14.54 A 192 192 0 0 1 296.00 33.72 L 284.00 54.51 A 168 168 0 0 0 243.48 37.72 Z" fill="#FAFAF5" stroke="#2a2a3a" stroke-width="1.5" stroke-linejoin="round"/>
<path d="M 296.00 33.72 A 192 192 0 0 1 335.76 64.24 L 318.79 81.21 A 168 168 0 0 0 284.00 54.51 Z" fill="#FAFAF5" stroke="#2a2a3a" stroke-width="1.5" stroke-linejoin="round"/>
<path d="M 335.76 64.24 A 192 192 0 0 1 366.28 104.00 L 345.49 116.00 A 168 168 0 0 0 318.79 81.21 Z" fill="#FAFAF5" stroke="#2a2a3a" stroke-width="1.5" stroke-linejoin="round"/>
<path d="M 366.28 104.00 A 192 192 0 0 1 385.46 150.31 L 362.28 156.52 A 168 168 0 0 0 345.49 116.00 Z" fill="#FAFAF5" stroke="#2a2a3a" stroke-width="1.5" stroke-linejoin="round"/>
<path d="M 385.46 150.31 A 192 192 0 0 1 392.00 200.00 L 368.00 200.00 A 168 168 0 0 0 362.28 156.52 Z" fill="#FAFAF5" stroke="#2a2a3a" stroke-width="1.5" stroke-linejoin="round"/>
<path d="M 392.00 200.00 A 192 192 0 0 1 385.46 249.69 L 362.28 243.48 A 168 168 0 0 0 368.00 200.00 Z" fill="#FAFAF5" stroke="#2a2a3a" stroke-width="1.5" stroke-linejoin="round"/>
<path d="M 385.46 249.69 A 192 192 0 0 1 366.28 296.00 L 345.49 284.00 A 168 168 0 0 0 362.28 243.48 Z" fill="#FAFAF5" stroke="#2a2a3a" stroke-width="1.5" stroke-linejoin="round"/>
<path d="M 366.28 296.00 A 192 192 0 0 1 335.76 335.76 L 318.79 318.79 A 168 168 0 0 0 345.49 284.00 Z" fill="#FAFAF5" stroke="#2a2a3a" stroke-width="1.5" stroke-linejoin="round"/>
<path d="M 335.76 335.76 A 192 192 0 0 1 296.00 366.28 L 284.00 345.49 A 168 168 0 0 0 318.79 318.79 Z" fill="#FAFAF5" stroke="#2a2a3a" stroke-width="1.5" stroke-linejoin="round"/>
<path d="M 296.00 366.28 A 192 192 0 0 1 249.69 385.46 L 243.48 362.28 A 168 168 0 0 0 284.00 345.49 Z" fill="#FAFAF5" stroke="#2a2a3a" stroke-width="1.5" stroke-linejoin="round"/>
<path d="M 249.69 385.46 A 192 192 0 0 1 200.00 392.00 L 200.00 368.00 A 168 168 0 0 0 243.48 362.28 Z" fill="#FAFAF5" stroke="#2a2a3a" stroke-width="1.5" stroke-linejoin="round"/>
<path d="M 200.00 392.00 A 192 192 0 0 1 150.31 385.46 L 156.52 362.28 A 168 168 0 0 0 200.00 368.00 Z" fill="#FAFAF5" stroke="#2a2a3a" stroke-width="1.5" stroke-linejoin="round"/>
<path d="M 150.31 385.46 A 192 192 0 0 1 104.00 366.28 L 116.00 345.49 A 168 168 0 0 0 156.52 362.28 Z" fill="#FAFAF5" stroke="#2a2a3a" stroke-width="1.5" stroke-linejoin="round"/>
<path d="M 104.00 366.28 A 192 192 0 0 1 64.24 335.76 L 81.21 318.79 A 168 168 0 0 0 116.00 345.49 Z" fill="#FAFAF5" stroke="#2a2a3a" stroke-width="1.5" stroke-linejoin="round"/>
<path d="M 64.24 335.76 A 192 192 0 0 1 33.72 296.00 L 54.51 284.00 A 168 168 0 0 0 81.21 318.79 Z" fill="#FAFAF5" stroke="#2a2a3a" stroke-width="1.5" stroke-linejoin="round"/>
<path d="M 33.72 296.00 A 192 192 0 0 1 14.54 249.69 L 37.72 243.48 A 168 168 0 0 0 54.51 284.00 Z" fill="#FAFAF5" stroke="#2a2a3a" stroke-width="1.5" stroke-linejoin="round"/>
<path d="M 14.54 249.69 A 192 192 0 0 1 8.00 200.00 L 32.00 200.00 A 168 168 0 0 0 37.72 243.48 Z" fill="#FAFAF5" stroke="#2a2a3a" stroke-width="1.5" stroke-linejoin="round"/>
<path d="M 8.00 200.00 A 192 192 0 0 1 14.54 150.31 L 37.72 156.52 A 168 168 0 0 0 32.00 200.00 Z" fill="#FAFAF5" stroke="#2a2a3a" stroke-width="1.5" stroke-linejoin="round"/>
<path d="M 14.54 150.31 A 192 192 0 0 1 33.72 104.00 L 54.51 116.00 A 168 168 0 0 0 37.72 156.52 Z" fill="#FAFAF5" stroke="#2a2a3a" stroke-width="1.5" stroke-linejoin="round"/>
<path d="M 33.72 104.00 A 192 192 0 0 1 64.24 64.24 L 81.21 81.21 A 168 168 0 0 0 54.51 116.00 Z" fill="#FAFAF5" stroke="#2a2a3a" stroke-width="1.5" stroke-linejoin="round"/>
<path d="M 64.24 64.24 A 192 192 0 0 1 104.00 33.72 L 116.00 54.51 A 168 168 0 0 0 81.21 81.21 Z" fill="#FAFAF5" stroke="#2a2a3a" stroke-width="1.5" stroke-linejoin="round"/>
<path d="M 104.00 33.72 A 192 192 0 0 1 150.31 14.54 L 156.52 37.72 A 168 168 0 0 0 116.00 54.51 Z" fill="#FAFAF5" stroke="#2a2a3a" stroke-width="1.5" stroke-linejoin="round"/>
<path d="M 150.31 14.54 A 192 192 0 0 1 200.00 8.00 L 200.00 32.00 A 168 168 0 0 0 156.52 37.72 Z" fill="#FAFAF5" stroke="#2a2a3a" stroke-width="1.5" stroke-linejoin="round"/>
</svg>