<?xml version="1.0" encoding="UTF-8"?>
<svg xmlns="http://www.w3.org/2000/svg" viewBox="0 0 400 400" width="400" height="400">
<rect width="400" height="400" fill="#FAFAF5"/>
<circle cx="200" cy="200" r="20" fill="#FAFAF5" stroke="#2a2a3a" stroke-width="1.5" stroke-linejoin="round"/>
<path d="M 200.00 145.00 A 55 55 0 0 1 238.89 161.11 L 214.14 185.86 A 20 20 0 0 0 200.00 180.00 Z" fill="#FAFAF5" stroke="#2a2a3a" stroke-width="1.5" stroke-linejoin="round"/>
<path d="M 238.89 161.11 A 55 55 0 0 1 255.00 200.00 L 220.00 200.00 A 20 20 0 0 0 214.14 185.86 Z" fill="#FAFAF5" stroke="#2a2a3a" stroke-width="1.5" stroke-linejoin="round"/>
<path d="M 255.00 200.00 A 55 55 0 0 1 238.89 238.89 L 214.14 214.14 A 20 20 0 0 0 220.00 200.00 Z" fill="#FAFAF5" stroke="#2a2a3a" stroke-width="1.5" stroke-linejoin="round"/>
<path d="M 238.89 238.89 A 55 55 0 0 1 200.00 255.00 L 200.00 220.00 A 20 20 0 0 0 214.14 214.14 Z" fill="#FAFAF5" stroke="#2a2a3a" stroke-width="1.5" stroke-linejoin="round"/>
<path d="M 200.00 255.00 A 55 55 0 0 1 161.11 238.89 L 185.86 214.14 A 20 20 0 0 0 200.00 220.00 Z" fill="#FAFAF5" stroke="#2a2a3a" stroke-width="1.5" stroke-linejoin="round"/>
<path d="M 161.11 238.89 A 55 55 0 0 1 145.00 200.00 L 180.00 200.00 A 20 20 0 0 0 185.86 214.14 Z" fill="#FAFAF5" stroke="#2a2a3a" stroke-width="1.5" stroke-linejoin="round"/>
<path d="M 145.00 200.00 A 55 55 0 0 1 161.11 161.11 L 185.86 185.86 A 20 20 0 0 0 180.00 200.00 Z" fill="#FAFAF5" stroke="#2a2a3a" stroke-width="1.5" stroke-linejoin="round"/>
<path d="M 161.11 161.11 A 55 55 0 0 1 200.00 145.00 L 200.00 180.00 A 20 20 0 0 0 185.86 185.86 Z" fill="#FAFAF5" stroke="#2a2a3a" stroke-width="1.5" stroke-linejoin="round"/>
<path d="M 200.00 105.00 A 95 95 0 0 1 267.18 132.82 L 238.89 161.11 A 55 55 0 0 0 200.00 145.00 Z" fill="#FAFAF5" stroke="#2a2a3a" stroke-width="1.5" stroke-linejoin="round"/>
<path d="M 267.18 132.82 A 95 95 0 0 1 295.00 200.00 L 255.00 200.00 A 55 55 0 0 0 238.89 161.11 Z" fill="#FAFAF5" stroke="#2a2a3a" stroke-width="1.5" stroke-linejoin="round"/>
<path d="M 295.00 200.00 A 95 95 0 0 1 267.18 267.18 L 238.89 238.89 A 55 55 0 0 0 255.00 200.00 Z" fill="#FAFAF5" stroke="#2a2a3a" stroke-width="1.5" stroke-linejoin="round"/>
<path d="M 267.18 267.18 A 95 95 0 0 1 200.00 295.00 L 200.00 255.00 A 55 55 0 0 0 238.89 238.89 Z" fill="#FAFAF5" stroke="#2a2a3a" stroke-width="1.5" stroke-linejoin="round"/>
<path d="M 200.00 295.00 A 95 95 0 0 1 132.82 267.18 L 161.11 238.89 A 55 55 0 0 0 200.00 255.00 Z" fill="#FAFAF5" stroke="#2a2a3a" stroke-width="1.5" stroke-linejoin="round"/>
<path d="M 132.82 267.18 A 95 95 0 0 1 105.00 200.00 L 145.00 200.00 A 55 55 0 0 0 161.11 238.89 Z" fill="#FAFAF5" stroke="#2a2a3a" stroke-width="1.5" stroke-linejoin="round"/>
<path d="M 105.00 200.00 A 95 95 0 0 1 132.82 132.82 L 161.11 161.11 A 55 55 0 0 0 145.00 200.00 Z" fill="#FAFAF5" stroke="#2a2a3a" stroke-width="1.5" stroke-linejoin="round"/>
<path d="M 132.82 132.82 A 95 95 0 0 1 200.00 105.00 L 200.00 145.00 A 55 55 0 0 0 161.11 161.11 Z" fill="#FAFAF5" stroke="#2a2a3a" stroke-width="1.5" stroke-linejoin="round"/>
<path d="M 200.00 65.00 A 135 135 0 0 1 251.66 75.28 L 236.35 112.23 A 95 95 0 0 0 200.00 105.00 Z" fill="#FAFAF5" stroke="#2a2a3a" stroke-width="1.5" stroke-linejoin="round"/>
<path d="M 251.66 75.28 A 135 135 0 0 1 295.46 104.54 L 267.18 132.82 A 95 95 0 0 0 236.35 112.23 Z" fill="#FAFAF5" stroke="#2a2a3a" stroke-width="1.5" stroke-linejoin="round"/>
<path d="M 295.46 104.54 A 135 135 0 0 1 324.72 148.34 L 287.77 163.65 A 95 95 0 0 0 267.18 132.82 Z" fill="#FAFAF5" stroke="#2a2a3a" stroke-width="1.5" stroke-linejoin="round"/>
<path d="M 324.72 148.34 A 135 135 0 0 1 335.00 200.00 L 295.00 200.00 A 95 95 0 0 0 287.77 163.65 Z" fill="#FAFAF5" stroke="#2a2a3a" stroke-width="1.5" stroke-linejoin="round"/>
<path d="M 335.00 200.00 A 135 135 0 0 1 324.72 251.66 L 287.77 236.35 A 95 95 0 0 0 295.00 200.00 Z" fill="#FAFAF5" stroke="#2a2a3a" stroke-width="1.5" stroke-linejoin="round"/>
<path d="M 324.72 251.66 A 135 135 0 0 1 295.46 295.46 L 267.18 267.18 A 95 95 0 0 0 287.77 236.35 Z" fill="#FAFAF5" stroke="#2a2a3a" stroke-width="1.5" stroke-linejoin="round"/>
<path d="M 295.46 295.46 A 135 135 0 0 1 251.66 324.72 L 236.35 287.77 A 95 95 0 0 0 267.18 267.18 Z" fill="#FAFAF5" stroke="#2a2a3a" stroke-width="1.5" stroke-linejoin="round"/>
<path d="M 251.66 324.72 A 135 135 0 0 1 200.00 335.00 L 200.00 295.00 A 95 95 0 0 0 236.35 287.77 Z" fill="#FAFAF5" stroke="#2a2a3a" stroke-width="1.5" stroke-linejoin="round"/>
<path d="M 200.00 335.00 A 135 135 0 0 1 148.34 324.72 L 163.65 287.77 A 95 95 0 0 0 200.00 295.00 Z" fill="#FAFAF5" stroke="#2a2a3a" stroke-width="1.5" stroke-linejoin="round"/>
<path d="M 148.34 324.72 A 135 135 0 0 1 104.54 295.46 L 132.82 267.18 A 95 95 0 0 0 163.65 287.77 Z" fill="#FAFAF5" stroke="#2a2a3a" stroke-width="1.5" stroke-linejoin="round"/>
<path d="M 104.54 295.46 A 135 135 0 0 1 75.28 251.66 L 112.23 236.35 A 95 95 0 0 0 132.82 267.18 Z" fill="#FAFAF5" stroke="#2a2a3a" stroke-width="1.5" stroke-linejoin="round"/>
<path d="M 75.28 251.66 A 135 135 0 0 1 65.00 200.00 L 105.00 200.00 A 95 95 0 0 0 112.23 236.35 Z" fill="#FAFAF5" stroke="#2a2a3a" stroke-width="1.5" stroke-linejoin="round"/>
<path d="M 65.00 200.00 A 135 135 0 0 1 75.28 148.34 L 112.23 163.65 A 95 95 0 0 0 105.00 200.00 Z" fill="#FAFAF5" stroke="#2a2a3a" stroke-width="1.5" stroke-linejoin="round"/>
<path d="M 75.28 148.34 A 135 135 0 0 1 104.54 104.54 L 132.82 132.82 A 95 95 0 0 0 112.23 163.65 Z" fill="#FAFAF5" stroke="#2a2a3a" stroke-width="1.5" stroke-linejoin="round"/>
<path d="M 104.54 104.54 A 135 135 0 0 1 148.34 75.28 L 163.65 112.23 A 95 95 0 0 0 132.82 132.82 Z" fill="#FAFAF5" stroke="#2a2a3a" stroke-width="1.5" stroke-linejoin="round"/>
<path d="M 148.34 75.28 A 135 135 0 0 1 200.00 65.00 L 200.00 105.00 A 95 95 0 0 0 163.65 112.23 Z" fill="#FAFAF5" stroke="#2a2a3a" stroke-width="1.5" stroke-linejoin="round"/>
<path d="M 200.00 25.00 A 175 175 0 0 1 323.74 76.26 L 295.46 104.54 A 135 135 0 0 0 200.00 65.00 Z" fill="#FAFAF5" stroke="#2a2a3a" stroke-width="1.5" stroke-linejoin="round"/>
<path d="M 323.74 76.26 A 175 175 0 0 1 375.00 200.00 L 335.00 200.00 A 135 135 0 0 0 295.46 104.54 Z" fill="#FAFAF5" stroke="#2a2a3a" stroke-width="1.5" stroke-linejoin="round"/>
<path d="M 375.00 200.00 A 175 175 0 0 1 323.74 323.74 L 295.46 295.46 A 135 135 0 0 0 335.00 200.00 Z" fill="#FAFAF5" stroke="#2a2a3a" stroke-width="1.5" stroke-linejoin="round"/>
<path d="M 323.74 323.74 A 175 175 0 0 1 200.00 375.00 L 200.00 335.00 A 135 135 0 0 0 295.46 295.46 Z" fill="#FAFAF5" stroke="#2a2a3a" stroke-width="1.5" stroke-linejoin="round"/>
<path d="M 200.00 375.00 A 175 175 0 0 1 76.26 323.74 L 104.54 295.46 A 135 135 0 0 0 200.00 335.00 Z" fill="#FAFAF5" stroke="#2a2a3a" stroke-width="1.5" stroke-linejoin="round"/>
<path d="M 76.26 323.74 A 175 175 0 0 1 25.00 200.00 L 65.00 200.00 A 135 135 0 0 0 104.54 295.46 Z" fill="#FAFAF5" stroke="#2a2a3a" stroke-width="1.5" stroke-linejoin="round"/>
<path d="M 25.00 200.00 A 175 175 0 0 1 76.26 76.26 L 104.54 104.54 A 135 135 0 0 0 65.00 200.00 Z" fill="#FAFAF5" stroke="#2a2a3a" stroke-width="1.5" stroke-linejoin="round"/>
<path d="M 76.26 76.26 A 175 175 0 0 1 200.00 25.00 L 200.00 65.00 A 135 135 0 0 0 104.54 104.54 Z" fill="#FAFAF5" stroke="#2a2a3a" stroke-width="1.5" stroke-linejoin="round"/>
<path d="M 200.00 5.00 A 195 195 0 0 1 274.62 19.84 L 266.97 38.32 A 175 175 0 0 0 200.00 25.00 Z" fill="#FAFAF5" stroke="#2a2a3a" stroke-width="1.5" stroke-linejoin="round"/>
<path d="M 274.62 19.84 A 195 195 0 0 1 337.89 62.11 L 323.74 76.26 A 175 175 0 0 0 266.97 38.32 Z" fill="#FAFAF5" stroke="#2a2a3a" stroke-width="1.5" stroke-linejoin="round"/>
<path d="M 337.89 62.11 A 195 195 0 0 1 380.16 125.38 L 361.68 133.03 A 175 175 0 0 0 323.74 76.26 Z" fill="#FAFAF5" stroke="#2a2a3a" stroke-width="1.5" stroke-linejoin="round"/>
<path d="M 380.16 125.38 A 195 195 0 0 1 395.00 200.00 L 375.00 200.00 A 175 175 0 0 0 361.68 133.03 Z" fill="#FAFAF5" stroke="#2a2a3a" stroke-width="1.5" stroke-linejoin="round"/>
<path d="M 395.00 200.00 A 195 195 0 0 1 380.16 274.62 L 361.68 266.97 A 175 175 0 0 0 375.00 200.00 Z" fill="#FAFAF5" stroke="#2a2a3a" stroke-width="1.5" stroke-linejoin="round"/>
<path d="M 380.16 274.62 A 195 195 0 0 1 337.89 337.89 L 323.74 323.74 A 175 175 0 0 0 361.68 266.97 Z" fill="#FAFAF5" stroke="#2a2a3a" stroke-width="1.5" stroke-linejoin="round"/>
<path d="M 337.89 337.89 A 195 195 0 0 1 274.62 380.16 L 266.97 361.68 A 175 175 0 0 0 323.74 323.74 Z" fill="#FAFAF5" stroke="#2a2a3a" stroke-width="1.5" stroke-linejoin="round"/>
<path d="M 274.62 380.16 A 195 195 0 0 1 200.00 395.00 L 200.00 375.00 A 175 175 0 0 0 266.97 361.68 Z" fill="#FAFAF5" stroke="#2a2a3a" stroke-width="1.5" stroke-linejoin="round"/>
<path d="M 200.00 395.00 A 195 195 0 0 1 125.38 380.16 L 133.03 361.68 A 175 175 0 0 0 200.00 375.00 Z" fill="#FAFAF5" stroke="#2a2a3a" stroke-width="1.5" stroke-linejoin="round"/>
<path d="M 125.38 380.16 A 195 195 0 0 1 62.11 337.89 L 76.26 323.74 A 175 175 0 0 0 133.03 361.68 Z" fill="#FAFAF5" stroke="#2a2a3a" stroke-width="1.5" stroke-linejoin="round"/>
<path d="M 62.11 337.89 A 195 195 0 0 1 19.84 274.62 L 38.32 266.97 A 175 175 0 0 0 76.26 323.74 Z" fill="#FAFAF5" stroke="#2a2a3a" stroke-width="1.5" stroke-linejoin="round"/>
<path d="M 19.84 274.62 A 195 195 0 0 1 5.00 200.00 L 25.00 200.00 A 175 175 0 0 0 38.32 266.97 Z" fill="#FAFAF5" stroke="#2a2a3a" stroke-width="1.5" stroke-linejoin="round"/>
<path d="M 5.00 200.00 A 195 195 0 0 1 19.84 125.38 L 38.32 133.03 A 175 175 0 0 0 25.00 200.00 Z" fill="#FAFAF5" stroke="#2a2a3a" stroke-width="1.5" stroke-linejoin="round"/>
<path d="M 19.84 125.38 A 195 195 0 0 1 62.11 62.11 L 76.26 76.26 A 175 175 0 0 0 38.32 133.03 Z" fill="#FAFAF5" stroke="#2a2a3a" stroke-width="1.5" stroke-linejoin="round"/>
<path d="M 62.11 62.11 A 195 195 0 0 1 125.38 19.84 L 133.03 38.32 A 175 175 0 0 0 76.26 76.26 Z" fill="#FAFAF5" stroke="#2a2a3a" stroke-width="1.5" stroke-linejoin="round"/>
<path d="M 125.38 19.84 A 195 195 0 0 1 200.00 5.00 L 200.00 25.00 A 175 175 0 0 0 133.03 38.32 Z" fill="#FAFAF5" stroke="#2a2a3a" stroke-width="1.5" stroke-linejoin="round"/>
</svg>