<?xml version="1.0" encoding="UTF-8"?>
<svg xmlns="http://www.w3.org/2000/svg" viewBox="0 0 400 400" width="400" height="400">
<rect width="400" height="400" fill="#FAFAF5"/>
<circle cx="200" cy="200" r="22" fill="#FAFAF5" stroke="#2a2a3a" stroke-width="1.5" stroke-linejoin="round"/>
<path d="M 200.00 140.00 A 60 60 0 0 1 242.43 157.57 L 215.56 184.44 A 22 22 0 0 0 200.00 178.00 Z" fill="#FAFAF5" stroke="#2a2a3a" stroke-width="1.5" stroke-linejoin="round"/>
<path d="M 242.43 157.57 A 60 60 0 0 1 260.00 200.00 L 222.00 200.00 A 22 22 0 0 0 215.56 184.44 Z" fill="#FAFAF5" stroke="#2a2a3a" stroke-width="1.5" stroke-linejoin="round"/>
<path d="M 260.00 200.00 A 60 60 0 0 1 242.43 242.43 L 215.56 215.56 A 22 22 0 0 0 222.00 200.00 Z" fill="#FAFAF5" stroke="#2a2a3a" stroke-width="1.5" stroke-linejoin="round"/>
<path d="M 242.43 242.43 A 60 60 0 0 1 200.00 260.00 L 200.00 222.00 A 22 22 0 0 0 215.56 215.56 Z" fill="#FAFAF5" stroke="#2a2a3a" stroke-width="1.5" stroke-linejoin="round"/>
<path d="M 200.00 260.00 A 60 60 0 0 1 157.57 242.43 L 184.44 215.56 A 22 22 0 0 0 200.00 222.00 Z" fill="#FAFAF5" stroke="#2a2a3a" stroke-width="1.5" stroke-linejoin="round"/>
<path d="M 157.57 242.43 A 60 60 0 0 1 140.00 200.00 L 178.00 200.00 A 22 22 0 0 0 184.44 215.56 Z" fill="#FAFAF5" stroke="#2a2a3a" stroke-width="1.5" stroke-linejoin="round"/>
<path d="M 140.00 200.00 A 60 60 0 0 1 157.57 157.57 L 184.44 184.44 A 22 22 0 0 0 178.00 200.00 Z" fill="#FAFAF5" stroke="#2a2a3a" stroke-width="1.5" stroke-linejoin="round"/>
<path d="M 157.57 157.57 A 60 60 0 0 1 200.00 140.00 L 200.00 178.00 A 22 22 0 0 0 184.44 184.44 Z" fill="#FAFAF5" stroke="#2a2a3a" stroke-width="1.5" stroke-linejoin="round"/>
<path d="M 200.00 100.00 A 100 100 0 0 1 238.27 107.61 L 222.96 144.57 A 60 60 0 0 0 200.00 140.00 Z" fill="#FAFAF5" stroke="#2a2a3a" stroke-width="1.5" stroke-linejoin="round"/>
<path d="M 238.27 107.61 A 100 100 0 0 1 270.71 129.29 L 242.43 157.57 A 60 60 0 0 0 222.96 144.57 Z" fill="#FAFAF5" stroke="#2a2a3a" stroke-width="1.5" stroke-linejoin="round"/>
<path d="M 270.71 129.29 A 100 100 0 0 1 292.39 161.73 L 255.43 177.04 A 60 60 0 0 0 242.43 157.57 Z" fill="#FAFAF5" stroke="#2a2a3a" stroke-width="1.5" stroke-linejoin="round"/>
<path d="M 292.39 161.73 A 100 100 0 0 1 300.00 200.00 L 260.00 200.00 A 60 60 0 0 0 255.43 177.04 Z" fill="#FAFAF5" stroke="#2a2a3a" stroke-width="1.5" stroke-linejoin="round"/>
<path d="M 300.00 200.00 A 100 100 0 0 1 292.39 238.27 L 255.43 222.96 A 60 60 0 0 0 260.00 200.00 Z" fill="#FAFAF5" stroke="#2a2a3a" stroke-width="1.5" stroke-linejoin="round"/>
<path d="M 292.39 238.27 A 100 100 0 0 1 270.71 270.71 L 242.43 242.43 A 60 60 0 0 0 255.43 222.96 Z" fill="#FAFAF5" stroke="#2a2a3a" stroke-width="1.5" stroke-linejoin="round"/>
<path d="M 270.71 270.71 A 100 100 0 0 1 238.27 292.39 L 222.96 255.43 A 60 60 0 0 0 242.43 242.43 Z" fill="#FAFAF5" stroke="#2a2a3a" stroke-width="1.5" stroke-linejoin="round"/>
<path d="M 238.27 292.39 A 100 100 0 0 1 200.00 300.00 L 200.00 260.00 A 60 60 0 0 0 222.96 255.43 Z" fill="#FAFAF5" stroke="#2a2a3a" stroke-width="1.5" stroke-linejoin="round"/>
<path d="M 200.00 300.00 A 100 100 0 0 1 161.73 292.39 L 177.04 255.43 A 60 60 0 0 0 200.00 260.00 Z" fill="#FAFAF5" stroke="#2a2a3a" stroke-width="1.5" stroke-linejoin="round"/>
<path d="M 161.73 292.39 A 100 100 0 0 1 129.29 270.71 L 157.57 242.43 A 60 60 0 0 0 177.04 255.43 Z" fill="#FAFAF5" stroke="#2a2a3a" stroke-width="1.5" stroke-linejoin="round"/>
<path d="M 129.29 270.71 A 100 100 0 0 1 107.61 238.27 L 144.57 222.96 A 60 60 0 0 0 157.57 242.43 Z" fill="#FAFAF5" stroke="#2a2a3a" stroke-width="1.5" stroke-linejoin="round"/>
<path d="M 107.61 238.27 A 100 100 0 0 1 100.00 200.00 L 140.00 200.00 A 60 60 0 0 0 144.57 222.96 Z" fill="#FAFAF5" stroke="#2a2a3a" stroke-width="1.5" stroke-linejoin="round"/>
<path d="M 100.00 200.00 A 100 100 0 0 1 107.61 161.73 L 144.57 177.04 A 60 60 0 0 0 140.00 200.00 Z" fill="#FAFAF5" stroke="#2a2a3a" stroke-width="1.5" stroke-linejoin="round"/>
<path d="M 107.61 161.73 A 100 100 0 0 1 129.29 129.29 L 157.57 157.57 A 60 60 0 0 0 144.57 177.04 Z" fill="#FAFAF5" stroke="#2a2a3a" stroke-width="1.5" stroke-linejoin="round"/>
<path d="M 129.29 129.29 A 100 100 0 0 1 161.73 107.61 L 177.04 144.57 A 60 60 0 0 0 157.57 157.57 Z" fill="#FAFAF5" stroke="#2a2a3a" stroke-width="1.5" stroke-linejoin="round"/>
<path d="M 161.73 107.61 A 100 100 0 0 1 200.00 100.00 L 200.00 140.00 A 60 60 0 0 0 177.04 144.57 Z" fill="#FAFAF5" stroke="#2a2a3a" stroke-width="1.5" stroke-linejoin="round"/>
<path d="M 200.00 60.00 A 140 140 0 0 1 298.99 101.01 L 270.71 129.29 A 100 100 0 0 0 200.00 100.00 Z" fill="#FAFAF5" stroke="#2a2a3a" stroke-width="1.5" stroke-linejoin="round"/>
<path d="M 298.99 101.01 A 140 140 0 0 1 340.00 200.00 L 300.00 200.00 A 100 100 0 0 0 270.71 129.29 Z" fill="#FAFAF5" stroke="#2a2a3a" stroke-width="1.5" stroke-linejoin="round"/>
<path d="M 340.00 200.00 A 140 140 0 0 1 298.99 298.99 L 270.71 270.71 A 100 100 0 0 0 300.00 200.00 Z" fill="#FAFAF5" stroke="#2a2a3a" stroke-width="1.5" stroke-linejoin="round"/>
<path d="M 298.99 298.99 A 140 140 0 0 1 200.00 340.00 L 200.00 300.00 A 100 100 0 0 0 270.71 270.71 Z" fill="#FAFAF5" stroke="#2a2a3a" stroke-width="1.5" stroke-linejoin="round"/>
<path d="M 200.00 340.00 A 140 140 0 0 1 101.01 298.99 L 129.29 270.71 A 100 100 0 0 0 200.00 300.00 Z" fill="#FAFAF5" stroke="#2a2a3a" stroke-width="1.5" stroke-linejoin="round"/>
<path d="M 101.01 298.99 A 140 140 0 0 1 60.00 200.00 L 100.00 200.00 A 100 100 0 0 0 129.29 270.71 Z" fill="#FAFAF5" stroke="#2a2a3a" stroke-width="1.5" stroke-linejoin="round"/>
<path d="M 60.00 200.00 A 140 140 0 0 1 101.01 101.01 L 129.29 129.29 A 100 100 0 0 0 100.00 200.00 Z" fill="#FAFAF5" stroke="#2a2a3a" stroke-width="1.5" stroke-linejoin="round"/>
<path d="M 101.01 101.01 A 140 140 0 0 1 200.00 60.00 L 200.00 100.00 A 100 100 0 0 0 129.29 129.29 Z" fill="#FAFAF5" stroke="#2a2a3a" stroke-width="1.5" stroke-linejoin="round"/>
<path d="M 200.00 25.00 A 175 175 0 0 1 245.29 30.96 L 236.23 64.77 A 140 140 0 0 0 200.00 60.00 Z" fill="#FAFAF5" stroke="#2a2a3a" stroke-width="1.5" stroke-linejoin="round"/>
<path d="M 245.29 30.96 A 175 175 0 0 1 287.50 48.45 L 270.00 78.76 A 140 140 0 0 0 236.23 64.77 Z" fill="#FAFAF5" stroke="#2a2a3a" stroke-width="1.5" stroke-linejoin="round"/>
<path d="M 287.50 48.45 A 175 175 0 0 1 323.74 76.26 L 298.99 101.01 A 140 140 0 0 0 270.00 78.76 Z" fill="#FAFAF5" stroke="#2a2a3a" stroke-width="1.5" stroke-linejoin="round"/>
<path d="M 323.74 76.26 A 175 175 0 0 1 351.55 112.50 L 321.24 130.00 A 140 140 0 0 0 298.99 101.01 Z" fill="#FAFAF5" stroke="#2a2a3a" stroke-width="1.5" stroke-linejoin="round"/>
<path d="M 351.55 112.50 A 175 175 0 0 1 369.04 154.71 L 335.23 163.77 A 140 140 0 0 0 321.24 130.00 Z" fill="#FAFAF5" stroke="#2a2a3a" stroke-width="1.5" stroke-linejoin="round"/>
<path d="M 369.04 154.71 A 175 175 0 0 1 375.00 200.00 L 340.00 200.00 A 140 140 0 0 0 335.23 163.77 Z" fill="#FAFAF5" stroke="#2a2a3a" stroke-width="1.5" stroke-linejoin="round"/>
<path d="M 375.00 200.00 A 175 175 0 0 1 369.04 245.29 L 335.23 236.23 A 140 140 0 0 0 340.00 200.00 Z" fill="#FAFAF5" stroke="#2a2a3a" stroke-width="1.5" stroke-linejoin="round"/>
<path d="M 369.04 245.29 A 175 175 0 0 1 351.55 287.50 L 321.24 270.00 A 140 140 0 0 0 335.23 236.23 Z" fill="#FAFAF5" stroke="#2a2a3a" stroke-width="1.5" stroke-linejoin="round"/>
<path d="M 351.55 287.50 A 175 175 0 0 1 323.74 323.74 L 298.99 298.99 A 140 140 0 0 0 321.24 270.00 Z" fill="#FAFAF5" stroke="#2a2a3a" stroke-width="1.5" stroke-linejoin="round"/>
<path d="M 323.74 323.74 A 175 175 0 0 1 287.50 351.55 L 270.00 321.24 A 140 140 0 0 0 298.99 298.99 Z" fill="#FAFAF5" stroke="#2a2a3a" stroke-width="1.5" stroke-linejoin="round"/>
<path d="M 287.50 351.55 A 175 175 0 0 1 245.29 369.04 L 236.23 335.23 A 140 140 0 0 0 270.00 321.24 Z" fill="#FAFAF5" stroke="#2a2a3a" stroke-width="1.5" stroke-linejoin="round"/>
<path d="M 245.29 369.04 A 175 175 0 0 1 200.00 375.00 L 200.00 340.00 A 140 140 0 0 0 236.23 335.23 Z" fill="#FAFAF5" stroke="#2a2a3a" stroke-width="1.5" stroke-linejoin="round"/>
<path d="M 200.00 375.00 A 175 175 0 0 1 154.71 369.04 L 163.77 335.23 A 140 140 0 0 0 200.00 340.00 Z" fill="#FAFAF5" stroke="#2a2a3a" stroke-width="1.5" stroke-linejoin="round"/>
<path d="M 154.71 369.04 A 175 175 0 0 1 112.50 351.55 L 130.00 321.24 A 140 140 0 0 0 163.77 335.23 Z" fill="#FAFAF5" stroke="#2a2a3a" stroke-width="1.5" stroke-linejoin="round"/>
<path d="M 112.50 351.55 A 175 175 0 0 1 76.26 323.74 L 101.01 298.99 A 140 140 0 0 0 130.00 321.24 Z" fill="#FAFAF5" stroke="#2a2a3a" stroke-width="1.5" stroke-linejoin="round"/>
<path d="M 76.26 323.74 A 175 175 0 0 1 48.45 287.50 L 78.76 270.00 A 140 140 0 0 0 101.01 298.99 Z" fill="#FAFAF5" stroke="#2a2a3a" stroke-width="1.5" stroke-linejoin="round"/>
<path d="M 48.45 287.50 A 175 175 0 0 1 30.96 245.29 L 64.77 236.23 A 140 140 0 0 0 78.76 270.00 Z" fill="#FAFAF5" stroke="#2a2a3a" stroke-width="1.5" stroke-linejoin="round"/>
<path d="M 30.96 245.29 A 175 175 0 0 1 25.00 200.00 L 60.00 200.00 A 140 140 0 0 0 64.77 236.23 Z" fill="#FAFAF5" stroke="#2a2a3a" stroke-width="1.5" stroke-linejoin="round"/>
<path d="M 25.00 200.00 A 175 175 0 0 1 30.96 154.71 L 64.77 163.77 A 140 140 0 0 0 60.00 200.00 Z" fill="#FAFAF5" stroke="#2a2a3a" stroke-width="1.5" stroke-linejoin="round"/>
<path d="M 30.96 154.71 A 175 175 0 0 1 48.45 112.50 L 78.76 130.00 A 140 140 0 0 0 64.77 163.77 Z" fill="#FAFAF5" stroke="#2a2a3a" stroke-width="1.5" stroke-linejoin="round"/>
<path d="M 48.45 112.50 A 175 175 0 0 1 76.26 76.26 L 101.01 101.01 A 140 140 0 0 0 78.76 130.00 Z" fill="#FAFAF5" stroke="#2a2a3a" stroke-width="1.5" stroke-linejoin="round"/>
<path d="M 76.26 76.26 A 175 175 0 0 1 112.50 48.45 L 130.00 78.76 A 140 140 0 0 0 101.01 101.01 Z" fill="#FAFAF5" stroke="#2a2a3a" stroke-width="1.5" stroke-linejoin="round"/>
<path d="M 112.50 48.45 A 175 175 0 0 1 154.71 30.96 L 163.77 64.77 A 140 140 0 0 0 130.00 78.76 Z" fill="#FAFAF5" stroke="#2a2a3a" stroke-width="1.5" stroke-linejoin="round"/>
<path d="M 154.71 30.96 A 175 175 0 0 1 200.00 25.00 L 200.00 60.00 A 140 140 0 0 0 163.77 64.77 Z" fill="#FAFAF5" stroke="#2a2a3a" stroke-width="1.5" stroke-linejoin="round"/>
<path d="M 200.00 5.00 A 195 195 0 0 1 337.89 62.11 L 323.74 76.26 A 175 175 0 0 0 200.00 25.00 Z" fill="#FAFAF5" stroke="#2a2a3a" stroke-width="1.5" stroke-linejoin="round"/>
<path d="M 337.89 62.11 A 195 195 0 0 1 395.00 200.00 L 375.00 200.00 A 175 175 0 0 0 323.74 76.26 Z" fill="#FAFAF5" stroke="#2a2a3a" stroke-width="1.5" stroke-linejoin="round"/>
<path d="M 395.00 200.00 A 195 195 0 0 1 337.89 337.89 L 323.74 323.74 A 175 175 0 0 0 375.00 200.00 Z" fill="#FAFAF5" stroke="#2a2a3a" stroke-width="1.5" stroke-linejoin="round"/>
<path d="M 337.89 337.89 A 195 195 0 0 1 200.00 395.00 L 200.00 375.00 A 175 175 0 0 0 323.74 323.74 Z" fill="#FAFAF5" stroke="#2a2a3a" stroke-width="1.5" stroke-linejoin="round"/>
<path d="M 200.00 395.00 A 195 195 0 0 1 62.11 337.89 L 76.26 323.74 A 175 175 0 0 0 200.00 375.00 Z" fill="#FAFAF5" stroke="#2a2a3a" stroke-width="1.5" stroke-linejoin="round"/>
<path d="M 62.11 337.89 A 195 195 0 0 1 5.00 200.00 L 25.00 200.00 A 175 175 0 0 0 76.26 323.74 Z" fill="#FAFAF5" stroke="#2a2a3a" stroke-width="1.5" stroke-linejoin="round"/>
<path d="M 5.00 200.00 A 195 195 0 0 1 62.11 62.11 L 76.26 76.26 A 175 175 0 0 0 25.00 200.00 Z" fill="#FAFAF5" stroke="#2a2a3a" stroke-width="1.5" stroke-linejoin="round"/>
<path d="M 62.11 62.11 A 195 195 0 0 1 200.00 5.00 L 200.00 25.00 A 175 175 0 0 0 76.26 76.26 Z" fill="#FAFAF5" stroke="#2a2a3a" stroke-width="1.5" stroke-linejoin="round"/>
</svg>