<?xml version="1.0" encoding="UTF-8"?>
<svg xmlns="http://www.w3.org/2000/svg" viewBox="0 0 400 400" width="400" height="400">
<rect width="400" height="400" fill="#FAFAF5"/>
<circle cx="200" cy="200" r="22" fill="#FAFAF5" stroke="#2a2a3a" stroke-width="1.5" stroke-linejoin="round"/>
<path d="M 200.00 142.00 A 58 58 0 0 1 234.09 153.08 L 212.93 182.20 A 22 22 0 0 0 200.00 178.00 Z" fill="#FAFAF5" stroke="#2a2a3a" stroke-width="1.5" stroke-linejoin="round"/>
<path d="M 234.09 153.08 A 58 58 0 0 1 255.16 182.08 L 220.92 193.20 A 22 22 0 0 0 212.93 182.20 Z" fill="#FAFAF5" stroke="#2a2a3a" stroke-width="1.5" stroke-linejoin="round"/>
<path d="M 255.16 182.08 A 58 58 0 0 1 255.16 217.92 L 220.92 206.80 A 22 22 0 0 0 220.92 193.20 Z" fill="#FAFAF5" stroke="#2a2a3a" stroke-width="1.5" stroke-linejoin="round"/>
<path d="M 255.16 217.92 A 58 58 0 0 1 234.09 246.92 L 212.93 217.80 A 22 22 0 0 0 220.92 206.80 Z" fill="#FAFAF5" stroke="#2a2a3a" stroke-width="1.5" stroke-linejoin="round"/>
<path d="M 234.09 246.92 A 58 58 0 0 1 200.00 258.00 L 200.00 222.00 A 22 22 0 0 0 212.93 217.80 Z" fill="#FAFAF5" stroke="#2a2a3a" stroke-width="1.5" stroke-linejoin="round"/>
<path d="M 200.00 258.00 A 58 58 0 0 1 165.91 246.92 L 187.07 217.80 A 22 22 0 0 0 200.00 222.00 Z" fill="#FAFAF5" stroke="#2a2a3a" stroke-width="1.5" stroke-linejoin="round"/>
<path d="M 165.91 246.92 A 58 58 0 0 1 144.84 217.92 L 179.08 206.80 A 22 22 0 0 0 187.07 217.80 Z" fill="#FAFAF5" stroke="#2a2a3a" stroke-width="1.5" stroke-linejoin="round"/>
<path d="M 144.84 217.92 A 58 58 0 0 1 144.84 182.08 L 179.08 193.20 A 22 22 0 0 0 179.08 206.80 Z" fill="#FAFAF5" stroke="#2a2a3a" stroke-width="1.5" stroke-linejoin="round"/>
<path d="M 144.84 182.08 A 58 58 0 0 1 165.91 153.08 L 187.07 182.20 A 22 22 0 0 0 179.08 193.20 Z" fill="#FAFAF5" stroke="#2a2a3a" stroke-width="1.5" stroke-linejoin="round"/>
<path d="M 165.91 153.08 A 58 58 0 0 1 200.00 142.00 L 200.00 178.00 A 22 22 0 0 0 187.07 182.20 Z" fill="#FAFAF5" stroke="#2a2a3a" stroke-width="1.5" stroke-linejoin="round"/>
<path d="M 200.00 102.00 A 98 98 0 0 1 230.28 106.80 L 217.92 144.84 A 58 58 0 0 0 200.00 142.00 Z" fill="#FAFAF5" stroke="#2a2a3a" stroke-width="1.5" stroke-linejoin="round"/>
<path d="M 230.28 106.80 A 98 98 0 0 1 257.60 120.72 L 234.09 153.08 A 58 58 0 0 0 217.92 144.84 Z" fill="#FAFAF5" stroke="#2a2a3a" stroke-width="1.5" stroke-linejoin="round"/>
<path d="M 257.60 120.72 A 98 98 0 0 1 279.28 142.40 L 246.92 165.91 A 58 58 0 0 0 234.09 153.08 Z" fill="#FAFAF5" stroke="#2a2a3a" stroke-width="1.5" stroke-linejoin="round"/>
<path d="M 279.28 142.40 A 98 98 0 0 1 293.20 169.72 L 255.16 182.08 A 58 58 0 0 0 246.92 165.91 Z" fill="#FAFAF5" stroke="#2a2a3a" stroke-width="1.5" stroke-linejoin="round"/>
<path d="M 293.20 169.72 A 98 98 0 0 1 298.00 200.00 L 258.00 200.00 A 58 58 0 0 0 255.16 182.08 Z" fill="#FAFAF5" stroke="#2a2a3a" stroke-width="1.5" stroke-linejoin="round"/>
<path d="M 298.00 200.00 A 98 98 0 0 1 293.20 230.28 L 255.16 217.92 A 58 58 0 0 0 258.00 200.00 Z" fill="#FAFAF5" stroke="#2a2a3a" stroke-width="1.5" stroke-linejoin="round"/>
<path d="M 293.20 230.28 A 98 98 0 0 1 279.28 257.60 L 246.92 234.09 A 58 58 0 0 0 255.16 217.92 Z" fill="#FAFAF5" stroke="#2a2a3a" stroke-width="1.5" stroke-linejoin="round"/>
<path d="M 279.28 257.60 A 98 98 0 0 1 257.60 279.28 L 234.09 246.92 A 58 58 0 0 0 246.92 234.09 Z" fill="#FAFAF5" stroke="#2a2a3a" stroke-width="1.5" stroke-linejoin="round"/>
<path d="M 257.60 279.28 A 98 98 0 0 1 230.28 293.20 L 217.92 255.16 A 58 58 0 0 0 234.09 246.92 Z" fill="#FAFAF5" stroke="#2a2a3a" stroke-width="1.5" stroke-linejoin="round"/>
<path d="M 230.28 293.20 A 98 98 0 0 1 200.00 298.00 L 200.00 258.00 A 58 58 0 0 0 217.92 255.16 Z" fill="#FAFAF5" stroke="#2a2a3a" stroke-width="1.5" stroke-linejoin="round"/>
<path d="M 200.00 298.00 A 98 98 0 0 1 169.72 293.20 L 182.08 255.16 A 58 58 0 0 0 200.00 258.00 Z" fill="#FAFAF5" stroke="#2a2a3a" stroke-width="1.5" stroke-linejoin="round"/>
<path d="M 169.72 293.20 A 98 98 0 0 1 142.40 279.28 L 165.91 246.92 A 58 58 0 0 0 182.08 255.16 Z" fill="#FAFAF5" stroke="#2a2a3a" stroke-width="1.5" stroke-linejoin="round"/>
<path d="M 142.40 279.28 A 98 98 0 0 1 120.72 257.60 L 153.08 234.09 A 58 58 0 0 0 165.91 246.92 Z" fill="#FAFAF5" stroke="#2a2a3a" stroke-width="1.5" stroke-linejoin="round"/>
<path d="M 120.72 257.60 A 98 98 0 0 1 106.80 230.28 L 144.84 217.92 A 58 58 0 0 0 153.08 234.09 Z" fill="#FAFAF5" stroke="#2a2a3a" stroke-width="1.5" stroke-linejoin="round"/>
<path d="M 106.80 230.28 A 98 98 0 0 1 102.00 200.00 L 142.00 200.00 A 58 58 0 0 0 144.84 217.92 Z" fill="#FAFAF5" stroke="#2a2a3a" stroke-width="1.5" stroke-linejoin="round"/>
<path d="M 102.00 200.00 A 98 98 0 0 1 106.80 169.72 L 144.84 182.08 A 58 58 0 0 0 142.00 200.00 Z" fill="#FAFAF5" stroke="#2a2a3a" stroke-width="1.5" stroke-linejoin="round"/>
<path d="M 106.80 169.72 A 98 98 0 0 1 120.72 142.40 L 153.08 165.91 A 58 58 0 0 0 144.84 182.08 Z" fill="#FAFAF5" stroke="#2a2a3a" stroke-width="1.5" stroke-linejoin="round"/>
<path d="M 120.72 142.40 A 98 98 0 0 1 142.40 120.72 L 165.91 153.08 A 58 58 0 0 0 153.08 165.91 Z" fill="#FAFAF5" stroke="#2a2a3a" stroke-width="1.5" stroke-linejoin="round"/>
<path d="M 142.40 120.72 A 98 98 0 0 1 169.72 106.80 L 182.08 144.84 A 58 58 0 0 0 165.91 153.08 Z" fill="#FAFAF5" stroke="#2a2a3a" stroke-width="1.5" stroke-linejoin="round"/>
<path d="M 169.72 106.80 A 98 98 0 0 1 200.00 102.00 L 200.00 142.00 A 58 58 0 0 0 182.08 144.84 Z" fill="#FAFAF5" stroke="#2a2a3a" stroke-width="1.5" stroke-linejoin="round"/>
<path d="M 200.00 62.00 A 138 138 0 0 1 281.11 88.36 L 257.60 120.72 A 98 98 0 0 0 200.00 102.00 Z" fill="#FAFAF5" stroke="#2a2a3a" stroke-width="1.5" stroke-linejoin="round"/>
<path d="M 281.11 88.36 A 138 138 0 0 1 331.25 157.36 L 293.20 169.72 A 98 98 0 0 0 257.60 120.72 Z" fill="#FAFAF5" stroke="#2a2a3a" stroke-width="1.5" stroke-linejoin="round"/>
<path d="M 331.25 157.36 A 138 138 0 0 1 331.25 242.64 L 293.20 230.28 A 98 98 0 0 0 293.20 169.72 Z" fill="#FAFAF5" stroke="#2a2a3a" stroke-width="1.5" stroke-linejoin="round"/>
<path d="M 331.25 242.64 A 138 138 0 0 1 281.11 311.64 L 257.60 279.28 A 98 98 0 0 0 293.20 230.28 Z" fill="#FAFAF5" stroke="#2a2a3a" stroke-width="1.5" stroke-linejoin="round"/>
<path d="M 281.11 311.64 A 138 138 0 0 1 200.00 338.00 L 200.00 298.00 A 98 98 0 0 0 257.60 279.28 Z" fill="#FAFAF5" stroke="#2a2a3a" stroke-width="1.5" stroke-linejoin="round"/>
<path d="M 200.00 338.00 A 138 138 0 0 1 118.89 311.64 L 142.40 279.28 A 98 98 0 0 0 200.00 298.00 Z" fill="#FAFAF5" stroke="#2a2a3a" stroke-width="1.5" stroke-linejoin="round"/>
<path d="M 118.89 311.64 A 138 138 0 0 1 68.75 242.64 L 106.80 230.28 A 98 98 0 0 0 142.40 279.28 Z" fill="#FAFAF5" stroke="#2a2a3a" stroke-width="1.5" stroke-linejoin="round"/>
<path d="M 68.75 242.64 A 138 138 0 0 1 68.75 157.36 L 106.80 169.72 A 98 98 0 0 0 106.80 230.28 Z" fill="#FAFAF5" stroke="#2a2a3a" stroke-width="1.5" stroke-linejoin="round"/>
<path d="M 68.75 157.36 A 138 138 0 0 1 118.89 88.36 L 142.40 120.72 A 98 98 0 0 0 106.80 169.72 Z" fill="#FAFAF5" stroke="#2a2a3a" stroke-width="1.5" stroke-linejoin="round"/>
<path d="M 118.89 88.36 A 138 138 0 0 1 200.00 62.00 L 200.00 102.00 A 98 98 0 0 0 142.40 120.72 Z" fill="#FAFAF5" stroke="#2a2a3a" stroke-width="1.5" stroke-linejoin="round"/>
<path d="M 200.00 28.00 A 172 172 0 0 1 253.15 36.42 L 242.64 68.75 A 138 138 0 0 0 200.00 62.00 Z" fill="#FAFAF5" stroke="#2a2a3a" stroke-width="1.5" stroke-linejoin="round"/>
<path d="M 253.15 36.42 A 172 172 0 0 1 301.10 60.85 L 281.11 88.36 A 138 138 0 0 0 242.64 68.75 Z" fill="#FAFAF5" stroke="#2a2a3a" stroke-width="1.5" stroke-linejoin="round"/>
<path d="M 301.10 60.85 A 172 172 0 0 1 339.15 98.90 L 311.64 118.89 A 138 138 0 0 0 281.11 88.36 Z" fill="#FAFAF5" stroke="#2a2a3a" stroke-width="1.5" stroke-linejoin="round"/>
<path d="M 339.15 98.90 A 172 172 0 0 1 363.58 146.85 L 331.25 157.36 A 138 138 0 0 0 311.64 118.89 Z" fill="#FAFAF5" stroke="#2a2a3a" stroke-width="1.5" stroke-linejoin="round"/>
<path d="M 363.58 146.85 A 172 172 0 0 1 372.00 200.00 L 338.00 200.00 A 138 138 0 0 0 331.25 157.36 Z" fill="#FAFAF5" stroke="#2a2a3a" stroke-width="1.5" stroke-linejoin="round"/>
<path d="M 372.00 200.00 A 172 172 0 0 1 363.58 253.15 L 331.25 242.64 A 138 138 0 0 0 338.00 200.00 Z" fill="#FAFAF5" stroke="#2a2a3a" stroke-width="1.5" stroke-linejoin="round"/>
<path d="M 363.58 253.15 A 172 172 0 0 1 339.15 301.10 L 311.64 281.11 A 138 138 0 0 0 331.25 242.64 Z" fill="#FAFAF5" stroke="#2a2a3a" stroke-width="1.5" stroke-linejoin="round"/>
<path d="M 339.15 301.10 A 172 172 0 0 1 301.10 339.15 L 281.11 311.64 A 138 138 0 0 0 311.64 281.11 Z" fill="#FAFAF5" stroke="#2a2a3a" stroke-width="1.5" stroke-linejoin="round"/>
<path d="M 301.10 339.15 A 172 172 0 0 1 253.15 363.58 L 242.64 331.25 A 138 138 0 0 0 281.11 311.64 Z" fill="#FAFAF5" stroke="#2a2a3a" stroke-width="1.5" stroke-linejoin="round"/>
<path d="M 253.15 363.58 A 172 172 0 0 1 200.00 372.00 L 200.00 338.00 A 138 138 0 0 0 242.64 331.25 Z" fill="#FAFAF5" stroke="#2a2a3a" stroke-width="1.5" stroke-linejoin="round"/>
<path d="M 200.00 372.00 A 172 172 0 0 1 146.85 363.58 L 157.36 331.25 A 138 138 0 0 0 200.00 338.00 Z" fill="#FAFAF5" stroke="#2a2a3a" stroke-width="1.5" stroke-linejoin="round"/>
<path d="M 146.85 363.58 A 172 172 0 0 1 98.90 339.15 L 118.89 311.64 A 138 138 0 0 0 157.36 331.25 Z" fill="#FAFAF5" stroke="#2a2a3a" stroke-width="1.5" stroke-linejoin="round"/>
<path d="M 98.90 339.15 A 172 172 0 0 1 60.85 301.10 L 88.36 281.11 A 138 138 0 0 0 118.89 311.64 Z" fill="#FAFAF5" stroke="#2a2a3a" stroke-width="1.5" stroke-linejoin="round"/>
<path d="M 60.85 301.10 A 172 172 0 0 1 36.42 253.15 L 68.75 242.64 A 138 138 0 0 0 88.36 281.11 Z" fill="#FAFAF5" stroke="#2a2a3a" stroke-width="1.5" stroke-linejoin="round"/>
<path d="M 36.42 253.15 A 172 172 0 0 1 28.00 200.00 L 62.00 200.00 A 138 138 0 0 0 68.75 242.64 Z" fill="#FAFAF5" stroke="#2a2a3a" stroke-width="1.5" stroke-linejoin="round"/>
<path d="M 28.00 200.00 A 172 172 0 0 1 36.42 146.85 L 68.75 157.36 A 138 138 0 0 0 62.00 200.00 Z" fill="#FAFAF5" stroke="#2a2a3a" stroke-width="1.5" stroke-linejoin="round"/>
<path d="M 36.42 146.85 A 172 172 0 0 1 60.85 98.90 L 88.36 118.89 A 138 138 0 0 0 68.75 157.36 Z" fill="#FAFAF5" stroke="#2a2a3a" stroke-width="1.5" stroke-linejoin="round"/>
<path d="M 60.85 98.90 A 172 172 0 0 1 98.90 60.85 L 118.89 88.36 A 138 138 0 0 0 88.36 118.89 Z" fill="#FAFAF5" stroke="#2a2a3a" stroke-width="1.5" stroke-linejoin="round"/>
<path d="M 98.90 60.85 A 172 172 0 0 1 146.85 36.42 L 157.36 68.75 A 138 138 0 0 0 118.89 88.36 Z" fill="#FAFAF5" stroke="#2a2a3a" stroke-width="1.5" stroke-linejoin="round"/>
<path d="M 146.85 36.42 A 172 172 0 0 1 200.00 28.00 L 200.00 62.00 A 138 138 0 0 0 157.36 68.75 Z" fill="#FAFAF5" stroke="#2a2a3a" stroke-width="1.5" stroke-linejoin="round"/>
<path d="M 200.00 7.00 A 193 193 0 0 1 230.19 9.38 L 226.91 30.12 A 172 172 0 0 0 200.00 28.00 Z" fill="#FAFAF5" stroke="#2a2a3a" stroke-width="1.5" stroke-linejoin="round"/>
<path d="M 230.19 9.38 A 193 193 0 0 1 259.64 16.45 L 253.15 36.42 A 172 172 0 0 0 226.91 30.12 Z" fill="#FAFAF5" stroke="#2a2a3a" stroke-width="1.5" stroke-linejoin="round"/>
<path d="M 259.64 16.45 A 193 193 0 0 1 287.62 28.04 L 278.09 46.75 A 172 172 0 0 0 253.15 36.42 Z" fill="#FAFAF5" stroke="#2a2a3a" stroke-width="1.5" stroke-linejoin="round"/>
<path d="M 287.62 28.04 A 193 193 0 0 1 313.44 43.86 L 301.10 60.85 A 172 172 0 0 0 278.09 46.75 Z" fill="#FAFAF5" stroke="#2a2a3a" stroke-width="1.5" stroke-linejoin="round"/>
<path d="M 313.44 43.86 A 193 193 0 0 1 336.47 63.53 L 321.62 78.38 A 172 172 0 0 0 301.10 60.85 Z" fill="#FAFAF5" stroke="#2a2a3a" stroke-width="1.5" stroke-linejoin="round"/>
<path d="M 336.47 63.53 A 193 193 0 0 1 356.14 86.56 L 339.15 98.90 A 172 172 0 0 0 321.62 78.38 Z" fill="#FAFAF5" stroke="#2a2a3a" stroke-width="1.5" stroke-linejoin="round"/>
<path d="M 356.14 86.56 A 193 193 0 0 1 371.96 112.38 L 353.25 121.91 A 172 172 0 0 0 339.15 98.90 Z" fill="#FAFAF5" stroke="#2a2a3a" stroke-width="1.5" stroke-linejoin="round"/>
<path d="M 371.96 112.38 A 193 193 0 0 1 383.55 140.36 L 363.58 146.85 A 172 172 0 0 0 353.25 121.91 Z" fill="#FAFAF5" stroke="#2a2a3a" stroke-width="1.5" stroke-linejoin="round"/>
<path d="M 383.55 140.36 A 193 193 0 0 1 390.62 169.81 L 369.88 173.09 A 172 172 0 0 0 363.58 146.85 Z" fill="#FAFAF5" stroke="#2a2a3a" stroke-width="1.5" stroke-linejoin="round"/>
<path d="M 390.62 169.81 A 193 193 0 0 1 393.00 200.00 L 372.00 200.00 A 172 172 0 0 0 369.88 173.09 Z" fill="#FAFAF5" stroke="#2a2a3a" stroke-width="1.5" stroke-linejoin="round"/>
<path d="M 393.00 200.00 A 193 193 0 0 1 390.62 230.19 L 369.88 226.91 A 172 172 0 0 0 372.00 200.00 Z" fill="#FAFAF5" stroke="#2a2a3a" stroke-width="1.5" stroke-linejoin="round"/>
<path d="M 390.62 230.19 A 193 193 0 0 1 383.55 259.64 L 363.58 253.15 A 172 172 0 0 0 369.88 226.91 Z" fill="#FAFAF5" stroke="#2a2a3a" stroke-width="1.5" stroke-linejoin="round"/>
<path d="M 383.55 259.64 A 193 193 0 0 1 371.96 287.62 L 353.25 278.09 A 172 172 0 0 0 363.58 253.15 Z" fill="#FAFAF5" stroke="#2a2a3a" stroke-width="1.5" stroke-linejoin="round"/>
<path d="M 371.96 287.62 A 193 193 0 0 1 356.14 313.44 L 339.15 301.10 A 172 172 0 0 0 353.25 278.09 Z" fill="#FAFAF5" stroke="#2a2a3a" stroke-width="1.5" stroke-linejoin="round"/>
<path d="M 356.14 313.44 A 193 193 0 0 1 336.47 336.47 L 321.62 321.62 A 172 172 0 0 0 339.15 301.10 Z" fill="#FAFAF5" stroke="#2a2a3a" stroke-width="1.5" stroke-linejoin="round"/>
<path d="M 336.47 336.47 A 193 193 0 0 1 313.44 356.14 L 301.10 339.15 A 172 172 0 0 0 321.62 321.62 Z" fill="#FAFAF5" stroke="#2a2a3a" stroke-width="1.5" stroke-linejoin="round"/>
<path d="M 313.44 356.14 A 193 193 0 0 1 287.62 371.96 L 278.09 353.25 A 172 172 0 0 0 301.10 339.15 Z" fill="#FAFAF5" stroke="#2a2a3a" stroke-width="1.5" stroke-linejoin="round"/>
<path d="M 287.62 371.96 A 193 193 0 0 1 259.64 383.55 L 253.15 363.58 A 172 172 0 0 0 278.09 353.25 Z" fill="#FAFAF5" stroke="#2a2a3a" stroke-width="1.5" stroke-linejoin="round"/>
<path d="M 259.64 383.55 A 193 193 0 0 1 230.19 390.62 L 226.91 369.88 A 172 172 0 0 0 253.15 363.58 Z" fill="#FAFAF5" stroke="#2a2a3a" stroke-width="1.5" stroke-linejoin="round"/>
<path d="M 230.19 390.62 A 193 193 0 0 1 200.00 393.00 L 200.00 372.00 A 172 172 0 0 0 226.91 369.88 Z" fill="#FAFAF5" stroke="#2a2a3a" stroke-width="1.5" stroke-linejoin="round"/>
<path d="M 200.00 393.00 A 193 193 0 0 1 169.81 390.62 L 173.09 369.88 A 172 172 0 0 0 200.00 372.00 Z" fill="#FAFAF5" stroke="#2a2a3a" stroke-width="1.5" stroke-linejoin="round"/>
<path d="M 169.81 390.62 A 193 193 0 0 1 140.36 383.55 L 146.85 363.58 A 172 172 0 0 0 173.09 369.88 Z" fill="#FAFAF5" stroke="#2a2a3a" stroke-width="1.5" stroke-linejoin="round"/>
<path d="M 140.36 383.55 A 193 193 0 0 1 112.38 371.96 L 121.91 353.25 A 172 172 0 0 0 146.85 363.58 Z" fill="#FAFAF5" stroke="#2a2a3a" stroke-width="1.5" stroke-linejoin="round"/>
<path d="M 112.38 371.96 A 193 193 0 0 1 86.56 356.14 L 98.90 339.15 A 172 172 0 0 0 121.91 353.25 Z" fill="#FAFAF5" stroke="#2a2a3a" stroke-width="1.5" stroke-linejoin="round"/>
<path d="M 86.56 356.14 A 193 193 0 0 1 63.53 336.47 L 78.38 321.62 A 172 172 0 0 0 98.90 339.15 Z" fill="#FAFAF5" stroke="#2a2a3a" stroke-width="1.5" stroke-linejoin="round"/>
<path d="M 63.53 336.47 A 193 193 0 0 1 43.86 313.44 L 60.85 301.10 A 172 172 0 0 0 78.38 321.62 Z" fill="#FAFAF5" stroke="#2a2a3a" stroke-width="1.5" stroke-linejoin="round"/>
<path d="M 43.86 313.44 A 193 193 0 0 1 28.04 287.62 L 46.75 278.09 A 172 172 0 0 0 60.85 301.10 Z" fill="#FAFAF5" stroke="#2a2a3a" stroke-width="1.5" stroke-linejoin="round"/>
<path d="M 28.04 287.62 A 193 193 0 0 1 16.45 259.64 L 36.42 253.15 A 172 172 0 0 0 46.75 278.09 Z" fill="#FAFAF5" stroke="#2a2a3a" stroke-width="1.5" stroke-linejoin="round"/>
<path d="M 16.45 259.64 A 193 193 0 0 1 9.38 230.19 L 30.12 226.91 A 172 172 0 0 0 36.42 253.15 Z" fill="#FAFAF5" stroke="#2a2a3a" stroke-width="1.5" stroke-linejoin="round"/>
<path d="M 9.38 230.19 A 193 193 0 0 1 7.00 200.00 L 28.00 200.00 A 172 172 0 0 0 30.12 226.91 Z" fill="#FAFAF5" stroke="#2a2a3a" stroke-width="1.5" stroke-linejoin="round"/>
<path d="M 7.00 200.00 A 193 193 0 0 1 9.38 169.81 L 30.12 173.09 A 172 172 0 0 0 28.00 200.00 Z" fill="#FAFAF5" stroke="#2a2a3a" stroke-width="1.5" stroke-linejoin="round"/>
<path d="M 9.38 169.81 A 193 193 0 0 1 16.45 140.36 L 36.42 146.85 A 172 172 0 0 0 30.12 173.09 Z" fill="#FAFAF5" stroke="#2a2a3a" stroke-width="1.5" stroke-linejoin="round"/>
<path d="M 16.45 140.36 A 193 193 0 0 1 28.04 112.38 L 46.75 121.91 A 172 172 0 0 0 36.42 146.85 Z" fill="#FAFAF5" stroke="#2a2a3a" stroke-width="1.5" stroke-linejoin="round"/>
<path d="M 28.04 112.38 A 193 193 0 0 1 43.86 86.56 L 60.85 98.90 A 172 172 0 0 0 46.75 121.91 Z" fill="#FAFAF5" stroke="#2a2a3a" stroke-width="1.5" stroke-linejoin="round"/>
<path d="M 43.86 86.56 A 193 193 0 0 1 63.53 63.53 L 78.38 78.38 A 172 172 0 0 0 60.85 98.90 Z" fill="#FAFAF5" stroke="#2a2a3a" stroke-width="1.5" stroke-linejoin="round"/>
<path d="M 63.53 63.53 A 193 193 0 0 1 86.56 43.86 L 98.90 60.85 A 172 172 0 0 0 78.38 78.38 Z" fill="#FAFAF5" stroke="#2a2a3a" stroke-width="1.5" stroke-linejoin="round"/>
<path d="M 86.56 43.86 A 193 193 0 0 1 112.38 28.04 L 121.91 46.75 A 172 172 0 0 0 98.90 60.85 Z" fill="#FAFAF5" stroke="#2a2a3a" stroke-width="1.5" stroke-linejoin="round"/>
<path d="M 112.38 28.04 A 193 193 0 0 1 140.36 16.45 L 146.85 36.42 A 172 172 0 0 0 121.91 46.75 Z" fill="#FAFAF5" stroke="#2a2a3a" stroke-width="1.5" stroke-linejoin="round"/>
<path d="M 140.36 16.45 A 193 193 0 0 1 169.81 9.38 L 173.09 30.12 A 172 172 0 0 0 146.85 36.42 Z" fill="#FAFAF5" stroke="#2a2a3a" stroke-width="1.5" stroke-linejoin="round"/>
<path d="M 169.81 9.38 A 193 193 0 0 1 200.00 7.00 L 200.00 28.00 A 172 172 0 0 0 173.09 30.12 Z" fill="#FAFAF5" stroke="#2a2a3a" stroke-width="1.5" stroke-linejoin="round"/>
</svg>