<?xml version="1.0" encoding="UTF-8"?>
<svg xmlns="http://www.w3.org/2000/svg" viewBox="0 0 400 400" width="400" height="400">
<rect width="400" height="400" fill="#FAFAF5"/>
<circle cx="200" cy="200" r="18" fill="#FAFAF5" stroke="#2a2a3a" stroke-width="1.5" stroke-linejoin="round"/>
<path d="M 200.00 155.00 A 45 45 0 0 1 231.82 168.18 L 212.73 187.27 A 18 18 0 0 0 200.00 182.00 Z" fill="#FAFAF5" stroke="#2a2a3a" stroke-width="1.5" stroke-linejoin="round"/>
<path d="M 231.82 168.18 A 45 45 0 0 1 245.00 200.00 L 218.00 200.00 A 18 18 0 0 0 212.73 187.27 Z" fill="#FAFAF5" stroke="#2a2a3a" stroke-width="1.5" stroke-linejoin="round"/>
<path d="M 245.00 200.00 A 45 45 0 0 1 231.82 231.82 L 212.73 212.73 A 18 18 0 0 0 218.00 200.00 Z" fill="#FAFAF5" stroke="#2a2a3a" stroke-width="1.5" stroke-linejoin="round"/>
<path d="M 231.82 231.82 A 45 45 0 0 1 200.00 245.00 L 200.00 218.00 A 18 18 0 0 0 212.73 212.73 Z" fill="#FAFAF5" stroke="#2a2a3a" stroke-width="1.5" stroke-linejoin="round"/>
<path d="M 200.00 245.00 A 45 45 0 0 1 168.18 231.82 L 187.27 212.73 A 18 18 0 0 0 200.00 218.00 Z" fill="#FAFAF5" stroke="#2a2a3a" stroke-width="1.5" stroke-linejoin="round"/>
<path d="M 168.18 231.82 A 45 45 0 0 1 155.00 200.00 L 182.00 200.00 A 18 18 0 0 0 187.27 212.73 Z" fill="#FAFAF5" stroke="#2a2a3a" stroke-width="1.5" stroke-linejoin="round"/>
<path d="M 155.00 200.00 A 45 45 0 0 1 168.18 168.18 L 187.27 187.27 A 18 18 0 0 0 182.00 200.00 Z" fill="#FAFAF5" stroke="#2a2a3a" stroke-width="1.5" stroke-linejoin="round"/>
<path d="M 168.18 168.18 A 45 45 0 0 1 200.00 155.00 L 200.00 182.00 A 18 18 0 0 0 187.27 187.27 Z" fill="#FAFAF5" stroke="#2a2a3a" stroke-width="1.5" stroke-linejoin="round"/>
<path d="M 200.00 122.00 A 78 78 0 0 1 229.85 127.94 L 217.22 158.43 A 45 45 0 0 0 200.00 155.00 Z" fill="#FAFAF5" stroke="#2a2a3a" stroke-width="1.5" stroke-linejoin="round"/>
<path d="M 229.85 127.94 A 78 78 0 0 1 255.15 144.85 L 231.82 168.18 A 45 45 0 0 0 217.22 158.43 Z" fill="#FAFAF5" stroke="#2a2a3a" stroke-width="1.5" stroke-linejoin="round"/>
<path d="M 255.15 144.85 A 78 78 0 0 1 272.06 170.15 L 241.57 182.78 A 45 45 0 0 0 231.82 168.18 Z" fill="#FAFAF5" stroke="#2a2a3a" stroke-width="1.5" stroke-linejoin="round"/>
<path d="M 272.06 170.15 A 78 78 0 0 1 278.00 200.00 L 245.00 200.00 A 45 45 0 0 0 241.57 182.78 Z" fill="#FAFAF5" stroke="#2a2a3a" stroke-width="1.5" stroke-linejoin="round"/>
<path d="M 278.00 200.00 A 78 78 0 0 1 272.06 229.85 L 241.57 217.22 A 45 45 0 0 0 245.00 200.00 Z" fill="#FAFAF5" stroke="#2a2a3a" stroke-width="1.5" stroke-linejoin="round"/>
<path d="M 272.06 229.85 A 78 78 0 0 1 255.15 255.15 L 231.82 231.82 A 45 45 0 0 0 241.57 217.22 Z" fill="#FAFAF5" stroke="#2a2a3a" stroke-width="1.5" stroke-linejoin="round"/>
<path d="M 255.15 255.15 A 78 78 0 0 1 229.85 272.06 L 217.22 241.57 A 45 45 0 0 0 231.82 231.82 Z" fill="#FAFAF5" stroke="#2a2a3a" stroke-width="1.5" stroke-linejoin="round"/>
<path d="M 229.85 272.06 A 78 78 0 0 1 200.00 278.00 L 200.00 245.00 A 45 45 0 0 0 217.22 241.57 Z" fill="#FAFAF5" stroke="#2a2a3a" stroke-width="1.5" stroke-linejoin="round"/>
<path d="M 200.00 278.00 A 78 78 0 0 1 170.15 272.06 L 182.78 241.57 A 45 45 0 0 0 200.00 245.00 Z" fill="#FAFAF5" stroke="#2a2a3a" stroke-width="1.5" stroke-linejoin="round"/>
<path d="M 170.15 272.06 A 78 78 0 0 1 144.85 255.15 L 168.18 231.82 A 45 45 0 0 0 182.78 241.57 Z" fill="#FAFAF5" stroke="#2a2a3a" stroke-width="1.5" stroke-linejoin="round"/>
<path d="M 144.85 255.15 A 78 78 0 0 1 127.94 229.85 L 158.43 217.22 A 45 45 0 0 0 168.18 231.82 Z" fill="#FAFAF5" stroke="#2a2a3a" stroke-width="1.5" stroke-linejoin="round"/>
<path d="M 127.94 229.85 A 78 78 0 0 1 122.00 200.00 L 155.00 200.00 A 45 45 0 0 0 158.43 217.22 Z" fill="#FAFAF5" stroke="#2a2a3a" stroke-width="1.5" stroke-linejoin="round"/>
<path d="M 122.00 200.00 A 78 78 0 0 1 127.94 170.15 L 158.43 182.78 A 45 45 0 0 0 155.00 200.00 Z" fill="#FAFAF5" stroke="#2a2a3a" stroke-width="1.5" stroke-linejoin="round"/>
<path d="M 127.94 170.15 A 78 78 0 0 1 144.85 144.85 L 168.18 168.18 A 45 45 0 0 0 158.43 182.78 Z" fill="#FAFAF5" stroke="#2a2a3a" stroke-width="1.5" stroke-linejoin="round"/>
<path d="M 144.85 144.85 A 78 78 0 0 1 170.15 127.94 L 182.78 158.43 A 45 45 0 0 0 168.18 168.18 Z" fill="#FAFAF5" stroke="#2a2a3a" stroke-width="1.5" stroke-linejoin="round"/>
<path d="M 170.15 127.94 A 78 78 0 0 1 200.00 122.00 L 200.00 155.00 A 45 45 0 0 0 182.78 158.43 Z" fill="#FAFAF5" stroke="#2a2a3a" stroke-width="1.5" stroke-linejoin="round"/>
<path d="M 200.00 90.00 A 110 110 0 0 1 221.46 92.11 L 215.22 123.50 A 78 78 0 0 0 200.00 122.00 Z" fill="#FAFAF5" stroke="#2a2a3a" stroke-width="1.5" stroke-linejoin="round"/>
<path d="M 221.46 92.11 A 110 110 0 0 1 242.10 98.37 L 229.85 127.94 A 78 78 0 0 0 215.22 123.50 Z" fill="#FAFAF5" stroke="#2a2a3a" stroke-width="1.5" stroke-linejoin="round"/>
<path d="M 242.10 98.37 A 110 110 0 0 1 261.11 108.54 L 243.33 135.15 A 78 78 0 0 0 229.85 127.94 Z" fill="#FAFAF5" stroke="#2a2a3a" stroke-width="1.5" stroke-linejoin="round"/>
<path d="M 261.11 108.54 A 110 110 0 0 1 277.78 122.22 L 255.15 144.85 A 78 78 0 0 0 243.33 135.15 Z" fill="#FAFAF5" stroke="#2a2a3a" stroke-width="1.5" stroke-linejoin="round"/>
<path d="M 277.78 122.22 A 110 110 0 0 1 291.46 138.89 L 264.85 156.67 A 78 78 0 0 0 255.15 144.85 Z" fill="#FAFAF5" stroke="#2a2a3a" stroke-width="1.5" stroke-linejoin="round"/>
<path d="M 291.46 138.89 A 110 110 0 0 1 301.63 157.90 L 272.06 170.15 A 78 78 0 0 0 264.85 156.67 Z" fill="#FAFAF5" stroke="#2a2a3a" stroke-width="1.5" stroke-linejoin="round"/>
<path d="M 301.63 157.90 A 110 110 0 0 1 307.89 178.54 L 276.50 184.78 A 78 78 0 0 0 272.06 170.15 Z" fill="#FAFAF5" stroke="#2a2a3a" stroke-width="1.5" stroke-linejoin="round"/>
<path d="M 307.89 178.54 A 110 110 0 0 1 310.00 200.00 L 278.00 200.00 A 78 78 0 0 0 276.50 184.78 Z" fill="#FAFAF5" stroke="#2a2a3a" stroke-width="1.5" stroke-linejoin="round"/>
<path d="M 310.00 200.00 A 110 110 0 0 1 307.89 221.46 L 276.50 215.22 A 78 78 0 0 0 278.00 200.00 Z" fill="#FAFAF5" stroke="#2a2a3a" stroke-width="1.5" stroke-linejoin="round"/>
<path d="M 307.89 221.46 A 110 110 0 0 1 301.63 242.10 L 272.06 229.85 A 78 78 0 0 0 276.50 215.22 Z" fill="#FAFAF5" stroke="#2a2a3a" stroke-width="1.5" stroke-linejoin="round"/>
<path d="M 301.63 242.10 A 110 110 0 0 1 291.46 261.11 L 264.85 243.33 A 78 78 0 0 0 272.06 229.85 Z" fill="#FAFAF5" stroke="#2a2a3a" stroke-width="1.5" stroke-linejoin="round"/>
<path d="M 291.46 261.11 A 110 110 0 0 1 277.78 277.78 L 255.15 255.15 A 78 78 0 0 0 264.85 243.33 Z" fill="#FAFAF5" stroke="#2a2a3a" stroke-width="1.5" stroke-linejoin="round"/>
<path d="M 277.78 277.78 A 110 110 0 0 1 261.11 291.46 L 243.33 264.85 A 78 78 0 0 0 255.15 255.15 Z" fill="#FAFAF5" stroke="#2a2a3a" stroke-width="1.5" stroke-linejoin="round"/>
<path d="M 261.11 291.46 A 110 110 0 0 1 242.10 301.63 L 229.85 272.06 A 78 78 0 0 0 243.33 264.85 Z" fill="#FAFAF5" stroke="#2a2a3a" stroke-width="1.5" stroke-linejoin="round"/>
<path d="M 242.10 301.63 A 110 110 0 0 1 221.46 307.89 L 215.22 276.50 A 78 78 0 0 0 229.85 272.06 Z" fill="#FAFAF5" stroke="#2a2a3a" stroke-width="1.5" stroke-linejoin="round"/>
<path d="M 221.46 307.89 A 110 110 0 0 1 200.00 310.00 L 200.00 278.00 A 78 78 0 0 0 215.22 276.50 Z" fill="#FAFAF5" stroke="#2a2a3a" stroke-width="1.5" stroke-linejoin="round"/>
<path d="M 200.00 310.00 A 110 110 0 0 1 178.54 307.89 L 184.78 276.50 A 78 78 0 0 0 200.00 278.00 Z" fill="#FAFAF5" stroke="#2a2a3a" stroke-width="1.5" stroke-linejoin="round"/>
<path d="M 178.54 307.89 A 110 110 0 0 1 157.90 301.63 L 170.15 272.06 A 78 78 0 0 0 184.78 276.50 Z" fill="#FAFAF5" stroke="#2a2a3a" stroke-width="1.5" stroke-linejoin="round"/>
<path d="M 157.90 301.63 A 110 110 0 0 1 138.89 291.46 L 156.67 264.85 A 78 78 0 0 0 170.15 272.06 Z" fill="#FAFAF5" stroke="#2a2a3a" stroke-width="1.5" stroke-linejoin="round"/>
<path d="M 138.89 291.46 A 110 110 0 0 1 122.22 277.78 L 144.85 255.15 A 78 78 0 0 0 156.67 264.85 Z" fill="#FAFAF5" stroke="#2a2a3a" stroke-width="1.5" stroke-linejoin="round"/>
<path d="M 122.22 277.78 A 110 110 0 0 1 108.54 261.11 L 135.15 243.33 A 78 78 0 0 0 144.85 255.15 Z" fill="#FAFAF5" stroke="#2a2a3a" stroke-width="1.5" stroke-linejoin="round"/>
<path d="M 108.54 261.11 A 110 110 0 0 1 98.37 242.10 L 127.94 229.85 A 78 78 0 0 0 135.15 243.33 Z" fill="#FAFAF5" stroke="#2a2a3a" stroke-width="1.5" stroke-linejoin="round"/>
<path d="M 98.37 242.10 A 110 110 0 0 1 92.11 221.46 L 123.50 215.22 A 78 78 0 0 0 127.94 229.85 Z" fill="#FAFAF5" stroke="#2a2a3a" stroke-width="1.5" stroke-linejoin="round"/>
<path d="M 92.11 221.46 A 110 110 0 0 1 90.00 200.00 L 122.00 200.00 A 78 78 0 0 0 123.50 215.22 Z" fill="#FAFAF5" stroke="#2a2a3a" stroke-width="1.5" stroke-linejoin="round"/>
<path d="M 90.00 200.00 A 110 110 0 0 1 92.11 178.54 L 123.50 184.78 A 78 78 0 0 0 122.00 200.00 Z" fill="#FAFAF5" stroke="#2a2a3a" stroke-width="1.5" stroke-linejoin="round"/>
<path d="M 92.11 178.54 A 110 110 0 0 1 98.37 157.90 L 127.94 170.15 A 78 78 0 0 0 123.50 184.78 Z" fill="#FAFAF5" stroke="#2a2a3a" stroke-width="1.5" stroke-linejoin="round"/>
<path d="M 98.37 157.90 A 110 110 0 0 1 108.54 138.89 L 135.15 156.67 A 78 78 0 0 0 127.94 170.15 Z" fill="#FAFAF5" stroke="#2a2a3a" stroke-width="1.5" stroke-linejoin="round"/>
<path d="M 108.54 138.89 A 110 110 0 0 1 122.22 122.22 L 144.85 144.85 A 78 78 0 0 0 135.15 156.67 Z" fill="#FAFAF5" stroke="#2a2a3a" stroke-width="1.5" stroke-linejoin="round"/>
<path d="M 122.22 122.22 A 110 110 0 0 1 138.89 108.54 L 156.67 135.15 A 78 78 0 0 0 144.85 144.85 Z" fill="#FAFAF5" stroke="#2a2a3a" stroke-width="1.5" stroke-linejoin="round"/>
<path d="M 138.89 108.54 A 110 110 0 0 1 157.90 98.37 L 170.15 127.94 A 78 78 0 0 0 156.67 135.15 Z" fill="#FAFAF5" stroke="#2a2a3a" stroke-width="1.5" stroke-linejoin="round"/>
<path d="M 157.90 98.37 A 110 110 0 0 1 178.54 92.11 L 184.78 123.50 A 78 78 0 0 0 170.15 127.94 Z" fill="#FAFAF5" stroke="#2a2a3a" stroke-width="1.5" stroke-linejoin="round"/>
<path d="M 178.54 92.11 A 110 110 0 0 1 200.00 90.00 L 200.00 122.00 A 78 78 0 0 0 184.78 123.50 Z" fill="#FAFAF5" stroke="#2a2a3a" stroke-width="1.5" stroke-linejoin="round"/>
<path d="M 200.00 58.00 A 142 142 0 0 1 213.92 58.68 L 210.78 90.53 A 110 110 0 0 0 200.00 90.00 Z" fill="#FAFAF5" stroke="#2a2a3a" stroke-width="1.5" stroke-linejoin="round"/>
<path d="M 213.92 58.68 A 142 142 0 0 1 227.70 60.73 L 221.46 92.11 A 110 110 0 0 0 210.78 90.53 Z" fill="#FAFAF5" stroke="#2a2a3a" stroke-width="1.5" stroke-linejoin="round"/>
<path d="M 227.70 60.73 A 142 142 0 0 1 241.22 64.11 L 231.93 94.74 A 110 110 0 0 0 221.46 92.11 Z" fill="#FAFAF5" stroke="#2a2a3a" stroke-width="1.5" stroke-linejoin="round"/>
<path d="M 241.22 64.11 A 142 142 0 0 1 254.34 68.81 L 242.10 98.37 A 110 110 0 0 0 231.93 94.74 Z" fill="#FAFAF5" stroke="#2a2a3a" stroke-width="1.5" stroke-linejoin="round"/>
<path d="M 254.34 68.81 A 142 142 0 0 1 266.94 74.77 L 251.85 102.99 A 110 110 0 0 0 242.10 98.37 Z" fill="#FAFAF5" stroke="#2a2a3a" stroke-width="1.5" stroke-linejoin="round"/>
<path d="M 266.94 74.77 A 142 142 0 0 1 278.89 81.93 L 261.11 108.54 A 110 110 0 0 0 251.85 102.99 Z" fill="#FAFAF5" stroke="#2a2a3a" stroke-width="1.5" stroke-linejoin="round"/>
<path d="M 278.89 81.93 A 142 142 0 0 1 290.08 90.23 L 269.78 114.97 A 110 110 0 0 0 261.11 108.54 Z" fill="#FAFAF5" stroke="#2a2a3a" stroke-width="1.5" stroke-linejoin="round"/>
<path d="M 290.08 90.23 A 142 142 0 0 1 300.41 99.59 L 277.78 122.22 A 110 110 0 0 0 269.78 114.97 Z" fill="#FAFAF5" stroke="#2a2a3a" stroke-width="1.5" stroke-linejoin="round"/>
<path d="M 300.41 99.59 A 142 142 0 0 1 309.77 109.92 L 285.03 130.22 A 110 110 0 0 0 277.78 122.22 Z" fill="#FAFAF5" stroke="#2a2a3a" stroke-width="1.5" stroke-linejoin="round"/>
<path d="M 309.77 109.92 A 142 142 0 0 1 318.07 121.11 L 291.46 138.89 A 110 110 0 0 0 285.03 130.22 Z" fill="#FAFAF5" stroke="#2a2a3a" stroke-width="1.5" stroke-linejoin="round"/>
<path d="M 318.07 121.11 A 142 142 0 0 1 325.23 133.06 L 297.01 148.15 A 110 110 0 0 0 291.46 138.89 Z" fill="#FAFAF5" stroke="#2a2a3a" stroke-width="1.5" stroke-linejoin="round"/>
<path d="M 325.23 133.06 A 142 142 0 0 1 331.19 145.66 L 301.63 157.90 A 110 110 0 0 0 297.01 148.15 Z" fill="#FAFAF5" stroke="#2a2a3a" stroke-width="1.5" stroke-linejoin="round"/>
<path d="M 331.19 145.66 A 142 142 0 0 1 335.89 158.78 L 305.26 168.07 A 110 110 0 0 0 301.63 157.90 Z" fill="#FAFAF5" stroke="#2a2a3a" stroke-width="1.5" stroke-linejoin="round"/>
<path d="M 335.89 158.78 A 142 142 0 0 1 339.27 172.30 L 307.89 178.54 A 110 110 0 0 0 305.26 168.07 Z" fill="#FAFAF5" stroke="#2a2a3a" stroke-width="1.5" stroke-linejoin="round"/>
<path d="M 339.27 172.30 A 142 142 0 0 1 341.32 186.08 L 309.47 189.22 A 110 110 0 0 0 307.89 178.54 Z" fill="#FAFAF5" stroke="#2a2a3a" stroke-width="1.5" stroke-linejoin="round"/>
<path d="M 341.32 186.08 A 142 142 0 0 1 342.00 200.00 L 310.00 200.00 A 110 110 0 0 0 309.47 189.22 Z" fill="#FAFAF5" stroke="#2a2a3a" stroke-width="1.5" stroke-linejoin="round"/>
<path d="M 342.00 200.00 A 142 142 0 0 1 341.32 213.92 L 309.47 210.78 A 110 110 0 0 0 310.00 200.00 Z" fill="#FAFAF5" stroke="#2a2a3a" stroke-width="1.5" stroke-linejoin="round"/>
<path d="M 341.32 213.92 A 142 142 0 0 1 339.27 227.70 L 307.89 221.46 A 110 110 0 0 0 309.47 210.78 Z" fill="#FAFAF5" stroke="#2a2a3a" stroke-width="1.5" stroke-linejoin="round"/>
<path d="M 339.27 227.70 A 142 142 0 0 1 335.89 241.22 L 305.26 231.93 A 110 110 0 0 0 307.89 221.46 Z" fill="#FAFAF5" stroke="#2a2a3a" stroke-width="1.5" stroke-linejoin="round"/>
<path d="M 335.89 241.22 A 142 142 0 0 1 331.19 254.34 L 301.63 242.10 A 110 110 0 0 0 305.26 231.93 Z" fill="#FAFAF5" stroke="#2a2a3a" stroke-width="1.5" stroke-linejoin="round"/>
<path d="M 331.19 254.34 A 142 142 0 0 1 325.23 266.94 L 297.01 251.85 A 110 110 0 0 0 301.63 242.10 Z" fill="#FAFAF5" stroke="#2a2a3a" stroke-width="1.5" stroke-linejoin="round"/>
<path d="M 325.23 266.94 A 142 142 0 0 1 318.07 278.89 L 291.46 261.11 A 110 110 0 0 0 297.01 251.85 Z" fill="#FAFAF5" stroke="#2a2a3a" stroke-width="1.5" stroke-linejoin="round"/>
<path d="M 318.07 278.89 A 142 142 0 0 1 309.77 290.08 L 285.03 269.78 A 110 110 0 0 0 291.46 261.11 Z" fill="#FAFAF5" stroke="#2a2a3a" stroke-width="1.5" stroke-linejoin="round"/>
<path d="M 309.77 290.08 A 142 142 0 0 1 300.41 300.41 L 277.78 277.78 A 110 110 0 0 0 285.03 269.78 Z" fill="#FAFAF5" stroke="#2a2a3a" stroke-width="1.5" stroke-linejoin="round"/>
<path d="M 300.41 300.41 A 142 142 0 0 1 290.08 309.77 L 269.78 285.03 A 110 110 0 0 0 277.78 277.78 Z" fill="#FAFAF5" stroke="#2a2a3a" stroke-width="1.5" stroke-linejoin="round"/>
<path d="M 290.08 309.77 A 142 142 0 0 1 278.89 318.07 L 261.11 291.46 A 110 110 0 0 0 269.78 285.03 Z" fill="#FAFAF5" stroke="#2a2a3a" stroke-width="1.5" stroke-linejoin="round"/>
<path d="M 278.89 318.07 A 142 142 0 0 1 266.94 325.23 L 251.85 297.01 A 110 110 0 0 0 261.11 291.46 Z" fill="#FAFAF5" stroke="#2a2a3a" stroke-width="1.5" stroke-linejoin="round"/>
<path d="M 266.94 325.23 A 142 142 0 0 1 254.34 331.19 L 242.10 301.63 A 110 110 0 0 0 251.85 297.01 Z" fill="#FAFAF5" stroke="#2a2a3a" stroke-width="1.5" stroke-linejoin="round"/>
<path d="M 254.34 331.19 A 142 142 0 0 1 241.22 335.89 L 231.93 305.26 A 110 110 0 0 0 242.10 301.63 Z" fill="#FAFAF5" stroke="#2a2a3a" stroke-width="1.5" stroke-linejoin="round"/>
<path d="M 241.22 335.89 A 142 142 0 0 1 227.70 339.27 L 221.46 307.89 A 110 110 0 0 0 231.93 305.26 Z" fill="#FAFAF5" stroke="#2a2a3a" stroke-width="1.5" stroke-linejoin="round"/>
<path d="M 227.70 339.27 A 142 142 0 0 1 213.92 341.32 L 210.78 309.47 A 110 110 0 0 0 221.46 307.89 Z" fill="#FAFAF5" stroke="#2a2a3a" stroke-width="1.5" stroke-linejoin="round"/>
<path d="M 213.92 341.32 A 142 142 0 0 1 200.00 342.00 L 200.00 310.00 A 110 110 0 0 0 210.78 309.47 Z" fill="#FAFAF5" stroke="#2a2a3a" stroke-width="1.5" stroke-linejoin="round"/>
<path d="M 200.00 342.00 A 142 142 0 0 1 186.08 341.32 L 189.22 309.47 A 110 110 0 0 0 200.00 310.00 Z" fill="#FAFAF5" stroke="#2a2a3a" stroke-width="1.5" stroke-linejoin="round"/>
<path d="M 186.08 341.32 A 142 142 0 0 1 172.30 339.27 L 178.54 307.89 A 110 110 0 0 0 189.22 309.47 Z" fill="#FAFAF5" stroke="#2a2a3a" stroke-width="1.5" stroke-linejoin="round"/>
<path d="M 172.30 339.27 A 142 142 0 0 1 158.78 335.89 L 168.07 305.26 A 110 110 0 0 0 178.54 307.89 Z" fill="#FAFAF5" stroke="#2a2a3a" stroke-width="1.5" stroke-linejoin="round"/>
<path d="M 158.78 335.89 A 142 142 0 0 1 145.66 331.19 L 157.90 301.63 A 110 110 0 0 0 168.07 305.26 Z" fill="#FAFAF5" stroke="#2a2a3a" stroke-width="1.5" stroke-linejoin="round"/>
<path d="M 145.66 331.19 A 142 142 0 0 1 133.06 325.23 L 148.15 297.01 A 110 110 0 0 0 157.90 301.63 Z" fill="#FAFAF5" stroke="#2a2a3a" stroke-width="1.5" stroke-linejoin="round"/>
<path d="M 133.06 325.23 A 142 142 0 0 1 121.11 318.07 L 138.89 291.46 A 110 110 0 0 0 148.15 297.01 Z" fill="#FAFAF5" stroke="#2a2a3a" stroke-width="1.5" stroke-linejoin="round"/>
<path d="M 121.11 318.07 A 142 142 0 0 1 109.92 309.77 L 130.22 285.03 A 110 110 0 0 0 138.89 291.46 Z" fill="#FAFAF5" stroke="#2a2a3a" stroke-width="1.5" stroke-linejoin="round"/>
<path d="M 109.92 309.77 A 142 142 0 0 1 99.59 300.41 L 122.22 277.78 A 110 110 0 0 0 130.22 285.03 Z" fill="#FAFAF5" stroke="#2a2a3a" stroke-width="1.5" stroke-linejoin="round"/>
<path d="M 99.59 300.41 A 142 142 0 0 1 90.23 290.08 L 114.97 269.78 A 110 110 0 0 0 122.22 277.78 Z" fill="#FAFAF5" stroke="#2a2a3a" stroke-width="1.5" stroke-linejoin="round"/>
<path d="M 90.23 290.08 A 142 142 0 0 1 81.93 278.89 L 108.54 261.11 A 110 110 0 0 0 114.97 269.78 Z" fill="#FAFAF5" stroke="#2a2a3a" stroke-width="1.5" stroke-linejoin="round"/>
<path d="M 81.93 278.89 A 142 142 0 0 1 74.77 266.94 L 102.99 251.85 A 110 110 0 0 0 108.54 261.11 Z" fill="#FAFAF5" stroke="#2a2a3a" stroke-width="1.5" stroke-linejoin="round"/>
<path d="M 74.77 266.94 A 142 142 0 0 1 68.81 254.34 L 98.37 242.10 A 110 110 0 0 0 102.99 251.85 Z" fill="#FAFAF5" stroke="#2a2a3a" stroke-width="1.5" stroke-linejoin="round"/>
<path d="M 68.81 254.34 A 142 142 0 0 1 64.11 241.22 L 94.74 231.93 A 110 110 0 0 0 98.37 242.10 Z" fill="#FAFAF5" stroke="#2a2a3a" stroke-width="1.5" stroke-linejoin="round"/>
<path d="M 64.11 241.22 A 142 142 0 0 1 60.73 227.70 L 92.11 221.46 A 110 110 0 0 0 94.74 231.93 Z" fill="#FAFAF5" stroke="#2a2a3a" stroke-width="1.5" stroke-linejoin="round"/>
<path d="M 60.73 227.70 A 142 142 0 0 1 58.68 213.92 L 90.53 210.78 A 110 110 0 0 0 92.11 221.46 Z" fill="#FAFAF5" stroke="#2a2a3a" stroke-width="1.5" stroke-linejoin="round"/>
<path d="M 58.68 213.92 A 142 142 0 0 1 58.00 200.00 L 90.00 200.00 A 110 110 0 0 0 90.53 210.78 Z" fill="#FAFAF5" stroke="#2a2a3a" stroke-width="1.5" stroke-linejoin="round"/>
<path d="M 58.00 200.00 A 142 142 0 0 1 58.68 186.08 L 90.53 189.22 A 110 110 0 0 0 90.00 200.00 Z" fill="#FAFAF5" stroke="#2a2a3a" stroke-width="1.5" stroke-linejoin="round"/>
<path d="M 58.68 186.08 A 142 142 0 0 1 60.73 172.30 L 92.11 178.54 A 110 110 0 0 0 90.53 189.22 Z" fill="#FAFAF5" stroke="#2a2a3a" stroke-width="1.5" stroke-linejoin="round"/>
<path d="M 60.73 172.30 A 142 142 0 0 1 64.11 158.78 L 94.74 168.07 A 110 110 0 0 0 92.11 178.54 Z" fill="#FAFAF5" stroke="#2a2a3a" stroke-width="1.5" stroke-linejoin="round"/>
<path d="M 64.11 158.78 A 142 142 0 0 1 68.81 145.66 L 98.37 157.90 A 110 110 0 0 0 94.74 168.07 Z" fill="#FAFAF5" stroke="#2a2a3a" stroke-width="1.5" stroke-linejoin="round"/>
<path d="M 68.81 145.66 A 142 142 0 0 1 74.77 133.06 L 102.99 148.15 A 110 110 0 0 0 98.37 157.90 Z" fill="#FAFAF5" stroke="#2a2a3a" stroke-width="1.5" stroke-linejoin="round"/>
<path d="M 74.77 133.06 A 142 142 0 0 1 81.93 121.11 L 108.54 138.89 A 110 110 0 0 0 102.99 148.15 Z" fill="#FAFAF5" stroke="#2a2a3a" stroke-width="1.5" stroke-linejoin="round"/>
<path d="M 81.93 121.11 A 142 142 0 0 1 90.23 109.92 L 114.97 130.22 A 110 110 0 0 0 108.54 138.89 Z" fill="#FAFAF5" stroke="#2a2a3a" stroke-width="1.5" stroke-linejoin="round"/>
<path d="M 90.23 109.92 A 142 142 0 0 1 99.59 99.59 L 122.22 122.22 A 110 110 0 0 0 114.97 130.22 Z" fill="#FAFAF5" stroke="#2a2a3a" stroke-width="1.5" stroke-linejoin="round"/>
<path d="M 99.59 99.59 A 142 142 0 0 1 109.92 90.23 L 130.22 114.97 A 110 110 0 0 0 122.22 122.22 Z" fill="#FAFAF5" stroke="#2a2a3a" stroke-width="1.5" stroke-linejoin="round"/>
<path d="M 109.92 90.23 A 142 142 0 0 1 121.11 81.93 L 138.89 108.54 A 110 110 0 0 0 130.22 114.97 Z" fill="#FAFAF5" stroke="#2a2a3a" stroke-width="1.5" stroke-linejoin="round"/>
<path d="M 121.11 81.93 A 142 142 0 0 1 133.06 74.77 L 148.15 102.99 A 110 110 0 0 0 138.89 108.54 Z" fill="#FAFAF5" stroke="#2a2a3a" stroke-width="1.5" stroke-linejoin="round"/>
<path d="M 133.06 74.77 A 142 142 0 0 1 145.66 68.81 L 157.90 98.37 A 110 110 0 0 0 148.15 102.99 Z" fill="#FAFAF5" stroke="#2a2a3a" stroke-width="1.5" stroke-linejoin="round"/>
<path d="M 145.66 68.81 A 142 142 0 0 1 158.78 64.11 L 168.07 94.74 A 110 110 0 0 0 157.90 98.37 Z" fill="#FAFAF5" stroke="#2a2a3a" stroke-width="1.5" stroke-linejoin="round"/>
<path d="M 158.78 64.11 A 142 142 0 0 1 172.30 60.73 L 178.54 92.11 A 110 110 0 0 0 168.07 94.74 Z" fill="#FAFAF5" stroke="#2a2a3a" stroke-width="1.5" stroke-linejoin="round"/>
<path d="M 172.30 60.73 A 142 142 0 0 1 186.08 58.68 L 189.22 90.53 A 110 110 0 0 0 178.54 92.11 Z" fill="#FAFAF5" stroke="#2a2a3a" stroke-width="1.5" stroke-linejoin="round"/>
<path d="M 186.08 58.68 A 142 142 0 0 1 200.00 58.00 L 200.00 90.00 A 110 110 0 0 0 189.22 90.53 Z" fill="#FAFAF5" stroke="#2a2a3a" stroke-width="1.5" stroke-linejoin="round"/>
<path d="M 200.00 30.00 A 170 170 0 0 1 233.17 33.27 L 227.70 60.73 A 142 142 0 0 0 200.00 58.00 Z" fill="#FAFAF5" stroke="#2a2a3a" stroke-width="1.5" stroke-linejoin="round"/>
<path d="M 233.17 33.27 A 170 170 0 0 1 265.06 42.94 L 254.34 68.81 A 142 142 0 0 0 227.70 60.73 Z" fill="#FAFAF5" stroke="#2a2a3a" stroke-width="1.5" stroke-linejoin="round"/>
<path d="M 265.06 42.94 A 170 170 0 0 1 294.45 58.65 L 278.89 81.93 A 142 142 0 0 0 254.34 68.81 Z" fill="#FAFAF5" stroke="#2a2a3a" stroke-width="1.5" stroke-linejoin="round"/>
<path d="M 294.45 58.65 A 170 170 0 0 1 320.21 79.79 L 300.41 99.59 A 142 142 0 0 0 278.89 81.93 Z" fill="#FAFAF5" stroke="#2a2a3a" stroke-width="1.5" stroke-linejoin="round"/>
<path d="M 320.21 79.79 A 170 170 0 0 1 341.35 105.55 L 318.07 121.11 A 142 142 0 0 0 300.41 99.59 Z" fill="#FAFAF5" stroke="#2a2a3a" stroke-width="1.5" stroke-linejoin="round"/>
<path d="M 341.35 105.55 A 170 170 0 0 1 357.06 134.94 L 331.19 145.66 A 142 142 0 0 0 318.07 121.11 Z" fill="#FAFAF5" stroke="#2a2a3a" stroke-width="1.5" stroke-linejoin="round"/>
<path d="M 357.06 134.94 A 170 170 0 0 1 366.73 166.83 L 339.27 172.30 A 142 142 0 0 0 331.19 145.66 Z" fill="#FAFAF5" stroke="#2a2a3a" stroke-width="1.5" stroke-linejoin="round"/>
<path d="M 366.73 166.83 A 170 170 0 0 1 370.00 200.00 L 342.00 200.00 A 142 142 0 0 0 339.27 172.30 Z" fill="#FAFAF5" stroke="#2a2a3a" stroke-width="1.5" stroke-linejoin="round"/>
<path d="M 370.00 200.00 A 170 170 0 0 1 366.73 233.17 L 339.27 227.70 A 142 142 0 0 0 342.00 200.00 Z" fill="#FAFAF5" stroke="#2a2a3a" stroke-width="1.5" stroke-linejoin="round"/>
<path d="M 366.73 233.17 A 170 170 0 0 1 357.06 265.06 L 331.19 254.34 A 142 142 0 0 0 339.27 227.70 Z" fill="#FAFAF5" stroke="#2a2a3a" stroke-width="1.5" stroke-linejoin="round"/>
<path d="M 357.06 265.06 A 170 170 0 0 1 341.35 294.45 L 318.07 278.89 A 142 142 0 0 0 331.19 254.34 Z" fill="#FAFAF5" stroke="#2a2a3a" stroke-width="1.5" stroke-linejoin="round"/>
<path d="M 341.35 294.45 A 170 170 0 0 1 320.21 320.21 L 300.41 300.41 A 142 142 0 0 0 318.07 278.89 Z" fill="#FAFAF5" stroke="#2a2a3a" stroke-width="1.5" stroke-linejoin="round"/>
<path d="M 320.21 320.21 A 170 170 0 0 1 294.45 341.35 L 278.89 318.07 A 142 142 0 0 0 300.41 300.41 Z" fill="#FAFAF5" stroke="#2a2a3a" stroke-width="1.5" stroke-linejoin="round"/>
<path d="M 294.45 341.35 A 170 170 0 0 1 265.06 357.06 L 254.34 331.19 A 142 142 0 0 0 278.89 318.07 Z" fill="#FAFAF5" stroke="#2a2a3a" stroke-width="1.5" stroke-linejoin="round"/>
<path d="M 265.06 357.06 A 170 170 0 0 1 233.17 366.73 L 227.70 339.27 A 142 142 0 0 0 254.34 331.19 Z" fill="#FAFAF5" stroke="#2a2a3a" stroke-width="1.5" stroke-linejoin="round"/>
<path d="M 233.17 366.73 A 170 170 0 0 1 200.00 370.00 L 200.00 342.00 A 142 142 0 0 0 227.70 339.27 Z" fill="#FAFAF5" stroke="#2a2a3a" stroke-width="1.5" stroke-linejoin="round"/>
<path d="M 200.00 370.00 A 170 170 0 0 1 166.83 366.73 L 172.30 339.27 A 142 142 0 0 0 200.00 342.00 Z" fill="#FAFAF5" stroke="#2a2a3a" stroke-width="1.5" stroke-linejoin="round"/>
<path d="M 166.83 366.73 A 170 170 0 0 1 134.94 357.06 L 145.66 331.19 A 142 142 0 0 0 172.30 339.27 Z" fill="#FAFAF5" stroke="#2a2a3a" stroke-width="1.5" stroke-linejoin="round"/>
<path d="M 134.94 357.06 A 170 170 0 0 1 105.55 341.35 L 121.11 318.07 A 142 142 0 0 0 145.66 331.19 Z" fill="#FAFAF5" stroke="#2a2a3a" stroke-width="1.5" stroke-linejoin="round"/>
<path d="M 105.55 341.35 A 170 170 0 0 1 79.79 320.21 L 99.59 300.41 A 142 142 0 0 0 121.11 318.07 Z" fill="#FAFAF5" stroke="#2a2a3a" stroke-width="1.5" stroke-linejoin="round"/>
<path d="M 79.79 320.21 A 170 170 0 0 1 58.65 294.45 L 81.93 278.89 A 142 142 0 0 0 99.59 300.41 Z" fill="#FAFAF5" stroke="#2a2a3a" stroke-width="1.5" stroke-linejoin="round"/>
<path d="M 58.65 294.45 A 170 170 0 0 1 42.94 265.06 L 68.81 254.34 A 142 142 0 0 0 81.93 278.89 Z" fill="#FAFAF5" stroke="#2a2a3a" stroke-width="1.5" stroke-linejoin="round"/>
<path d="M 42.94 265.06 A 170 170 0 0 1 33.27 233.17 L 60.73 227.70 A 142 142 0 0 0 68.81 254.34 Z" fill="#FAFAF5" stroke="#2a2a3a" stroke-width="1.5" stroke-linejoin="round"/>
<path d="M 33.27 233.17 A 170 170 0 0 1 30.00 200.00 L 58.00 200.00 A 142 142 0 0 0 60.73 227.70 Z" fill="#FAFAF5" stroke="#2a2a3a" stroke-width="1.5" stroke-linejoin="round"/>
<path d="M 30.00 200.00 A 170 170 0 0 1 33.27 166.83 L 60.73 172.30 A 142 142 0 0 0 58.00 200.00 Z" fill="#FAFAF5" stroke="#2a2a3a" stroke-width="1.5" stroke-linejoin="round"/>
<path d="M 33.27 166.83 A 170 170 0 0 1 42.94 134.94 L 68.81 145.66 A 142 142 0 0 0 60.73 172.30 Z" fill="#FAFAF5" stroke="#2a2a3a" stroke-width="1.5" stroke-linejoin="round"/>
<path d="M 42.94 134.94 A 170 170 0 0 1 58.65 105.55 L 81.93 121.11 A 142 142 0 0 0 68.81 145.66 Z" fill="#FAFAF5" stroke="#2a2a3a" stroke-width="1.5" stroke-linejoin="round"/>
<path d="M 58.65 105.55 A 170 170 0 0 1 79.79 79.79 L 99.59 99.59 A 142 142 0 0 0 81.93 121.11 Z" fill="#FAFAF5" stroke="#2a2a3a" stroke-width="1.5" stroke-linejoin="round"/>
<path d="M 79.79 79.79 A 170 170 0 0 1 105.55 58.65 L 121.11 81.93 A 142 142 0 0 0 99.59 99.59 Z" fill="#FAFAF5" stroke="#2a2a3a" stroke-width="1.5" stroke-linejoin="round"/>
<path d="M 105.55 58.65 A 170 170 0 0 1 134.94 42.94 L 145.66 68.81 A 142 142 0 0 0 121.11 81.93 Z" fill="#FAFAF5" stroke="#2a2a3a" stroke-width="1.5" stroke-linejoin="round"/>
<path d="M 134.94 42.94 A 170 170 0 0 1 166.83 33.27 L 172.30 60.73 A 142 142 0 0 0 145.66 68.81 Z" fill="#FAFAF5" stroke="#2a2a3a" stroke-width="1.5" stroke-linejoin="round"/>
<path d="M 166.83 33.27 A 170 170 0 0 1 200.00 30.00 L 200.00 58.00 A 142 142 0 0 0 172.30 60.73 Z" fill="#FAFAF5" stroke="#2a2a3a" stroke-width="1.5" stroke-linejoin="round"/>
<path d="M 200.00 12.00 A 188 188 0 0 1 218.43 12.91 L 216.66 30.82 A 170 170 0 0 0 200.00 30.00 Z" fill="#FAFAF5" stroke="#2a2a3a" stroke-width="1.5" stroke-linejoin="round"/>
<path d="M 218.43 12.91 A 188 188 0 0 1 236.68 15.61 L 233.17 33.27 A 170 170 0 0 0 216.66 30.82 Z" fill="#FAFAF5" stroke="#2a2a3a" stroke-width="1.5" stroke-linejoin="round"/>
<path d="M 236.68 15.61 A 188 188 0 0 1 254.57 20.10 L 249.35 37.32 A 170 170 0 0 0 233.17 33.27 Z" fill="#FAFAF5" stroke="#2a2a3a" stroke-width="1.5" stroke-linejoin="round"/>
<path d="M 254.57 20.10 A 188 188 0 0 1 271.94 26.31 L 265.06 42.94 A 170 170 0 0 0 249.35 37.32 Z" fill="#FAFAF5" stroke="#2a2a3a" stroke-width="1.5" stroke-linejoin="round"/>
<path d="M 271.94 26.31 A 188 188 0 0 1 288.62 34.20 L 280.14 50.07 A 170 170 0 0 0 265.06 42.94 Z" fill="#FAFAF5" stroke="#2a2a3a" stroke-width="1.5" stroke-linejoin="round"/>
<path d="M 288.62 34.20 A 188 188 0 0 1 304.45 43.68 L 294.45 58.65 A 170 170 0 0 0 280.14 50.07 Z" fill="#FAFAF5" stroke="#2a2a3a" stroke-width="1.5" stroke-linejoin="round"/>
<path d="M 304.45 43.68 A 188 188 0 0 1 319.27 54.67 L 307.85 68.59 A 170 170 0 0 0 294.45 58.65 Z" fill="#FAFAF5" stroke="#2a2a3a" stroke-width="1.5" stroke-linejoin="round"/>
<path d="M 319.27 54.67 A 188 188 0 0 1 332.94 67.06 L 320.21 79.79 A 170 170 0 0 0 307.85 68.59 Z" fill="#FAFAF5" stroke="#2a2a3a" stroke-width="1.5" stroke-linejoin="round"/>
<path d="M 332.94 67.06 A 188 188 0 0 1 345.33 80.73 L 331.41 92.15 A 170 170 0 0 0 320.21 79.79 Z" fill="#FAFAF5" stroke="#2a2a3a" stroke-width="1.5" stroke-linejoin="round"/>
<path d="M 345.33 80.73 A 188 188 0 0 1 356.32 95.55 L 341.35 105.55 A 170 170 0 0 0 331.41 92.15 Z" fill="#FAFAF5" stroke="#2a2a3a" stroke-width="1.5" stroke-linejoin="round"/>
<path d="M 356.32 95.55 A 188 188 0 0 1 365.80 111.38 L 349.93 119.86 A 170 170 0 0 0 341.35 105.55 Z" fill="#FAFAF5" stroke="#2a2a3a" stroke-width="1.5" stroke-linejoin="round"/>
<path d="M 365.80 111.38 A 188 188 0 0 1 373.69 128.06 L 357.06 134.94 A 170 170 0 0 0 349.93 119.86 Z" fill="#FAFAF5" stroke="#2a2a3a" stroke-width="1.5" stroke-linejoin="round"/>
<path d="M 373.69 128.06 A 188 188 0 0 1 379.90 145.43 L 362.68 150.65 A 170 170 0 0 0 357.06 134.94 Z" fill="#FAFAF5" stroke="#2a2a3a" stroke-width="1.5" stroke-linejoin="round"/>
<path d="M 379.90 145.43 A 188 188 0 0 1 384.39 163.32 L 366.73 166.83 A 170 170 0 0 0 362.68 150.65 Z" fill="#FAFAF5" stroke="#2a2a3a" stroke-width="1.5" stroke-linejoin="round"/>
<path d="M 384.39 163.32 A 188 188 0 0 1 387.09 181.57 L 369.18 183.34 A 170 170 0 0 0 366.73 166.83 Z" fill="#FAFAF5" stroke="#2a2a3a" stroke-width="1.5" stroke-linejoin="round"/>
<path d="M 387.09 181.57 A 188 188 0 0 1 388.00 200.00 L 370.00 200.00 A 170 170 0 0 0 369.18 183.34 Z" fill="#FAFAF5" stroke="#2a2a3a" stroke-width="1.5" stroke-linejoin="round"/>
<path d="M 388.00 200.00 A 188 188 0 0 1 387.09 218.43 L 369.18 216.66 A 170 170 0 0 0 370.00 200.00 Z" fill="#FAFAF5" stroke="#2a2a3a" stroke-width="1.5" stroke-linejoin="round"/>
<path d="M 387.09 218.43 A 188 188 0 0 1 384.39 236.68 L 366.73 233.17 A 170 170 0 0 0 369.18 216.66 Z" fill="#FAFAF5" stroke="#2a2a3a" stroke-width="1.5" stroke-linejoin="round"/>
<path d="M 384.39 236.68 A 188 188 0 0 1 379.90 254.57 L 362.68 249.35 A 170 170 0 0 0 366.73 233.17 Z" fill="#FAFAF5" stroke="#2a2a3a" stroke-width="1.5" stroke-linejoin="round"/>
<path d="M 379.90 254.57 A 188 188 0 0 1 373.69 271.94 L 357.06 265.06 A 170 170 0 0 0 362.68 249.35 Z" fill="#FAFAF5" stroke="#2a2a3a" stroke-width="1.5" stroke-linejoin="round"/>
<path d="M 373.69 271.94 A 188 188 0 0 1 365.80 288.62 L 349.93 280.14 A 170 170 0 0 0 357.06 265.06 Z" fill="#FAFAF5" stroke="#2a2a3a" stroke-width="1.5" stroke-linejoin="round"/>
<path d="M 365.80 288.62 A 188 188 0 0 1 356.32 304.45 L 341.35 294.45 A 170 170 0 0 0 349.93 280.14 Z" fill="#FAFAF5" stroke="#2a2a3a" stroke-width="1.5" stroke-linejoin="round"/>
<path d="M 356.32 304.45 A 188 188 0 0 1 345.33 319.27 L 331.41 307.85 A 170 170 0 0 0 341.35 294.45 Z" fill="#FAFAF5" stroke="#2a2a3a" stroke-width="1.5" stroke-linejoin="round"/>
<path d="M 345.33 319.27 A 188 188 0 0 1 332.94 332.94 L 320.21 320.21 A 170 170 0 0 0 331.41 307.85 Z" fill="#FAFAF5" stroke="#2a2a3a" stroke-width="1.5" stroke-linejoin="round"/>
<path d="M 332.94 332.94 A 188 188 0 0 1 319.27 345.33 L 307.85 331.41 A 170 170 0 0 0 320.21 320.21 Z" fill="#FAFAF5" stroke="#2a2a3a" stroke-width="1.5" stroke-linejoin="round"/>
<path d="M 319.27 345.33 A 188 188 0 0 1 304.45 356.32 L 294.45 341.35 A 170 170 0 0 0 307.85 331.41 Z" fill="#FAFAF5" stroke="#2a2a3a" stroke-width="1.5" stroke-linejoin="round"/>
<path d="M 304.45 356.32 A 188 188 0 0 1 288.62 365.80 L 280.14 349.93 A 170 170 0 0 0 294.45 341.35 Z" fill="#FAFAF5" stroke="#2a2a3a" stroke-width="1.5" stroke-linejoin="round"/>
<path d="M 288.62 365.80 A 188 188 0 0 1 271.94 373.69 L 265.06 357.06 A 170 170 0 0 0 280.14 349.93 Z" fill="#FAFAF5" stroke="#2a2a3a" stroke-width="1.5" stroke-linejoin="round"/>
<path d="M 271.94 373.69 A 188 188 0 0 1 254.57 379.90 L 249.35 362.68 A 170 170 0 0 0 265.06 357.06 Z" fill="#FAFAF5" stroke="#2a2a3a" stroke-width="1.5" stroke-linejoin="round"/>
<path d="M 254.57 379.90 A 188 188 0 0 1 236.68 384.39 L 233.17 366.73 A 170 170 0 0 0 249.35 362.68 Z" fill="#FAFAF5" stroke="#2a2a3a" stroke-width="1.5" stroke-linejoin="round"/>
<path d="M 236.68 384.39 A 188 188 0 0 1 218.43 387.09 L 216.66 369.18 A 170 170 0 0 0 233.17 366.73 Z" fill="#FAFAF5" stroke="#2a2a3a" stroke-width="1.5" stroke-linejoin="round"/>
<path d="M 218.43 387.09 A 188 188 0 0 1 200.00 388.00 L 200.00 370.00 A 170 170 0 0 0 216.66 369.18 Z" fill="#FAFAF5" stroke="#2a2a3a" stroke-width="1.5" stroke-linejoin="round"/>
<path d="M 200.00 388.00 A 188 188 0 0 1 181.57 387.09 L 183.34 369.18 A 170 170 0 0 0 200.00 370.00 Z" fill="#FAFAF5" stroke="#2a2a3a" stroke-width="1.5" stroke-linejoin="round"/>
<path d="M 181.57 387.09 A 188 188 0 0 1 163.32 384.39 L 166.83 366.73 A 170 170 0 0 0 183.34 369.18 Z" fill="#FAFAF5" stroke="#2a2a3a" stroke-width="1.5" stroke-linejoin="round"/>
<path d="M 163.32 384.39 A 188 188 0 0 1 145.43 379.90 L 150.65 362.68 A 170 170 0 0 0 166.83 366.73 Z" fill="#FAFAF5" stroke="#2a2a3a" stroke-width="1.5" stroke-linejoin="round"/>
<path d="M 145.43 379.90 A 188 188 0 0 1 128.06 373.69 L 134.94 357.06 A 170 170 0 0 0 150.65 362.68 Z" fill="#FAFAF5" stroke="#2a2a3a" stroke-width="1.5" stroke-linejoin="round"/>
<path d="M 128.06 373.69 A 188 188 0 0 1 111.38 365.80 L 119.86 349.93 A 170 170 0 0 0 134.94 357.06 Z" fill="#FAFAF5" stroke="#2a2a3a" stroke-width="1.5" stroke-linejoin="round"/>
<path d="M 111.38 365.80 A 188 188 0 0 1 95.55 356.32 L 105.55 341.35 A 170 170 0 0 0 119.86 349.93 Z" fill="#FAFAF5" stroke="#2a2a3a" stroke-width="1.5" stroke-linejoin="round"/>
<path d="M 95.55 356.32 A 188 188 0 0 1 80.73 345.33 L 92.15 331.41 A 170 170 0 0 0 105.55 341.35 Z" fill="#FAFAF5" stroke="#2a2a3a" stroke-width="1.5" stroke-linejoin="round"/>
<path d="M 80.73 345.33 A 188 188 0 0 1 67.06 332.94 L 79.79 320.21 A 170 170 0 0 0 92.15 331.41 Z" fill="#FAFAF5" stroke="#2a2a3a" stroke-width="1.5" stroke-linejoin="round"/>
<path d="M 67.06 332.94 A 188 188 0 0 1 54.67 319.27 L 68.59 307.85 A 170 170 0 0 0 79.79 320.21 Z" fill="#FAFAF5" stroke="#2a2a3a" stroke-width="1.5" stroke-linejoin="round"/>
<path d="M 54.67 319.27 A 188 188 0 0 1 43.68 304.45 L 58.65 294.45 A 170 170 0 0 0 68.59 307.85 Z" fill="#FAFAF5" stroke="#2a2a3a" stroke-width="1.5" stroke-linejoin="round"/>
<path d="M 43.68 304.45 A 188 188 0 0 1 34.20 288.62 L 50.07 280.14 A 170 170 0 0 0 58.65 294.45 Z" fill="#FAFAF5" stroke="#2a2a3a" stroke-width="1.5" stroke-linejoin="round"/>
<path d="M 34.20 288.62 A 188 188 0 0 1 26.31 271.94 L 42.94 265.06 A 170 170 0 0 0 50.07 280.14 Z" fill="#FAFAF5" stroke="#2a2a3a" stroke-width="1.5" stroke-linejoin="round"/>
<path d="M 26.31 271.94 A 188 188 0 0 1 20.10 254.57 L 37.32 249.35 A 170 170 0 0 0 42.94 265.06 Z" fill="#FAFAF5" stroke="#2a2a3a" stroke-width="1.5" stroke-linejoin="round"/>
<path d="M 20.10 254.57 A 188 188 0 0 1 15.61 236.68 L 33.27 233.17 A 170 170 0 0 0 37.32 249.35 Z" fill="#FAFAF5" stroke="#2a2a3a" stroke-width="1.5" stroke-linejoin="round"/>
<path d="M 15.61 236.68 A 188 188 0 0 1 12.91 218.43 L 30.82 216.66 A 170 170 0 0 0 33.27 233.17 Z" fill="#FAFAF5" stroke="#2a2a3a" stroke-width="1.5" stroke-linejoin="round"/>
<path d="M 12.91 218.43 A 188 188 0 0 1 12.00 200.00 L 30.00 200.00 A 170 170 0 0 0 30.82 216.66 Z" fill="#FAFAF5" stroke="#2a2a3a" stroke-width="1.5" stroke-linejoin="round"/>
<path d="M 12.00 200.00 A 188 188 0 0 1 12.91 181.57 L 30.82 183.34 A 170 170 0 0 0 30.00 200.00 Z" fill="#FAFAF5" stroke="#2a2a3a" stroke-width="1.5" stroke-linejoin="round"/>
<path d="M 12.91 181.57 A 188 188 0 0 1 15.61 163.32 L 33.27 166.83 A 170 170 0 0 0 30.82 183.34 Z" fill="#FAFAF5" stroke="#2a2a3a" stroke-width="1.5" stroke-linejoin="round"/>
<path d="M 15.61 163.32 A 188 188 0 0 1 20.10 145.43 L 37.32 150.65 A 170 170 0 0 0 33.27 166.83 Z" fill="#FAFAF5" stroke="#2a2a3a" stroke-width="1.5" stroke-linejoin="round"/>
<path d="M 20.10 145.43 A 188 188 0 0 1 26.31 128.06 L 42.94 134.94 A 170 170 0 0 0 37.32 150.65 Z" fill="#FAFAF5" stroke="#2a2a3a" stroke-width="1.5" stroke-linejoin="round"/>
<path d="M 26.31 128.06 A 188 188 0 0 1 34.20 111.38 L 50.07 119.86 A 170 170 0 0 0 42.94 134.94 Z" fill="#FAFAF5" stroke="#2a2a3a" stroke-width="1.5" stroke-linejoin="round"/>
<path d="M 34.20 111.38 A 188 188 0 0 1 43.68 95.55 L 58.65 105.55 A 170 170 0 0 0 50.07 119.86 Z" fill="#FAFAF5" stroke="#2a2a3a" stroke-width="1.5" stroke-linejoin="round"/>
<path d="M 43.68 95.55 A 188 188 0 0 1 54.67 80.73 L 68.59 92.15 A 170 170 0 0 0 58.65 105.55 Z" fill="#FAFAF5" stroke="#2a2a3a" stroke-width="1.5" stroke-linejoin="round"/>
<path d="M 54.67 80.73 A 188 188 0 0 1 67.06 67.06 L 79.79 79.79 A 170 170 0 0 0 68.59 92.15 Z" fill="#FAFAF5" stroke="#2a2a3a" stroke-width="1.5" stroke-linejoin="round"/>
<path d="M 67.06 67.06 A 188 188 0 0 1 80.73 54.67 L 92.15 68.59 A 170 170 0 0 0 79.79 79.79 Z" fill="#FAFAF5" stroke="#2a2a3a" stroke-width="1.5" stroke-linejoin="round"/>
<path d="M 80.73 54.67 A 188 188 0 0 1 95.55 43.68 L 105.55 58.65 A 170 170 0 0 0 92.15 68.59 Z" fill="#FAFAF5" stroke="#2a2a3a" stroke-width="1.5" stroke-linejoin="round"/>
<path d="M 95.55 43.68 A 188 188 0 0 1 111.38 34.20 L 119.86 50.07 A 170 170 0 0 0 105.55 58.65 Z" fill="#FAFAF5" stroke="#2a2a3a" stroke-width="1.5" stroke-linejoin="round"/>
<path d="M 111.38 34.20 A 188 188 0 0 1 128.06 26.31 L 134.94 42.94 A 170 170 0 0 0 119.86 50.07 Z" fill="#FAFAF5" stroke="#2a2a3a" stroke-width="1.5" stroke-linejoin="round"/>
<path d="M 128.06 26.31 A 188 188 0 0 1 145.43 20.10 L 150.65 37.32 A 170 170 0 0 0 134.94 42.94 Z" fill="#FAFAF5" stroke="#2a2a3a" stroke-width="1.5" stroke-linejoin="round"/>
<path d="M 145.43 20.10 A 188 188 0 0 1 163.32 15.61 L 166.83 33.27 A 170 170 0 0 0 150.65 37.32 Z" fill="#FAFAF5" stroke="#2a2a3a" stroke-width="1.5" stroke-linejoin="round"/>
<path d="M 163.32 15.61 A 188 188 0 0 1 181.57 12.91 L 183.34 30.82 A 170 170 0 0 0 166.83 33.27 Z" fill="#FAFAF5" stroke="#2a2a3a" stroke-width="1.5" stroke-linejoin="round"/>
<path d="M 181.57 12.91 A 188 188 0 0 1 200.00 12.00 L 200.00 30.00 A 170 170 0 0 0 183.34 30.82 Z" fill="#FAFAF5" stroke="#2a2a3a" stroke-width="1.5" stroke-linejoin="round"/>
<path d="M 200.00 4.00 A 196 196 0 0 1 238.24 7.77 L 236.68 15.61 A 188 188 0 0 0 200.00 12.00 Z" fill="#FAFAF5" stroke="#2a2a3a" stroke-width="1.5" stroke-linejoin="round"/>
<path d="M 238.24 7.77 A 196 196 0 0 1 275.01 18.92 L 271.94 26.31 A 188 188 0 0 0 236.68 15.61 Z" fill="#FAFAF5" stroke="#2a2a3a" stroke-width="1.5" stroke-linejoin="round"/>
<path d="M 275.01 18.92 A 196 196 0 0 1 308.89 37.03 L 304.45 43.68 A 188 188 0 0 0 271.94 26.31 Z" fill="#FAFAF5" stroke="#2a2a3a" stroke-width="1.5" stroke-linejoin="round"/>
<path d="M 308.89 37.03 A 196 196 0 0 1 338.59 61.41 L 332.94 67.06 A 188 188 0 0 0 304.45 43.68 Z" fill="#FAFAF5" stroke="#2a2a3a" stroke-width="1.5" stroke-linejoin="round"/>
<path d="M 338.59 61.41 A 196 196 0 0 1 362.97 91.11 L 356.32 95.55 A 188 188 0 0 0 332.94 67.06 Z" fill="#FAFAF5" stroke="#2a2a3a" stroke-width="1.5" stroke-linejoin="round"/>
<path d="M 362.97 91.11 A 196 196 0 0 1 381.08 124.99 L 373.69 128.06 A 188 188 0 0 0 356.32 95.55 Z" fill="#FAFAF5" stroke="#2a2a3a" stroke-width="1.5" stroke-linejoin="round"/>
<path d="M 381.08 124.99 A 196 196 0 0 1 392.23 161.76 L 384.39 163.32 A 188 188 0 0 0 373.69 128.06 Z" fill="#FAFAF5" stroke="#2a2a3a" stroke-width="1.5" stroke-linejoin="round"/>
<path d="M 392.23 161.76 A 196 196 0 0 1 396.00 200.00 L 388.00 200.00 A 188 188 0 0 0 384.39 163.32 Z" fill="#FAFAF5" stroke="#2a2a3a" stroke-width="1.5" stroke-linejoin="round"/>
<path d="M 396.00 200.00 A 196 196 0 0 1 392.23 238.24 L 384.39 236.68 A 188 188 0 0 0 388.00 200.00 Z" fill="#FAFAF5" stroke="#2a2a3a" stroke-width="1.5" stroke-linejoin="round"/>
<path d="M 392.23 238.24 A 196 196 0 0 1 381.08 275.01 L 373.69 271.94 A 188 188 0 0 0 384.39 236.68 Z" fill="#FAFAF5" stroke="#2a2a3a" stroke-width="1.5" stroke-linejoin="round"/>
<path d="M 381.08 275.01 A 196 196 0 0 1 362.97 308.89 L 356.32 304.45 A 188 188 0 0 0 373.69 271.94 Z" fill="#FAFAF5" stroke="#2a2a3a" stroke-width="1.5" stroke-linejoin="round"/>
<path d="M 362.97 308.89 A 196 196 0 0 1 338.59 338.59 L 332.94 332.94 A 188 188 0 0 0 356.32 304.45 Z" fill="#FAFAF5" stroke="#2a2a3a" stroke-width="1.5" stroke-linejoin="round"/>
<path d="M 338.59 338.59 A 196 196 0 0 1 308.89 362.97 L 304.45 356.32 A 188 188 0 0 0 332.94 332.94 Z" fill="#FAFAF5" stroke="#2a2a3a" stroke-width="1.5" stroke-linejoin="round"/>
<path d="M 308.89 362.97 A 196 196 0 0 1 275.01 381.08 L 271.94 373.69 A 188 188 0 0 0 304.45 356.32 Z" fill="#FAFAF5" stroke="#2a2a3a" stroke-width="1.5" stroke-linejoin="round"/>
<path d="M 275.01 381.08 A 196 196 0 0 1 238.24 392.23 L 236.68 384.39 A 188 188 0 0 0 271.94 373.69 Z" fill="#FAFAF5" stroke="#2a2a3a" stroke-width="1.5" stroke-linejoin="round"/>
<path d="M 238.24 392.23 A 196 196 0 0 1 200.00 396.00 L 200.00 388.00 A 188 188 0 0 0 236.68 384.39 Z" fill="#FAFAF5" stroke="#2a2a3a" stroke-width="1.5" stroke-linejoin="round"/>
<path d="M 200.00 396.00 A 196 196 0 0 1 161.76 392.23 L 163.32 384.39 A 188 188 0 0 0 200.00 388.00 Z" fill="#FAFAF5" stroke="#2a2a3a" stroke-width="1.5" stroke-linejoin="round"/>
<path d="M 161.76 392.23 A 196 196 0 0 1 124.99 381.08 L 128.06 373.69 A 188 188 0 0 0 163.32 384.39 Z" fill="#FAFAF5" stroke="#2a2a3a" stroke-width="1.5" stroke-linejoin="round"/>
<path d="M 124.99 381.08 A 196 196 0 0 1 91.11 362.97 L 95.55 356.32 A 188 188 0 0 0 128.06 373.69 Z" fill="#FAFAF5" stroke="#2a2a3a" stroke-width="1.5" stroke-linejoin="round"/>
<path d="M 91.11 362.97 A 196 196 0 0 1 61.41 338.59 L 67.06 332.94 A 188 188 0 0 0 95.55 356.32 Z" fill="#FAFAF5" stroke="#2a2a3a" stroke-width="1.5" stroke-linejoin="round"/>
<path d="M 61.41 338.59 A 196 196 0 0 1 37.03 308.89 L 43.68 304.45 A 188 188 0 0 0 67.06 332.94 Z" fill="#FAFAF5" stroke="#2a2a3a" stroke-width="1.5" stroke-linejoin="round"/>
<path d="M 37.03 308.89 A 196 196 0 0 1 18.92 275.01 L 26.31 271.94 A 188 188 0 0 0 43.68 304.45 Z" fill="#FAFAF5" stroke="#2a2a3a" stroke-width="1.5" stroke-linejoin="round"/>
<path d="M 18.92 275.01 A 196 196 0 0 1 7.77 238.24 L 15.61 236.68 A 188 188 0 0 0 26.31 271.94 Z" fill="#FAFAF5" stroke="#2a2a3a" stroke-width="1.5" stroke-linejoin="round"/>
<path d="M 7.77 238.24 A 196 196 0 0 1 4.00 200.00 L 12.00 200.00 A 188 188 0 0 0 15.61 236.68 Z" fill="#FAFAF5" stroke="#2a2a3a" stroke-width="1.5" stroke-linejoin="round"/>
<path d="M 4.00 200.00 A 196 196 0 0 1 7.77 161.76 L 15.61 163.32 A 188 188 0 0 0 12.00 200.00 Z" fill="#FAFAF5" stroke="#2a2a3a" stroke-width="1.5" stroke-linejoin="round"/>
<path d="M 7.77 161.76 A 196 196 0 0 1 18.92 124.99 L 26.31 128.06 A 188 188 0 0 0 15.61 163.32 Z" fill="#FAFAF5" stroke="#2a2a3a" stroke-width="1.5" stroke-linejoin="round"/>
<path d="M 18.92 124.99 A 196 196 0 0 1 37.03 91.11 L 43.68 95.55 A 188 188 0 0 0 26.31 128.06 Z" fill="#FAFAF5" stroke="#2a2a3a" stroke-width="1.5" stroke-linejoin="round"/>
<path d="M 37.03 91.11 A 196 196 0 0 1 61.41 61.41 L 67.06 67.06 A 188 188 0 0 0 43.68 95.55 Z" fill="#FAFAF5" stroke="#2a2a3a" stroke-width="1.5" stroke-linejoin="round"/>
<path d="M 61.41 61.41 A 196 196 0 0 1 91.11 37.03 L 95.55 43.68 A 188 188 0 0 0 67.06 67.06 Z" fill="#FAFAF5" stroke="#2a2a3a" stroke-width="1.5" stroke-linejoin="round"/>
<path d="M 91.11 37.03 A 196 196 0 0 1 124.99 18.92 L 128.06 26.31 A 188 188 0 0 0 95.55 43.68 Z" fill="#FAFAF5" stroke="#2a2a3a" stroke-width="1.5" stroke-linejoin="round"/>
<path d="M 124.99 18.92 A 196 196 0 0 1 161.76 7.77 L 163.32 15.61 A 188 188 0 0 0 128.06 26.31 Z" fill="#FAFAF5" stroke="#2a2a3a" stroke-width="1.5" stroke-linejoin="round"/>
<path d="M 161.76 7.77 A 196 196 0 0 1 200.00 4.00 L 200.00 12.00 A 188 188 0 0 0 163.32 15.61 Z" fill="#FAFAF5" stroke="#2a2a3a" stroke-width="1.5" stroke-linejoin="round"/>
</svg>