<?xml version="1.0" encoding="UTF-8"?>
<svg xmlns="http://www.w3.org/2000/svg" viewBox="0 0 400 400" width="400" height="400">
<rect width="400" height="400" fill="#FAFAF5"/>
<circle cx="200" cy="200" r="18" fill="#FAFAF5" stroke="#2a2a3a" stroke-width="1.5" stroke-linejoin="round"/>
<path d="M 200.00 152.00 A 48 48 0 0 1 241.57 176.00 L 215.59 191.00 A 18 18 0 0 0 200.00 182.00 Z" fill="#FAFAF5" stroke="#2a2a3a" stroke-width="1.5" stroke-linejoin="round"/>
<path d="M 241.57 176.00 A 48 48 0 0 1 241.57 224.00 L 215.59 209.00 A 18 18 0 0 0 215.59 191.00 Z" fill="#FAFAF5" stroke="#2a2a3a" stroke-width="1.5" stroke-linejoin="round"/>
<path d="M 241.57 224.00 A 48 48 0 0 1 200.00 248.00 L 200.00 218.00 A 18 18 0 0 0 215.59 209.00 Z" fill="#FAFAF5" stroke="#2a2a3a" stroke-width="1.5" stroke-linejoin="round"/>
<path d="M 200.00 248.00 A 48 48 0 0 1 158.43 224.00 L 184.41 209.00 A 18 18 0 0 0 200.00 218.00 Z" fill="#FAFAF5" stroke="#2a2a3a" stroke-width="1.5" stroke-linejoin="round"/>
<path d="M 158.43 224.00 A 48 48 0 0 1 158.43 176.00 L 184.41 191.00 A 18 18 0 0 0 184.41 209.00 Z" fill="#FAFAF5" stroke="#2a2a3a" stroke-width="1.5" stroke-linejoin="round"/>
<path d="M 158.43 176.00 A 48 48 0 0 1 200.00 152.00 L 200.00 182.00 A 18 18 0 0 0 184.41 191.00 Z" fill="#FAFAF5" stroke="#2a2a3a" stroke-width="1.5" stroke-linejoin="round"/>
<path d="M 200.00 115.00 A 85 85 0 0 1 242.50 126.39 L 224.00 158.43 A 48 48 0 0 0 200.00 152.00 Z" fill="#FAFAF5" stroke="#2a2a3a" stroke-width="1.5" stroke-linejoin="round"/>
<path d="M 242.50 126.39 A 85 85 0 0 1 273.61 157.50 L 241.57 176.00 A 48 48 0 0 0 224.00 158.43 Z" fill="#FAFAF5" stroke="#2a2a3a" stroke-width="1.5" stroke-linejoin="round"/>
<path d="M 273.61 157.50 A 85 85 0 0 1 285.00 200.00 L 248.00 200.00 A 48 48 0 0 0 241.57 176.00 Z" fill="#FAFAF5" stroke="#2a2a3a" stroke-width="1.5" stroke-linejoin="round"/>
<path d="M 285.00 200.00 A 85 85 0 0 1 273.61 242.50 L 241.57 224.00 A 48 48 0 0 0 248.00 200.00 Z" fill="#FAFAF5" stroke="#2a2a3a" stroke-width="1.5" stroke-linejoin="round"/>
<path d="M 273.61 242.50 A 85 85 0 0 1 242.50 273.61 L 224.00 241.57 A 48 48 0 0 0 241.57 224.00 Z" fill="#FAFAF5" stroke="#2a2a3a" stroke-width="1.5" stroke-linejoin="round"/>
<path d="M 242.50 273.61 A 85 85 0 0 1 200.00 285.00 L 200.00 248.00 A 48 48 0 0 0 224.00 241.57 Z" fill="#FAFAF5" stroke="#2a2a3a" stroke-width="1.5" stroke-linejoin="round"/>
<path d="M 200.00 285.00 A 85 85 0 0 1 157.50 273.61 L 176.00 241.57 A 48 48 0 0 0 200.00 248.00 Z" fill="#FAFAF5" stroke="#2a2a3a" stroke-width="1.5" stroke-linejoin="round"/>
<path d="M 157.50 273.61 A 85 85 0 0 1 126.39 242.50 L 158.43 224.00 A 48 48 0 0 0 176.00 241.57 Z" fill="#FAFAF5" stroke="#2a2a3a" stroke-width="1.5" stroke-linejoin="round"/>
<path d="M 126.39 242.50 A 85 85 0 0 1 115.00 200.00 L 152.00 200.00 A 48 48 0 0 0 158.43 224.00 Z" fill="#FAFAF5" stroke="#2a2a3a" stroke-width="1.5" stroke-linejoin="round"/>
<path d="M 115.00 200.00 A 85 85 0 0 1 126.39 157.50 L 158.43 176.00 A 48 48 0 0 0 152.00 200.00 Z" fill="#FAFAF5" stroke="#2a2a3a" stroke-width="1.5" stroke-linejoin="round"/>
<path d="M 126.39 157.50 A 85 85 0 0 1 157.50 126.39 L 176.00 158.43 A 48 48 0 0 0 158.43 176.00 Z" fill="#FAFAF5" stroke="#2a2a3a" stroke-width="1.5" stroke-linejoin="round"/>
<path d="M 157.50 126.39 A 85 85 0 0 1 200.00 115.00 L 200.00 152.00 A 48 48 0 0 0 176.00 158.43 Z" fill="#FAFAF5" stroke="#2a2a3a" stroke-width="1.5" stroke-linejoin="round"/>
<path d="M 200.00 80.00 A 120 120 0 0 1 303.92 140.00 L 273.61 157.50 A 85 85 0 0 0 200.00 115.00 Z" fill="#FAFAF5" stroke="#2a2a3a" stroke-width="1.5" stroke-linejoin="round"/>
<path d="M 303.92 140.00 A 120 120 0 0 1 303.92 260.00 L 273.61 242.50 A 85 85 0 0 0 273.61 157.50 Z" fill="#FAFAF5" stroke="#2a2a3a" stroke-width="1.5" stroke-linejoin="round"/>
<path d="M 303.92 260.00 A 120 120 0 0 1 200.00 320.00 L 200.00 285.00 A 85 85 0 0 0 273.61 242.50 Z" fill="#FAFAF5" stroke="#2a2a3a" stroke-width="1.5" stroke-linejoin="round"/>
<path d="M 200.00 320.00 A 120 120 0 0 1 96.08 260.00 L 126.39 242.50 A 85 85 0 0 0 200.00 285.00 Z" fill="#FAFAF5" stroke="#2a2a3a" stroke-width="1.5" stroke-linejoin="round"/>
<path d="M 96.08 260.00 A 120 120 0 0 1 96.08 140.00 L 126.39 157.50 A 85 85 0 0 0 126.39 242.50 Z" fill="#FAFAF5" stroke="#2a2a3a" stroke-width="1.5" stroke-linejoin="round"/>
<path d="M 96.08 140.00 A 120 120 0 0 1 200.00 80.00 L 200.00 115.00 A 85 85 0 0 0 126.39 157.50 Z" fill="#FAFAF5" stroke="#2a2a3a" stroke-width="1.5" stroke-linejoin="round"/>
<path d="M 200.00 45.00 A 155 155 0 0 1 240.12 50.28 L 231.06 84.09 A 120 120 0 0 0 200.00 80.00 Z" fill="#FAFAF5" stroke="#2a2a3a" stroke-width="1.5" stroke-linejoin="round"/>
<path d="M 240.12 50.28 A 155 155 0 0 1 277.50 65.77 L 260.00 96.08 A 120 120 0 0 0 231.06 84.09 Z" fill="#FAFAF5" stroke="#2a2a3a" stroke-width="1.5" stroke-linejoin="round"/>
<path d="M 277.50 65.77 A 155 155 0 0 1 309.60 90.40 L 284.85 115.15 A 120 120 0 0 0 260.00 96.08 Z" fill="#FAFAF5" stroke="#2a2a3a" stroke-width="1.5" stroke-linejoin="round"/>
<path d="M 309.60 90.40 A 155 155 0 0 1 334.23 122.50 L 303.92 140.00 A 120 120 0 0 0 284.85 115.15 Z" fill="#FAFAF5" stroke="#2a2a3a" stroke-width="1.5" stroke-linejoin="round"/>
<path d="M 334.23 122.50 A 155 155 0 0 1 349.72 159.88 L 315.91 168.94 A 120 120 0 0 0 303.92 140.00 Z" fill="#FAFAF5" stroke="#2a2a3a" stroke-width="1.5" stroke-linejoin="round"/>
<path d="M 349.72 159.88 A 155 155 0 0 1 355.00 200.00 L 320.00 200.00 A 120 120 0 0 0 315.91 168.94 Z" fill="#FAFAF5" stroke="#2a2a3a" stroke-width="1.5" stroke-linejoin="round"/>
<path d="M 355.00 200.00 A 155 155 0 0 1 349.72 240.12 L 315.91 231.06 A 120 120 0 0 0 320.00 200.00 Z" fill="#FAFAF5" stroke="#2a2a3a" stroke-width="1.5" stroke-linejoin="round"/>
<path d="M 349.72 240.12 A 155 155 0 0 1 334.23 277.50 L 303.92 260.00 A 120 120 0 0 0 315.91 231.06 Z" fill="#FAFAF5" stroke="#2a2a3a" stroke-width="1.5" stroke-linejoin="round"/>
<path d="M 334.23 277.50 A 155 155 0 0 1 309.60 309.60 L 284.85 284.85 A 120 120 0 0 0 303.92 260.00 Z" fill="#FAFAF5" stroke="#2a2a3a" stroke-width="1.5" stroke-linejoin="round"/>
<path d="M 309.60 309.60 A 155 155 0 0 1 277.50 334.23 L 260.00 303.92 A 120 120 0 0 0 284.85 284.85 Z" fill="#FAFAF5" stroke="#2a2a3a" stroke-width="1.5" stroke-linejoin="round"/>
<path d="M 277.50 334.23 A 155 155 0 0 1 240.12 349.72 L 231.06 315.91 A 120 120 0 0 0 260.00 303.92 Z" fill="#FAFAF5" stroke="#2a2a3a" stroke-width="1.5" stroke-linejoin="round"/>
<path d="M 240.12 349.72 A 155 155 0 0 1 200.00 355.00 L 200.00 320.00 A 120 120 0 0 0 231.06 315.91 Z" fill="#FAFAF5" stroke="#2a2a3a" stroke-width="1.5" stroke-linejoin="round"/>
<path d="M 200.00 355.00 A 155 155 0 0 1 159.88 349.72 L 168.94 315.91 A 120 120 0 0 0 200.00 320.00 Z" fill="#FAFAF5" stroke="#2a2a3a" stroke-width="1.5" stroke-linejoin="round"/>
<path d="M 159.88 349.72 A 155 155 0 0 1 122.50 334.23 L 140.00 303.92 A 120 120 0 0 0 168.94 315.91 Z" fill="#FAFAF5" stroke="#2a2a3a" stroke-width="1.5" stroke-linejoin="round"/>
<path d="M 122.50 334.23 A 155 155 0 0 1 90.40 309.60 L 115.15 284.85 A 120 120 0 0 0 140.00 303.92 Z" fill="#FAFAF5" stroke="#2a2a3a" stroke-width="1.5" stroke-linejoin="round"/>
<path d="M 90.40 309.60 A 155 155 0 0 1 65.77 277.50 L 96.08 260.00 A 120 120 0 0 0 115.15 284.85 Z" fill="#FAFAF5" stroke="#2a2a3a" stroke-width="1.5" stroke-linejoin="round"/>
<path d="M 65.77 277.50 A 155 155 0 0 1 50.28 240.12 L 84.09 231.06 A 120 120 0 0 0 96.08 260.00 Z" fill="#FAFAF5" stroke="#2a2a3a" stroke-width="1.5" stroke-linejoin="round"/>
<path d="M 50.28 240.12 A 155 155 0 0 1 45.00 200.00 L 80.00 200.00 A 120 120 0 0 0 84.09 231.06 Z" fill="#FAFAF5" stroke="#2a2a3a" stroke-width="1.5" stroke-linejoin="round"/>
<path d="M 45.00 200.00 A 155 155 0 0 1 50.28 159.88 L 84.09 168.94 A 120 120 0 0 0 80.00 200.00 Z" fill="#FAFAF5" stroke="#2a2a3a" stroke-width="1.5" stroke-linejoin="round"/>
<path d="M 50.28 159.88 A 155 155 0 0 1 65.77 122.50 L 96.08 140.00 A 120 120 0 0 0 84.09 168.94 Z" fill="#FAFAF5" stroke="#2a2a3a" stroke-width="1.5" stroke-linejoin="round"/>
<path d="M 65.77 122.50 A 155 155 0 0 1 90.40 90.40 L 115.15 115.15 A 120 120 0 0 0 96.08 140.00 Z" fill="#FAFAF5" stroke="#2a2a3a" stroke-width="1.5" stroke-linejoin="round"/>
<path d="M 90.40 90.40 A 155 155 0 0 1 122.50 65.77 L 140.00 96.08 A 120 120 0 0 0 115.15 115.15 Z" fill="#FAFAF5" stroke="#2a2a3a" stroke-width="1.5" stroke-linejoin="round"/>
<path d="M 122.50 65.77 A 155 155 0 0 1 159.88 50.28 L 168.94 84.09 A 120 120 0 0 0 140.00 96.08 Z" fill="#FAFAF5" stroke="#2a2a3a" stroke-width="1.5" stroke-linejoin="round"/>
<path d="M 159.88 50.28 A 155 155 0 0 1 200.00 45.00 L 200.00 80.00 A 120 120 0 0 0 168.94 84.09 Z" fill="#FAFAF5" stroke="#2a2a3a" stroke-width="1.5" stroke-linejoin="round"/>
<path d="M 200.00 15.00 A 185 185 0 0 1 292.50 39.79 L 277.50 65.77 A 155 155 0 0 0 200.00 45.00 Z" fill="#FAFAF5" stroke="#2a2a3a" stroke-width="1.5" stroke-linejoin="round"/>
<path d="M 292.50 39.79 A 185 185 0 0 1 360.21 107.50 L 334.23 122.50 A 155 155 0 0 0 277.50 65.77 Z" fill="#FAFAF5" stroke="#2a2a3a" stroke-width="1.5" stroke-linejoin="round"/>
<path d="M 360.21 107.50 A 185 185 0 0 1 385.00 200.00 L 355.00 200.00 A 155 155 0 0 0 334.23 122.50 Z" fill="#FAFAF5" stroke="#2a2a3a" stroke-width="1.5" stroke-linejoin="round"/>
<path d="M 385.00 200.00 A 185 185 0 0 1 360.21 292.50 L 334.23 277.50 A 155 155 0 0 0 355.00 200.00 Z" fill="#FAFAF5" stroke="#2a2a3a" stroke-width="1.5" stroke-linejoin="round"/>
<path d="M 360.21 292.50 A 185 185 0 0 1 292.50 360.21 L 277.50 334.23 A 155 155 0 0 0 334.23 277.50 Z" fill="#FAFAF5" stroke="#2a2a3a" stroke-width="1.5" stroke-linejoin="round"/>
<path d="M 292.50 360.21 A 185 185 0 0 1 200.00 385.00 L 200.00 355.00 A 155 155 0 0 0 277.50 334.23 Z" fill="#FAFAF5" stroke="#2a2a3a" stroke-width="1.5" stroke-linejoin="round"/>
<path d="M 200.00 385.00 A 185 185 0 0 1 107.50 360.21 L 122.50 334.23 A 155 155 0 0 0 200.00 355.00 Z" fill="#FAFAF5" stroke="#2a2a3a" stroke-width="1.5" stroke-linejoin="round"/>
<path d="M 107.50 360.21 A 185 185 0 0 1 39.79 292.50 L 65.77 277.50 A 155 155 0 0 0 122.50 334.23 Z" fill="#FAFAF5" stroke="#2a2a3a" stroke-width="1.5" stroke-linejoin="round"/>
<path d="M 39.79 292.50 A 185 185 0 0 1 15.00 200.00 L 45.00 200.00 A 155 155 0 0 0 65.77 277.50 Z" fill="#FAFAF5" stroke="#2a2a3a" stroke-width="1.5" stroke-linejoin="round"/>
<path d="M 15.00 200.00 A 185 185 0 0 1 39.79 107.50 L 65.77 122.50 A 155 155 0 0 0 45.00 200.00 Z" fill="#FAFAF5" stroke="#2a2a3a" stroke-width="1.5" stroke-linejoin="round"/>
<path d="M 39.79 107.50 A 185 185 0 0 1 107.50 39.79 L 122.50 65.77 A 155 155 0 0 0 65.77 122.50 Z" fill="#FAFAF5" stroke="#2a2a3a" stroke-width="1.5" stroke-linejoin="round"/>
<path d="M 107.50 39.79 A 185 185 0 0 1 200.00 15.00 L 200.00 45.00 A 155 155 0 0 0 122.50 65.77 Z" fill="#FAFAF5" stroke="#2a2a3a" stroke-width="1.5" stroke-linejoin="round"/>
<path d="M 200.00 5.00 A 195 195 0 0 1 250.47 11.64 L 247.88 21.30 A 185 185 0 0 0 200.00 15.00 Z" fill="#FAFAF5" stroke="#2a2a3a" stroke-width="1.5" stroke-linejoin="round"/>
<path d="M 250.47 11.64 A 195 195 0 0 1 297.50 31.13 L 292.50 39.79 A 185 185 0 0 0 247.88 21.30 Z" fill="#FAFAF5" stroke="#2a2a3a" stroke-width="1.5" stroke-linejoin="round"/>
<path d="M 297.50 31.13 A 195 195 0 0 1 337.89 62.11 L 330.81 69.19 A 185 185 0 0 0 292.50 39.79 Z" fill="#FAFAF5" stroke="#2a2a3a" stroke-width="1.5" stroke-linejoin="round"/>
<path d="M 337.89 62.11 A 195 195 0 0 1 368.87 102.50 L 360.21 107.50 A 185 185 0 0 0 330.81 69.19 Z" fill="#FAFAF5" stroke="#2a2a3a" stroke-width="1.5" stroke-linejoin="round"/>
<path d="M 368.87 102.50 A 195 195 0 0 1 388.36 149.53 L 378.70 152.12 A 185 185 0 0 0 360.21 107.50 Z" fill="#FAFAF5" stroke="#2a2a3a" stroke-width="1.5" stroke-linejoin="round"/>
<path d="M 388.36 149.53 A 195 195 0 0 1 395.00 200.00 L 385.00 200.00 A 185 185 0 0 0 378.70 152.12 Z" fill="#FAFAF5" stroke="#2a2a3a" stroke-width="1.5" stroke-linejoin="round"/>
<path d="M 395.00 200.00 A 195 195 0 0 1 388.36 250.47 L 378.70 247.88 A 185 185 0 0 0 385.00 200.00 Z" fill="#FAFAF5" stroke="#2a2a3a" stroke-width="1.5" stroke-linejoin="round"/>
<path d="M 388.36 250.47 A 195 195 0 0 1 368.87 297.50 L 360.21 292.50 A 185 185 0 0 0 378.70 247.88 Z" fill="#FAFAF5" stroke="#2a2a3a" stroke-width="1.5" stroke-linejoin="round"/>
<path d="M 368.87 297.50 A 195 195 0 0 1 337.89 337.89 L 330.81 330.81 A 185 185 0 0 0 360.21 292.50 Z" fill="#FAFAF5" stroke="#2a2a3a" stroke-width="1.5" stroke-linejoin="round"/>
<path d="M 337.89 337.89 A 195 195 0 0 1 297.50 368.87 L 292.50 360.21 A 185 185 0 0 0 330.81 330.81 Z" fill="#FAFAF5" stroke="#2a2a3a" stroke-width="1.5" stroke-linejoin="round"/>
<path d="M 297.50 368.87 A 195 195 0 0 1 250.47 388.36 L 247.88 378.70 A 185 185 0 0 0 292.50 360.21 Z" fill="#FAFAF5" stroke="#2a2a3a" stroke-width="1.5" stroke-linejoin="round"/>
<path d="M 250.47 388.36 A 195 195 0 0 1 200.00 395.00 L 200.00 385.00 A 185 185 0 0 0 247.88 378.70 Z" fill="#FAFAF5" stroke="#2a2a3a" stroke-width="1.5" stroke-linejoin="round"/>
<path d="M 200.00 395.00 A 195 195 0 0 1 149.53 388.36 L 152.12 378.70 A 185 185 0 0 0 200.00 385.00 Z" fill="#FAFAF5" stroke="#2a2a3a" stroke-width="1.5" stroke-linejoin="round"/>
<path d="M 149.53 388.36 A 195 195 0 0 1 102.50 368.87 L 107.50 360.21 A 185 185 0 0 0 152.12 378.70 Z" fill="#FAFAF5" stroke="#2a2a3a" stroke-width="1.5" stroke-linejoin="round"/>
<path d="M 102.50 368.87 A 195 195 0 0 1 62.11 337.89 L 69.19 330.81 A 185 185 0 0 0 107.50 360.21 Z" fill="#FAFAF5" stroke="#2a2a3a" stroke-width="1.5" stroke-linejoin="round"/>
<path d="M 62.11 337.89 A 195 195 0 0 1 31.13 297.50 L 39.79 292.50 A 185 185 0 0 0 69.19 330.81 Z" fill="#FAFAF5" stroke="#2a2a3a" stroke-width="1.5" stroke-linejoin="round"/>
<path d="M 31.13 297.50 A 195 195 0 0 1 11.64 250.47 L 21.30 247.88 A 185 185 0 0 0 39.79 292.50 Z" fill="#FAFAF5" stroke="#2a2a3a" stroke-width="1.5" stroke-linejoin="round"/>
<path d="M 11.64 250.47 A 195 195 0 0 1 5.00 200.00 L 15.00 200.00 A 185 185 0 0 0 21.30 247.88 Z" fill="#FAFAF5" stroke="#2a2a3a" stroke-width="1.5" stroke-linejoin="round"/>
<path d="M 5.00 200.00 A 195 195 0 0 1 11.64 149.53 L 21.30 152.12 A 185 185 0 0 0 15.00 200.00 Z" fill="#FAFAF5" stroke="#2a2a3a" stroke-width="1.5" stroke-linejoin="round"/>
<path d="M 11.64 149.53 A 195 195 0 0 1 31.13 102.50 L 39.79 107.50 A 185 185 0 0 0 21.30 152.12 Z" fill="#FAFAF5" stroke="#2a2a3a" stroke-width="1.5" stroke-linejoin="round"/>
<path d="M 31.13 102.50 A 195 195 0 0 1 62.11 62.11 L 69.19 69.19 A 185 185 0 0 0 39.79 107.50 Z" fill="#FAFAF5" stroke="#2a2a3a" stroke-width="1.5" stroke-linejoin="round"/>
<path d="M 62.11 62.11 A 195 195 0 0 1 102.50 31.13 L 107.50 39.79 A 185 185 0 0 0 69.19 69.19 Z" fill="#FAFAF5" stroke="#2a2a3a" stroke-width="1.5" stroke-linejoin="round"/>
<path d="M 102.50 31.13 A 195 195 0 0 1 149.53 11.64 L 152.12 21.30 A 185 185 0 0 0 107.50 39.79 Z" fill="#FAFAF5" stroke="#2a2a3a" stroke-width="1.5" stroke-linejoin="round"/>
<path d="M 149.53 11.64 A 195 195 0 0 1 200.00 5.00 L 200.00 15.00 A 185 185 0 0 0 152.12 21.30 Z" fill="#FAFAF5" stroke="#2a2a3a" stroke-width="1.5" stroke-linejoin="round"/>
</svg>