<?xml version="1.0" encoding="UTF-8"?>
<svg xmlns="http://www.w3.org/2000/svg" viewBox="0 0 400 400" width="400" height="400">
<rect width="400" height="400" fill="#FAFAF5"/>
<circle cx="200" cy="200" r="20" fill="#FAFAF5" stroke="#2a2a3a" stroke-width="1.5" stroke-linejoin="round"/>
<path d="M 200.00 145.00 A 55 55 0 0 1 232.33 155.50 L 211.76 183.82 A 20 20 0 0 0 200.00 180.00 Z" fill="#FAFAF5" stroke="#2a2a3a" stroke-width="1.5" stroke-linejoin="round"/>
<path d="M 232.33 155.50 A 55 55 0 0 1 252.31 183.00 L 219.02 193.82 A 20 20 0 0 0 211.76 183.82 Z" fill="#FAFAF5" stroke="#2a2a3a" stroke-width="1.5" stroke-linejoin="round"/>
<path d="M 252.31 183.00 A 55 55 0 0 1 252.31 217.00 L 219.02 206.18 A 20 20 0 0 0 219.02 193.82 Z" fill="#FAFAF5" stroke="#2a2a3a" stroke-width="1.5" stroke-linejoin="round"/>
<path d="M 252.31 217.00 A 55 55 0 0 1 232.33 244.50 L 211.76 216.18 A 20 20 0 0 0 219.02 206.18 Z" fill="#FAFAF5" stroke="#2a2a3a" stroke-width="1.5" stroke-linejoin="round"/>
<path d="M 232.33 244.50 A 55 55 0 0 1 200.00 255.00 L 200.00 220.00 A 20 20 0 0 0 211.76 216.18 Z" fill="#FAFAF5" stroke="#2a2a3a" stroke-width="1.5" stroke-linejoin="round"/>
<path d="M 200.00 255.00 A 55 55 0 0 1 167.67 244.50 L 188.24 216.18 A 20 20 0 0 0 200.00 220.00 Z" fill="#FAFAF5" stroke="#2a2a3a" stroke-width="1.5" stroke-linejoin="round"/>
<path d="M 167.67 244.50 A 55 55 0 0 1 147.69 217.00 L 180.98 206.18 A 20 20 0 0 0 188.24 216.18 Z" fill="#FAFAF5" stroke="#2a2a3a" stroke-width="1.5" stroke-linejoin="round"/>
<path d="M 147.69 217.00 A 55 55 0 0 1 147.69 183.00 L 180.98 193.82 A 20 20 0 0 0 180.98 206.18 Z" fill="#FAFAF5" stroke="#2a2a3a" stroke-width="1.5" stroke-linejoin="round"/>
<path d="M 147.69 183.00 A 55 55 0 0 1 167.67 155.50 L 188.24 183.82 A 20 20 0 0 0 180.98 193.82 Z" fill="#FAFAF5" stroke="#2a2a3a" stroke-width="1.5" stroke-linejoin="round"/>
<path d="M 167.67 155.50 A 55 55 0 0 1 200.00 145.00 L 200.00 180.00 A 20 20 0 0 0 188.24 183.82 Z" fill="#FAFAF5" stroke="#2a2a3a" stroke-width="1.5" stroke-linejoin="round"/>
<path d="M 200.00 105.00 A 95 95 0 0 1 255.84 123.14 L 232.33 155.50 A 55 55 0 0 0 200.00 145.00 Z" fill="#FAFAF5" stroke="#2a2a3a" stroke-width="1.5" stroke-linejoin="round"/>
<path d="M 255.84 123.14 A 95 95 0 0 1 290.35 170.64 L 252.31 183.00 A 55 55 0 0 0 232.33 155.50 Z" fill="#FAFAF5" stroke="#2a2a3a" stroke-width="1.5" stroke-linejoin="round"/>
<path d="M 290.35 170.64 A 95 95 0 0 1 290.35 229.36 L 252.31 217.00 A 55 55 0 0 0 252.31 183.00 Z" fill="#FAFAF5" stroke="#2a2a3a" stroke-width="1.5" stroke-linejoin="round"/>
<path d="M 290.35 229.36 A 95 95 0 0 1 255.84 276.86 L 232.33 244.50 A 55 55 0 0 0 252.31 217.00 Z" fill="#FAFAF5" stroke="#2a2a3a" stroke-width="1.5" stroke-linejoin="round"/>
<path d="M 255.84 276.86 A 95 95 0 0 1 200.00 295.00 L 200.00 255.00 A 55 55 0 0 0 232.33 244.50 Z" fill="#FAFAF5" stroke="#2a2a3a" stroke-width="1.5" stroke-linejoin="round"/>
<path d="M 200.00 295.00 A 95 95 0 0 1 144.16 276.86 L 167.67 244.50 A 55 55 0 0 0 200.00 255.00 Z" fill="#FAFAF5" stroke="#2a2a3a" stroke-width="1.5" stroke-linejoin="round"/>
<path d="M 144.16 276.86 A 95 95 0 0 1 109.65 229.36 L 147.69 217.00 A 55 55 0 0 0 167.67 244.50 Z" fill="#FAFAF5" stroke="#2a2a3a" stroke-width="1.5" stroke-linejoin="round"/>
<path d="M 109.65 229.36 A 95 95 0 0 1 109.65 170.64 L 147.69 183.00 A 55 55 0 0 0 147.69 217.00 Z" fill="#FAFAF5" stroke="#2a2a3a" stroke-width="1.5" stroke-linejoin="round"/>
<path d="M 109.65 170.64 A 95 95 0 0 1 144.16 123.14 L 167.67 155.50 A 55 55 0 0 0 147.69 183.00 Z" fill="#FAFAF5" stroke="#2a2a3a" stroke-width="1.5" stroke-linejoin="round"/>
<path d="M 144.16 123.14 A 95 95 0 0 1 200.00 105.00 L 200.00 145.00 A 55 55 0 0 0 167.67 155.50 Z" fill="#FAFAF5" stroke="#2a2a3a" stroke-width="1.5" stroke-linejoin="round"/>
<path d="M 200.00 65.00 A 135 135 0 0 1 241.72 71.61 L 229.36 109.65 A 95 95 0 0 0 200.00 105.00 Z" fill="#FAFAF5" stroke="#2a2a3a" stroke-width="1.5" stroke-linejoin="round"/>
<path d="M 241.72 71.61 A 135 135 0 0 1 279.35 90.78 L 255.84 123.14 A 95 95 0 0 0 229.36 109.65 Z" fill="#FAFAF5" stroke="#2a2a3a" stroke-width="1.5" stroke-linejoin="round"/>
<path d="M 279.35 90.78 A 135 135 0 0 1 309.22 120.65 L 276.86 144.16 A 95 95 0 0 0 255.84 123.14 Z" fill="#FAFAF5" stroke="#2a2a3a" stroke-width="1.5" stroke-linejoin="round"/>
<path d="M 309.22 120.65 A 135 135 0 0 1 328.39 158.28 L 290.35 170.64 A 95 95 0 0 0 276.86 144.16 Z" fill="#FAFAF5" stroke="#2a2a3a" stroke-width="1.5" stroke-linejoin="round"/>
<path d="M 328.39 158.28 A 135 135 0 0 1 335.00 200.00 L 295.00 200.00 A 95 95 0 0 0 290.35 170.64 Z" fill="#FAFAF5" stroke="#2a2a3a" stroke-width="1.5" stroke-linejoin="round"/>
<path d="M 335.00 200.00 A 135 135 0 0 1 328.39 241.72 L 290.35 229.36 A 95 95 0 0 0 295.00 200.00 Z" fill="#FAFAF5" stroke="#2a2a3a" stroke-width="1.5" stroke-linejoin="round"/>
<path d="M 328.39 241.72 A 135 135 0 0 1 309.22 279.35 L 276.86 255.84 A 95 95 0 0 0 290.35 229.36 Z" fill="#FAFAF5" stroke="#2a2a3a" stroke-width="1.5" stroke-linejoin="round"/>
<path d="M 309.22 279.35 A 135 135 0 0 1 279.35 309.22 L 255.84 276.86 A 95 95 0 0 0 276.86 255.84 Z" fill="#FAFAF5" stroke="#2a2a3a" stroke-width="1.5" stroke-linejoin="round"/>
<path d="M 279.35 309.22 A 135 135 0 0 1 241.72 328.39 L 229.36 290.35 A 95 95 0 0 0 255.84 276.86 Z" fill="#FAFAF5" stroke="#2a2a3a" stroke-width="1.5" stroke-linejoin="round"/>
<path d="M 241.72 328.39 A 135 135 0 0 1 200.00 335.00 L 200.00 295.00 A 95 95 0 0 0 229.36 290.35 Z" fill="#FAFAF5" stroke="#2a2a3a" stroke-width="1.5" stroke-linejoin="round"/>
<path d="M 200.00 335.00 A 135 135 0 0 1 158.28 328.39 L 170.64 290.35 A 95 95 0 0 0 200.00 295.00 Z" fill="#FAFAF5" stroke="#2a2a3a" stroke-width="1.5" stroke-linejoin="round"/>
<path d="M 158.28 328.39 A 135 135 0 0 1 120.65 309.22 L 144.16 276.86 A 95 95 0 0 0 170.64 290.35 Z" fill="#FAFAF5" stroke="#2a2a3a" stroke-width="1.5" stroke-linejoin="round"/>
<path d="M 120.65 309.22 A 135 135 0 0 1 90.78 279.35 L 123.14 255.84 A 95 95 0 0 0 144.16 276.86 Z" fill="#FAFAF5" stroke="#2a2a3a" stroke-width="1.5" stroke-linejoin="round"/>
<path d="M 90.78 279.35 A 135 135 0 0 1 71.61 241.72 L 109.65 229.36 A 95 95 0 0 0 123.14 255.84 Z" fill="#FAFAF5" stroke="#2a2a3a" stroke-width="1.5" stroke-linejoin="round"/>
<path d="M 71.61 241.72 A 135 135 0 0 1 65.00 200.00 L 105.00 200.00 A 95 95 0 0 0 109.65 229.36 Z" fill="#FAFAF5" stroke="#2a2a3a" stroke-width="1.5" stroke-linejoin="round"/>
<path d="M 65.00 200.00 A 135 135 0 0 1 71.61 158.28 L 109.65 170.64 A 95 95 0 0 0 105.00 200.00 Z" fill="#FAFAF5" stroke="#2a2a3a" stroke-width="1.5" stroke-linejoin="round"/>
<path d="M 71.61 158.28 A 135 135 0 0 1 90.78 120.65 L 123.14 144.16 A 95 95 0 0 0 109.65 170.64 Z" fill="#FAFAF5" stroke="#2a2a3a" stroke-width="1.5" stroke-linejoin="round"/>
<path d="M 90.78 120.65 A 135 135 0 0 1 120.65 90.78 L 144.16 123.14 A 95 95 0 0 0 123.14 144.16 Z" fill="#FAFAF5" stroke="#2a2a3a" stroke-width="1.5" stroke-linejoin="round"/>
<path d="M 120.65 90.78 A 135 135 0 0 1 158.28 71.61 L 170.64 109.65 A 95 95 0 0 0 144.16 123.14 Z" fill="#FAFAF5" stroke="#2a2a3a" stroke-width="1.5" stroke-linejoin="round"/>
<path d="M 158.28 71.61 A 135 135 0 0 1 200.00 65.00 L 200.00 105.00 A 95 95 0 0 0 170.64 109.65 Z" fill="#FAFAF5" stroke="#2a2a3a" stroke-width="1.5" stroke-linejoin="round"/>
<path d="M 200.00 30.00 A 170 170 0 0 1 299.92 62.47 L 279.35 90.78 A 135 135 0 0 0 200.00 65.00 Z" fill="#FAFAF5" stroke="#2a2a3a" stroke-width="1.5" stroke-linejoin="round"/>
<path d="M 299.92 62.47 A 170 170 0 0 1 361.68 147.47 L 328.39 158.28 A 135 135 0 0 0 279.35 90.78 Z" fill="#FAFAF5" stroke="#2a2a3a" stroke-width="1.5" stroke-linejoin="round"/>
<path d="M 361.68 147.47 A 170 170 0 0 1 361.68 252.53 L 328.39 241.72 A 135 135 0 0 0 328.39 158.28 Z" fill="#FAFAF5" stroke="#2a2a3a" stroke-width="1.5" stroke-linejoin="round"/>
<path d="M 361.68 252.53 A 170 170 0 0 1 299.92 337.53 L 279.35 309.22 A 135 135 0 0 0 328.39 241.72 Z" fill="#FAFAF5" stroke="#2a2a3a" stroke-width="1.5" stroke-linejoin="round"/>
<path d="M 299.92 337.53 A 170 170 0 0 1 200.00 370.00 L 200.00 335.00 A 135 135 0 0 0 279.35 309.22 Z" fill="#FAFAF5" stroke="#2a2a3a" stroke-width="1.5" stroke-linejoin="round"/>
<path d="M 200.00 370.00 A 170 170 0 0 1 100.08 337.53 L 120.65 309.22 A 135 135 0 0 0 200.00 335.00 Z" fill="#FAFAF5" stroke="#2a2a3a" stroke-width="1.5" stroke-linejoin="round"/>
<path d="M 100.08 337.53 A 170 170 0 0 1 38.32 252.53 L 71.61 241.72 A 135 135 0 0 0 120.65 309.22 Z" fill="#FAFAF5" stroke="#2a2a3a" stroke-width="1.5" stroke-linejoin="round"/>
<path d="M 38.32 252.53 A 170 170 0 0 1 38.32 147.47 L 71.61 158.28 A 135 135 0 0 0 71.61 241.72 Z" fill="#FAFAF5" stroke="#2a2a3a" stroke-width="1.5" stroke-linejoin="round"/>
<path d="M 38.32 147.47 A 170 170 0 0 1 100.08 62.47 L 120.65 90.78 A 135 135 0 0 0 71.61 158.28 Z" fill="#FAFAF5" stroke="#2a2a3a" stroke-width="1.5" stroke-linejoin="round"/>
<path d="M 100.08 62.47 A 170 170 0 0 1 200.00 30.00 L 200.00 65.00 A 135 135 0 0 0 120.65 90.78 Z" fill="#FAFAF5" stroke="#2a2a3a" stroke-width="1.5" stroke-linejoin="round"/>
<path d="M 200.00 8.00 A 192 192 0 0 1 259.33 17.40 L 252.53 38.32 A 170 170 0 0 0 200.00 30.00 Z" fill="#FAFAF5" stroke="#2a2a3a" stroke-width="1.5" stroke-linejoin="round"/>
<path d="M 259.33 17.40 A 192 192 0 0 1 312.85 44.67 L 299.92 62.47 A 170 170 0 0 0 252.53 38.32 Z" fill="#FAFAF5" stroke="#2a2a3a" stroke-width="1.5" stroke-linejoin="round"/>
<path d="M 312.85 44.67 A 192 192 0 0 1 355.33 87.15 L 337.53 100.08 A 170 170 0 0 0 299.92 62.47 Z" fill="#FAFAF5" stroke="#2a2a3a" stroke-width="1.5" stroke-linejoin="round"/>
<path d="M 355.33 87.15 A 192 192 0 0 1 382.60 140.67 L 361.68 147.47 A 170 170 0 0 0 337.53 100.08 Z" fill="#FAFAF5" stroke="#2a2a3a" stroke-width="1.5" stroke-linejoin="round"/>
<path d="M 382.60 140.67 A 192 192 0 0 1 392.00 200.00 L 370.00 200.00 A 170 170 0 0 0 361.68 147.47 Z" fill="#FAFAF5" stroke="#2a2a3a" stroke-width="1.5" stroke-linejoin="round"/>
<path d="M 392.00 200.00 A 192 192 0 0 1 382.60 259.33 L 361.68 252.53 A 170 170 0 0 0 370.00 200.00 Z" fill="#FAFAF5" stroke="#2a2a3a" stroke-width="1.5" stroke-linejoin="round"/>
<path d="M 382.60 259.33 A 192 192 0 0 1 355.33 312.85 L 337.53 299.92 A 170 170 0 0 0 361.68 252.53 Z" fill="#FAFAF5" stroke="#2a2a3a" stroke-width="1.5" stroke-linejoin="round"/>
<path d="M 355.33 312.85 A 192 192 0 0 1 312.85 355.33 L 299.92 337.53 A 170 170 0 0 0 337.53 299.92 Z" fill="#FAFAF5" stroke="#2a2a3a" stroke-width="1.5" stroke-linejoin="round"/>
<path d="M 312.85 355.33 A 192 192 0 0 1 259.33 382.60 L 252.53 361.68 A 170 170 0 0 0 299.92 337.53 Z" fill="#FAFAF5" stroke="#2a2a3a" stroke-width="1.5" stroke-linejoin="round"/>
<path d="M 259.33 382.60 A 192 192 0 0 1 200.00 392.00 L 200.00 370.00 A 170 170 0 0 0 252.53 361.68 Z" fill="#FAFAF5" stroke="#2a2a3a" stroke-width="1.5" stroke-linejoin="round"/>
<path d="M 200.00 392.00 A 192 192 0 0 1 140.67 382.60 L 147.47 361.68 A 170 170 0 0 0 200.00 370.00 Z" fill="#FAFAF5" stroke="#2a2a3a" stroke-width="1.5" stroke-linejoin="round"/>
<path d="M 140.67 382.60 A 192 192 0 0 1 87.15 355.33 L 100.08 337.53 A 170 170 0 0 0 147.47 361.68 Z" fill="#FAFAF5" stroke="#2a2a3a" stroke-width="1.5" stroke-linejoin="round"/>
<path d="M 87.15 355.33 A 192 192 0 0 1 44.67 312.85 L 62.47 299.92 A 170 170 0 0 0 100.08 337.53 Z" fill="#FAFAF5" stroke="#2a2a3a" stroke-width="1.5" stroke-linejoin="round"/>
<path d="M 44.67 312.85 A 192 192 0 0 1 17.40 259.33 L 38.32 252.53 A 170 170 0 0 0 62.47 299.92 Z" fill="#FAFAF5" stroke="#2a2a3a" stroke-width="1.5" stroke-linejoin="round"/>
<path d="M 17.40 259.33 A 192 192 0 0 1 8.00 200.00 L 30.00 200.00 A 170 170 0 0 0 38.32 252.53 Z" fill="#FAFAF5" stroke="#2a2a3a" stroke-width="1.5" stroke-linejoin="round"/>
<path d="M 8.00 200.00 A 192 192 0 0 1 17.40 140.67 L 38.32 147.47 A 170 170 0 0 0 30.00 200.00 Z" fill="#FAFAF5" stroke="#2a2a3a" stroke-width="1.5" stroke-linejoin="round"/>
<path d="M 17.40 140.67 A 192 192 0 0 1 44.67 87.15 L 62.47 100.08 A 170 170 0 0 0 38.32 147.47 Z" fill="#FAFAF5" stroke="#2a2a3a" stroke-width="1.5" stroke-linejoin="round"/>
<path d="M 44.67 87.15 A 192 192 0 0 1 87.15 44.67 L 100.08 62.47 A 170 170 0 0 0 62.47 100.08 Z" fill="#FAFAF5" stroke="#2a2a3a" stroke-width="1.5" stroke-linejoin="round"/>
<path d="M 87.15 44.67 A 192 192 0 0 1 140.67 17.40 L 147.47 38.32 A 170 170 0 0 0 100.08 62.47 Z" fill="#FAFAF5" stroke="#2a2a3a" stroke-width="1.5" stroke-linejoin="round"/>
<path d="M 140.67 17.40 A 192 192 0 0 1 200.00 8.00 L 200.00 30.00 A 170 170 0 0 0 147.47 38.32 Z" fill="#FAFAF5" stroke="#2a2a3a" stroke-width="1.5" stroke-linejoin="round"/>
</svg>