<?xml version="1.0" encoding="UTF-8"?>
<svg xmlns="http://www.w3.org/2000/svg" viewBox="0 0 400 400" width="400" height="400">
<rect width="400" height="400" fill="#FAFAF5"/>
<ellipse cx="265.0" cy="200.0" rx="22" ry="48" transform="rotate(0.0 265.0 200.0)" fill="#FAFAF5" stroke="#2a2a3a" stroke-width="1.2"/>
<ellipse cx="256.3" cy="232.5" rx="22" ry="48" transform="rotate(30.0 256.3 232.5)" fill="#FAFAF5" stroke="#2a2a3a" stroke-width="1.2"/>
<ellipse cx="232.5" cy="256.3" rx="22" ry="48" transform="rotate(60.0 232.5 256.3)" fill="#FAFAF5" stroke="#2a2a3a" stroke-width="1.2"/>
<ellipse cx="200.0" cy="265.0" rx="22" ry="48" transform="rotate(90.0 200.0 265.0)" fill="#FAFAF5" stroke="#2a2a3a" stroke-width="1.2"/>
<ellipse cx="167.5" cy="256.3" rx="22" ry="48" transform="rotate(120.0 167.5 256.3)" fill="#FAFAF5" stroke="#2a2a3a" stroke-width="1.2"/>
<ellipse cx="143.7" cy="232.5" rx="22" ry="48" transform="rotate(150.0 143.7 232.5)" fill="#FAFAF5" stroke="#2a2a3a" stroke-width="1.2"/>
<ellipse cx="135.0" cy="200.0" rx="22" ry="48" transform="rotate(180.0 135.0 200.0)" fill="#FAFAF5" stroke="#2a2a3a" stroke-width="1.2"/>
<ellipse cx="143.7" cy="167.5" rx="22" ry="48" transform="rotate(210.0 143.7 167.5)" fill="#FAFAF5" stroke="#2a2a3a" stroke-width="1.2"/>
<ellipse cx="167.5" cy="143.7" rx="22" ry="48" transform="rotate(240.0 167.5 143.7)" fill="#FAFAF5" stroke="#2a2a3a" stroke-width="1.2"/>
<ellipse cx="200.0" cy="135.0" rx="22" ry="48" transform="rotate(270.0 200.0 135.0)" fill="#FAFAF5" stroke="#2a2a3a" stroke-width="1.2"/>
<ellipse cx="232.5" cy="143.7" rx="22" ry="48" transform="rotate(300.0 232.5 143.7)" fill="#FAFAF5" stroke="#2a2a3a" stroke-width="1.2"/>
<ellipse cx="256.3" cy="167.5" rx="22" ry="48" transform="rotate(330.0 256.3 167.5)" fill="#FAFAF5" stroke="#2a2a3a" stroke-width="1.2"/>
<circle cx="200" cy="200" r="24" fill="#FAFAF5" stroke="#2a2a3a" stroke-width="1.5"/>
</svg>