<?xml version="1.0" encoding="UTF-8"?>
<svg xmlns="http://www.w3.org/2000/svg" viewBox="0 0 400 400" width="400" height="400">
<rect width="400" height="400" fill="#FAFAF5"/>
<ellipse cx="260.0" cy="200.0" rx="18" ry="42" transform="rotate(0.0 260.0 200.0)" fill="#FAFAF5" stroke="#2a2a3a" stroke-width="1.2"/>
<ellipse cx="255.4" cy="223.0" rx="18" ry="42" transform="rotate(22.5 255.4 223.0)" fill="#FAFAF5" stroke="#2a2a3a" stroke-width="1.2"/>
<ellipse cx="242.4" cy="242.4" rx="18" ry="42" transform="rotate(45.0 242.4 242.4)" fill="#FAFAF5" stroke="#2a2a3a" stroke-width="1.2"/>
<ellipse cx="223.0" cy="255.4" rx="18" ry="42" transform="rotate(67.5 223.0 255.4)" fill="#FAFAF5" stroke="#2a2a3a" stroke-width="1.2"/>
<ellipse cx="200.0" cy="260.0" rx="18" ry="42" transform="rotate(90.0 200.0 260.0)" fill="#FAFAF5" stroke="#2a2a3a" stroke-width="1.2"/>
<ellipse cx="177.0" cy="255.4" rx="18" ry="42" transform="rotate(112.5 177.0 255.4)" fill="#FAFAF5" stroke="#2a2a3a" stroke-width="1.2"/>
<ellipse cx="157.6" cy="242.4" rx="18" ry="42" transform="rotate(135.0 157.6 242.4)" fill="#FAFAF5" stroke="#2a2a3a" stroke-width="1.2"/>
<ellipse cx="144.6" cy="223.0" rx="18" ry="42" transform="rotate(157.5 144.6 223.0)" fill="#FAFAF5" stroke="#2a2a3a" stroke-width="1.2"/>
<ellipse cx="140.0" cy="200.0" rx="18" ry="42" transform="rotate(180.0 140.0 200.0)" fill="#FAFAF5" stroke="#2a2a3a" stroke-width="1.2"/>
<ellipse cx="144.6" cy="177.0" rx="18" ry="42" transform="rotate(202.5 144.6 177.0)" fill="#FAFAF5" stroke="#2a2a3a" stroke-width="1.2"/>
<ellipse cx="157.6" cy="157.6" rx="18" ry="42" transform="rotate(225.0 157.6 157.6)" fill="#FAFAF5" stroke="#2a2a3a" stroke-width="1.2"/>
<ellipse cx="177.0" cy="144.6" rx="18" ry="42" transform="rotate(247.5 177.0 144.6)" fill="#FAFAF5" stroke="#2a2a3a" stroke-width="1.2"/>
<ellipse cx="200.0" cy="140.0" rx="18" ry="42" transform="rotate(270.0 200.0 140.0)" fill="#FAFAF5" stroke="#2a2a3a" stroke-width="1.2"/>
<ellipse cx="223.0" cy="144.6" rx="18" ry="42" transform="rotate(292.5 223.0 144.6)" fill="#FAFAF5" stroke="#2a2a3a" stroke-width="1.2"/>
<ellipse cx="242.4" cy="157.6" rx="18" ry="42" transform="rotate(315.0 242.4 157.6)" fill="#FAFAF5" stroke="#2a2a3a" stroke-width="1.2"/>
<ellipse cx="255.4" cy="177.0" rx="18" ry="42" transform="rotate(337.5 255.4 177.0)" fill="#FAFAF5" stroke="#2a2a3a" stroke-width="1.2"/>
<ellipse cx="241.2" cy="208.2" rx="12" ry="29" transform="rotate(11.2 241.2 208.2)" fill="#FAFAF5" stroke="#2a2a3a" stroke-width="1.2"/>
<ellipse cx="234.9" cy="223.3" rx="12" ry="29" transform="rotate(33.8 234.9 223.3)" fill="#FAFAF5" stroke="#2a2a3a" stroke-width="1.2"/>
<ellipse cx="223.3" cy="234.9" rx="12" ry="29" transform="rotate(56.2 223.3 234.9)" fill="#FAFAF5" stroke="#2a2a3a" stroke-width="1.2"/>
<ellipse cx="208.2" cy="241.2" rx="12" ry="29" transform="rotate(78.8 208.2 241.2)" fill="#FAFAF5" stroke="#2a2a3a" stroke-width="1.2"/>
<ellipse cx="191.8" cy="241.2" rx="12" ry="29" transform="rotate(101.2 191.8 241.2)" fill="#FAFAF5" stroke="#2a2a3a" stroke-width="1.2"/>
<ellipse cx="176.7" cy="234.9" rx="12" ry="29" transform="rotate(123.7 176.7 234.9)" fill="#FAFAF5" stroke="#2a2a3a" stroke-width="1.2"/>
<ellipse cx="165.1" cy="223.3" rx="12" ry="29" transform="rotate(146.2 165.1 223.3)" fill="#FAFAF5" stroke="#2a2a3a" stroke-width="1.2"/>
<ellipse cx="158.8" cy="208.2" rx="12" ry="29" transform="rotate(168.8 158.8 208.2)" fill="#FAFAF5" stroke="#2a2a3a" stroke-width="1.2"/>
<ellipse cx="158.8" cy="191.8" rx="12" ry="29" transform="rotate(191.2 158.8 191.8)" fill="#FAFAF5" stroke="#2a2a3a" stroke-width="1.2"/>
<ellipse cx="165.1" cy="176.7" rx="12" ry="29" transform="rotate(213.8 165.1 176.7)" fill="#FAFAF5" stroke="#2a2a3a" stroke-width="1.2"/>
<ellipse cx="176.7" cy="165.1" rx="12" ry="29" transform="rotate(236.2 176.7 165.1)" fill="#FAFAF5" stroke="#2a2a3a" stroke-width="1.2"/>
<ellipse cx="191.8" cy="158.8" rx="12" ry="29" transform="rotate(258.8 191.8 158.8)" fill="#FAFAF5" stroke="#2a2a3a" stroke-width="1.2"/>
<ellipse cx="208.2" cy="158.8" rx="12" ry="29" transform="rotate(281.2 208.2 158.8)" fill="#FAFAF5" stroke="#2a2a3a" stroke-width="1.2"/>
<ellipse cx="223.3" cy="165.1" rx="12" ry="29" transform="rotate(303.8 223.3 165.1)" fill="#FAFAF5" stroke="#2a2a3a" stroke-width="1.2"/>
<ellipse cx="234.9" cy="176.7" rx="12" ry="29" transform="rotate(326.2 234.9 176.7)" fill="#FAFAF5" stroke="#2a2a3a" stroke-width="1.2"/>
<ellipse cx="241.2" cy="191.8" rx="12" ry="29" transform="rotate(348.8 241.2 191.8)" fill="#FAFAF5" stroke="#2a2a3a" stroke-width="1.2"/>
<circle cx="200" cy="200" r="20" fill="#FAFAF5" stroke="#2a2a3a" stroke-width="1.5"/>
</svg>