<?xml version="1.0" encoding="UTF-8"?>
<svg xmlns="http://www.w3.org/2000/svg" viewBox="0 0 400 400" width="400" height="400">
<rect width="400" height="400" fill="#FAFAF5"/>
<ellipse cx="256.0" cy="200.0" rx="16" ry="38" transform="rotate(0.0 256.0 200.0)" fill="#FAFAF5" stroke="#2a2a3a" stroke-width="1.2"/>
<ellipse cx="252.6" cy="219.2" rx="16" ry="38" transform="rotate(20.0 252.6 219.2)" fill="#FAFAF5" stroke="#2a2a3a" stroke-width="1.2"/>
<ellipse cx="242.9" cy="236.0" rx="16" ry="38" transform="rotate(40.0 242.9 236.0)" fill="#FAFAF5" stroke="#2a2a3a" stroke-width="1.2"/>
<ellipse cx="228.0" cy="248.5" rx="16" ry="38" transform="rotate(60.0 228.0 248.5)" fill="#FAFAF5" stroke="#2a2a3a" stroke-width="1.2"/>
<ellipse cx="209.7" cy="255.1" rx="16" ry="38" transform="rotate(80.0 209.7 255.1)" fill="#FAFAF5" stroke="#2a2a3a" stroke-width="1.2"/>
<ellipse cx="190.3" cy="255.1" rx="16" ry="38" transform="rotate(100.0 190.3 255.1)" fill="#FAFAF5" stroke="#2a2a3a" stroke-width="1.2"/>
<ellipse cx="172.0" cy="248.5" rx="16" ry="38" transform="rotate(120.0 172.0 248.5)" fill="#FAFAF5" stroke="#2a2a3a" stroke-width="1.2"/>
<ellipse cx="157.1" cy="236.0" rx="16" ry="38" transform="rotate(140.0 157.1 236.0)" fill="#FAFAF5" stroke="#2a2a3a" stroke-width="1.2"/>
<ellipse cx="147.4" cy="219.2" rx="16" ry="38" transform="rotate(160.0 147.4 219.2)" fill="#FAFAF5" stroke="#2a2a3a" stroke-width="1.2"/>
<ellipse cx="144.0" cy="200.0" rx="16" ry="38" transform="rotate(180.0 144.0 200.0)" fill="#FAFAF5" stroke="#2a2a3a" stroke-width="1.2"/>
<ellipse cx="147.4" cy="180.8" rx="16" ry="38" transform="rotate(200.0 147.4 180.8)" fill="#FAFAF5" stroke="#2a2a3a" stroke-width="1.2"/>
<ellipse cx="157.1" cy="164.0" rx="16" ry="38" transform="rotate(220.0 157.1 164.0)" fill="#FAFAF5" stroke="#2a2a3a" stroke-width="1.2"/>
<ellipse cx="172.0" cy="151.5" rx="16" ry="38" transform="rotate(240.0 172.0 151.5)" fill="#FAFAF5" stroke="#2a2a3a" stroke-width="1.2"/>
<ellipse cx="190.3" cy="144.9" rx="16" ry="38" transform="rotate(260.0 190.3 144.9)" fill="#FAFAF5" stroke="#2a2a3a" stroke-width="1.2"/>
<ellipse cx="209.7" cy="144.9" rx="16" ry="38" transform="rotate(280.0 209.7 144.9)" fill="#FAFAF5" stroke="#2a2a3a" stroke-width="1.2"/>
<ellipse cx="228.0" cy="151.5" rx="16" ry="38" transform="rotate(300.0 228.0 151.5)" fill="#FAFAF5" stroke="#2a2a3a" stroke-width="1.2"/>
<ellipse cx="242.9" cy="164.0" rx="16" ry="38" transform="rotate(320.0 242.9 164.0)" fill="#FAFAF5" stroke="#2a2a3a" stroke-width="1.2"/>
<ellipse cx="252.6" cy="180.8" rx="16" ry="38" transform="rotate(340.0 252.6 180.8)" fill="#FAFAF5" stroke="#2a2a3a" stroke-width="1.2"/>
<ellipse cx="238.6" cy="206.8" rx="11" ry="26" transform="rotate(10.0 238.6 206.8)" fill="#FAFAF5" stroke="#2a2a3a" stroke-width="1.2"/>
<ellipse cx="233.9" cy="219.6" rx="11" ry="26" transform="rotate(30.0 233.9 219.6)" fill="#FAFAF5" stroke="#2a2a3a" stroke-width="1.2"/>
<ellipse cx="225.2" cy="230.0" rx="11" ry="26" transform="rotate(50.0 225.2 230.0)" fill="#FAFAF5" stroke="#2a2a3a" stroke-width="1.2"/>
<ellipse cx="213.4" cy="236.8" rx="11" ry="26" transform="rotate(70.0 213.4 236.8)" fill="#FAFAF5" stroke="#2a2a3a" stroke-width="1.2"/>
<ellipse cx="200.0" cy="239.2" rx="11" ry="26" transform="rotate(90.0 200.0 239.2)" fill="#FAFAF5" stroke="#2a2a3a" stroke-width="1.2"/>
<ellipse cx="186.6" cy="236.8" rx="11" ry="26" transform="rotate(110.0 186.6 236.8)" fill="#FAFAF5" stroke="#2a2a3a" stroke-width="1.2"/>
<ellipse cx="174.8" cy="230.0" rx="11" ry="26" transform="rotate(130.0 174.8 230.0)" fill="#FAFAF5" stroke="#2a2a3a" stroke-width="1.2"/>
<ellipse cx="166.1" cy="219.6" rx="11" ry="26" transform="rotate(150.0 166.1 219.6)" fill="#FAFAF5" stroke="#2a2a3a" stroke-width="1.2"/>
<ellipse cx="161.4" cy="206.8" rx="11" ry="26" transform="rotate(170.0 161.4 206.8)" fill="#FAFAF5" stroke="#2a2a3a" stroke-width="1.2"/>
<ellipse cx="161.4" cy="193.2" rx="11" ry="26" transform="rotate(190.0 161.4 193.2)" fill="#FAFAF5" stroke="#2a2a3a" stroke-width="1.2"/>
<ellipse cx="166.1" cy="180.4" rx="11" ry="26" transform="rotate(210.0 166.1 180.4)" fill="#FAFAF5" stroke="#2a2a3a" stroke-width="1.2"/>
<ellipse cx="174.8" cy="170.0" rx="11" ry="26" transform="rotate(230.0 174.8 170.0)" fill="#FAFAF5" stroke="#2a2a3a" stroke-width="1.2"/>
<ellipse cx="186.6" cy="163.2" rx="11" ry="26" transform="rotate(250.0 186.6 163.2)" fill="#FAFAF5" stroke="#2a2a3a" stroke-width="1.2"/>
<ellipse cx="200.0" cy="160.8" rx="11" ry="26" transform="rotate(270.0 200.0 160.8)" fill="#FAFAF5" stroke="#2a2a3a" stroke-width="1.2"/>
<ellipse cx="213.4" cy="163.2" rx="11" ry="26" transform="rotate(290.0 213.4 163.2)" fill="#FAFAF5" stroke="#2a2a3a" stroke-width="1.2"/>
<ellipse cx="225.2" cy="170.0" rx="11" ry="26" transform="rotate(310.0 225.2 170.0)" fill="#FAFAF5" stroke="#2a2a3a" stroke-width="1.2"/>
<ellipse cx="233.9" cy="180.4" rx="11" ry="26" transform="rotate(330.0 233.9 180.4)" fill="#FAFAF5" stroke="#2a2a3a" stroke-width="1.2"/>
<ellipse cx="238.6" cy="193.2" rx="11" ry="26" transform="rotate(350.0 238.6 193.2)" fill="#FAFAF5" stroke="#2a2a3a" stroke-width="1.2"/>
<ellipse cx="221.0" cy="207.7" rx="6" ry="15" transform="rotate(20.0 221.0 207.7)" fill="#FAFAF5" stroke="#2a2a3a" stroke-width="1.2"/>
<ellipse cx="217.2" cy="214.4" rx="6" ry="15" transform="rotate(40.0 217.2 214.4)" fill="#FAFAF5" stroke="#2a2a3a" stroke-width="1.2"/>
<ellipse cx="211.2" cy="219.4" rx="6" ry="15" transform="rotate(60.0 211.2 219.4)" fill="#FAFAF5" stroke="#2a2a3a" stroke-width="1.2"/>
<ellipse cx="203.9" cy="222.1" rx="6" ry="15" transform="rotate(80.0 203.9 222.1)" fill="#FAFAF5" stroke="#2a2a3a" stroke-width="1.2"/>
<ellipse cx="196.1" cy="222.1" rx="6" ry="15" transform="rotate(100.0 196.1 222.1)" fill="#FAFAF5" stroke="#2a2a3a" stroke-width="1.2"/>
<ellipse cx="188.8" cy="219.4" rx="6" ry="15" transform="rotate(120.0 188.8 219.4)" fill="#FAFAF5" stroke="#2a2a3a" stroke-width="1.2"/>
<ellipse cx="182.8" cy="214.4" rx="6" ry="15" transform="rotate(140.0 182.8 214.4)" fill="#FAFAF5" stroke="#2a2a3a" stroke-width="1.2"/>
<ellipse cx="179.0" cy="207.7" rx="6" ry="15" transform="rotate(160.0 179.0 207.7)" fill="#FAFAF5" stroke="#2a2a3a" stroke-width="1.2"/>
<ellipse cx="177.6" cy="200.0" rx="6" ry="15" transform="rotate(180.0 177.6 200.0)" fill="#FAFAF5" stroke="#2a2a3a" stroke-width="1.2"/>
<ellipse cx="179.0" cy="192.3" rx="6" ry="15" transform="rotate(200.0 179.0 192.3)" fill="#FAFAF5" stroke="#2a2a3a" stroke-width="1.2"/>
<ellipse cx="182.8" cy="185.6" rx="6" ry="15" transform="rotate(220.0 182.8 185.6)" fill="#FAFAF5" stroke="#2a2a3a" stroke-width="1.2"/>
<ellipse cx="188.8" cy="180.6" rx="6" ry="15" transform="rotate(240.0 188.8 180.6)" fill="#FAFAF5" stroke="#2a2a3a" stroke-width="1.2"/>
<ellipse cx="196.1" cy="177.9" rx="6" ry="15" transform="rotate(260.0 196.1 177.9)" fill="#FAFAF5" stroke="#2a2a3a" stroke-width="1.2"/>
<ellipse cx="203.9" cy="177.9" rx="6" ry="15" transform="rotate(280.0 203.9 177.9)" fill="#FAFAF5" stroke="#2a2a3a" stroke-width="1.2"/>
<ellipse cx="211.2" cy="180.6" rx="6" ry="15" transform="rotate(300.0 211.2 180.6)" fill="#FAFAF5" stroke="#2a2a3a" stroke-width="1.2"/>
<ellipse cx="217.2" cy="185.6" rx="6" ry="15" transform="rotate(320.0 217.2 185.6)" fill="#FAFAF5" stroke="#2a2a3a" stroke-width="1.2"/>
<ellipse cx="221.0" cy="192.3" rx="6" ry="15" transform="rotate(340.0 221.0 192.3)" fill="#FAFAF5" stroke="#2a2a3a" stroke-width="1.2"/>
<ellipse cx="222.4" cy="200.0" rx="6" ry="15" transform="rotate(360.0 222.4 200.0)" fill="#FAFAF5" stroke="#2a2a3a" stroke-width="1.2"/>
<ellipse cx="204.8" cy="202.8" rx="1" ry="3" transform="rotate(30.0 204.8 202.8)" fill="#FAFAF5" stroke="#2a2a3a" stroke-width="1.2"/>
<ellipse cx="203.6" cy="204.3" rx="1" ry="3" transform="rotate(50.0 203.6 204.3)" fill="#FAFAF5" stroke="#2a2a3a" stroke-width="1.2"/>
<ellipse cx="201.9" cy="205.3" rx="1" ry="3" transform="rotate(70.0 201.9 205.3)" fill="#FAFAF5" stroke="#2a2a3a" stroke-width="1.2"/>
<ellipse cx="200.0" cy="205.6" rx="1" ry="3" transform="rotate(90.0 200.0 205.6)" fill="#FAFAF5" stroke="#2a2a3a" stroke-width="1.2"/>
<ellipse cx="198.1" cy="205.3" rx="1" ry="3" transform="rotate(110.0 198.1 205.3)" fill="#FAFAF5" stroke="#2a2a3a" stroke-width="1.2"/>
<ellipse cx="196.4" cy="204.3" rx="1" ry="3" transform="rotate(130.0 196.4 204.3)" fill="#FAFAF5" stroke="#2a2a3a" stroke-width="1.2"/>
<ellipse cx="195.2" cy="202.8" rx="1" ry="3" transform="rotate(150.0 195.2 202.8)" fill="#FAFAF5" stroke="#2a2a3a" stroke-width="1.2"/>
<ellipse cx="194.5" cy="201.0" rx="1" ry="3" transform="rotate(170.0 194.5 201.0)" fill="#FAFAF5" stroke="#2a2a3a" stroke-width="1.2"/>
<ellipse cx="194.5" cy="199.0" rx="1" ry="3" transform="rotate(190.0 194.5 199.0)" fill="#FAFAF5" stroke="#2a2a3a" stroke-width="1.2"/>
<ellipse cx="195.2" cy="197.2" rx="1" ry="3" transform="rotate(210.0 195.2 197.2)" fill="#FAFAF5" stroke="#2a2a3a" stroke-width="1.2"/>
<ellipse cx="196.4" cy="195.7" rx="1" ry="3" transform="rotate(230.0 196.4 195.7)" fill="#FAFAF5" stroke="#2a2a3a" stroke-width="1.2"/>
<ellipse cx="198.1" cy="194.7" rx="1" ry="3" transform="rotate(250.0 198.1 194.7)" fill="#FAFAF5" stroke="#2a2a3a" stroke-width="1.2"/>
<ellipse cx="200.0" cy="194.4" rx="1" ry="3" transform="rotate(270.0 200.0 194.4)" fill="#FAFAF5" stroke="#2a2a3a" stroke-width="1.2"/>
<ellipse cx="201.9" cy="194.7" rx="1" ry="3" transform="rotate(290.0 201.9 194.7)" fill="#FAFAF5" stroke="#2a2a3a" stroke-width="1.2"/>
<ellipse cx="203.6" cy="195.7" rx="1" ry="3" transform="rotate(310.0 203.6 195.7)" fill="#FAFAF5" stroke="#2a2a3a" stroke-width="1.2"/>
<ellipse cx="204.8" cy="197.2" rx="1" ry="3" transform="rotate(330.0 204.8 197.2)" fill="#FAFAF5" stroke="#2a2a3a" stroke-width="1.2"/>
<ellipse cx="205.5" cy="199.0" rx="1" ry="3" transform="rotate(350.0 205.5 199.0)" fill="#FAFAF5" stroke="#2a2a3a" stroke-width="1.2"/>
<ellipse cx="205.5" cy="201.0" rx="1" ry="3" transform="rotate(370.0 205.5 201.0)" fill="#FAFAF5" stroke="#2a2a3a" stroke-width="1.2"/>
<circle cx="200" cy="200" r="18" fill="#FAFAF5" stroke="#2a2a3a" stroke-width="1.5"/>
</svg>