<?xml version="1.0" encoding="UTF-8"?>
<svg xmlns="http://www.w3.org/2000/svg" viewBox="0 0 400 400" width="400" height="400">
<rect width="400" height="400" fill="#FAFAF5"/>
<ellipse cx="280.0" cy="200.0" rx="35" ry="65" transform="rotate(0.0 280.0 200.0)" fill="#FAFAF5" stroke="#2a2a3a" stroke-width="1.2"/>
<ellipse cx="240.0" cy="269.3" rx="35" ry="65" transform="rotate(60.0 240.0 269.3)" fill="#FAFAF5" stroke="#2a2a3a" stroke-width="1.2"/>
<ellipse cx="160.0" cy="269.3" rx="35" ry="65" transform="rotate(120.0 160.0 269.3)" fill="#FAFAF5" stroke="#2a2a3a" stroke-width="1.2"/>
<ellipse cx="120.0" cy="200.0" rx="35" ry="65" transform="rotate(180.0 120.0 200.0)" fill="#FAFAF5" stroke="#2a2a3a" stroke-width="1.2"/>
<ellipse cx="160.0" cy="130.7" rx="35" ry="65" transform="rotate(240.0 160.0 130.7)" fill="#FAFAF5" stroke="#2a2a3a" stroke-width="1.2"/>
<ellipse cx="240.0" cy="130.7" rx="35" ry="65" transform="rotate(300.0 240.0 130.7)" fill="#FAFAF5" stroke="#2a2a3a" stroke-width="1.2"/>
<ellipse cx="248.5" cy="228.0" rx="24" ry="45" transform="rotate(30.0 248.5 228.0)" fill="#FAFAF5" stroke="#2a2a3a" stroke-width="1.2"/>
<ellipse cx="200.0" cy="256.0" rx="24" ry="45" transform="rotate(90.0 200.0 256.0)" fill="#FAFAF5" stroke="#2a2a3a" stroke-width="1.2"/>
<ellipse cx="151.5" cy="228.0" rx="24" ry="45" transform="rotate(150.0 151.5 228.0)" fill="#FAFAF5" stroke="#2a2a3a" stroke-width="1.2"/>
<ellipse cx="151.5" cy="172.0" rx="24" ry="45" transform="rotate(210.0 151.5 172.0)" fill="#FAFAF5" stroke="#2a2a3a" stroke-width="1.2"/>
<ellipse cx="200.0" cy="144.0" rx="24" ry="45" transform="rotate(270.0 200.0 144.0)" fill="#FAFAF5" stroke="#2a2a3a" stroke-width="1.2"/>
<ellipse cx="248.5" cy="172.0" rx="24" ry="45" transform="rotate(330.0 248.5 172.0)" fill="#FAFAF5" stroke="#2a2a3a" stroke-width="1.2"/>
<circle cx="200" cy="200" r="32" fill="#FAFAF5" stroke="#2a2a3a" stroke-width="1.5"/>
</svg>