<?xml version="1.0" encoding="UTF-8"?>
<svg xmlns="http://www.w3.org/2000/svg" viewBox="0 0 400 400" width="400" height="400">
<rect width="400" height="400" fill="#FAFAF5"/>
<ellipse cx="268.0" cy="200.0" rx="26" ry="50" transform="rotate(0.0 268.0 200.0)" fill="#FAFAF5" stroke="#2a2a3a" stroke-width="1.2"/>
<ellipse cx="252.1" cy="243.7" rx="26" ry="50" transform="rotate(40.0 252.1 243.7)" fill="#FAFAF5" stroke="#2a2a3a" stroke-width="1.2"/>
<ellipse cx="211.8" cy="267.0" rx="26" ry="50" transform="rotate(80.0 211.8 267.0)" fill="#FAFAF5" stroke="#2a2a3a" stroke-width="1.2"/>
<ellipse cx="166.0" cy="258.9" rx="26" ry="50" transform="rotate(120.0 166.0 258.9)" fill="#FAFAF5" stroke="#2a2a3a" stroke-width="1.2"/>
<ellipse cx="136.1" cy="223.3" rx="26" ry="50" transform="rotate(160.0 136.1 223.3)" fill="#FAFAF5" stroke="#2a2a3a" stroke-width="1.2"/>
<ellipse cx="136.1" cy="176.7" rx="26" ry="50" transform="rotate(200.0 136.1 176.7)" fill="#FAFAF5" stroke="#2a2a3a" stroke-width="1.2"/>
<ellipse cx="166.0" cy="141.1" rx="26" ry="50" transform="rotate(240.0 166.0 141.1)" fill="#FAFAF5" stroke="#2a2a3a" stroke-width="1.2"/>
<ellipse cx="211.8" cy="133.0" rx="26" ry="50" transform="rotate(280.0 211.8 133.0)" fill="#FAFAF5" stroke="#2a2a3a" stroke-width="1.2"/>
<ellipse cx="252.1" cy="156.3" rx="26" ry="50" transform="rotate(320.0 252.1 156.3)" fill="#FAFAF5" stroke="#2a2a3a" stroke-width="1.2"/>
<ellipse cx="244.7" cy="216.3" rx="18" ry="35" transform="rotate(20.0 244.7 216.3)" fill="#FAFAF5" stroke="#2a2a3a" stroke-width="1.2"/>
<ellipse cx="223.8" cy="241.2" rx="18" ry="35" transform="rotate(60.0 223.8 241.2)" fill="#FAFAF5" stroke="#2a2a3a" stroke-width="1.2"/>
<ellipse cx="191.7" cy="246.9" rx="18" ry="35" transform="rotate(100.0 191.7 246.9)" fill="#FAFAF5" stroke="#2a2a3a" stroke-width="1.2"/>
<ellipse cx="163.5" cy="230.6" rx="18" ry="35" transform="rotate(140.0 163.5 230.6)" fill="#FAFAF5" stroke="#2a2a3a" stroke-width="1.2"/>
<ellipse cx="152.4" cy="200.0" rx="18" ry="35" transform="rotate(180.0 152.4 200.0)" fill="#FAFAF5" stroke="#2a2a3a" stroke-width="1.2"/>
<ellipse cx="163.5" cy="169.4" rx="18" ry="35" transform="rotate(220.0 163.5 169.4)" fill="#FAFAF5" stroke="#2a2a3a" stroke-width="1.2"/>
<ellipse cx="191.7" cy="153.1" rx="18" ry="35" transform="rotate(260.0 191.7 153.1)" fill="#FAFAF5" stroke="#2a2a3a" stroke-width="1.2"/>
<ellipse cx="223.8" cy="158.8" rx="18" ry="35" transform="rotate(300.0 223.8 158.8)" fill="#FAFAF5" stroke="#2a2a3a" stroke-width="1.2"/>
<ellipse cx="244.7" cy="183.7" rx="18" ry="35" transform="rotate(340.0 244.7 183.7)" fill="#FAFAF5" stroke="#2a2a3a" stroke-width="1.2"/>
<circle cx="200" cy="200" r="24" fill="#FAFAF5" stroke="#2a2a3a" stroke-width="1.5"/>
</svg>